<svg xmlns="http://www.w3.org/2000/svg" xmlns:xlink="http://www.w3.org/1999/xlink" viewBox="0 0 495.11 605.88"><defs><style>.cls-1,.cls-4{fill:none;}.cls-2{fill:#3cf0bb;}.cls-3{clip-path:url(#clip-path);}.cls-4{stroke:#4b81c2;stroke-miterlimit:10;stroke-width:7.2px;}</style><clipPath id="clip-path"><circle class="cls-1" cx="350.12" cy="193.55" r="144.97" transform="translate(-3.22 381.17) rotate(-56.9)"/></clipPath></defs><title>s1_g</title><g id="图层_18" data-name="图层 18"><ellipse id="_椭圆_bg" data-name="&lt;椭圆&gt;bg" class="cls-2" cx="225.78" cy="355.78" rx="222.13" ry="222.03" transform="translate(-195.51 363.86) rotate(-58.7)"/><g class="cls-3"><path class="cls-4" d="M289.86,52s37.16,7.33,8.55,31c-.51.42-1,.82-1.55,1.21-4.4,3.27-29.35,23.33,8.34,31.67,41.1,9.1,7.89,32.88,7.89,32.88S279,174,320.81,180.93s7.47,32.19,7.47,32.19-38.13,25.24,8,33.25,6.08,32,6.08,32-35.5,23,7.89,32.88S357,344.07,357,344.07s-34.93,20,6.9,31.4,10,34.12,10,34.12"/><path class="cls-4" d="M244.72,62.88s37.16,7.33,8.55,31c-.51.42-1,.82-1.55,1.21-4.4,3.27-29.35,23.33,8.34,31.67,41.1,9.1,7.89,32.88,7.89,32.88s-34.06,25.17,7.71,32.13S283.13,224,283.13,224s-38.13,25.24,8,33.25,6.08,32,6.08,32-35.5,23,7.89,32.88,6.79,32.88,6.79,32.88-34.93,20,6.9,31.4,10,34.12,10,34.12"/><path class="cls-4" d="M199.57,73.72s37.16,7.33,8.55,31c-.51.42-1,.82-1.55,1.21-4.4,3.27-29.35,23.33,8.34,31.67,41.1,9.1,7.89,32.88,7.89,32.88s-34.06,25.17,7.71,32.13S238,234.8,238,234.8,199.86,260,246,268,252,300,252,300s-35.5,23,7.89,32.88,6.79,32.88,6.79,32.88-34.93,20,6.9,31.4,10,34.12,10,34.12"/><path class="cls-4" d="M154.43,84.56s37.16,7.33,8.55,31c-.51.42-1,.82-1.55,1.21-4.4,3.27-29.35,23.33,8.34,31.67,41.1,9.1,7.89,32.88,7.89,32.88s-34.06,25.17,7.71,32.13,7.47,32.19,7.47,32.19-38.13,25.24,8,33.25,6.08,32,6.08,32-35.5,23,7.89,32.88,6.79,32.88,6.79,32.88-34.93,20,6.9,31.4,10,34.12,10,34.12"/><path class="cls-4" d="M469.69,7.85s37.16,7.33,8.55,31c-.51.42-1,.82-1.55,1.21-4.4,3.27-29.35,23.33,8.34,31.67,41.1,9.1,7.89,32.88,7.89,32.88s-34.06,25.17,7.71,32.13,7.47,32.19,7.47,32.19-38.13,25.24,8,33.25,6.08,32,6.08,32-35.5,23,7.89,32.88,6.79,32.88,6.79,32.88-34.93,20,6.9,31.4,10,34.12,10,34.12"/><path class="cls-4" d="M424.55,18.69s37.16,7.33,8.55,31c-.51.42-1,.82-1.55,1.21-4.4,3.27-29.35,23.33,8.34,31.67,41.1,9.1,7.89,32.88,7.89,32.88s-34.06,25.17,7.71,32.13S463,179.76,463,179.76,424.83,205,471,213,477,245,477,245s-35.5,23,7.89,32.88,6.79,32.88,6.79,32.88-34.93,20,6.9,31.4,10,34.12,10,34.12"/><path class="cls-4" d="M379.41,29.53s37.16,7.33,8.55,31c-.51.42-1,.82-1.55,1.21C382,65,357.06,85.07,394.75,93.41c41.1,9.1,7.89,32.88,7.89,32.88s-34.06,25.17,7.71,32.13,7.47,32.19,7.47,32.19-38.13,25.24,8,33.25,6.08,32,6.08,32-35.5,23,7.89,32.88,6.79,32.88,6.79,32.88-34.93,20,6.9,31.4,10,34.12,10,34.12"/><path class="cls-4" d="M334.26,40.37s37.16,7.33,8.55,31c-.51.42-1,.82-1.55,1.21-4.4,3.27-29.35,23.33,8.34,31.67,41.1,9.1,7.89,32.88,7.89,32.88s-34.06,25.17,7.71,32.13,7.47,32.19,7.47,32.19-38.13,25.24,8,33.25,6.08,32,6.08,32-35.5,23,7.89,32.88,6.79,32.88,6.79,32.88-34.93,20,6.9,31.4,10,34.12,10,34.12"/></g></g></svg>