<?xml version="1.0" encoding="utf-8"?>
<!-- Generator: Adobe Illustrator 21.1.0, SVG Export Plug-In . SVG Version: 6.00 Build 0)  -->
<svg version="1.1" id="图层_1" xmlns="http://www.w3.org/2000/svg" xmlns:xlink="http://www.w3.org/1999/xlink" x="0px" y="0px"
	 viewBox="0 0 390.9 374" style="enable-background:new 0 0 390.9 374;" xml:space="preserve">
<style type="text/css">
	.st0{clip-path:url(#SVGID_2_);}
	.st1{fill:none;stroke:#418FFF;stroke-width:8;stroke-miterlimit:10;}
	.st2{clip-path:url(#SVGID_4_);}
</style>
<title>big_mark</title>
<g id="图层_1_1_">
	<g>
		<defs>
			
				<ellipse id="SVGID_1_" transform="matrix(0.1661 -0.9861 0.9861 0.1661 -316.111 -206.1353)" cx="-279.9" cy="83.8" rx="161.2" ry="161.2"/>
		</defs>
		<clipPath id="SVGID_2_">
			<use xlink:href="#SVGID_1_"  style="overflow:visible;"/>
		</clipPath>
		<g class="st0">
			<path class="st1" d="M-304.1,331.7c0,0-9-41.1,27.8-22.5c0.6,0.3,1.3,0.7,1.9,1c5.3,3,36.8,19.5,28.6-22.6
				c-9-45.9,30-22.6,30-22.6s40.8,23.5,29.3-22.1S-157,221-157,221s42.7,27.7,30.3-22.9s29.9-20.4,29.9-20.4s39.2,26,30-22.6
				s30.5-21.5,30.5-21.5s35.9,26.7,28.9-21S23,87.3,23,87.3"/>
		</g>
	</g>
</g>
<g id="图层_2">
	<g>
		<defs>
			
				<ellipse id="SVGID_3_" transform="matrix(0.1661 -0.9861 0.9861 0.1661 -21.1351 348.4781)" cx="195.5" cy="186.7" rx="161.2" ry="161.2"/>
		</defs>
		<clipPath id="SVGID_4_">
			<use xlink:href="#SVGID_3_"  style="overflow:visible;"/>
		</clipPath>
		<g class="st2">
			<path class="st1" d="M71.2,69.3c0,0,41.1-9,22.5,27.8c-0.3,0.7-0.7,1.3-1,1.9c-3,5.3-19.5,36.8,22.6,28.6c45.9-9,22.6,30,22.6,30
				s-23.5,40.8,22.1,29.3s21.9,29.5,21.9,29.5s-27.7,42.7,22.9,30.3c50.6-12.3,20.4,29.9,20.4,29.9s-26,39.2,22.6,30
				s21.5,30.5,21.5,30.5s-26.7,35.9,21,28.9s25.3,30.4,25.3,30.4"/>
			<path class="st1" d="M30,100.4c0,0,41.1-9,22.5,27.8c-0.3,0.6-0.7,1.3-1,1.9c-3,5.3-19.5,36.8,22.6,28.6c45.9-9,22.6,30,22.6,30
				s-23.5,40.8,22.1,29.3s21.9,29.5,21.9,29.5s-27.7,42.7,22.9,30.3s20.4,29.9,20.4,29.9s-26,39.2,22.6,30s21.5,30.5,21.5,30.5
				s-26.7,35.9,21,28.9s25.3,30.4,25.3,30.4"/>
			<path class="st1" d="M-11.2,131.5c0,0,41.1-9,22.5,27.8c-0.3,0.6-0.7,1.3-1,1.9c-3,5.3-19.5,36.8,22.6,28.6
				c45.9-9,22.6,30,22.6,30S32,260.5,77.7,249.1c45.7-11.5,21.9,29.5,21.9,29.5s-27.7,42.7,22.9,30.3s20.4,29.9,20.4,29.9
				s-26,39.2,22.6,30s21.5,30.5,21.5,30.5s-26.7,35.9,21,28.9s25.3,30.4,25.3,30.4"/>
			<path class="st1" d="M-52.4,162.5c0,0,41.1-9,22.5,27.8c-0.3,0.6-0.7,1.3-1,1.9c-3,5.3-19.5,36.8,22.6,28.6
				c45.9-9,22.6,30,22.6,30s-23.5,40.8,22.1,29.3s21.9,29.5,21.9,29.5S30.7,352.3,81.2,340s20.4,29.9,20.4,29.9s-26,39.2,22.6,30
				s21.5,30.5,21.5,30.5s-26.7,35.9,21,28.9s25.3,30.4,25.3,30.4"/>
			<path class="st1" d="M234.9-55.6c0,0,41.1-9,22.5,27.8c-0.3,0.6-0.7,1.3-1,1.9c-3,5.3-19.6,36.8,22.6,28.6
				c45.9-9,22.6,30,22.6,30S278,73.5,323.7,62s21.9,29.5,21.9,29.5s-27.7,42.7,22.9,30.3s20.3,29.9,20.3,29.9s-26,39.2,22.6,30
				s21.5,30.5,21.5,30.5s-26.7,35.9,21,28.9s25.3,30.3,25.3,30.3"/>
			<path class="st1" d="M193.7-24.5c0,0,41.1-9,22.5,27.8c-0.3,0.6-0.7,1.3-1,1.9c-3,5.3-19.6,36.8,22.6,28.6
				c45.9-9,22.6,30,22.6,30s-23.5,40.8,22.1,29.3s21.9,29.5,21.9,29.5s-27.7,42.7,22.8,30.3s20.4,29.9,20.4,29.9s-26,39.2,22.6,30
				s21.5,30.5,21.5,30.5s-26.7,36,21,29s25.3,30.3,25.3,30.3"/>
			<path class="st1" d="M152.5,6.6c0,0,41.1-9,22.5,27.8c-0.3,0.7-0.7,1.3-1,1.9c-3,5.3-19.6,36.8,22.6,28.6c45.9-9,22.6,30,22.6,30
				s-23.5,40.8,22.1,29.3s21.9,29.5,21.9,29.5s-27.7,42.7,22.9,30.3s20.4,29.9,20.4,29.9s-26,39.2,22.6,30s21.5,30.5,21.5,30.5
				s-26.7,35.9,21,28.9s25.2,30.4,25.2,30.4"/>
			<path class="st1" d="M111.3,37.7c0,0,41.1-9,22.5,27.8c-0.3,0.7-0.7,1.3-1,1.9c-3,5.3-19.5,36.8,22.6,28.6
				c45.9-9,22.6,30,22.6,30s-23.6,40.8,22.1,29.3s21.9,29.5,21.9,29.5s-27.7,42.7,22.9,30.3s20.3,29.9,20.3,29.9s-26,39.2,22.6,30
				s21.5,30.5,21.5,30.5s-26.7,35.9,21,28.9s25.3,30.3,25.3,30.3"/>
		</g>
	</g>
</g>
</svg>
