<?xml version="1.0" encoding="utf-8"?>
<!-- Generator: Adobe Illustrator 19.0.0, SVG Export Plug-In . SVG Version: 6.00 Build 0)  -->
<svg version="1.1" id="图层_1" xmlns="http://www.w3.org/2000/svg" xmlns:xlink="http://www.w3.org/1999/xlink" x="0px" y="0px"
	 viewBox="0 0 1920 1080" style="enable-background:new 0 0 1920 1080;" xml:space="preserve">
<style type="text/css">
	.st0{fill:#FFFFFF;}
	.st1{fill:#F7F292;}
	.st2{fill-rule:evenodd;clip-rule:evenodd;fill:#F7F292;}
	.st3{fill:#A6D7C3;}
	.st4{fill:#FAD4B8;}
	.st5{fill:#FFFFFF;stroke:#FFFFFF;stroke-width:1.0147;stroke-miterlimit:10;}
	.st6{fill:none;stroke:#92AFAD;stroke-width:6.4316;stroke-linecap:round;stroke-linejoin:round;stroke-miterlimit:10;}
	.st7{fill:none;}
	.st8{fill:#92AFAD;}
	.st9{font-family:'Campton-BoldDEMO';}
	.st10{font-size:21px;}
</style>
<rect id="bg_11_" class="st0" width="1920" height="1082"/>
<rect id="rectangle_x5F_bg" x="240" y="4" class="st1" width="446" height="915"/>
<path id="circle_x5F_2_2_" class="st2" d="M1666,407.3c0,48.8-39.5,88.3-88.3,88.3c-48.8,0-88.3-39.5-88.3-88.3
	c0-48.8,39.5-88.3,88.3-88.3C1626.5,319,1666,358.5,1666,407.3z"/>
<rect id="rectangle_1_" x="738" y="745" class="st3" width="75" height="261"/>
<g id="XMLID_46_">
	<rect id="element_x5F_reg_1_" x="767.3" y="176.8" class="st4" width="285.7" height="56.6"/>
	<g id="XMLID_57_">
		<g id="XMLID_133_">
			<g id="XMLID_154_">
				<path id="XMLID_155_" class="st3" d="M739,230.1c-4.1,0-7.4-3.1-7.4-7c0-3.9,3.3-7,7.4-7c4.1,0,7.4,3.1,7.4,7
					C746.4,226.9,743.1,230.1,739,230.1z M739,218.4c-2.7,0-4.9,2.1-4.9,4.7c0,2.6,2.2,4.7,4.9,4.7c2.7,0,4.9-2.1,4.9-4.7
					C744,220.5,741.8,218.4,739,218.4z"/>
			</g>
			<g id="XMLID_150_">
				<path id="XMLID_151_" class="st3" d="M775,230.1c-4.1,0-7.4-3.1-7.4-7c0-3.9,3.3-7,7.4-7c4.1,0,7.4,3.1,7.4,7
					C782.4,226.9,779.1,230.1,775,230.1z M775,218.4c-2.7,0-4.9,2.1-4.9,4.7c0,2.6,2.2,4.7,4.9,4.7c2.7,0,4.9-2.1,4.9-4.7
					C779.9,220.5,777.7,218.4,775,218.4z"/>
			</g>
			<g id="XMLID_146_">
				<path id="XMLID_147_" class="st3" d="M811,230.1c-4.1,0-7.4-3.1-7.4-7c0-3.9,3.3-7,7.4-7c4.1,0,7.4,3.1,7.4,7
					C818.4,226.9,815.1,230.1,811,230.1z M811,218.4c-2.7,0-5,2.1-5,4.7c0,2.6,2.2,4.7,5,4.7c2.7,0,4.9-2.1,4.9-4.7
					C815.9,220.5,813.7,218.4,811,218.4z"/>
			</g>
			<g id="XMLID_142_">
				<path id="XMLID_143_" class="st3" d="M847,230.1c-4.1,0-7.4-3.1-7.4-7c0-3.9,3.3-7,7.4-7c4,0,7.3,3.1,7.3,7
					C854.3,226.9,851,230.1,847,230.1z M847,218.4c-2.7,0-5,2.1-5,4.7c0,2.6,2.2,4.7,5,4.7c2.7,0,4.9-2.1,4.9-4.7
					C851.9,220.5,849.7,218.4,847,218.4z"/>
			</g>
			<g id="XMLID_138_">
				<path id="XMLID_139_" class="st3" d="M883,230.1c-4.1,0-7.4-3.1-7.4-7c0-3.9,3.3-7,7.4-7c4.1,0,7.4,3.1,7.4,7
					C890.3,226.9,887,230.1,883,230.1z M883,218.4c-2.7,0-4.9,2.1-4.9,4.7c0,2.6,2.2,4.7,4.9,4.7c2.7,0,4.9-2.1,4.9-4.7
					C887.9,220.5,885.7,218.4,883,218.4z"/>
			</g>
			<g id="XMLID_134_">
				<path id="XMLID_135_" class="st3" d="M918.9,230.1c-4.1,0-7.4-3.1-7.4-7c0-3.9,3.3-7,7.4-7c4.1,0,7.4,3.1,7.4,7
					C926.3,226.9,923,230.1,918.9,230.1z M918.9,218.4c-2.7,0-4.9,2.1-4.9,4.7c0,2.6,2.2,4.7,4.9,4.7c2.7,0,4.9-2.1,4.9-4.7
					C923.9,220.5,921.7,218.4,918.9,218.4z"/>
			</g>
		</g>
		<g id="XMLID_108_">
			<g id="XMLID_129_">
				<path id="XMLID_130_" class="st3" d="M739,265.5c-4.1,0-7.4-3.1-7.4-7c0-3.9,3.3-7,7.4-7c4.1,0,7.4,3.1,7.4,7
					C746.4,262.4,743.1,265.5,739,265.5z M739,253.8c-2.7,0-4.9,2.1-4.9,4.7c0,2.6,2.2,4.7,4.9,4.7c2.7,0,4.9-2.1,4.9-4.7
					C744,255.9,741.8,253.8,739,253.8z"/>
			</g>
			<g id="XMLID_125_">
				<path id="XMLID_126_" class="st3" d="M775,265.5c-4.1,0-7.4-3.1-7.4-7c0-3.9,3.3-7,7.4-7c4.1,0,7.4,3.1,7.4,7
					C782.4,262.4,779.1,265.5,775,265.5z M775,253.8c-2.7,0-4.9,2.1-4.9,4.7c0,2.6,2.2,4.7,4.9,4.7c2.7,0,4.9-2.1,4.9-4.7
					C779.9,255.9,777.7,253.8,775,253.8z"/>
			</g>
			<g id="XMLID_121_">
				<path id="XMLID_122_" class="st3" d="M811,265.5c-4.1,0-7.4-3.1-7.4-7c0-3.9,3.3-7,7.4-7c4.1,0,7.4,3.1,7.4,7
					C818.4,262.4,815.1,265.5,811,265.5z M811,253.8c-2.7,0-5,2.1-5,4.7c0,2.6,2.2,4.7,5,4.7c2.7,0,4.9-2.1,4.9-4.7
					C815.9,255.9,813.7,253.8,811,253.8z"/>
			</g>
			<g id="XMLID_117_">
				<path id="XMLID_118_" class="st3" d="M847,265.5c-4.1,0-7.4-3.1-7.4-7c0-3.9,3.3-7,7.4-7c4,0,7.3,3.1,7.3,7
					C854.3,262.4,851,265.5,847,265.5z M847,253.8c-2.7,0-5,2.1-5,4.7c0,2.6,2.2,4.7,5,4.7c2.7,0,4.9-2.1,4.9-4.7
					C851.9,255.9,849.7,253.8,847,253.8z"/>
			</g>
			<g id="XMLID_113_">
				<path id="XMLID_114_" class="st3" d="M883,265.5c-4.1,0-7.4-3.1-7.4-7c0-3.9,3.3-7,7.4-7c4.1,0,7.4,3.1,7.4,7
					C890.3,262.4,887,265.5,883,265.5z M883,253.8c-2.7,0-4.9,2.1-4.9,4.7c0,2.6,2.2,4.7,4.9,4.7c2.7,0,4.9-2.1,4.9-4.7
					C887.9,255.9,885.7,253.8,883,253.8z"/>
			</g>
			<g id="XMLID_109_">
				<path id="XMLID_110_" class="st3" d="M918.9,265.5c-4.1,0-7.4-3.1-7.4-7c0-3.9,3.3-7,7.4-7c4.1,0,7.4,3.1,7.4,7
					C926.3,262.4,923,265.5,918.9,265.5z M918.9,253.8c-2.7,0-4.9,2.1-4.9,4.7c0,2.6,2.2,4.7,4.9,4.7c2.7,0,4.9-2.1,4.9-4.7
					C923.9,255.9,921.7,253.8,918.9,253.8z"/>
			</g>
		</g>
		<g id="XMLID_83_">
			<g id="XMLID_104_">
				<path id="XMLID_105_" class="st3" d="M739,194.7c-4.1,0-7.4-3.1-7.4-7c0-3.9,3.3-7,7.4-7c4.1,0,7.4,3.1,7.4,7
					C746.4,191.5,743.1,194.7,739,194.7z M739,183c-2.7,0-4.9,2.1-4.9,4.7c0,2.6,2.2,4.7,4.9,4.7c2.7,0,4.9-2.1,4.9-4.7
					C744,185.1,741.8,183,739,183z"/>
			</g>
			<g id="XMLID_100_">
				<path id="XMLID_101_" class="st3" d="M775,194.7c-4.1,0-7.4-3.1-7.4-7c0-3.9,3.3-7,7.4-7c4.1,0,7.4,3.1,7.4,7
					C782.4,191.5,779.1,194.7,775,194.7z M775,183c-2.7,0-4.9,2.1-4.9,4.7c0,2.6,2.2,4.7,4.9,4.7c2.7,0,4.9-2.1,4.9-4.7
					C779.9,185.1,777.7,183,775,183z"/>
			</g>
			<g id="XMLID_96_">
				<path id="XMLID_97_" class="st3" d="M811,194.7c-4.1,0-7.4-3.1-7.4-7c0-3.9,3.3-7,7.4-7c4.1,0,7.4,3.1,7.4,7
					C818.4,191.5,815.1,194.7,811,194.7z M811,183c-2.7,0-5,2.1-5,4.7c0,2.6,2.2,4.7,5,4.7c2.7,0,4.9-2.1,4.9-4.7
					C815.9,185.1,813.7,183,811,183z"/>
			</g>
			<g id="XMLID_92_">
				<path id="XMLID_93_" class="st3" d="M847,194.7c-4.1,0-7.4-3.1-7.4-7c0-3.9,3.3-7,7.4-7c4,0,7.3,3.1,7.3,7
					C854.3,191.5,851,194.7,847,194.7z M847,183c-2.7,0-5,2.1-5,4.7c0,2.6,2.2,4.7,5,4.7c2.7,0,4.9-2.1,4.9-4.7
					C851.9,185.1,849.7,183,847,183z"/>
			</g>
			<g id="XMLID_88_">
				<path id="XMLID_89_" class="st3" d="M883,194.7c-4.1,0-7.4-3.1-7.4-7c0-3.9,3.3-7,7.4-7c4.1,0,7.4,3.1,7.4,7
					C890.3,191.5,887,194.7,883,194.7z M883,183c-2.7,0-4.9,2.1-4.9,4.7c0,2.6,2.2,4.7,4.9,4.7c2.7,0,4.9-2.1,4.9-4.7
					C887.9,185.1,885.7,183,883,183z"/>
			</g>
			<g id="XMLID_84_">
				<path id="XMLID_85_" class="st3" d="M918.9,194.7c-4.1,0-7.4-3.1-7.4-7c0-3.9,3.3-7,7.4-7c4.1,0,7.4,3.1,7.4,7
					C926.3,191.5,923,194.7,918.9,194.7z M918.9,183c-2.7,0-4.9,2.1-4.9,4.7c0,2.6,2.2,4.7,4.9,4.7c2.7,0,4.9-2.1,4.9-4.7
					C923.9,185.1,921.7,183,918.9,183z"/>
			</g>
		</g>
		<g id="XMLID_58_">
			<g id="XMLID_79_">
				<path id="XMLID_80_" class="st3" d="M739,159.3c-4.1,0-7.4-3.1-7.4-7c0-3.9,3.3-7,7.4-7c4.1,0,7.4,3.1,7.4,7
					C746.4,156.1,743.1,159.3,739,159.3z M739,147.5c-2.7,0-4.9,2.1-4.9,4.7c0,2.6,2.2,4.7,4.9,4.7c2.7,0,4.9-2.1,4.9-4.7
					C744,149.7,741.8,147.5,739,147.5z"/>
			</g>
			<g id="XMLID_75_">
				<path id="XMLID_76_" class="st3" d="M775,159.3c-4.1,0-7.4-3.1-7.4-7c0-3.9,3.3-7,7.4-7c4.1,0,7.4,3.1,7.4,7
					C782.4,156.1,779.1,159.3,775,159.3z M775,147.5c-2.7,0-4.9,2.1-4.9,4.7c0,2.6,2.2,4.7,4.9,4.7c2.7,0,4.9-2.1,4.9-4.7
					C779.9,149.7,777.7,147.5,775,147.5z"/>
			</g>
			<g id="XMLID_71_">
				<path id="XMLID_72_" class="st3" d="M811,159.3c-4.1,0-7.4-3.1-7.4-7c0-3.9,3.3-7,7.4-7c4.1,0,7.4,3.1,7.4,7
					C818.4,156.1,815.1,159.3,811,159.3z M811,147.5c-2.7,0-5,2.1-5,4.7c0,2.6,2.2,4.7,5,4.7c2.7,0,4.9-2.1,4.9-4.7
					C815.9,149.7,813.7,147.5,811,147.5z"/>
			</g>
			<g id="XMLID_67_">
				<path id="XMLID_68_" class="st3" d="M847,159.3c-4.1,0-7.4-3.1-7.4-7c0-3.9,3.3-7,7.4-7c4,0,7.3,3.1,7.3,7
					C854.3,156.1,851,159.3,847,159.3z M847,147.5c-2.7,0-5,2.1-5,4.7c0,2.6,2.2,4.7,5,4.7c2.7,0,4.9-2.1,4.9-4.7
					C851.9,149.7,849.7,147.5,847,147.5z"/>
			</g>
			<g id="XMLID_63_">
				<path id="XMLID_64_" class="st3" d="M883,159.3c-4.1,0-7.4-3.1-7.4-7c0-3.9,3.3-7,7.4-7c4.1,0,7.4,3.1,7.4,7
					C890.3,156.1,887,159.3,883,159.3z M883,147.5c-2.7,0-4.9,2.1-4.9,4.7c0,2.6,2.2,4.7,4.9,4.7c2.7,0,4.9-2.1,4.9-4.7
					C887.9,149.7,885.7,147.5,883,147.5z"/>
			</g>
			<g id="XMLID_59_">
				<path id="XMLID_60_" class="st3" d="M918.9,159.3c-4.1,0-7.4-3.1-7.4-7c0-3.9,3.3-7,7.4-7c4.1,0,7.4,3.1,7.4,7
					C926.3,156.1,923,159.3,918.9,159.3z M918.9,147.5c-2.7,0-4.9,2.1-4.9,4.7c0,2.6,2.2,4.7,4.9,4.7c2.7,0,4.9-2.1,4.9-4.7
					C923.9,149.7,921.7,147.5,918.9,147.5z"/>
			</g>
		</g>
	</g>
	<g id="element_x5F_wave_1_">
		<g id="XMLID_52_">
			<g id="XMLID_55_">
				<polygon id="XMLID_56_" class="st5" points="1014.8,265.4 1016.9,261.2 1014.8,256.9 1016.9,252.6 1014.8,248.3 1016.9,244.1 
					1014.8,239.8 1016.9,235.5 1014.8,231.2 1016.9,227 1014.8,222.7 1016.9,218.4 1014.8,214.1 1016.9,209.9 1014.8,205.6 
					1016.9,201.3 1016.7,201.1 1015.9,201.1 1016,201.3 1013.9,205.6 1016,209.9 1013.9,214.1 1016,218.4 1013.9,222.7 1016,227 
					1013.9,231.2 1016,235.5 1013.9,239.8 1016,244 1013.9,248.3 1016,252.6 1013.9,256.9 1016,261.2 1014,265.5 1014.8,265.5 				
					"/>
			</g>
			<g id="XMLID_53_">
				<polygon id="XMLID_54_" class="st5" points="1007.5,265.4 1009.6,261.2 1007.5,256.9 1009.6,252.6 1007.5,248.3 1009.6,244.1 
					1007.5,239.8 1009.6,235.5 1007.5,231.2 1009.6,227 1007.5,222.7 1009.6,218.4 1007.5,214.1 1009.6,209.9 1007.5,205.6 
					1009.6,201.3 1009.5,201.1 1008.7,201.1 1008.8,201.3 1006.7,205.6 1008.8,209.9 1006.7,214.1 1008.8,218.4 1006.7,222.7 
					1008.8,227 1006.7,231.2 1008.8,235.5 1006.7,239.8 1008.8,244 1006.7,248.3 1008.8,252.6 1006.7,256.9 1008.8,261.2 
					1006.7,265.5 1007.6,265.5 				"/>
			</g>
		</g>
		<g id="XMLID_47_">
			<g id="XMLID_50_">
				<polygon id="XMLID_51_" class="st5" points="993.3,265.4 995.4,261.2 993.3,256.9 995.4,252.6 993.3,248.3 995.4,244.1 
					993.3,239.8 995.4,235.5 993.3,231.2 995.4,227 993.3,222.7 995.4,218.4 993.3,214.1 995.4,209.9 993.3,205.6 995.4,201.3 
					995.3,201.1 994.4,201.1 994.5,201.3 992.4,205.6 994.5,209.9 992.4,214.1 994.5,218.4 992.4,222.7 994.5,227 992.4,231.2 
					994.5,235.5 992.4,239.8 994.5,244 992.4,248.3 994.5,252.6 992.4,256.9 994.5,261.2 992.5,265.5 993.3,265.5 				"/>
			</g>
			<g id="XMLID_48_">
				<polygon id="XMLID_49_" class="st5" points="1000.5,265.4 1002.6,261.2 1000.5,256.9 1002.6,252.6 1000.5,248.3 1002.6,244.1 
					1000.5,239.8 1002.6,235.5 1000.5,231.2 1002.6,227 1000.5,222.7 1002.6,218.4 1000.5,214.1 1002.6,209.9 1000.5,205.6 
					1002.6,201.3 1002.5,201.1 1001.7,201.1 1001.8,201.3 999.7,205.6 1001.8,209.9 999.7,214.1 1001.8,218.4 999.7,222.7 
					1001.8,227 999.7,231.2 1001.8,235.5 999.7,239.8 1001.8,244 999.7,248.3 1001.8,252.6 999.7,256.9 1001.8,261.2 999.7,265.5 
					1000.6,265.5 				"/>
			</g>
		</g>
	</g>
</g>
<g id="XMLID_30_">
	<g id="XMLID_41_">
		<path id="XMLID_23_" class="st0" d="M1031.9,426.7c6.3,0,11.5,5.2,11.5,11.5s-5.2,11.5-11.5,11.5s-11.5-5.2-11.5-11.5
			S1025.6,426.7,1031.9,426.7 M1031.9,424c-7.8,0-14.2,6.3-14.2,14.2c0,7.8,6.3,14.2,14.2,14.2s14.2-6.3,14.2-14.2
			C1046.1,430.3,1039.8,424,1031.9,424L1031.9,424z"/>
	</g>
	<g id="XMLID_36_">
		<path id="XMLID_18_" class="st0" d="M1031.2,519.6c6.3,0,11.5,5.2,11.5,11.5s-5.2,11.5-11.5,11.5c-6.3,0-11.5-5.2-11.5-11.5
			S1024.8,519.6,1031.2,519.6 M1031.2,516.9c-7.8,0-14.2,6.3-14.2,14.2c0,7.8,6.3,14.2,14.2,14.2c7.8,0,14.2-6.3,14.2-14.2
			C1045.3,523.3,1039,516.9,1031.2,516.9L1031.2,516.9z"/>
	</g>
	<g id="XMLID_31_">
		<path id="XMLID_14_" class="st0" d="M1031.9,470c6.3,0,11.5,5.2,11.5,11.5s-5.2,11.5-11.5,11.5s-11.5-5.2-11.5-11.5
			S1025.6,470,1031.9,470 M1031.9,467.3c-7.8,0-14.2,6.3-14.2,14.2c0,7.8,6.3,14.2,14.2,14.2s14.2-6.3,14.2-14.2
			C1046.1,473.7,1039.8,467.3,1031.9,467.3L1031.9,467.3z"/>
	</g>
</g>
<g id="linecircle_1_">
	<rect id="XMLID_29_" x="1611.4" y="3.9" class="st6" width="1.5" height="168.8"/>
	<rect id="XMLID_28_" x="1585.6" y="3.9" class="st6" width="1.5" height="168.8"/>
	<rect id="XMLID_22_" x="1636.7" y="3.9" class="st6" width="1.5" height="168.8"/>
	<circle id="element_x5F_circle_5_" class="st2" cx="1545" cy="111.9" r="54.3"/>
	<rect id="XMLID_17_" x="1662.6" y="3.9" class="st6" width="1.5" height="168.8"/>
</g>
<g id="footer_x5F_text_1_">
	<rect id="XMLID_2_" x="240" y="992.8" class="st7" width="287" height="26.9"/>
	<text id="XMLID_9_" transform="matrix(1 0 0 1 239.9995 1010.3745)" class="st8 st9 st10">Design by Shiyi Liu @ 2017</text>
	<g id="XMLID_4_">
		<rect id="XMLID_160_" x="1419" y="978.8" class="st7" width="252.5" height="53.5"/>
		<text id="XMLID_159_" transform="matrix(1 0 0 1 1418.9971 996.3357)"><tspan x="0" y="0" class="st8 st9 st10">San Francisco, U.S.A</tspan><tspan x="0" y="25.2" class="st8 st9 st10">poetrylizzy@gmail.com</tspan></text>
	</g>
</g>
</svg>
