<svg id="图层_1" data-name="图层 1" xmlns="http://www.w3.org/2000/svg" viewBox="0 0 79.07 79.07"><defs><style>.cls-1{fill:#a6d7c3;fill-rule:evenodd;}</style></defs><title>画板 1</title><path class="cls-1" d="M54.26,55.95H48.63a2.81,2.81,0,0,1-2.81-2.81V43.51a2.25,2.25,0,0,0-4.5,0v9.62a2.8,2.8,0,0,1-.78,1.94,1.25,1.25,0,1,1-1.73-1.79,1.12,1.12,0,0,0,.25-.71V43.41a4.5,4.5,0,0,1,9,0V51c0,.08,0,.16,0,.23h0v1.38A1.12,1.12,0,0,0,49.2,53.7h4.5a1.12,1.12,0,0,0,1.13-1.12V42.45a1.21,1.21,0,0,0,0-.16,9.15,9.15,0,0,0-9-8.84,8.75,8.75,0,0,0-5.4,1.86.88.88,0,0,1-1.35-.74.5.5,0,0,0,0-.08,1.12,1.12,0,0,0-1.12-1H34.57a2.25,2.25,0,0,0-2.25,2.25V52.57a1.11,1.11,0,0,0,0,.29.82.82,0,0,0,0,.27,2.81,2.81,0,0,1-2.81,2.81H23.88a2.81,2.81,0,0,1-2.81-2.81V34a2.81,2.81,0,0,1,2.81-2.81H26.7a3.38,3.38,0,1,0-3.37-3.37,1.13,1.13,0,0,1-2.25,0,5.63,5.63,0,1,1,5.63,5.63H24.45a1.12,1.12,0,0,0-1.12,1.13v18a1.12,1.12,0,0,0,1.13,1.13h4.5a1.12,1.12,0,0,0,1.13-1.12V35.7a4.5,4.5,0,0,1,4.5-4.5h3.94a2.8,2.8,0,0,1,1.81.66h0a1.11,1.11,0,0,0,.73.27,1.14,1.14,0,0,0,.35-.06A11.25,11.25,0,0,1,57,41.33a2.78,2.78,0,0,1,.06.56V53.13a2.81,2.81,0,0,1-2.81,2.81ZM35.7,53.7a1.13,1.13,0,1,1-1.12,1.13A1.12,1.12,0,0,1,35.7,53.7Z"/></svg>