<svg id="图层_1" data-name="图层 1" xmlns="http://www.w3.org/2000/svg" viewBox="0 0 79.07 79.07"><defs><style>.cls-1{fill:#a6d7c3;fill-rule:evenodd;}</style></defs><title>V_ICON</title><path class="cls-1" d="M49.64,46.18c-4.8,5.54-8.75,8.35-11.76,8.35s-6.05-5-7.71-13c-.87-4.23-1.58-5.77-1.92-6.31l-.1.05h0a1.06,1.06,0,0,1-.49.12,1.08,1.08,0,0,1-.61-2h0a2.48,2.48,0,0,1,1.43-.56c1.52,0,2.67,2.46,3.86,8.22,1.6,7.74,4.2,11.23,5.54,11.23s4.38-1,10.09-7.59c1.52-1.76,6.5-7.9,6.5-13,0-2.47-.59-5.08-4.22-5.08a7.69,7.69,0,0,0-7.45,5,.55.55,0,0,0,0,.18.54.54,0,0,0,.54.54h0a3.37,3.37,0,0,1,.62-.1h.42a2.09,2.09,0,0,1,2.35,2.24c0,2.2-3.14,7.55-4.63,8.77a1.34,1.34,0,0,1-.86.33c-1.33,0-2.46-2.28-3.35-6.76-.12-.61-.23-1.38-.34-2.2-.45-3.34-1.16-8-3.37-8s-5.55,2.84-7.8,5.06h0A1.09,1.09,0,0,1,24.52,31a1.08,1.08,0,0,1,.32-.77C27,28,30.81,24.53,34,24.53c4.42,0,5.21,5.92,5.74,9.83.11.78.21,1.52.31,2.07a21.23,21.23,0,0,0,1.29,4.44c1.31-1.68,3.17-5.28,3.17-6.34h-.46l-.28.06h0a2.73,2.73,0,0,1-.58.06,2.68,2.68,0,0,1-2.55-3.5A9.64,9.64,0,0,1,50,24.53c3,0,6.64,1.25,6.64,7.22,0,1.89-.69,7.08-7,14.43ZM23.46,35.25a1.07,1.07,0,1,1,1.07-1.07,1.07,1.07,0,0,1-1.07,1.07Z"/></svg>