<svg id="图层_1" data-name="图层 1" xmlns="http://www.w3.org/2000/svg" viewBox="0 0 79.07 79.07"><defs><style>.cls-1{fill:#a6d7c3;fill-rule:evenodd;}</style></defs><title>BE_ICON</title><path class="cls-1" d="M56.35,47.38H46.08a1.23,1.23,0,1,1,0-2.46h9.86a.91.91,0,0,0,.87-1.16,7.37,7.37,0,1,0-1,6.71,1.22,1.22,0,1,1,2.06,1.29h0A9.59,9.59,0,0,1,50,56,9.85,9.85,0,1,1,59.3,43.63a3.18,3.18,0,0,1,.08.68,3,3,0,0,1-3,3.08ZM53.23,33.85H45.85a1.23,1.23,0,0,1,0-2.46h7.38a1.23,1.23,0,0,1,0,2.46Zm-32,0A1.23,1.23,0,1,1,20,35.08a1.23,1.23,0,0,1,1.23-1.23Zm15.92,8.1a1.23,1.23,0,0,1,1.09.67A8.61,8.61,0,0,1,31.08,56h-8A3.08,3.08,0,0,1,20,52.92V41.85a3.08,3.08,0,0,1,3.08-3.08h7.38a6.15,6.15,0,0,0,0-12.31H23.69a1.23,1.23,0,0,0-1.23,1.23v2.46a1.23,1.23,0,0,1-2.46,0V27.08A3.08,3.08,0,0,1,23.08,24h7.38a8.62,8.62,0,0,1,.61,17.21v0H23.38a.92.92,0,0,0-.92.92V52.31a1.23,1.23,0,0,0,1.23,1.23h7.38a6.15,6.15,0,0,0,5.07-9.64h0a1.23,1.23,0,0,1,1-1.95Z"/></svg>