<?xml version="1.0" encoding="utf-8"?>
<!-- Generator: Adobe Illustrator 19.0.0, SVG Export Plug-In . SVG Version: 6.00 Build 0)  -->
<svg version="1.1" id="图层_1" xmlns="http://www.w3.org/2000/svg" xmlns:xlink="http://www.w3.org/1999/xlink" x="0px" y="0px"
	 viewBox="-636.75 -219.27 128.5 137.25" enable-background="new -636.75 -219.27 128.5 137.25" xml:space="preserve">
<g>
	<g>
		<defs>
			<circle id="SVGID_1_" cx="-578.411" cy="-141.656" r="56.18"/>
		</defs>
		<clipPath id="SVGID_2_">
			<use xlink:href="#SVGID_1_"  overflow="visible"/>
		</clipPath>
		<g clip-path="url(#SVGID_2_)">
			<polygon fill="#FFFFFF" points="-646.567,-157.611 -637.005,-153.332 -627.481,-157.698 -617.917,-153.419 -608.393,-157.785 
				-598.829,-153.506 -589.306,-157.872 -579.74,-153.593 -570.213,-157.959 -560.649,-153.68 -551.123,-158.046 -541.562,-153.767 
				-532.037,-158.133 -522.467,-153.854 -512.941,-158.22 -503.368,-153.941 -502.851,-154.179 -502.859,-155.932 
				-503.366,-155.699 -512.928,-159.979 -522.451,-155.612 -532.017,-159.891 -541.54,-155.525 -551.105,-159.804 
				-560.629,-155.438 -570.193,-159.717 -579.72,-155.351 -589.285,-159.63 -598.808,-155.264 -608.372,-159.543 -617.897,-155.177 
				-627.466,-159.456 -636.993,-155.09 -646.795,-159.296 -646.787,-157.51 			"/>
			<g>
				<polygon fill="#FFFFFF" points="-646.701,-187.104 -637.139,-182.825 -627.615,-187.191 -618.051,-182.912 -608.527,-187.278 
					-598.964,-182.999 -589.441,-187.365 -579.874,-183.086 -570.347,-187.452 -560.783,-183.173 -551.257,-187.539 
					-541.697,-183.26 -532.171,-187.626 -522.601,-183.347 -513.076,-187.713 -503.503,-183.434 -502.985,-183.672 
					-502.993,-185.42 -503.5,-185.189 -513.062,-189.469 -522.585,-185.102 -532.152,-189.382 -541.674,-185.015 -551.239,-189.295 
					-560.764,-184.928 -570.327,-189.208 -579.855,-184.841 -589.42,-189.121 -598.942,-184.754 -608.506,-189.034 
					-618.032,-184.667 -627.6,-188.947 -637.127,-184.58 -646.93,-188.785 -646.922,-187.004 				"/>
			</g>
			<g>
				<polygon fill="#FFFFFF" points="-649.479,-98.763 -639.917,-94.484 -630.393,-98.85 -620.829,-94.571 -611.305,-98.937 
					-601.741,-94.658 -592.218,-99.024 -582.652,-94.745 -573.125,-99.111 -563.561,-94.832 -554.035,-99.198 -544.474,-94.919 
					-534.949,-99.285 -525.379,-95.006 -515.853,-99.372 -506.28,-95.093 -505.763,-95.331 -505.771,-97.084 -506.278,-96.851 
					-515.84,-101.131 -525.363,-96.764 -534.929,-101.044 -544.452,-96.677 -554.017,-100.957 -563.541,-96.59 -573.105,-100.87 
					-582.632,-96.503 -592.197,-100.783 -601.72,-96.416 -611.284,-100.696 -620.809,-96.329 -630.378,-100.609 -639.905,-96.242 
					-649.707,-100.448 -649.699,-98.663 				"/>
			</g>
			<g>
				<polygon fill="#FFFFFF" points="-649.613,-128.256 -640.051,-123.977 -630.527,-128.343 -620.963,-124.064 -611.439,-128.43 
					-601.876,-124.151 -592.353,-128.517 -582.786,-124.238 -573.259,-128.604 -563.695,-124.325 -554.169,-128.691 
					-544.609,-124.412 -535.083,-128.778 -525.513,-124.499 -515.988,-128.865 -506.415,-124.586 -505.897,-124.824 
					-505.905,-126.573 -506.412,-126.341 -515.974,-130.621 -525.497,-126.254 -535.064,-130.534 -544.586,-126.167 
					-554.151,-130.447 -563.676,-126.08 -573.239,-130.36 -582.767,-125.993 -592.332,-130.273 -601.854,-125.906 
					-611.418,-130.186 -620.944,-125.819 -630.512,-130.099 -640.039,-125.732 -649.842,-129.938 -649.834,-128.156 				"/>
			</g>
		</g>
	</g>
	<g>
		<path fill="#FFF98F" d="M-541.788-206.906c5.28,0,10.228,1.783,14.309,5.156c4.631,3.827,7.493,9.229,8.061,15.209
			c0.568,5.981-1.227,11.824-5.054,16.455c-4.288,5.188-10.613,8.163-17.353,8.163c-5.281,0-10.23-1.783-14.311-5.156
			c-4.631-3.827-7.493-9.229-8.061-15.209c-0.568-5.981,1.227-11.824,5.054-16.455c4.287-5.187,10.613-8.162,17.354-8.163H-541.788
			 M-541.791-215.814c-9.039,0.001-18.011,3.885-24.219,11.396c-11.047,13.366-9.168,33.157,4.198,44.205
			c5.855,4.839,12.94,7.198,19.986,7.198c9.039,0,18.01-3.885,24.219-11.396c11.047-13.366,9.168-33.157-4.198-44.205
			C-527.66-213.455-534.745-215.814-541.791-215.814L-541.791-215.814z"/>
	</g>
</g>
</svg>
