<?xml version="1.0" encoding="utf-8"?>
<!-- Generator: Adobe Illustrator 19.0.0, SVG Export Plug-In . SVG Version: 6.00 Build 0)  -->
<svg version="1.1" id="图层_1" xmlns="http://www.w3.org/2000/svg" xmlns:xlink="http://www.w3.org/1999/xlink" x="0px" y="0px"
	 viewBox="-753 -374.02 100.994 253" enable-background="new -753 -374.02 100.994 253" xml:space="preserve">
<g>
	<g>
		<g>
			<path fill="#FFFFFF" d="M-724.017-259.246c6.343,0,11.503,5.16,11.503,11.503s-5.16,11.503-11.503,11.503
				s-11.503-5.16-11.503-11.503S-730.36-259.246-724.017-259.246 M-724.017-261.921c-7.83,0-14.178,6.348-14.178,14.178
				s6.348,14.178,14.178,14.178c7.83,0,14.178-6.348,14.178-14.178S-716.187-261.921-724.017-261.921L-724.017-261.921z"/>
		</g>
		<g>
			<path fill="#FFFFFF" d="M-724.805-166.3c6.343,0,11.503,5.16,11.503,11.503s-5.16,11.503-11.503,11.503
				c-6.343,0-11.503-5.16-11.503-11.503S-731.148-166.3-724.805-166.3 M-724.805-168.975c-7.83,0-14.178,6.348-14.178,14.178
				c0,7.83,6.348,14.178,14.178,14.178c7.83,0,14.178-6.348,14.178-14.178C-710.626-162.627-716.974-168.975-724.805-168.975
				L-724.805-168.975z"/>
		</g>
		<g>
			<path fill="#FFFFFF" d="M-724.017-215.924c6.343,0,11.503,5.16,11.503,11.503s-5.16,11.503-11.503,11.503
				s-11.503-5.16-11.503-11.503S-730.36-215.924-724.017-215.924 M-724.017-218.599c-7.83,0-14.178,6.348-14.178,14.178
				s6.348,14.178,14.178,14.178c7.83,0,14.178-6.348,14.178-14.178S-716.187-218.599-724.017-218.599L-724.017-218.599z"/>
		</g>
	</g>
	<g>
		<g>
			<path fill="#F9EF7A" d="M-679.991-351.786c6.249,0,11.332,5.084,11.332,11.332s-5.084,11.332-11.332,11.332
				s-11.332-5.084-11.332-11.332S-686.239-351.786-679.991-351.786 M-679.991-354.421c-7.714,0-13.968,6.253-13.968,13.968
				s6.253,13.968,13.968,13.968s13.968-6.253,13.968-13.968S-672.276-354.421-679.991-354.421L-679.991-354.421z"/>
		</g>
		<g>
			<path fill="#F9EF7A" d="M-680.766-260.221c6.249,0,11.332,5.084,11.332,11.332s-5.084,11.332-11.332,11.332
				c-6.249,0-11.332-5.084-11.332-11.332S-687.015-260.221-680.766-260.221 M-680.766-262.856c-7.714,0-13.968,6.253-13.968,13.968
				s6.253,13.968,13.968,13.968c7.714,0,13.968-6.253,13.968-13.968S-673.052-262.856-680.766-262.856L-680.766-262.856z"/>
		</g>
		<g>
			<path fill="#F9EF7A" d="M-679.991-309.107c6.249,0,11.332,5.084,11.332,11.332s-5.084,11.332-11.332,11.332
				s-11.332-5.084-11.332-11.332S-686.239-309.107-679.991-309.107 M-679.991-311.743c-7.714,0-13.968,6.253-13.968,13.968
				s6.253,13.968,13.968,13.968s13.968-6.253,13.968-13.968S-672.276-311.743-679.991-311.743L-679.991-311.743z"/>
		</g>
	</g>
</g>
</svg>
