<?xml version="1.0" encoding="utf-8"?>
<!-- Generator: Adobe Illustrator 19.0.0, SVG Export Plug-In . SVG Version: 6.00 Build 0)  -->
<svg version="1.1" id="图层_1" xmlns="http://www.w3.org/2000/svg" xmlns:xlink="http://www.w3.org/1999/xlink" x="0px" y="0px"
	 viewBox="0 0 373 304" style="enable-background:new 0 0 373 304;" xml:space="preserve">
<style type="text/css">
	.st0{fill:#FFFFFF;}
	.st1{fill:#3CF0BB;}
	.st2{fill-rule:evenodd;clip-rule:evenodd;fill:#F8D252;}
	.st3{fill:#F8D252;}
	.st4{fill-rule:evenodd;clip-rule:evenodd;fill:#FF9FFE;}
	.st5{fill:none;stroke:#418FFF;stroke-width:2.3195;stroke-miterlimit:10;}
	.st6{clip-path:url(#SVGID_1_);}
	.st7{fill:none;stroke:#418FFF;stroke-width:1.4552;stroke-miterlimit:10;}
</style>
<rect id="XMLID_30_" y="1" class="st0" width="373" height="303"/>
<polyline id="rectangle_x5F_bg_1_" class="st1" points="70,305 70,51 373,51 373,305 "/>
<circle id="circle_1_" class="st2" cx="156.1" cy="106.7" r="35.7"/>
<polyline id="rectangle_4_" class="st3" points="97.5,0 97.5,71 87.7,71 87.7,0 "/>
<g id="XMLID_27_">
	<circle id="element_x5F_circle_1_" class="st4" cx="312.1" cy="47.9" r="11"/>
	<path id="XMLID_29_" class="st5" d="M298.7,53.5c0,0,7.8-4,6,4.4c0,0.1-0.1,0.3-0.1,0.4c-0.3,1.2-2,8.5,6,4.6
		c8.8-4.2,6.1,4.9,6.1,4.9s-2.6,9.5,6,4.8c8.6-4.7,6,4.8,6,4.8"/>
	<path id="XMLID_28_" class="st5" d="M317.6,43.4c0,0,7.8-4,6,4.4c0,0.1-0.1,0.3-0.1,0.4c-0.3,1.2-2,8.5,6,4.6
		c8.8-4.2,6.1,4.9,6.1,4.9"/>
</g>
<g id="XMLID_3_">
	<defs>
		<circle id="SVGID_3_" cx="110.5" cy="129.3" r="29.3"/>
	</defs>
	<clipPath id="SVGID_1_">
		<use xlink:href="#SVGID_3_"  style="overflow:visible;"/>
	</clipPath>
	<g id="XMLID_4_" class="st6">
		<g id="XMLID_80_">
			<g id="XMLID_86_">
				<path id="XMLID_90_" class="st7" d="M89.1,151.9c0,0-1.6-7.5,5.1-4.1c0.1,0.1,0.2,0.1,0.3,0.2c1,0.6,6.7,3.6,5.2-4.1
					c-1.6-8.4,5.5-4.1,5.5-4.1s7.4,4.3,5.3-4c-2.1-8.3,5.4-4,5.4-4s7.8,5,5.5-4.2c-2.2-9.2,5.4-3.7,5.4-3.7s7.1,4.7,5.5-4.1
					c-1.7-8.8,5.5-3.9,5.5-3.9s6.5,4.9,5.3-3.8s5.5-4.6,5.5-4.6"/>
				<path id="XMLID_89_" class="st7" d="M94.8,159.4c0,0-1.6-7.5,5.1-4.1c0.1,0.1,0.2,0.1,0.3,0.2c1,0.6,6.7,3.6,5.2-4.1
					c-1.6-8.4,5.5-4.1,5.5-4.1s7.4,4.3,5.3-4s5.4-4,5.4-4s7.8,5,5.5-4.2c-2.2-9.2,5.4-3.7,5.4-3.7s7.1,4.7,5.5-4.1
					c-1.7-8.8,5.5-3.9,5.5-3.9s6.5,4.9,5.3-3.8s5.5-4.6,5.5-4.6"/>
				<path id="XMLID_88_" class="st7" d="M100.4,166.9c0,0-1.6-7.5,5.1-4.1c0.1,0.1,0.2,0.1,0.3,0.2c1,0.6,6.7,3.6,5.2-4.1
					c-1.6-8.4,5.5-4.1,5.5-4.1s7.4,4.3,5.3-4c-2.1-8.3,5.4-4,5.4-4s7.8,5,5.5-4.2c-2.2-9.2,5.4-3.7,5.4-3.7s7.1,4.7,5.5-4.1
					s5.5-3.9,5.5-3.9s6.5,4.9,5.3-3.8s5.5-4.6,5.5-4.6"/>
				<path id="XMLID_87_" class="st7" d="M106.1,174.4c0,0-1.6-7.5,5.1-4.1c0.1,0.1,0.2,0.1,0.3,0.2c1,0.6,6.7,3.6,5.2-4.1
					c-1.6-8.4,5.5-4.1,5.5-4.1s7.4,4.3,5.3-4c-2.1-8.3,5.4-4,5.4-4s7.8,5,5.5-4.2c-2.2-9.2,5.4-3.7,5.4-3.7s7.1,4.7,5.5-4.1
					c-1.7-8.8,5.5-3.9,5.5-3.9s6.5,4.9,5.3-3.8s5.5-4.6,5.5-4.6"/>
			</g>
			<g id="XMLID_81_">
				<path id="XMLID_85_" class="st7" d="M66.4,122.2c0,0-1.6-7.5,5.1-4.1c0.1,0.1,0.2,0.1,0.3,0.2c1,0.6,6.7,3.6,5.2-4.1
					c-1.6-8.4,5.5-4.1,5.5-4.1s7.4,4.3,5.3-4s5.4-4,5.4-4s7.8,5,5.5-4.2s5.4-3.7,5.4-3.7s7.1,4.7,5.5-4.1c-1.7-8.8,5.5-3.9,5.5-3.9
					s6.5,4.9,5.3-3.8s5.5-4.6,5.5-4.6"/>
				<path id="XMLID_84_" class="st7" d="M72.1,129.6c0,0-1.6-7.5,5.1-4.1c0.1,0.1,0.2,0.1,0.3,0.2c1,0.6,6.7,3.6,5.2-4.1
					c-1.6-8.4,5.5-4.1,5.5-4.1s7.4,4.3,5.3-4c-2.1-8.3,5.4-4,5.4-4s7.8,5,5.5-4.2c-2.2-9.2,5.4-3.7,5.4-3.7s7.1,4.7,5.5-4.1
					s5.5-3.9,5.5-3.9s6.5,4.9,5.3-3.8s5.5-4.6,5.5-4.6"/>
				<path id="XMLID_83_" class="st7" d="M77.7,137.1c0,0-1.6-7.5,5.1-4.1c0.1,0.1,0.2,0.1,0.3,0.2c1,0.6,6.7,3.6,5.2-4.1
					c-1.6-8.4,5.5-4.1,5.5-4.1s7.4,4.3,5.3-4s5.4-4,5.4-4s7.8,5,5.5-4.2s5.4-3.7,5.4-3.7s7.1,4.7,5.5-4.1c-1.7-8.8,5.5-3.9,5.5-3.9
					s6.5,4.9,5.3-3.8s5.5-4.6,5.5-4.6"/>
				<path id="XMLID_82_" class="st7" d="M83.4,144.6c0,0-1.6-7.5,5.1-4.1c0.1,0.1,0.2,0.1,0.3,0.2c1,0.6,6.7,3.6,5.2-4.1
					c-1.6-8.4,5.5-4.1,5.5-4.1s7.4,4.3,5.3-4c-2.1-8.3,5.4-4,5.4-4s7.8,5,5.5-4.2c-2.2-9.2,5.4-3.7,5.4-3.7s7.1,4.7,5.5-4.1
					s5.5-3.9,5.5-3.9s6.5,4.9,5.3-3.8c-1.3-8.7,5.5-4.6,5.5-4.6"/>
			</g>
		</g>
	</g>
</g>
</svg>
