<?xml version="1.0" encoding="utf-8"?>
<!-- Generator: Adobe Illustrator 19.0.0, SVG Export Plug-In . SVG Version: 6.00 Build 0)  -->
<svg version="1.1" id="图层_1" xmlns="http://www.w3.org/2000/svg" xmlns:xlink="http://www.w3.org/1999/xlink" x="0px" y="0px"
	 viewBox="0 0 378.2 367.7" style="enable-background:new 0 0 378.2 367.7;" xml:space="preserve">
<style type="text/css">
	.st0{fill:#FFFFFF;}
	.st1{fill:none;}
	.st2{fill:#94B2B0;}
	.st3{font-family:'Korolev-Heavy';}
	.st4{font-size:10px;}
	.st5{fill:#F8D252;}
	.st6{clip-path:url(#XMLID_32_);}
	.st7{fill:none;stroke:#FF9FFE;stroke-width:3.4928;stroke-miterlimit:10;}
	.st8{fill:#3CF0BB;}
	.st9{fill:none;stroke:#3CF0BB;stroke-width:4;stroke-miterlimit:10;}
	.st10{fill:none;stroke:#418FFF;stroke-width:7.1815;stroke-miterlimit:10;}
	.st11{fill:none;stroke:#F8D252;stroke-width:2.8726;stroke-miterlimit:10;}
</style>
<rect id="XMLID_71_" x="0" y="300.7" class="st0" width="374" height="67"/>
<rect id="XMLID_23_" x="118.6" y="316.3" class="st1" width="132.1" height="10.6"/>
<text id="XMLID_69_" transform="matrix(0.996 0 0 1 131.5645 324.7842)" class="st2 st3 st4">Design by Shiyi Liu @ 2017</text>
<g id="XMLID_62_">
	<rect id="XMLID_84_" x="118" y="328.4" class="st1" width="144" height="22.2"/>
	<text id="XMLID_83_" transform="matrix(0.996 0 0 1 147.8696 336.9788)"><tspan x="0" y="0" class="st2 st3 st4">San Francisco, U.S.A</tspan><tspan x="-4.7" y="12" class="st2 st3 st4">poetrylizzy@gmail.com</tspan></text>
</g>
<rect id="bg_2_" x="0.9" y="0.7" class="st0" width="373.1" height="300"/>
<rect id="element" x="33.4" y="0" class="st5" width="47.6" height="246"/>
<g id="XMLID_30_">
	<g id="XMLID_35_">
		<defs>
			<circle id="XMLID_36_" cx="325.5" cy="66.3" r="38.6"/>
		</defs>
		<clipPath id="XMLID_32_">
			<use xlink:href="#XMLID_36_"  style="overflow:visible;"/>
		</clipPath>
		<g id="XMLID_37_" class="st6">
			<g id="XMLID_56_">
				<path id="XMLID_60_" class="st7" d="M287.1,27.9c0,0,9.4-1.6,4.7,6.5c-0.1,0.1-0.2,0.3-0.3,0.4c-0.7,1.2-4.8,8.1,4.8,6.7
					c10.5-1.5,4.8,7,4.8,7s-5.8,8.9,4.7,6.9c10.4-2.1,4.6,6.9,4.6,6.9s-6.7,9.3,4.8,7.1s4.3,7,4.3,7s-6.3,8.5,4.8,7
					c11.1-1.5,4.5,7.1,4.5,7.1s-6.4,7.8,4.4,6.8c10.8-1,5.4,7.1,5.4,7.1"/>
				<path id="XMLID_59_" class="st7" d="M267.8,41c0,0,9.4-1.6,4.7,6.5c-0.1,0.1-0.2,0.3-0.3,0.4c-0.7,1.2-4.8,8.1,4.8,6.7
					c10.5-1.5,4.8,7,4.8,7s-5.8,8.9,4.7,6.9c10.4-2.1,4.6,6.9,4.6,6.9s-6.7,9.3,4.8,7.1s4.3,7,4.3,7s-6.3,8.5,4.8,7
					c11.1-1.5,4.5,7.1,4.5,7.1s-6.4,7.8,4.4,6.8c10.8-1,5.4,7.1,5.4,7.1"/>
				<path id="XMLID_58_" class="st7" d="M325.4,1.7c0,0,9.4-1.6,4.7,6.5c-0.1,0.1-0.2,0.3-0.3,0.4c-0.7,1.2-4.8,8.1,4.8,6.7
					c10.5-1.5,4.8,7,4.8,7s-5.8,8.9,4.7,6.9c10.4-2.1,4.6,6.9,4.6,6.9s-6.7,9.3,4.8,7.1c11.5-2.2,4.3,7,4.3,7s-6.3,8.5,4.8,7
					c11.1-1.5,4.5,7.1,4.5,7.1s-6.4,7.8,4.4,6.8c10.8-1,5.4,7.1,5.4,7.1"/>
				<path id="XMLID_57_" class="st7" d="M306.2,14.7c0,0,9.4-1.6,4.7,6.5c-0.1,0.1-0.2,0.3-0.3,0.4c-0.7,1.2-4.8,8.1,4.8,6.7
					c10.5-1.5,4.8,7,4.8,7s-5.8,8.9,4.7,6.9c10.4-2.1,4.6,6.9,4.6,6.9s-6.7,9.3,4.8,7.1c11.5-2.2,4.3,7,4.3,7s-6.3,8.5,4.8,7
					c11.1-1.5,4.5,7.1,4.5,7.1s-6.4,7.8,4.4,6.8c10.8-1,5.4,7.1,5.4,7.1"/>
			</g>
		</g>
	</g>
	<g id="XMLID_31_">
		<circle id="XMLID_34_" class="st8" cx="303.7" cy="92.9" r="21.5"/>
	</g>
</g>
<rect id="rectangle_1_" x="110" y="232.7" class="st8" width="11.8" height="41"/>
<line id="XMLID_29_" class="st9" x1="148" y1="222.7" x2="255" y2="222.7"/>
<g id="XMLID_25_">
	<circle id="XMLID_28_" class="st10" cx="290.4" cy="264" r="27.3"/>
	<circle id="XMLID_26_" class="st11" cx="319.2" cy="281.3" r="17.4"/>
</g>
</svg>
