<?xml version="1.0" encoding="utf-8"?>
<!-- Generator: Adobe Illustrator 19.0.0, SVG Export Plug-In . SVG Version: 6.00 Build 0)  -->
<svg version="1.1" id="图层_1" xmlns="http://www.w3.org/2000/svg" xmlns:xlink="http://www.w3.org/1999/xlink" x="0px" y="0px"
	 viewBox="0 0 374.4 209" style="enable-background:new 0 0 374.4 209;" xml:space="preserve">
<style type="text/css">
	.st0{fill:#3CF0BB;}
	.st1{fill:#FFCC66;}
	.st2{clip-path:url(#SVGID_1_);}
	.st3{fill:none;stroke:#418FFF;stroke-width:1.4784;stroke-miterlimit:10;}
	.st4{clip-path:url(#SVGID_2_);}
	.st5{fill:none;stroke:#FF9FFE;stroke-width:1.3166;stroke-miterlimit:10;}
	.st6{fill:#FFFFFF;}
	.st7{fill-rule:evenodd;clip-rule:evenodd;fill:#FF9FFE;}
	.st8{fill:none;stroke:#418FFF;stroke-width:2.3556;stroke-miterlimit:10;}
</style>
<g>
	<rect x="0" y="-0.3" class="st0" width="374.4" height="209"/>
	<ellipse id="_x3C_椭圆_x3E_bg_3_" class="st1" cx="280.2" cy="129.5" rx="39.9" ry="39.9"/>
	<g>
		<defs>
			<circle id="SVGID_5_" cx="310.5" cy="101.5" r="29.8"/>
		</defs>
		<clipPath id="SVGID_1_">
			<use xlink:href="#SVGID_5_"  style="overflow:visible;"/>
		</clipPath>
		<g class="st2">
			<g id="XMLID_82_">
				<g id="XMLID_88_">
					<path id="XMLID_92_" class="st3" d="M288.8,124.5c0,0-1.7-7.6,5.1-4.2c0.1,0.1,0.2,0.1,0.4,0.2c1,0.6,6.8,3.6,5.3-4.2
						c-1.7-8.5,5.5-4.2,5.5-4.2s7.5,4.4,5.4-4.1s5.4-4,5.4-4s7.9,5.1,5.6-4.2s5.5-3.8,5.5-3.8s7.3,4.8,5.5-4.2s5.6-4,5.6-4
						s6.6,4.9,5.3-3.9c-1.3-8.8,5.6-4.7,5.6-4.7"/>
					<path id="XMLID_91_" class="st3" d="M294.6,132.1c0,0-1.7-7.6,5.1-4.2c0.1,0.1,0.2,0.1,0.4,0.2c1,0.6,6.8,3.6,5.3-4.2
						c-1.7-8.5,5.5-4.2,5.5-4.2s7.5,4.4,5.4-4.1s5.4-4,5.4-4s7.9,5.1,5.6-4.2s5.5-3.8,5.5-3.8s7.3,4.8,5.5-4.2c-1.7-9,5.6-4,5.6-4
						s6.6,4.9,5.3-3.9s5.6-4.7,5.6-4.7"/>
					<path id="XMLID_90_" class="st3" d="M300.3,139.7c0,0-1.7-7.6,5.1-4.2c0.1,0.1,0.2,0.1,0.4,0.2c1,0.6,6.8,3.6,5.3-4.2
						c-1.7-8.5,5.5-4.2,5.5-4.2s7.5,4.4,5.4-4.1c-2.1-8.4,5.4-4,5.4-4s7.9,5.1,5.6-4.2c-2.3-9.3,5.5-3.8,5.5-3.8s7.3,4.8,5.5-4.2
						s5.6-4,5.6-4s6.6,4.9,5.3-3.9s5.6-4.7,5.6-4.7"/>
					<path id="XMLID_89_" class="st3" d="M306.1,147.3c0,0-1.7-7.6,5.1-4.2c0.1,0.1,0.2,0.1,0.4,0.2c1,0.6,6.8,3.6,5.3-4.2
						c-1.7-8.5,5.5-4.2,5.5-4.2s7.5,4.4,5.4-4.1s5.4-4,5.4-4s7.9,5.1,5.6-4.2s5.5-3.8,5.5-3.8s7.3,4.8,5.5-4.2s5.6-4,5.6-4
						s6.6,4.9,5.3-3.9c-1.3-8.8,5.6-4.7,5.6-4.7"/>
				</g>
				<g id="XMLID_83_">
					<path id="XMLID_87_" class="st3" d="M265.7,94.2c0,0-1.7-7.6,5.1-4.2c0.1,0.1,0.2,0.1,0.4,0.2c1,0.6,6.8,3.6,5.3-4.2
						c-1.7-8.5,5.5-4.2,5.5-4.2s7.5,4.4,5.4-4.1s5.4-4,5.4-4s7.9,5.1,5.6-4.2s5.5-3.8,5.5-3.8s7.3,4.8,5.5-4.2c-1.7-9,5.6-4,5.6-4
						s6.6,4.9,5.3-3.9s5.6-4.7,5.6-4.7"/>
					<path id="XMLID_86_" class="st3" d="M271.5,101.9c0,0-1.7-7.6,5.1-4.2c0.1,0.1,0.2,0.1,0.4,0.2c1,0.6,6.8,3.6,5.3-4.2
						c-1.7-8.5,5.5-4.2,5.5-4.2s7.5,4.4,5.4-4.1c-2.1-8.4,5.4-4,5.4-4s7.9,5.1,5.6-4.2c-2.3-9.3,5.5-3.8,5.5-3.8s7.3,4.8,5.5-4.2
						c-1.7-9,5.6-4,5.6-4s6.6,4.9,5.3-3.9s5.6-4.7,5.6-4.7"/>
					<path id="XMLID_85_" class="st3" d="M277.2,109.5c0,0-1.7-7.6,5.1-4.2c0.1,0.1,0.2,0.1,0.4,0.2c1,0.6,6.8,3.6,5.3-4.2
						c-1.7-8.5,5.5-4.2,5.5-4.2s7.5,4.4,5.4-4.1s5.4-4,5.4-4s7.9,5.1,5.6-4.2s5.5-3.8,5.5-3.8s7.3,4.8,5.5-4.2s5.6-4,5.6-4
						s6.6,4.9,5.3-3.9c-1.3-8.8,5.6-4.7,5.6-4.7"/>
					<path id="XMLID_84_" class="st3" d="M283,117.1c0,0-1.7-7.6,5.1-4.2c0.1,0.1,0.2,0.1,0.4,0.2c1,0.6,6.8,3.6,5.3-4.2
						c-1.7-8.5,5.5-4.2,5.5-4.2s7.5,4.4,5.4-4.1s5.4-4,5.4-4s7.9,5.1,5.6-4.2s5.5-3.8,5.5-3.8s7.3,4.8,5.5-4.2c-1.7-9,5.6-4,5.6-4
						s6.6,4.9,5.3-3.9s5.6-4.7,5.6-4.7"/>
				</g>
			</g>
		</g>
	</g>
	<g>
		<g>
			<defs>
				<circle id="SVGID_7_" cx="62.2" cy="131.3" r="14.5"/>
			</defs>
			<clipPath id="SVGID_2_">
				<use xlink:href="#SVGID_7_"  style="overflow:visible;"/>
			</clipPath>
			<g class="st4">
				<g>
					<path class="st5" d="M47.7,116.9c0,0,3.5-0.6,1.8,2.5c0,0.1-0.1,0.1-0.1,0.2c-0.3,0.4-1.8,3,1.8,2.5c3.9-0.6,1.8,2.6,1.8,2.6
						s-2.2,3.4,1.8,2.6c3.9-0.8,1.7,2.6,1.7,2.6s-2.5,3.5,1.8,2.7s1.6,2.6,1.6,2.6s-2.4,3.2,1.8,2.6s1.7,2.7,1.7,2.7
						s-2.4,2.9,1.7,2.5s2,2.7,2,2.7"/>
					<path class="st5" d="M40.5,121.8c0,0,3.5-0.6,1.8,2.5c0,0.1-0.1,0.1-0.1,0.2c-0.3,0.4-1.8,3,1.8,2.5c3.9-0.6,1.8,2.6,1.8,2.6
						s-2.2,3.4,1.8,2.6s1.7,2.6,1.7,2.6s-2.5,3.5,1.8,2.7c4.3-0.8,1.6,2.6,1.6,2.6s-2.4,3.2,1.8,2.6c4.2-0.6,1.7,2.7,1.7,2.7
						s-2.4,2.9,1.7,2.5s2,2.7,2,2.7"/>
					<path class="st5" d="M62.2,107c0,0,3.5-0.6,1.8,2.5c0,0.1-0.1,0.1-0.1,0.2c-0.3,0.4-1.8,3,1.8,2.5c3.9-0.6,1.8,2.6,1.8,2.6
						s-2.2,3.4,1.8,2.6s1.7,2.6,1.7,2.6s-2.5,3.5,1.8,2.7s1.6,2.6,1.6,2.6s-2.4,3.2,1.8,2.6c4.2-0.6,1.7,2.7,1.7,2.7
						s-2.4,2.9,1.7,2.5c4.1-0.4,2,2.7,2,2.7"/>
					<path class="st5" d="M54.9,111.9c0,0,3.5-0.6,1.8,2.5c0,0.1-0.1,0.1-0.1,0.2c-0.3,0.4-1.8,3,1.8,2.5c3.9-0.6,1.8,2.6,1.8,2.6
						s-2.2,3.4,1.8,2.6c3.9-0.8,1.7,2.6,1.7,2.6s-2.5,3.5,1.8,2.7c4.3-0.8,1.6,2.6,1.6,2.6s-2.4,3.2,1.8,2.6
						c4.2-0.6,1.7,2.7,1.7,2.7s-2.4,2.9,1.7,2.5s2,2.7,2,2.7"/>
				</g>
			</g>
		</g>
		<g>
			<circle id="XMLID_13_" class="st6" cx="54" cy="141.4" r="8.1"/>
		</g>
	</g>
	<polygon id="bg_13_" class="st6" points="257.6,187.4 261.9,187.4 339.1,187.4 339.1,199.6 257.6,199.6 	"/>
	<g>
		<circle id="element_x5F_circle_2_" class="st7" cx="249.5" cy="181.9" r="11.2"/>
		<path class="st8" d="M249.5,181.8c0,0,3.7-8.1,7.6-0.3c0.1,0.1,0.1,0.3,0.2,0.4c0.5,1.2,3.7,8,7.7-0.2c4.3-8.9,8,0,8,0
			s3.9,9.2,7.8,0s7.8,0.1,7.8,0.1"/>
	</g>
</g>
</svg>
