<?xml version="1.0" encoding="utf-8"?>
<!-- Generator: Adobe Illustrator 19.0.0, SVG Export Plug-In . SVG Version: 6.00 Build 0)  -->
<svg version="1.1" id="图层_1" xmlns="http://www.w3.org/2000/svg" xmlns:xlink="http://www.w3.org/1999/xlink" x="0px" y="0px"
	 viewBox="0 0 68 82" style="enable-background:new 0 0 68 82;" xml:space="preserve">
<style type="text/css">
	.st0{fill:#FFFFFF;}
	.st1{fill:#3CF0BB;}
	.st2{fill:#418FFF;}
	.st3{fill:#F8D252;}
</style>
<g>
	<rect id="XMLID_2_" y="0" class="st0" width="68" height="82"/>
	<g id="logo_2_">
		<g>
			<path id="XMLID_25_" class="st1" d="M21.9,18.5h-5v1.2h3.7V62h1.2V18.5L21.9,18.5z M13.2,34.4H12v32.4h1.2V34.4L13.2,34.4z"/>
		</g>
		<circle class="st2" cx="54.3" cy="23.8" r="7.1"/>
		<circle class="st3" cx="36.6" cy="59" r="7.1"/>
		<g>
			<path id="XMLID_15_" class="st1" d="M43.7,16.7c0,0-16.4,0-16.4,15.4c0,0-0.3,16.8,16.4,17.1L43.7,16.7z"/>
		</g>
		<g>
			<path id="XMLID_13_" class="st1" d="M46.6,66c0,0,16.4,0,16.4-15.4c0,0,0.3-16.8-16.4-17.1L46.6,66z"/>
		</g>
	</g>
</g>
</svg>
