<?xml version="1.0" encoding="utf-8"?>
<!-- Generator: Adobe Illustrator 19.0.0, SVG Export Plug-In . SVG Version: 6.00 Build 0)  -->
<svg version="1.1" id="图层_1" xmlns="http://www.w3.org/2000/svg" xmlns:xlink="http://www.w3.org/1999/xlink" x="0px" y="0px"
	 viewBox="-153 64 68 82" style="enable-background:new -153 64 68 82;" xml:space="preserve">
<style type="text/css">
	.st0{fill:none;stroke:#418FFF;stroke-width:3.2498;stroke-miterlimit:10;}
</style>
<g id="XMLID_2_">
	<path id="XMLID_7_" class="st0" d="M-147,89.6c0,0,5.1-11.2,10.4-0.3c0.1,0.2,0.2,0.4,0.3,0.6c0.7,1.6,5.1,11,10.6-0.2
		c6-12.3,11,0,11,0s5.4,12.7,10.7,0s10.7,0.1,10.7,0.1"/>
	<g id="XMLID_5_">
		<path id="XMLID_6_" class="st0" d="M-144.8,120.3c0,0,5.1-11.2,10.4-0.3c0.1,0.2,0.2,0.4,0.3,0.6c0.7,1.6,5.1,11,10.6-0.2
			c6-12.3,11,0,11,0s5.4,12.7,10.7,0c5.3-12.7,10.8,0,10.8,0"/>
	</g>
	<g id="XMLID_3_">
		<path id="XMLID_4_" class="st0" d="M-124.3,104.4c0,0,5.1-11.2,10.4-0.3c0.1,0.2,0.2,0.4,0.3,0.6c0.7,1.6,5.1,11,10.6-0.2
			c6-12.3,11,0,11,0"/>
	</g>
</g>
</svg>
