<svg xmlns="http://www.w3.org/2000/svg" xmlns:xlink="http://www.w3.org/1999/xlink" viewBox="0 0 392.92 430.16"><defs><style>.cls-1,.cls-4{fill:none;}.cls-2{fill:#3cf0bb;}.cls-3{clip-path:url(#clip-path);}.cls-4{stroke:#418fff;stroke-miterlimit:10;stroke-width:8px;}</style><clipPath id="clip-path"><circle class="cls-1" cx="189.93" cy="267.51" r="161.16" transform="translate(-105.4 410.39) rotate(-80.44)"/></clipPath></defs><title>s1</title><g id="图层_12" data-name="图层 12"><ellipse id="_椭圆_bg" data-name="&lt;椭圆&gt;bg" class="cls-2" cx="252.76" cy="121.43" rx="111.42" ry="111.47"/><g class="cls-3"><path class="cls-4" d="M72.46,391.76s-9-41.13,27.8-22.48c.65.33,1.29.68,1.92,1,5.29,3,36.81,19.55,28.58-22.57-9-45.93,30-22.64,30-22.64s40.78,23.54,29.32-22.13,29.49-21.9,29.49-21.9,42.66,27.66,30.34-22.9,29.87-20.38,29.87-20.38,39.25,26,30-22.64,30.5-21.52,30.5-21.52,35.94,26.69,28.93-21,30.35-25.31,30.35-25.31"/><path class="cls-4" d="M103.56,433s-9-41.13,27.8-22.48c.65.33,1.29.68,1.92,1,5.29,3,36.81,19.55,28.58-22.57-9-45.93,30-22.64,30-22.64s40.78,23.54,29.32-22.13,29.49-21.9,29.49-21.9,42.66,27.66,30.34-22.9S310.87,279,310.87,279s39.25,26,30-22.64,30.5-21.52,30.5-21.52,35.94,26.69,28.93-21,30.35-25.31,30.35-25.31"/><path class="cls-4" d="M134.65,474.16s-9-41.13,27.8-22.48c.65.33,1.29.68,1.92,1,5.29,3,36.81,19.55,28.58-22.57-9-45.93,30-22.64,30-22.64s40.78,23.54,29.32-22.13,29.49-21.9,29.49-21.9,42.66,27.66,30.34-22.9S342,320.2,342,320.2s39.25,26,30-22.64S402.46,276,402.46,276s35.94,26.69,28.93-21,30.35-25.31,30.35-25.31"/><path class="cls-4" d="M165.74,515.35s-9-41.13,27.8-22.48c.65.33,1.29.68,1.92,1,5.29,3,36.81,19.55,28.58-22.57-9-45.93,30-22.64,30-22.64s40.78,23.54,29.32-22.13,29.49-21.9,29.49-21.9,42.66,27.66,30.34-22.9,29.87-20.38,29.87-20.38,39.25,26,30-22.64,30.5-21.52,30.5-21.52,35.94,26.69,28.93-21,30.35-25.31,30.35-25.31"/><path class="cls-4" d="M-52.43,228.1s-9-41.13,27.8-22.48c.65.33,1.29.68,1.92,1,5.29,3,36.81,19.55,28.58-22.57-9-45.93,30-22.64,30-22.64S76.65,185,65.19,139.33s29.49-21.9,29.49-21.9,42.66,27.66,30.34-22.9,29.87-20.38,29.87-20.38,39.25,26,30-22.64S215.39,30,215.39,30s35.94,26.69,28.93-21S274.67-16.3,274.67-16.3"/><path class="cls-4" d="M-21.33,269.3s-9-41.13,27.8-22.48c.65.33,1.29.68,1.92,1,5.29,3,36.81,19.55,28.58-22.57-9-45.93,30-22.64,30-22.64s40.78,23.54,29.32-22.13,29.49-21.9,29.49-21.9,42.66,27.66,30.34-22.9S186,115.35,186,115.35s39.25,26,30-22.64,30.5-21.52,30.5-21.52,35.94,26.69,28.93-21S305.76,24.9,305.76,24.9"/><path class="cls-4" d="M9.76,310.5s-9-41.13,27.8-22.48c.65.33,1.29.68,1.92,1,5.29,3,36.81,19.55,28.58-22.57-9-45.93,30-22.64,30-22.64s40.78,23.54,29.32-22.13,29.49-21.9,29.49-21.9,42.66,27.66,30.34-22.9,29.87-20.38,29.87-20.38,39.25,26,30-22.64,30.5-21.52,30.5-21.52,35.94,26.69,28.93-21,30.35-25.31,30.35-25.31"/><path class="cls-4" d="M40.85,351.69s-9-41.13,27.8-22.48c.65.33,1.29.68,1.92,1,5.29,3,36.81,19.55,28.58-22.57-9-45.93,30-22.64,30-22.64s40.78,23.54,29.32-22.13S188,241,188,241s42.66,27.66,30.34-22.9,29.87-20.38,29.87-20.38,39.25,26,30-22.64,30.5-21.52,30.5-21.52,35.94,26.69,28.93-21,30.35-25.31,30.35-25.31"/></g></g></svg>