<svg id="图层_1" data-name="图层 1" xmlns="http://www.w3.org/2000/svg" xmlns:xlink="http://www.w3.org/1999/xlink" viewBox="0 0 560.2 535.93"><defs><style>.cls-1,.cls-4{fill:none;}.cls-2{fill:#fc6;stroke:#fc6;}.cls-2,.cls-4{stroke-miterlimit:10;}.cls-3{clip-path:url(#clip-path);}.cls-4{stroke:#418fff;stroke-width:8px;}</style><clipPath id="clip-path"><circle class="cls-1" cx="392.92" cy="164.79" r="161.16" transform="translate(165.18 524.89) rotate(-80.44)"/></clipPath></defs><title>big</title><ellipse id="_椭圆_bg" data-name="&lt;椭圆&gt;bg" class="cls-2" cx="228.76" cy="316.38" rx="215.85" ry="215.95"/><g class="cls-3"><path class="cls-4" d="M275.45,289s-9-41.13,27.8-22.48c.65.33,1.29.68,1.92,1,5.29,3,36.81,19.55,28.58-22.57-9-45.93,30-22.64,30-22.64s40.78,23.54,29.32-22.13,29.49-21.9,29.49-21.9,42.66,27.66,30.34-22.9,29.87-20.38,29.87-20.38,39.25,26,30-22.64,30.5-21.52,30.5-21.52,35.94,26.69,28.93-21,30.35-25.31,30.35-25.31"/><path class="cls-4" d="M306.54,330.24s-9-41.13,27.8-22.48c.65.33,1.29.68,1.92,1,5.29,3,36.81,19.55,28.58-22.57-9-45.93,30-22.64,30-22.64s40.78,23.54,29.32-22.13,29.49-21.9,29.49-21.9,42.66,27.66,30.34-22.9,29.87-20.38,29.87-20.38,39.25,26,30-22.64,30.5-21.52,30.5-21.52,35.94,26.69,28.93-21,30.35-25.31,30.35-25.31"/><path class="cls-4" d="M337.63,371.43s-9-41.13,27.8-22.48c.65.33,1.29.68,1.92,1,5.29,3,36.81,19.55,28.58-22.57-9-45.93,30-22.64,30-22.64s40.78,23.54,29.32-22.13,29.49-21.9,29.49-21.9,42.66,27.66,30.34-22.9S545,217.48,545,217.48s39.25,26,30-22.64,30.5-21.52,30.5-21.52,35.94,26.69,28.93-21S664.73,127,664.73,127"/><path class="cls-4" d="M368.73,412.63s-9-41.13,27.8-22.48c.65.33,1.29.68,1.92,1,5.29,3,36.81,19.55,28.58-22.57C418,322.7,457,346,457,346s40.78,23.54,29.32-22.13S515.83,302,515.83,302s42.66,27.66,30.34-22.9S576,258.68,576,258.68s39.25,26,30-22.64,30.5-21.52,30.5-21.52,35.94,26.69,28.93-21,30.35-25.31,30.35-25.31"/><path class="cls-4" d="M150.56,125.38s-9-41.13,27.8-22.48c.65.33,1.29.68,1.92,1,5.29,3,36.81,19.55,28.58-22.57-9-45.93,30-22.64,30-22.64s40.78,23.54,29.32-22.13,29.49-21.9,29.49-21.9S340.32,42.36,328-8.19s29.87-20.38,29.87-20.38,39.25,26,30-22.64,30.5-21.52,30.5-21.52,35.94,26.69,28.93-21S477.66-119,477.66-119"/><path class="cls-4" d="M181.65,166.57s-9-41.13,27.8-22.48c.65.33,1.29.68,1.92,1,5.29,3,36.81,19.55,28.58-22.57-9-45.93,30-22.64,30-22.64s40.78,23.54,29.32-22.13,29.49-21.9,29.49-21.9S371.41,83.56,359.1,33,389,12.62,389,12.62s39.25,26,30-22.64,30.5-21.52,30.5-21.52,35.94,26.69,28.93-21,30.35-25.31,30.35-25.31"/><path class="cls-4" d="M212.74,207.77s-9-41.13,27.8-22.48c.65.33,1.29.68,1.92,1,5.29,3,36.81,19.55,28.58-22.57-9-45.93,30-22.64,30-22.64s40.78,23.54,29.32-22.13,29.49-21.9,29.49-21.9,42.66,27.66,30.34-22.9,29.87-20.38,29.87-20.38,39.25,26,30-22.64,30.5-21.52,30.5-21.52,35.94,26.69,28.93-21,30.35-25.31,30.35-25.31"/><path class="cls-4" d="M243.84,249s-9-41.13,27.8-22.48c.65.33,1.29.68,1.92,1,5.29,3,36.81,19.55,28.58-22.57-9-45.93,30-22.64,30-22.64s40.78,23.54,29.32-22.13,29.49-21.9,29.49-21.9S433.6,166,421.29,115.4,451.15,95,451.15,95s39.25,26,30-22.64,30.5-21.52,30.5-21.52,35.94,26.69,28.93-21S570.94,4.57,570.94,4.57"/></g></svg>