<svg xmlns="http://www.w3.org/2000/svg" xmlns:xlink="http://www.w3.org/1999/xlink" viewBox="0 0 216.02 225.02"><defs><style>.cls-1,.cls-5{fill:none;}.cls-2{clip-path:url(#clip-path);}.cls-3{fill:#f8d252;}.cls-4{fill:#ff9ffe;}.cls-5{stroke:#418fff;stroke-miterlimit:10;stroke-width:10px;}</style><clipPath id="clip-path"><rect class="cls-1" x="-1460.74" y="-426.99" width="1085" height="1079"/></clipPath></defs><title>s2</title><g id="图层_22" data-name="图层 22"><g class="cls-2"><circle class="cls-3" cx="-271.24" cy="330.51" r="812.5"/></g></g><g id="图层_23" data-name="图层 23"><circle id="element_circle" class="cls-4" cx="61.03" cy="143.5" r="47.44" transform="translate(-84.97 88.73) rotate(-46.4)"/><path class="cls-5" d="M79.81,203.16s-14-35.16,21.37-24c.63.2,1.24.42,1.86.65,5.14,1.92,35.51,12,22-24.19-14.68-39.43,23.3-24.47,23.3-24.47s39.61,14.92,22.77-23.91,23-23.73,23-23.73"/><path class="cls-5" d="M43.81,118.16s-14-35.16,21.37-24c.63.2,1.24.42,1.86.65,5.14,1.92,35.51,12,22-24.19-14.68-39.43,23.3-24.47,23.3-24.47"/></g></svg>