<?xml version="1.0" encoding="utf-8"?>
<!-- Generator: Adobe Illustrator 19.0.0, SVG Export Plug-In . SVG Version: 6.00 Build 0)  -->
<svg version="1.1" id="图层_1" xmlns="http://www.w3.org/2000/svg" xmlns:xlink="http://www.w3.org/1999/xlink" x="0px" y="0px"
	 viewBox="0 0 60 60" style="enable-background:new 0 0 60 60;" xml:space="preserve">
<style type="text/css">
	.st0{clip-path:url(#SVGID_1_);}
	.st1{fill:none;stroke:#4C82C3;stroke-width:1.4784;stroke-miterlimit:10;}
</style>
<g id="XMLID_2_">
	<defs>
		<circle id="SVGID_3_" cx="29.8" cy="29.8" r="29.8"/>
	</defs>
	<clipPath id="SVGID_1_">
		<use xlink:href="#SVGID_3_"  style="overflow:visible;"/>
	</clipPath>
	<g id="XMLID_3_" class="st0">
		<g id="XMLID_80_">
			<g id="XMLID_86_">
				<path id="XMLID_90_" class="st1" d="M8.1,52.7c0,0-1.7-7.6,5.1-4.2c0.1,0.1,0.2,0.1,0.4,0.2c1,0.6,6.8,3.6,5.3-4.2
					c-1.7-8.5,5.5-4.2,5.5-4.2s7.5,4.4,5.4-4.1s5.4-4,5.4-4s7.9,5.1,5.6-4.2c-2.3-9.3,5.5-3.8,5.5-3.8s7.3,4.8,5.5-4.2s5.6-4,5.6-4
					s6.6,4.9,5.3-3.9s5.6-4.7,5.6-4.7"/>
				<path id="XMLID_89_" class="st1" d="M13.9,60.4c0,0-1.7-7.6,5.1-4.2c0.1,0.1,0.2,0.1,0.4,0.2c1,0.6,6.8,3.6,5.3-4.2
					C23,43.7,30.2,48,30.2,48s7.5,4.4,5.4-4.1s5.4-4,5.4-4s7.9,5.1,5.6-4.2s5.5-3.8,5.5-3.8s7.3,4.8,5.5-4.2s5.6-4,5.6-4
					s6.6,4.9,5.3-3.9s5.6-4.7,5.6-4.7"/>
				<path id="XMLID_88_" class="st1" d="M19.6,68c0,0-1.7-7.6,5.1-4.2c0.1,0.1,0.2,0.1,0.4,0.2c1,0.6,6.8,3.6,5.3-4.2
					c-1.7-8.5,5.5-4.2,5.5-4.2s7.5,4.4,5.4-4.1s5.4-4,5.4-4s7.9,5.1,5.6-4.2s5.5-3.8,5.5-3.8s7.3,4.8,5.5-4.2c-1.7-9,5.6-4,5.6-4
					s6.6,4.9,5.3-3.9c-1.3-8.8,5.6-4.7,5.6-4.7"/>
				<path id="XMLID_87_" class="st1" d="M25.3,75.6c0,0-1.7-7.6,5.1-4.2c0.1,0.1,0.2,0.1,0.4,0.2c1,0.6,6.8,3.6,5.3-4.2
					c-1.7-8.5,5.5-4.2,5.5-4.2s7.5,4.4,5.4-4.1s5.4-4,5.4-4s7.9,5.1,5.6-4.2s5.5-3.8,5.5-3.8s7.3,4.8,5.5-4.2s5.6-4,5.6-4
					s6.6,4.9,5.3-3.9s5.6-4.7,5.6-4.7"/>
			</g>
			<g id="XMLID_81_">
				<path id="XMLID_85_" class="st1" d="M-15,22.5c0,0-1.7-7.6,5.1-4.2c0.1,0.1,0.2,0.1,0.4,0.2c1,0.6,6.8,3.6,5.3-4.2
					c-1.7-8.5,5.5-4.2,5.5-4.2s7.5,4.4,5.4-4.1s5.4-4,5.4-4s7.9,5.1,5.6-4.2s5.5-3.8,5.5-3.8s7.3,4.8,5.5-4.2s5.6-4,5.6-4
					s6.6,4.9,5.3-3.9c-1.3-8.8,5.6-4.7,5.6-4.7"/>
				<path id="XMLID_84_" class="st1" d="M-9.2,30.1c0,0-1.7-7.6,5.1-4.2c0.1,0.1,0.2,0.1,0.4,0.2c1,0.6,6.8,3.6,5.3-4.2
					c-1.7-8.5,5.5-4.2,5.5-4.2s7.5,4.4,5.4-4.1s5.4-4,5.4-4s7.9,5.1,5.6-4.2s5.5-3.8,5.5-3.8s7.3,4.8,5.5-4.2s5.6-4,5.6-4
					s6.6,4.9,5.3-3.9c-1.3-8.8,5.6-4.7,5.6-4.7"/>
				<path id="XMLID_83_" class="st1" d="M-3.5,37.7c0,0-1.7-7.6,5.1-4.2c0.1,0.1,0.2,0.1,0.4,0.2c1,0.6,6.8,3.6,5.3-4.2
					c-1.7-8.5,5.5-4.2,5.5-4.2s7.5,4.4,5.4-4.1s5.4-4,5.4-4s7.9,5.1,5.6-4.2s5.5-3.8,5.5-3.8s7.3,4.8,5.5-4.2s5.6-4,5.6-4
					s6.6,4.9,5.3-3.9C50.1-11.6,57-7.4,57-7.4"/>
				<path id="XMLID_82_" class="st1" d="M2.3,45.3c0,0-1.7-7.6,5.1-4.2c0.1,0.1,0.2,0.1,0.4,0.2c1,0.6,6.8,3.6,5.3-4.2
					c-1.7-8.5,5.5-4.2,5.5-4.2s7.5,4.4,5.4-4.1s5.4-4,5.4-4s7.9,5.1,5.6-4.2s5.5-3.8,5.5-3.8s7.3,4.8,5.5-4.2s5.6-4,5.6-4
					s6.6,4.9,5.3-3.9c-1.3-8.8,5.6-4.7,5.6-4.7"/>
			</g>
		</g>
	</g>
</g>
</svg>
