<?xml version="1.0" encoding="utf-8"?>
<!-- Generator: Adobe Illustrator 19.0.0, SVG Export Plug-In . SVG Version: 6.00 Build 0)  -->
<svg version="1.1" id="图层_1" xmlns="http://www.w3.org/2000/svg" xmlns:xlink="http://www.w3.org/1999/xlink" x="0px" y="0px"
	 viewBox="0 0 436.3 323" style="enable-background:new 0 0 436.3 323;" xml:space="preserve">
<style type="text/css">
	.st0{fill:#9EB2B9;}
	.st1{fill:#DB7C1E;}
	.st2{opacity:0.45;fill:#95A5C3;}
	.st3{opacity:0.4;fill:#837C99;}
	.st4{opacity:0.31;fill:#9EB2B9;}
	.st5{opacity:0.29;fill:#CFE8F3;}
	.st6{fill:none;stroke:#95A5C3;stroke-width:8.507;stroke-miterlimit:10;}
	.st7{fill:none;stroke:#95A5C3;stroke-width:7.8443;stroke-miterlimit:10;}
	.st8{fill:#FFFFFF;}
	.st9{fill:#5B4235;}
	.st10{fill:#79191D;}
	.st11{fill:none;stroke:#3B182D;stroke-width:6.3803;stroke-miterlimit:10;}
</style>
<g id="XMLID_2_">
	<path id="XMLID_33_" class="st0" d="M20.5,187.6c0-0.1-0.1-0.2-0.2-0.2l-1.7-0.2l-0.7-1.5c0-0.1-0.2-0.2-0.3-0.2
		c-0.1,0-0.2,0.1-0.3,0.2l-0.7,1.5l-1.7,0.2c-0.1,0-0.2,0.1-0.2,0.2c0,0.1,0,0.2,0.1,0.3l1.2,1.2l-0.3,1.7c0,0.1,0,0.2,0.1,0.3
		c0.1,0.1,0.2,0.1,0.3,0l1.5-0.8l1.5,0.8c0,0,0.1,0,0.1,0c0.1,0,0.1,0,0.2-0.1c0.1-0.1,0.1-0.2,0.1-0.3l-0.3-1.7l1.2-1.2
		C20.5,187.8,20.5,187.7,20.5,187.6z"/>
	<path id="XMLID_32_" class="st0" d="M85.3,158.4l-0.9,4.9c-0.1,0.3,0.1,0.6,0.3,0.8c0.3,0.2,0.6,0.2,0.9,0.1l4.4-2.3l4.4,2.3
		c0.1,0.1,0.3,0.1,0.4,0.1c0.2,0,0.4-0.1,0.5-0.2c0.3-0.2,0.4-0.5,0.3-0.8l-0.9-4.9l3.6-3.4c0.2-0.2,0.3-0.6,0.2-0.9
		c-0.1-0.3-0.4-0.5-0.7-0.6l-4.9-0.7l-2.2-4.5c-0.1-0.3-0.4-0.5-0.8-0.5c-0.3,0-0.6,0.2-0.8,0.5l-2.2,4.5l-4.9,0.7
		c-0.3,0-0.6,0.3-0.7,0.6c-0.1,0.3,0,0.7,0.2,0.9L85.3,158.4z"/>
	<path id="XMLID_31_" class="st0" d="M121.1,60.5c-0.2,0-0.5,0.1-0.6,0.3L119,64l-3.5,0.5c-0.2,0-0.4,0.2-0.5,0.4
		c-0.1,0.2,0,0.5,0.2,0.6l2.6,2.5l-0.6,3.5c0,0.2,0.1,0.5,0.2,0.6c0.2,0.1,0.4,0.2,0.7,0l3.2-1.7l3.2,1.7c0.1,0,0.2,0.1,0.3,0.1
		c0.1,0,0.3,0,0.4-0.1c0.2-0.1,0.3-0.4,0.2-0.6l-0.6-3.5l2.6-2.5c0.2-0.2,0.2-0.4,0.2-0.6c-0.1-0.2-0.3-0.4-0.5-0.4l-3.5-0.5
		l-1.6-3.2C121.6,60.6,121.3,60.5,121.1,60.5z"/>
	<path id="XMLID_30_" class="st0" d="M191.8,17.9c-0.2,0-0.5,0.1-0.6,0.3l-1.6,3.2l-3.5,0.5c-0.2,0-0.4,0.2-0.5,0.4
		c-0.1,0.2,0,0.5,0.2,0.6l2.6,2.5l-0.6,3.5c0,0.2,0.1,0.5,0.2,0.6c0.2,0.1,0.4,0.2,0.7,0l3.2-1.7l3.2,1.7c0.1,0,0.2,0.1,0.3,0.1
		c0.1,0,0.3,0,0.4-0.1c0.2-0.1,0.3-0.4,0.2-0.6l-0.6-3.5l2.6-2.5c0.2-0.2,0.2-0.4,0.2-0.6c-0.1-0.2-0.3-0.4-0.5-0.4l-3.5-0.5
		l-1.6-3.2C192.2,18.1,192,17.9,191.8,17.9z"/>
	<path id="XMLID_29_" class="st0" d="M13.9,74.4c2.2-6.4,6.5-11.5,11.9-14.7C15,60.2,5.1,67.3,1.4,78.1c-4.8,14.2,2.8,29.6,17,34.5
		c7.8,2.6,16,1.5,22.6-2.4c-3.3,0.2-6.7-0.3-10.1-1.4C16.8,104,9.1,88.6,13.9,74.4z"/>
	<polygon id="XMLID_28_" class="st0" points="362.5,137.2 364.7,136.2 366.8,137.2 366.6,134.8 368.2,133.1 365.9,132.6 
		364.7,130.6 363.5,132.6 361.2,133.1 362.8,134.8 	"/>
	<polygon id="XMLID_27_" class="st0" points="251.6,79.5 245,78.2 241.6,72.3 238.3,78.2 231.7,79.5 236.2,84.5 235.5,91.2 
		241.6,88.5 247.8,91.2 247,84.5 	"/>
	<polygon id="XMLID_26_" class="st0" points="342.5,67.5 349,70.4 348.2,63.4 353,58.1 346.1,56.7 342.5,50.5 339,56.7 332,58.1 
		336.8,63.4 336.1,70.4 	"/>
	<polygon id="XMLID_25_" class="st0" points="317.5,203.7 319.7,202.8 321.9,203.7 321.6,201.4 323.2,199.6 320.9,199.1 
		319.7,197.1 318.5,199.1 316.2,199.6 317.8,201.4 	"/>
	<polygon id="XMLID_24_" class="st0" points="425.8,163.2 432.3,166.1 431.5,159 436.3,153.8 429.4,152.3 425.8,146.2 422.3,152.3 
		415.3,153.8 420.1,159 419.3,166.1 	"/>
	<circle id="XMLID_23_" class="st1" cx="216.5" cy="161.5" r="21.3"/>
	<circle id="XMLID_22_" class="st2" cx="217.1" cy="161.5" r="42.4"/>
	<circle id="XMLID_21_" class="st3" cx="217.1" cy="161.5" r="70.1"/>
	<circle id="XMLID_20_" class="st4" cx="216.5" cy="161.5" r="105.8"/>
	<circle id="XMLID_19_" class="st5" cx="217.1" cy="161.5" r="161.5"/>
	<path id="XMLID_18_" class="st6" d="M293.8,224.6c0,0,11.7,0.5,11.5-7.3c0,0,2.5-10.6-11.5-10.5"/>
	<path id="XMLID_17_" class="st6" d="M316.2,225.3c0,0,11.7,0.5,11.5-7.3c0,0,2.5-10.6-11.5-10.5"/>
	<path id="XMLID_16_" class="st6" d="M336.7,224.6c0,0,11.7,0.5,11.5-7.3c0,0,2.5-10.6-11.5-10.5"/>
	<path id="XMLID_15_" class="st7" d="M355.2,225.3h14.5c4.5,0,8.5-2.4,10.1-5.7c0.5-1.1,0.8-2.3,0.7-3.6c0-0.1,0-0.1,0-0.2
		c0-10.4-11.9-8-11.9-8"/>
	<line id="XMLID_14_" class="st6" x1="237.8" y1="253.8" x2="336.7" y2="253.8"/>
	<line id="XMLID_13_" class="st6" x1="367.8" y1="252.2" x2="392" y2="252.2"/>
	<line id="XMLID_12_" class="st6" x1="265.1" y1="279.9" x2="313.7" y2="279.9"/>
	<line id="XMLID_11_" class="st6" x1="332.5" y1="279.9" x2="345.2" y2="279.9"/>
	<path id="XMLID_10_" class="st7" d="M225.9,224.6h48.7c4.5,0,8.5-2.4,10.1-5.7c0.5-1.1,0.8-2.3,0.7-3.6c0-0.1,0-0.1,0-0.2
		c0-10.4-11.9-8-11.9-8"/>
	<polygon id="XMLID_9_" class="st8" points="194.9,146.8 188.3,291.9 246,291.9 235.6,146.8 	"/>
	<polygon id="XMLID_8_" class="st9" points="215.7,119.6 186.7,146.8 243.4,146.8 	"/>
	<circle id="XMLID_7_" class="st1" cx="216.5" cy="161.5" r="9.6"/>
	<polygon id="XMLID_6_" class="st10" points="190.8,235.2 237.5,189.8 240.2,230.6 189,270.3 	"/>
	<polygon id="XMLID_5_" class="st10" points="242.7,260.4 209.6,291.9 242.7,291.9 	"/>
	<polyline id="XMLID_4_" class="st11" points="188.5,261.6 186.7,291.9 244.5,291.9 235.5,182.7 192.9,182.7 191.2,223 	"/>
	<line id="XMLID_3_" class="st11" x1="185.6" y1="180.4" x2="245.8" y2="180.4"/>
</g>
</svg>
