<?xml version="1.0" encoding="utf-8"?>
<!-- Generator: Adobe Illustrator 19.0.0, SVG Export Plug-In . SVG Version: 6.00 Build 0)  -->
<svg version="1.1" id="图层_1" xmlns="http://www.w3.org/2000/svg" xmlns:xlink="http://www.w3.org/1999/xlink" x="0px" y="0px"
	 viewBox="0 0 291.1 291.1" style="enable-background:new 0 0 291.1 291.1;" xml:space="preserve">
<style type="text/css">
	.st0{clip-path:url(#XMLID_18_);}
	.st1{fill:#F7C4A1;}
	.st2{fill:#544741;}
	.st3{fill:#FBDDC7;}
	.st4{fill:#EF9D96;}
	.st5{fill:#040000;}
	.st6{fill:#DB6A5E;}
	.st7{fill:#9EB1BA;}
</style>
<g id="XMLID_2_">
	<defs>
		<circle id="XMLID_3_" cx="146.1" cy="146" r="145.1"/>
	</defs>
	<use xlink:href="#XMLID_3_"  style="overflow:visible;fill:#6593C7;"/>
	<clipPath id="XMLID_18_">
		<use xlink:href="#XMLID_3_"  style="overflow:visible;"/>
	</clipPath>
	<g id="XMLID_4_" class="st0">
		<path id="XMLID_17_" class="st1" d="M149.5,251.7c4.9-2.9,19.3-19.9,23.8-25.2c-5.9-3.1-4.8-10.7-4.8-16.5c0-0.8-0.1-1.8-0.7-2.3
			c-0.4-0.3-0.9-0.3-1.3-0.4c-5.9-0.5-12-0.4-17.8-0.4c-5.9,0-11.7,0-17.5-0.5c-0.2,0-0.4,0-0.6,0.1c-0.3,0.2-0.3,0.5-0.3,0.8
			c-0.1,3.2,0,6.4-0.5,9.6c-0.6,3.7-2.3,7.5-5.7,9.4C131.7,236.6,145.4,254.1,149.5,251.7z"/>
		<path id="XMLID_16_" class="st2" d="M209.1,152.2c0,0,14.7-37.3,4.8-71.9c-6.6-23.2-33.8-31.5-55.2-33.4
			c-12.1-1.1-24.3-0.4-36.1,2.1c-16.7,3.5-31.7,7.4-48.5,1.3c-1.8-0.6-3.6-1.4-5.4-1.2c-1.9,0.2-3.8,1.6-3.7,3.5
			c0,0.9,0.5,1.7,0.9,2.4c2.7,4.7,6.3,8.9,10.6,12.3c-1.8,0.1-3.6-0.7-5.4-1c-1.8-0.3-4,0.1-4.9,1.7c-0.6,1-0.5,2.3-0.2,3.4
			c1.1,5.9,4.8,11.2,9.9,14.4c-1.8-1.6-5-0.5-6,1.7c-1,2.2-0.2,4.8,1.1,6.9c1.3,2,3.1,3.7,4.6,5.6c5.3,6.8,3.6,15.3,4.6,23.3
			c1.3,10.6,0.7,25.5,11.9,31.5C102.7,160.5,209.1,152.2,209.1,152.2z"/>
		<path id="XMLID_15_" class="st3" d="M102.5,93.7c0,0,10.6,25,43.9,23.4c33.3-1.7,37.5-1.2,47.6,6.9c10,8.1,6.3,41.1,6,49.6
			c-0.4,8.6-13.5,49.2-49.4,49.3c-35.9,0.2-49-35.8-50.6-44.8c-1.6-9.1-3.8-51.9-3.8-51.9S103.2,108.7,102.5,93.7z"/>
		<path id="XMLID_14_" class="st3" d="M197.4,150.5c0,0,1.3-9.6,8.6-6.6c7.3,3,5.1,20.4-8.6,23.6"/>
		<path id="XMLID_13_" class="st3" d="M99.4,150.5c0,0-1.3-9.6-8.6-6.6c-7.3,3-5.1,20.4,8.6,23.6"/>
		<ellipse id="XMLID_12_" class="st4" cx="114.4" cy="169" rx="8.6" ry="6.6"/>
		<ellipse id="XMLID_11_" class="st4" cx="184.9" cy="169" rx="8.6" ry="6.6"/>
		<ellipse id="XMLID_10_" class="st5" cx="117.2" cy="149" rx="3.8" ry="5.3"/>
		<ellipse id="XMLID_9_" class="st5" cx="180.2" cy="149" rx="3.8" ry="5.3"/>
		<path id="XMLID_8_" class="st6" d="M130.3,179h37.2c0,0-2.5,18.7-18.6,18.9C133.4,198,130.3,179,130.3,179z"/>
		<g id="XMLID_5_">
			<path id="XMLID_7_" class="st7" d="M184.1,231.8c-4.4-2.4-8.2-4-10.8-5.4c-4.4,5.3-18.9,22.3-23.8,25.2
				c-4.1,2.5-17.8-15-25.5-25.4c-2.5,1.3-6.4,3-10.8,5.4c10.9,44.8,39.3,87.4,39.3,87.4C168.5,289.9,179.2,251.5,184.1,231.8z"/>
			<path id="XMLID_6_" class="st7" d="M220.8,281.5c-6-29.4-23.8-42.6-36.7-49.6c-4.9,19.7-15.6,58-31.5,87.2
				c0,0-28.4-42.6-39.3-87.4c-13,6.9-31.1,20.1-37.1,49.8c-3.9,19.5-5.7,37-6.4,50.2h157.5C226.5,318.4,224.7,300.9,220.8,281.5z"/>
		</g>
	</g>
</g>
</svg>
