<?xml version="1.0" encoding="utf-8"?>
<!-- Generator: Adobe Illustrator 19.0.0, SVG Export Plug-In . SVG Version: 6.00 Build 0)  -->
<svg version="1.1" id="图层_1" xmlns="http://www.w3.org/2000/svg" xmlns:xlink="http://www.w3.org/1999/xlink" x="0px" y="0px"
	 viewBox="0 0 942.6 923" style="enable-background:new 0 0 942.6 923;" xml:space="preserve">
<style type="text/css">
	.st0{fill:#A4D5B8;}
	.st1{fill:#B2B4B7;}
	.st2{fill:#6492C6;}
	.st3{fill:#F8FAFB;}
	.st4{fill:#8081B7;}
	.st5{fill:none;stroke:#D4D4D2;stroke-width:1.8891;stroke-miterlimit:10;}
	.st6{fill:none;stroke:#070001;stroke-width:2.1092;stroke-miterlimit:10;}
	.st7{fill:#070001;}
	.st8{fill:#F8DBC5;}
	.st9{fill:#E79992;}
	.st10{fill:#D33728;}
	.st11{font-family:'Edelsans';}
	.st12{font-size:16px;}
</style>
<path id="XMLID_34_" class="st0" d="M943,922.3V0C437.9,6.5,30.1,416.4,27.1,922.3H943z"/>
<g id="XMLID_32_">
	<path id="XMLID_33_" class="st1" d="M331.4,667.9c-70.4,0-127.5,57.1-127.5,127.5c0,8.6,0.9,16.9,2.5,25l125-25V667.9z"/>
</g>
<path id="XMLID_31_" class="st2" d="M331.4,795.4l0,127.5c-10.5,0-58.2,1.7-98.1-45.5c-20.7-24.4-37-57.6-24.5-117.2L331.4,795.4z"
	/>
<path id="XMLID_30_" class="st3" d="M222.8,795.4c0,60,48.6,108.6,108.6,108.6V686.8C271.4,686.8,222.8,735.4,222.8,795.4z"/>
<path id="XMLID_29_" class="st4" d="M430.2,714.8l-98.8,80.5v127.5c61.9,0,113.4-44.1,125-102.5c1.6-8.1,2.5-16.4,2.5-25
	C458.9,764.8,448.2,736.8,430.2,714.8z"/>
<path id="XMLID_28_" class="st1" d="M331.4,667.9v127.5l98.8-80.5C406.9,686.2,371.3,667.9,331.4,667.9z"/>
<path id="XMLID_27_" class="st3" d="M440,795.4c0,60-48.6,108.6-108.6,108.6V686.8C391.4,686.8,440,735.4,440,795.4z"/>
<line id="XMLID_26_" class="st5" x1="331.4" y1="904" x2="331.4" y2="686.8"/>
<polyline id="XMLID_25_" class="st6" points="434.9,742.3 458.7,766 599.1,766 "/>
<circle id="XMLID_24_" class="st7" cx="438.7" cy="744.2" r="5.3"/>
<polyline id="XMLID_23_" class="st6" points="233.5,861.3 209.7,837.6 65.7,837.6 "/>
<circle id="XMLID_22_" class="st7" cx="233.5" cy="859.4" r="5.3"/>
<g id="XMLID_12_">
	<path id="XMLID_21_" class="st2" d="M54.4,825.4c0,0,5.5-14,1.8-26.9c-2.5-8.7-12.6-11.8-20.6-12.5c-4.5-0.4-9.1-0.2-13.5,0.8
		c-6.2,1.3-11.9,2.8-18.2,0.5c-0.7-0.2-1.3-0.5-2-0.4c-0.7,0.1-1.4,0.6-1.4,1.3c0,0.3,0.2,0.6,0.3,0.9c1,1.8,2.4,3.3,4,4.6
		c-0.7,0-1.3-0.3-2-0.4c-0.7-0.1-1.5,0-1.8,0.6c-0.2,0.4-0.2,0.9-0.1,1.3c0.4,2.2,1.8,4.2,3.7,5.4c-0.7-0.6-1.9-0.2-2.2,0.7
		c-0.4,0.8-0.1,1.8,0.4,2.6c0.5,0.8,1.2,1.4,1.7,2.1c2,2.6,1.3,5.7,1.7,8.7c0.5,4,0.2,9.5,4.4,11.8
		C14.6,828.6,54.4,825.4,54.4,825.4z"/>
	<path id="XMLID_20_" class="st8" d="M14.5,803.5c0,0,4,9.4,16.4,8.7c12.5-0.6,14.1-0.5,17.8,2.6c3.8,3,2.4,15.4,2.2,18.6
		c-0.1,3.2-5.1,18.4-18.5,18.5c-13.4,0.1-18.3-13.4-18.9-16.8c-0.6-3.4-1.4-19.4-1.4-19.4S14.8,809.2,14.5,803.5z"/>
	<path id="XMLID_19_" class="st8" d="M51,827.1c0,0,0.5-3.6,3.2-2.5c2.7,1.1,1.9,7.6-3.2,8.8"/>
	<path id="XMLID_18_" class="st8" d="M13.3,824.8c0,0-0.5-3.6-3.2-2.5s-1.9,7.6,3.2,8.8"/>
	<ellipse id="XMLID_17_" class="st9" cx="19" cy="831.7" rx="3.2" ry="2.5"/>
	<ellipse id="XMLID_16_" class="st9" cx="45.3" cy="831.7" rx="3.2" ry="2.5"/>
	<ellipse id="XMLID_15_" class="st7" cx="20" cy="824.2" rx="1.4" ry="2"/>
	<ellipse id="XMLID_14_" class="st7" cx="43.6" cy="824.2" rx="1.4" ry="2"/>
	<path id="XMLID_13_" class="st10" d="M24.9,835.5h13.9c0,0-0.9,7-7,7.1C26.1,842.6,24.9,835.5,24.9,835.5z"/>
</g>
<g id="XMLID_4_">
	<path id="XMLID_11_" class="st4" d="M640.6,797.9c-0.3,0.1-0.6,0.2-1,0.3c-2.1,0.8-4.2,2.6-6.5,2.5c-2.1-0.1-4.5-0.9-6.5-1.4
		c-0.3-0.1-0.6-0.1-0.9-0.4c-0.2-0.2-0.3-0.6-0.3-0.9c-0.1-1.5,0.2-3.1-0.8-4.2c-0.9-1-2.5-0.9-3.8-1.3c-3.5-1.2-4.6-7.1-4-10.3
		c0.4-2.2,2.5-3.4,2.5-5.8c0-2.2-1.5-4.1-2-6.2c-0.5-2.4-0.7-4.8,0.1-7.2c1.6-4.6,6.3-7,7.3-11.9c0.5-2.3,0.5-4.7,0.8-7.1
		c0.6-5.4,2.7-13.5,7.5-16.6c1.2-0.8,2.7-1.6,4.1-2c0.3-0.1,3.2-0.4,2.8,0.2c2.7-4.5,7.2-5.7,12.1-5.8c4.5-0.1,9.1,1.5,12.6,4.4
		c4.8,3.9,7.8,9.8,8.7,15.9c0.3,1.7,0.4,3.5,0.9,5.2c0.5,1.7,1.6,3.3,3.1,4.1c1.3,0.6,2.8,0.7,4,1.4c1.2,0.8,1.9,2.3,2.4,3.6
		c0.6,1.4,1.1,2.9,0.9,4.4c-0.4,2.2-2.5,3.8-2.5,6c0,1.2,0.7,2.3,1.2,3.4c2,4.4,2.6,10.1-1.1,13.7c-1,1-2.3,2-2.2,3.4
		c0.1,0.9,0.7,1.6,1,2.4c0.9,2.3-0.8,4.8-2.8,6.2c-1.6,1.1-4.4,3.1-6.2,3.5c-2.4,0.5-4.8-1.8-7.2-1.8c-2.7,0-4.7,2.2-7.1,3.4
		c-2.8,1.4-6.4,1.3-9.2-0.1C645.9,797.5,643.4,797,640.6,797.9z"/>
	<path id="XMLID_10_" class="st8" d="M641.4,739.5c0.9-1.6,2.3-4.1,2-4.2c1.1,0.4,2.1,1.2,3.3,1.6c1.9,0.5,3.9,0.6,5.8,1.1
		c1.9,0.5,3.8,1.6,4.5,3.4c0.5,1.4,0.3,3,0.8,4.4c1.1,3.3,5.2,4.1,8,6.1c0.5,0.4,1,0.8,1.2,1.3c0.2,0.6,0.1,1.3,0.1,1.9
		c-0.3,3.2,0.7,5.6,1.6,8.5c0.9,2.8-0.6,5-1.8,7.4c-2.7,5.4-8.9,10.8-16.4,11.5c0,0-9.4-1-15.7-10.6c-3.1-4.7-2.4-11.3-2.3-16.6
		c0.2-6.4,5.2-9.6,8.2-14.7C640.8,740.6,641.1,740.1,641.4,739.5z"/>
	<ellipse id="XMLID_9_" class="st9" cx="637.7" cy="761.7" rx="3" ry="2.3"/>
	<ellipse id="XMLID_8_" class="st9" cx="663.5" cy="761.7" rx="3" ry="2.3"/>
	<ellipse id="XMLID_7_" class="st7" cx="639.5" cy="754" rx="1.4" ry="1.8"/>
	<ellipse id="XMLID_6_" class="st7" cx="660.9" cy="754" rx="1.4" ry="1.8"/>
	<path id="XMLID_5_" class="st10" d="M645,766h11c0,0-1.2,6.3-5.5,6.9C646.2,773.4,645,766,645,766z"/>
</g>
<text id="XMLID_3_" transform="matrix(1 0 0 1 355.5967 806.7576)" class="st4 st11 st12">54%</text>
<text id="XMLID_2_" transform="matrix(1 0 0 1 268.915 806.7576)" class="st2 st11 st12">41%</text>
</svg>
