<?xml version="1.0" encoding="utf-8"?>
<!-- Generator: Adobe Illustrator 19.0.0, SVG Export Plug-In . SVG Version: 6.00 Build 0)  -->
<svg version="1.1" id="图层_1" xmlns="http://www.w3.org/2000/svg" xmlns:xlink="http://www.w3.org/1999/xlink" x="0px" y="0px"
	 viewBox="0 0 433.7 323" style="enable-background:new 0 0 433.7 323;" xml:space="preserve">
<style type="text/css">
	.st0{opacity:0.45;fill:#DB7C1E;}
	.st1{opacity:0.4;fill:#D9AE58;}
	.st2{opacity:0.31;fill:#DB7C1E;}
	.st3{opacity:0.29;fill:#B4B6B8;}
	.st4{fill:#185939;}
	.st5{fill:#63AC7A;}
	.st6{fill:#86BF98;}
	.st7{fill:none;stroke:#95A5C3;stroke-width:8.5063;stroke-miterlimit:10;}
	.st8{fill:none;stroke:#95A5C3;stroke-width:7.8436;stroke-miterlimit:10;}
	.st9{fill:none;stroke:#231815;stroke-width:4.2531;stroke-miterlimit:10;}
	.st10{fill:none;stroke:#231815;stroke-width:8.5063;stroke-miterlimit:10;}
	.st11{fill:#9EB2B9;}
</style>
<g id="XMLID_7_">
	<circle id="XMLID_54_" class="st0" cx="215.7" cy="161.5" r="42.4"/>
	<circle id="XMLID_53_" class="st1" cx="215.7" cy="161.5" r="70.1"/>
	<circle id="XMLID_52_" class="st2" cx="215.1" cy="161.5" r="105.8"/>
	<circle id="XMLID_51_" class="st3" cx="215.7" cy="161.5" r="161.5"/>
	<polygon id="XMLID_50_" class="st4" points="11.2,292.6 98.4,132.5 190.9,292.6 	"/>
	<polygon id="XMLID_47_" class="st5" points="66.5,190.1 37.5,244.7 162.2,244.7 133,190.1 	"/>
	<polygon id="XMLID_44_" class="st6" points="66.6,190.1 98.2,132.5 133.1,190.1 	"/>
	<polygon id="XMLID_43_" class="st4" points="293.9,292.2 361.7,172.4 433.6,292.2 	"/>
	<polygon id="XMLID_40_" class="st5" points="337.2,210.7 312.9,254.1 410.5,254.1 384.5,210.7 	"/>
	<polygon id="XMLID_37_" class="st6" points="360.2,170.3 337.2,210.7 384.5,210.7 	"/>
	<path id="XMLID_36_" class="st7" d="M278.8,113.8c0,0,11.7,0.5,11.5-7.3c0,0,2.5-10.6-11.5-10.5"/>
	<path id="XMLID_35_" class="st7" d="M301.1,114.5c0,0,11.7,0.5,11.5-7.3c0,0,2.5-10.6-11.5-10.5"/>
	<path id="XMLID_34_" class="st7" d="M321.7,113.8c0,0,11.7,0.5,11.5-7.3c0,0,2.5-10.6-11.5-10.5"/>
	<path id="XMLID_33_" class="st8" d="M340.1,114.5h14.5c4.5,0,8.5-2.4,10.1-5.7c0.5-1.1,0.8-2.3,0.7-3.6c0-0.1,0-0.1,0-0.2
		c0-10.4-11.9-8-11.9-8"/>
	<line id="XMLID_32_" class="st7" x1="222.8" y1="143" x2="321.7" y2="143"/>
	<line id="XMLID_31_" class="st7" x1="352.8" y1="141.4" x2="377" y2="141.4"/>
	<line id="XMLID_30_" class="st7" x1="250.1" y1="169" x2="298.6" y2="169"/>
	<line id="XMLID_29_" class="st7" x1="317.4" y1="169" x2="330.2" y2="169"/>
	<path id="XMLID_28_" class="st8" d="M210.9,113.8h48.7c4.5,0,8.5-2.4,10.1-5.7c0.5-1.1,0.8-2.3,0.7-3.6c0-0.1,0-0.1,0-0.2
		c0-10.4-11.9-8-11.9-8"/>
	<polygon id="XMLID_27_" class="st4" points="97.8,292.6 214.1,86.8 337.6,292.6 	"/>
	<polygon id="XMLID_24_" class="st5" points="171.6,155.9 132.8,228.7 299.3,228.7 260.3,155.9 	"/>
	<polygon id="XMLID_21_" class="st6" points="171.1,155.9 213.5,78.6 260.3,155.9 	"/>
	<path id="XMLID_20_" class="st9" d="M258.6,189.9c2,4.2,37.2-0.4,37.6-33.1c0-1.3,2.5-1.3,2.5,0c-0.1,16.7,9.6,39.7,37.1,33"/>
	<line id="XMLID_19_" class="st9" x1="297.2" y1="156.1" x2="297.2" y2="293.4"/>
	<path id="XMLID_18_" class="st9" d="M258.6,232.3c2,4.2,37.2-0.4,37.6-33.1c0-1.3,2.5-1.3,2.5,0c-0.1,16.7,9.6,39.7,37.1,33"/>
	<path id="XMLID_17_" class="st9" d="M258.5,268.3c2,4.2,37.2-0.4,37.6-33.1c0-1.3,2.5-1.3,2.5,0c-0.1,16.7,9.6,39.7,37.1,33"/>
	<path id="XMLID_16_" class="st9" d="M92.1,224.4c2,4.2,37.2-0.4,37.6-33.1c0-1.3,2.5-1.3,2.5,0c-0.1,16.7,9.6,39.7,37.1,33"/>
	<path id="XMLID_15_" class="st9" d="M91.4,265.4c2,4.2,37.2-0.4,37.6-33.1c0-1.3,2.5-1.3,2.5,0c-0.1,16.7,9.6,39.7,37.1,33"/>
	<line id="XMLID_14_" class="st9" x1="129.7" y1="191.3" x2="129.7" y2="292.9"/>
	<line id="XMLID_13_" class="st10" x1="-0.1" y1="293.4" x2="19" y2="293.4"/>
	<line id="XMLID_12_" class="st10" x1="97.8" y1="292.6" x2="190.9" y2="292.6"/>
	<line id="XMLID_11_" class="st10" x1="269.2" y1="293.4" x2="355.7" y2="293.4"/>
	<line id="XMLID_10_" class="st10" x1="398.3" y1="293.4" x2="433.6" y2="293.4"/>
	<path id="XMLID_9_" class="st11" d="M88.1,77.2c2.2-6.4,6.5-11.5,11.9-14.7C89.2,63.1,79.3,70.1,75.6,81
		c-4.8,14.2,2.8,29.6,17,34.5c7.8,2.6,16,1.5,22.6-2.4c-3.3,0.2-6.7-0.3-10.1-1.4C90.9,106.9,83.3,91.4,88.1,77.2z"/>
</g>
</svg>
