<?xml version="1.0" encoding="utf-8"?>
<!-- Generator: Adobe Illustrator 19.0.0, SVG Export Plug-In . SVG Version: 6.00 Build 0)  -->
<svg version="1.1" id="图层_1" xmlns="http://www.w3.org/2000/svg" xmlns:xlink="http://www.w3.org/1999/xlink" x="0px" y="0px"
	 viewBox="0 0 1920 1028" style="enable-background:new 0 0 1920 1028;" xml:space="preserve">
<style type="text/css">
	.st0{fill:#6593C7;stroke:#FFFFFF;stroke-width:1.0458;stroke-miterlimit:10;}
	.st1{fill:none;stroke:#FFFFFF;stroke-width:6.8919;stroke-miterlimit:10;}
	.st2{fill:none;stroke:#FFFFFF;stroke-width:3.889;stroke-miterlimit:10;}
	.st3{fill:none;stroke:#FFFFFF;stroke-width:6.8919;stroke-linecap:round;stroke-linejoin:round;stroke-miterlimit:10;}
</style>
<rect x="-0.5" y="0.5" class="st0" width="1920" height="1028"/>
<g>
	<line class="st1" x1="1080.6" y1="633" x2="1092.1" y2="644.5"/>
	<line class="st1" x1="1044.9" y1="665.6" x2="1061.2" y2="665.6"/>
	<line class="st1" x1="1076" y1="665.6" x2="1092.3" y2="665.6"/>
	<line class="st1" x1="1110.6" y1="626.8" x2="1110.7" y2="643.1"/>
	<line class="st1" x1="1180.9" y1="665.3" x2="1164.6" y2="665.3"/>
	<line class="st1" x1="1149.8" y1="665.9" x2="1133.5" y2="665.9"/>
	<line class="st1" x1="1137.4" y1="632.8" x2="1125.9" y2="644.3"/>
	<line class="st1" x1="1068.4" y1="699.3" x2="1153" y2="699.3"/>
</g>
<g>
	<path class="st1" d="M385.8,695.7c-0.3,3.3-3.1,5.9-6.4,5.9c-3.3,0-6.1-2.6-6.4-5.9"/>
</g>
<g>
	<path class="st1" d="M413,691.8h-67.3c-1.8,0-3.4-1.1-4-2.8c-0.6-1.7-0.1-3.5,1.3-4.7c7.3-5.8,11.4-14.5,11.4-23.8v-11.1
		c0-13.7,11.1-24.8,24.8-24.8c13.7,0,24.8,11.1,24.8,24.8v11.1c0,9.3,4.2,18,11.4,23.8c1.4,1.1,1.9,3,1.3,4.7
		C416.4,690.7,414.8,691.8,413,691.8z"/>
</g>
<g>
	<path class="st1" d="M371.4,649.5c0-8.8,7.2-16,16-16"/>
</g>
<line class="st1" x1="379.4" y1="654.5" x2="379.4" y2="663.6"/>
<path class="st1" d="M374.3,859.8c-1.5,0-3.1-0.6-4.6-1.7c4.8-6.9,7.8-17.7,7.8-29s-2.9-22.1-7.8-29c1.5-1.1,3-1.7,4.6-1.7
	c3.5,0,7.1,3,9.8,8.3c3.1,5.9,4.8,13.9,4.8,22.4c0,8.5-1.7,16.4-4.8,22.4C381.4,856.8,377.9,859.8,374.3,859.8z"/>
<path class="st2" d="M390,882.2c-0.7,0-1.4-0.2-2.1-0.5c-1.1-0.5-2-1.1-3-1.9c-1.7-1.2-3.4-2.5-6-2.8c0.1,0,0.4,0,0.4,0l0.2,0
	c0.2,0,0.4,0,0.6,0c14.3,0,26.9-1.9,32.6-5c-0.6,0.9-1.2,1.9-2,2.7c-1.1,1.1-2.1,2.1-3.2,2.8c-0.4,0.3-0.8,0.6-1.2,0.8
	c-1.1-0.7-2.5-1.3-4.2-1.4c-0.2,0-0.4,0-0.6,0c-3,0-5.1,1.6-6.9,3c-0.6,0.5-1.3,1-1.9,1.4c-0.1,0-0.2,0.1-0.2,0.1
	C391.7,882,390.9,882.2,390,882.2z M366.5,882.2c-0.7,0-1.4-0.2-2.1-0.5c-1.1-0.5-2-1.1-3-1.9c-1.8-1.3-3.6-2.6-6.4-2.8
	c-0.2,0-0.4,0-0.6,0c-1.1,0-2.1,0.2-3.1,0.6c0,0-0.1,0-0.1-0.1c-1-0.8-2.1-1.7-3.2-2.8c-0.8-0.8-1.4-1.8-2-2.7
	c5.5,2.9,17.4,4.8,31,5c-2.5,0.3-4.3,1.7-6,3c-0.6,0.5-1.3,1-1.9,1.4c-0.1,0-0.2,0.1-0.2,0.1C368.1,882,367.3,882.2,366.5,882.2z"/>
<line class="st1" x1="379.4" y1="798.4" x2="379.4" y2="876.7"/>
<path class="st1" d="M740.8,680.2c2.5-1.1,3.3-1.7,3-2.5c-0.2-0.8-6.9-3.3-1-9.2c5.9-5.9,8.1-2.1,8.9-2.8c0.8-0.7-0.8-3.2,0.9-4.8
	c1.7-1.6,11.1-4.7,11.1-13.1c0-4.8-1.5-8.7-2.9-11.2l24.1-24.1c1.1,0,2.1-0.2,3-0.9l2,2c0.4,0.4,0.9,0.6,1.4,0.6
	c0.5,0,1-0.2,1.4-0.6c0.8-0.8,0.8-2.1,0-2.9l-1.9-1.9l1.7-1.7c0.1-0.1,0.1-0.1,0.2-0.2l1.9,1.9c0.4,0.4,0.9,0.6,1.4,0.6
	c0.5,0,1-0.2,1.4-0.6c0.8-0.8,0.8-2.1,0-2.9l-3.7-3.7c-0.2-0.8-0.6-1.6-1.3-2.3c-1.4-1.4-3.4-1.8-5.1-1.2l-2.4-2.4
	c-0.8-0.8-2.1-0.8-2.9,0c-0.8,0.8-0.8,2.1,0,2.9l2,2l-1.9,1.9l-2-2c-0.8-0.8-2.1-0.8-2.9,0c-0.8,0.8-0.8,2.1,0,2.9l2.7,2.7
	c0,0.3-0.1,0.6-0.1,0.9l-24.1,24.1c-2.5-1.3-6.4-2.9-11.2-2.9c-8.4,0-11.6,9.4-13.1,11.1c-1.6,1.7-4.1,0.1-4.8,0.9
	c-0.7,0.8,3.1,3-2.8,8.9c-5.9,5.9-8.3-0.7-9.2-1c-0.8-0.2-1.4,0.5-2.5,3c-1.1,2.5-4.8,0.3-12.5,8.5c-7.7,8.2-6.8,17.3,4.1,28.2
	c10.9,10.9,20,11.8,28.2,4.1C740.5,685,738.4,681.4,740.8,680.2z"/>
<g>
	<g>
		<path class="st1" d="M1533,618h-16.8c0,0,0,0-0.1,0c0,0,0,0-0.1,0h-16.8c0,0,0,0-0.1,0c0,0,0,0-0.1,0h-16.8c0,0,0,0-0.1,0
			c0,0,0,0-0.1,0h-16.8c0,0,0,0-0.1,0c0,0,0,0-0.1,0h-16.8c0,0,0,0-0.1,0c0,0,0,0-0.1,0h-16.8c0,0,0,0-0.1,0c0,0,0,0-0.1,0h-16.8
			c-1.1,0-2,0.9-2,2v59.3c0,1.1,0.9,2,2,2h16.8c0,0,0,0,0.1,0c0,0,0,0,0.1,0h16.8c0,0,0,0,0.1,0c0,0,0,0,0.1,0h16.8c0,0,0,0,0.1,0
			c0,0,0,0,0.1,0h16.8c0,0,0,0,0.1,0c0,0,0,0,0.1,0h16.8c0,0,0,0,0.1,0c0,0,0,0,0.1,0h16.8c0,0,0,0,0.1,0c0,0,0,0,0.1,0h16.8
			c1.1,0,2-0.9,2-2v-59.3C1535,618.9,1534.1,618,1533,618z M1416.7,677.2"/>
	</g>
	<path class="st1" d="M1431.6,681.2"/>
	<line class="st1" x1="1431.6" y1="681.2" x2="1431.6" y2="644.2"/>
	<line class="st1" x1="1448.7" y1="681.2" x2="1448.7" y2="644.2"/>
	<line class="st1" x1="1465.3" y1="681.2" x2="1465.3" y2="644.2"/>
	<line class="st1" x1="1482.4" y1="681.2" x2="1482.4" y2="644.2"/>
	<line class="st1" x1="1499.5" y1="681.2" x2="1499.5" y2="644.2"/>
	<line class="st1" x1="1516.6" y1="681.2" x2="1516.6" y2="644.2"/>
</g>
<g>
	<g>
		<path class="st1" d="M372.7,491.7c0.6,0.6,2.9,1.8,6.7,1.8c3.7,0,6.1-1.1,6.7-1.8v-6.9c-1.8,0.9-3.5,2.1-5.1,3.3
			c-0.3,0.3-0.7,0.4-1.1,0.5l0,0c-0.1,0-0.1,0-0.2,0l0,0c0,0,0,0,0,0l0,0c-0.6,0-1.1-0.1-1.6-0.4c0,0-0.1-0.1-0.1-0.1
			c-1.7-1.3-3.4-2.4-5.1-3.4V491.7z M327.2,435.7l-4.9,57.6l45.5-3.3v-7.4c-10.5-3.5-22.7-1.6-36.9,5.8c-0.8,0.4-1.8,0.4-2.5-0.1
			c-0.8-0.5-1.2-1.4-1.1-2.3l3.7-52.3c-0.9,0.5-1.7,0.9-2.4,1.3C328,435.3,327.6,435.5,327.2,435.7z M391.1,490l45.4,3.3l-4.9-57.6
			c-0.9-0.5-2.1-1.1-3.3-1.7c-0.2-0.1-0.4-0.2-0.5-0.3l3.7,52.3c0.1,0.9-0.4,1.8-1.1,2.3c-0.8,0.5-1.7,0.5-2.5,0.1
			c-14.2-7.4-26.4-9.3-36.9-5.8V490z M336.2,429.8l-3.7,52.2c17.1-7.9,32-8.1,44.4-0.6v-55.1c-9.7-10.3-23-10.3-40.5,0.3l-0.2,2.7
			C336.3,429.5,336.2,429.7,336.2,429.8z M401.7,475.9c7.6,0,15.8,2,24.6,6.1l-4-55.4c-17.5-10.5-30.8-10.6-40.4-0.3v55.1
			c1.8-1.1,3.7-2.1,5.7-2.8c0.1,0,0.1-0.1,0.2-0.1C392.2,476.8,396.8,475.9,401.7,475.9z M335.2,470c7.6-3.4,14.6-5.3,21-5.5
			c6.8-0.3,13.2,1.3,19,4.8 M383.6,469.3c5.7-3.4,12.1-5,19-4.8c6.4,0.2,13.5,2,21,5.5 M335.9,460.3c7.3-3.4,14.2-5.3,20.4-5.6
			c6.9-0.3,13.2,1.3,18.8,4.8 M383.6,459.5c5.6-3.5,11.9-5.1,18.9-4.8c6.2,0.3,13.1,2.2,20.4,5.6 M336.6,450.6
			c7.3-3.5,13.8-5.4,19.8-5.7c6.9-0.4,13.2,1.2,18.7,4.8 M383.6,449.8c5.5-3.7,11.8-5.3,18.8-4.8c6,0.3,12.5,2.2,19.8,5.7
			 M337.4,441c6.9-3.4,13.4-5.4,19.2-5.8c7-0.5,13.3,1.1,18.6,4.9 M383.6,440c5.4-3.7,11.6-5.4,18.6-4.9c5.9,0.4,12.4,2.4,19.2,5.8
			 M338.1,431.3c6.7-3.4,12.9-5.4,18.6-5.9c6.9-0.6,13.2,1.1,18.5,4.9 M383.5,430.3c5.4-3.9,11.6-5.5,18.5-4.9
			c5.7,0.5,12,2.5,18.6,5.9"/>
	</g>
</g>
<g>
	<path id="XMLID_1_" class="st1" d="M798.1,505.7l-2.6-3.7l-6.2-20.8c-0.1-0.2-0.1-0.3-0.2-0.5l-4-5.7c0.6,0.1,1.1,0.2,1.6,0.2
		c0.5,0,1-0.1,1.4-0.2c1.8-0.5,3.2-1.9,3.8-3.6c0.9-2.5,0.1-5.5-2.4-9c-8.6-12.3-15.3-21.8-23.9-34.1c-0.7-1.1-1.7-2.1-2.7-3
		c-1.9-1.7-4.3-2.4-7-1.9c-1.9,0.3-4.1,1.4-5.6,2.3l-2.2-3.1c-1.4-2-3.6-3.4-6-3.9c-2.2-0.4-4.4,0.1-6.2,1.3
		c-3.9,2.7-4.7,8.2-1.8,12.3l1.8,2.6c-4.9,3.1-9.3,5.8-13.2,8.3c-6.2,3.9-11.3,7-15.2,9.6c-2.3,1.5-4.8,2.4-8.1,2.8
		c-0.7,0.1-1.3,0.1-2,0.2l-1,0.1c-0.9,0.1-1.6,0.8-1.6,1.7v22.3c0,0.9,0.7,1.7,1.6,1.7c21.6,1.5,42.7,1.6,63.2,1.6c1,0,2,0,3,0
		c0,0,0,0,0,0c2.3,0,4.4-0.5,6.1-1.5l6.2,8.9c0.1,0.1,0.2,0.3,0.4,0.4l17.2,13.1l2.6,3.7c0.3,0.5,0.9,0.7,1.4,0.7
		c0.3,0,0.7-0.1,1-0.3C798.4,507.6,798.6,506.5,798.1,505.7z M779.7,467.3L779.7,467.3 M752.4,428.4 M748.6,452.7l9.7,13.8
		c-0.7-0.1-1.5-0.1-2.2-0.2c-2.7-0.2-5.4-0.4-7.1-0.6c-2.3-0.2-4.3-0.9-5.9-2l-0.3-0.2c-1.5-1.2-1.7-2.3-0.7-3.9
		C743,458.4,745.2,455.8,748.6,452.7z M771.5,479.4c1.2-1.5,1.8-3.2,1.7-5.1c-0.1-3.6-4.4-6.8-8-7.2c-0.7-0.1-1.6-0.1-2.5-0.2"/>
	<line class="st1" x1="778.6" y1="493.8" x2="794.6" y2="483.4"/>
	<polyline class="st1" points="749,451.8 734.9,431.6 750.9,420.8 789.3,476.3 	"/>
</g>
<g>
	<path class="st1" d="M1152.3,305.7L1152.3,305.7c2.9,0,5.7,1.2,7.7,3.3c2.1,2.1,3.2,4.9,3.1,7.8c-0.1,6-5,10.9-11.2,10.9
		c-0.1,0-20.7-0.2-52-0.6c-18.8-0.2-35.8-0.4-37.4-0.4"/>
	<path class="st1" d="M1144.7,359.5c0,0.3,0.1,0.7,0.4,0.9c0.2,0.2,0.6,0.4,0.9,0.4l0.2,0c7.3,0,12.8-5.3,12.9-12.6
		c0-3.4-1.2-6.6-3.6-9.1c-2.4-2.4-5.5-3.8-8.9-3.9l-66.2-1"/>
	<path class="st1" d="M1139.4,284.1c0-3.1,3.1-6.8,7-6.8h0c1.8,0,3.5,0.8,4.8,2.1c1.3,1.3,2,3,1.9,4.9c-0.1,3.7-3.1,6.8-7,6.8
		c0,0-9.2-0.1-24.1-0.3c-14.5-0.2-30.4-0.3-31.6-0.3"/>
	<path class="st1" d="M1085.5,281h44.3c0,0,7.8,0.3,9.8-4.5c0,0,5.2-11.4-9.8-11.3"/>
	<path class="st1" d="M1082.8,320.1h44.3c0,0,7.8,0.3,9.8-4.5c0,0,5.2-11.4-9.8-11.3"/>
</g>
<g>
	<line class="st1" x1="1102.8" y1="790.7" x2="1123" y2="790.7"/>
	<path class="st1" d="M1111,790.7v10.7c0,0-28.1,0.7-38.1,8.6v9.1l80.1,0.3v-10c0,0-22.3-8.3-35.6-7.9"/>
	<path class="st1" d="M1064.1,819.1c0,0,2.2,8.2,10.7,8.2v33c0,0,1.8,4,8.9,4.2h58.4c0,0,5.5-1.1,8.6-4.9v-33.2c0,0,6.7,0.2,11-7.3"
		/>
	<line class="st1" x1="1071" y1="885.6" x2="1154.9" y2="885.6"/>
	<line class="st1" x1="1087.2" y1="871.3" x2="1087.2" y2="885.6"/>
	<line class="st1" x1="1100.1" y1="874.3" x2="1100.1" y2="885.6"/>
	<line class="st1" x1="1112.9" y1="871.3" x2="1112.9" y2="885.6"/>
	<line class="st1" x1="1125.8" y1="874.3" x2="1125.8" y2="885.6"/>
	<line class="st1" x1="1138.6" y1="871.3" x2="1138.6" y2="885.6"/>
</g>
<g>
	<path class="st1" d="M334.3,293.1c0,0.9,0.8,1.7,1.7,1.7c3.2,0,6.3-1.4,8.4-3.7c2.2,2.3,5.2,3.7,8.4,3.7c3.2,0,6.3-1.4,8.4-3.7
		c0.1,0.1,0.1,0.1,0.2,0.2c0.1,0.1,0.1,0.1,0.2,0.2c0.1,0.1,0.2,0.2,0.2,0.2c0.1,0.1,0.1,0.1,0.2,0.2c0.1,0.1,0.2,0.1,0.3,0.2
		c0.1,0.1,0.1,0.1,0.2,0.2c0.1,0.1,0.2,0.1,0.3,0.2c0.1,0.1,0.1,0.1,0.2,0.2c0.1,0.1,0.2,0.1,0.3,0.2c0.1,0,0.1,0.1,0.2,0.1
		c0.1,0.1,0.2,0.1,0.3,0.2c0.1,0,0.2,0.1,0.2,0.1c0.1,0.1,0.2,0.1,0.3,0.1c0.1,0,0.2,0.1,0.2,0.1c0.1,0,0.2,0.1,0.3,0.1
		c0.1,0,0.2,0.1,0.3,0.1c0.1,0,0.2,0.1,0.3,0.1c0.1,0,0.2,0.1,0.3,0.1c0.1,0,0.2,0.1,0.3,0.1c0.1,0,0.2,0.1,0.3,0.1
		c0.1,0,0.2,0.1,0.3,0.1c0.1,0,0.2,0.1,0.3,0.1c0.1,0,0.2,0.1,0.3,0.1c0.1,0,0.2,0,0.3,0.1c0.1,0,0.2,0,0.3,0.1c0.1,0,0.2,0,0.3,0
		c0.1,0,0.2,0,0.3,0c0.1,0,0.2,0,0.2,0c0.1,0,0.3,0,0.4,0c0.1,0,0.1,0,0.2,0c0.2,0,0.4,0,0.6,0c0.3,0,0.5,0,0.8,0
		c0.2,0,0.5,0,0.7-0.1c0.2,0,0.4-0.1,0.6-0.1c0.3-0.1,0.6-0.1,0.9-0.2c0,0,0.1,0,0.1,0c2.1-0.6,3.9-1.7,5.4-3.3
		c0.3,0.3,0.5,0.5,0.8,0.8c0,0,0,0,0,0c0,0,0.1,0.1,0.1,0.1c0,0,0.1,0.1,0.1,0.1c2,1.7,4.7,2.7,7.4,2.7c3.2,0,6.3-1.4,8.4-3.7
		c2.2,2.3,5.2,3.7,8.4,3.7c3.2,0,6.3-1.4,8.4-3.7c2.2,2.3,5.2,3.7,8.4,3.7"/>
	<path class="st1" d="M334.9,262c0,0.9,0.8,1.7,1.7,1.7c3.2,0,6.3-1.4,8.4-3.7c2.2,2.3,5.2,3.7,8.4,3.7c3.2,0,6.3-1.4,8.4-3.7
		c0.1,0.1,0.1,0.1,0.2,0.2c0.1,0.1,0.1,0.1,0.2,0.2c0.1,0.1,0.2,0.2,0.2,0.2c0.1,0.1,0.1,0.1,0.2,0.2c0.1,0.1,0.2,0.1,0.3,0.2
		c0.1,0.1,0.1,0.1,0.2,0.2c0.1,0.1,0.2,0.1,0.3,0.2c0.1,0.1,0.1,0.1,0.2,0.2c0.1,0.1,0.2,0.1,0.3,0.2c0.1,0,0.1,0.1,0.2,0.1
		c0.1,0.1,0.2,0.1,0.3,0.2c0.1,0,0.2,0.1,0.2,0.1c0.1,0.1,0.2,0.1,0.3,0.1c0.1,0,0.2,0.1,0.2,0.1c0.1,0,0.2,0.1,0.3,0.1
		c0.1,0,0.2,0.1,0.3,0.1c0.1,0,0.2,0.1,0.3,0.1c0.1,0,0.2,0.1,0.3,0.1c0.1,0,0.2,0.1,0.3,0.1c0.1,0,0.2,0.1,0.3,0.1
		c0.1,0,0.2,0.1,0.3,0.1c0.1,0,0.2,0.1,0.3,0.1c0.1,0,0.2,0.1,0.3,0.1c0.1,0,0.2,0,0.3,0.1c0.1,0,0.2,0,0.3,0.1c0.1,0,0.2,0,0.3,0
		c0.1,0,0.2,0,0.3,0c0.1,0,0.2,0,0.2,0c0.1,0,0.3,0,0.4,0c0.1,0,0.1,0,0.2,0c0.2,0,0.4,0,0.6,0c0.3,0,0.5,0,0.8,0
		c0.2,0,0.5,0,0.7-0.1c0.2,0,0.4-0.1,0.6-0.1c0.3-0.1,0.6-0.1,0.9-0.2c0,0,0.1,0,0.1,0c2.1-0.6,3.9-1.7,5.4-3.3
		c0.3,0.3,0.5,0.5,0.8,0.8c0,0,0,0,0,0c0,0,0.1,0.1,0.1,0.1c0,0,0.1,0.1,0.1,0.1c2,1.7,4.7,2.7,7.4,2.7c3.2,0,6.3-1.4,8.4-3.7
		c2.2,2.3,5.2,3.7,8.4,3.7c3.2,0,6.3-1.4,8.4-3.7c2.2,2.3,5.2,3.7,8.4,3.7"/>
	<path class="st1" d="M338.2,322.7c0,0.9,0.8,1.7,1.7,1.7c3.2,0,6.3-1.4,8.4-3.7c2.2,2.3,5.2,3.7,8.4,3.7c3.2,0,6.3-1.4,8.4-3.7
		c0.1,0.1,0.1,0.1,0.2,0.2c0.1,0.1,0.1,0.1,0.2,0.2c0.1,0.1,0.2,0.2,0.2,0.2c0.1,0.1,0.1,0.1,0.2,0.2c0.1,0.1,0.2,0.1,0.3,0.2
		c0.1,0.1,0.1,0.1,0.2,0.2c0.1,0.1,0.2,0.1,0.3,0.2c0.1,0.1,0.1,0.1,0.2,0.2c0.1,0.1,0.2,0.1,0.3,0.2c0.1,0,0.1,0.1,0.2,0.1
		c0.1,0.1,0.2,0.1,0.3,0.2c0.1,0,0.2,0.1,0.2,0.1c0.1,0.1,0.2,0.1,0.3,0.1c0.1,0,0.2,0.1,0.2,0.1c0.1,0,0.2,0.1,0.3,0.1
		c0.1,0,0.2,0.1,0.3,0.1c0.1,0,0.2,0.1,0.3,0.1c0.1,0,0.2,0.1,0.3,0.1c0.1,0,0.2,0.1,0.3,0.1c0.1,0,0.2,0.1,0.3,0.1
		c0.1,0,0.2,0.1,0.3,0.1c0.1,0,0.2,0.1,0.3,0.1c0.1,0,0.2,0.1,0.3,0.1c0.1,0,0.2,0,0.3,0.1c0.1,0,0.2,0,0.3,0.1c0.1,0,0.2,0,0.3,0
		c0.1,0,0.2,0,0.3,0c0.1,0,0.2,0,0.2,0c0.1,0,0.3,0,0.4,0c0.1,0,0.1,0,0.2,0c0.2,0,0.4,0,0.6,0c0.3,0,0.5,0,0.8,0
		c0.2,0,0.5,0,0.7-0.1c0.2,0,0.4-0.1,0.6-0.1c0.3-0.1,0.6-0.1,0.9-0.2c0,0,0.1,0,0.1,0c2.1-0.6,3.9-1.7,5.4-3.3
		c0.3,0.3,0.5,0.5,0.8,0.8c0,0,0,0,0,0c0,0,0.1,0.1,0.1,0.1c0,0,0.1,0.1,0.1,0.1c2,1.7,4.7,2.7,7.4,2.7c3.2,0,6.3-1.4,8.4-3.7
		c2.2,2.3,5.2,3.7,8.4,3.7c3.2,0,6.3-1.4,8.4-3.7c2.2,2.3,5.2,3.7,8.4,3.7"/>
</g>
<g>
	<g>
		<path class="st3" d="M785.8,117.2c-0.4,0-0.7,0-1.1,0.1c0.1-0.6,0.1-1.3,0.1-1.9c0-7.6-6.2-13.8-13.8-13.8c-2.9,0-5.5,0.9-7.7,2.4
			c-3.6-7.4-11.1-12.5-19.9-12.5c-10.5,0-19.3,7.3-21.5,17.1c-1.8-0.9-3.9-1.4-6.1-1.4c-7.6,0-13.8,6.2-13.8,13.8
			c0,1.3,0.2,2.6,0.5,3.8c-7,0.7-12.5,6.6-12.5,13.8c0,7.6,6.2,13.8,13.8,13.8h82c9.7,0,17.5-7.8,17.5-17.5S795.5,117.2,785.8,117.2
			z"/>
		<path class="st3" d="M721.9,108.5c4.6,2.3,7.7,7,7.7,12.4"/>
		<path class="st3" d="M757.3,115.4c0-4.8,2.4-9,6.1-11.5"/>
		<path class="st3" d="M703.8,124.6c5.2,0,9.7,2.8,12,7"/>
		<path class="st3" d="M747.6,121.8c2-3.8,6-6.4,10.6-6.4c6.6,0,12,5.4,12,12"/>
	</g>
	<line class="st3" x1="711.2" y1="163.3" x2="711.2" y2="169.7"/>
	<line class="st3" x1="734.2" y1="163.3" x2="734.2" y2="169.7"/>
	<line class="st3" x1="758.2" y1="163.3" x2="758.2" y2="169.7"/>
	<line class="st3" x1="781.2" y1="163.3" x2="781.2" y2="169.7"/>
	<line class="st3" x1="723.2" y1="183.5" x2="723.2" y2="190"/>
	<line class="st3" x1="746.2" y1="183.5" x2="746.2" y2="190"/>
	<line class="st3" x1="769.2" y1="183.5" x2="769.2" y2="190"/>
</g>
<path class="st1" d="M696.6,865.6c0,0-14-41.9,30.9-63.4c0,0,29.9-15.6,71.3-6.2c0,0-1.2,66.1-47.2,81.7c0,0-18.5,9.3-42,0.7
	c0,0,4.3-31.2,56.7-55.8C766.3,822.5,720.6,821.3,696.6,865.6z"/>
<g>
	<path class="st1" d="M1082.4,447c0,0,21.8-6,30.7-7.1c0,0,26.7-5.6,40.9,1.2c0,0,40.1,21,0,45.1c0,0-12.3,3.8-17.7,3.6
		c0,0-37.9-2.4-53.9-9.5c0,0-3.9-0.4-3.9-5.4v-22.6C1078.5,452.4,1078.1,447.6,1082.4,447z"/>
	<polyline class="st1" points="1131.4,494 1141.1,538.3 1151.8,538.3 1151.8,491.2 	"/>
	<polygon class="st1" points="1122.9,514.7 1135.4,512.4 1137.9,523.7 1125.2,526.2 	"/>
	<line class="st1" x1="1054" y1="459.6" x2="1072.5" y2="459.6"/>
	<line class="st1" x1="1054" y1="466.2" x2="1072.5" y2="466.2"/>
	<line class="st1" x1="1054" y1="471.8" x2="1072.5" y2="471.8"/>
	<line class="st1" x1="1134.2" y1="449.7" x2="1141.6" y2="458.7"/>
	<line class="st1" x1="1141.6" y1="449.7" x2="1149" y2="458.7"/>
	<line class="st1" x1="1148.1" y1="449.7" x2="1155.5" y2="458.7"/>
</g>
<path class="st1" d="M1154.8,135.4c0-6.2-3.6-11.6-8.9-14.1c2-2.6,3.3-5.9,3.3-9.5c0-8.6-7-15.6-15.6-15.6c-2.9,0-5.6,0.8-7.9,2.2
	c-1.4-5.9-6.7-10.3-13-10.3c-6.2,0-11.4,4.2-12.9,9.9c-2.2-1.2-4.7-1.8-7.3-1.8c-8.6,0-15.6,7-15.6,15.6c0,3.6,1.2,6.9,3.3,9.5
	c-5.2,2.5-8.9,7.9-8.9,14.1c0,7.3,5,13.4,11.8,15.1c-0.2,0.9-0.3,1.9-0.3,2.8c0,8.6,7,15.6,15.6,15.6c3.2,0,6.2-1,8.6-2.6h0v21.4
	h12.2v-21.4c2.5,1.6,5.4,2.6,8.6,2.6c8.6,0,15.6-7,15.6-15.6c0-1-0.1-1.9-0.3-2.8C1149.8,148.8,1154.8,142.7,1154.8,135.4z"/>
<g id="Element_2_">
	<path class="st1" d="M1465.3,826.5h-6h-14.6h-14.6h-14.6h-14.6c-0.7,0-1.2,0.6-1.2,1.2v9.9v14.6v14.6v14.6c0,0.7,0.6,1.2,1.2,1.2
		h14.6h14.6h14.6h58.2h14.6h14.6h14.6c0.7,0,1.2-0.6,1.2-1.2v-14.6v-29.1v-9.9c0-0.7-0.6-1.2-1.2-1.2h-14.6h-14.6H1503h-14.6h-6
		C1482.4,826.5,1469.5,827.1,1465.3,826.5l5.5-17.4c4.9-7.2,9.2-10.4,15.3-10.4h60.4c0.7,0,1.2-0.6,1.2-1.2 M1475.1,865.5v-12.1
		h12.1v12.1H1475.1z M1460.5,865.5v-12.1h12.1v12.1H1460.5z M1446,865.5v-12.1h12.1v12.1H1446z M1415.7,865.5h-13.3v-12.1h13.3h13.3
		v12.1H1415.7z M1460.5,829h12.1v7.4h-12.1V829z M1530.8,851h-12.1v-12.1h12.1V851z M1516.3,851h-12.1v-12.1h12.1V851z M1501.7,851
		h-12.1v-12.1h12.1V851z M1487.2,851h-12.1v-12.1h12.1V851z M1460.5,838.9h12.1V851h-12.1V838.9z M1458.1,851H1446v-12.1h12.1V851z
		 M1443.5,851h-12.1v-12.1h12.1V851z M1429,851h-12.1v-12.1h12.1V851z M1414.4,851h-12.1v-12.1h12.1V851z M1431.4,853.4h12.1v12.1
		h-12.1V853.4z M1489.6,853.4h12.1v12.1h-12.1V853.4z M1504.2,853.4h12.1v12.1h-12.1V853.4z M1518.7,853.4h12.1v12.1h-12.1V853.4z
		 M1533.3,852.2v-13.3h12.1v26.6h-12.1V852.2z M1545.4,836.4h-12.1V829h12.1V836.4z M1530.8,836.4h-12.1V829h12.1V836.4z
		 M1516.3,836.4h-12.1V829h12.1V836.4z M1501.7,836.4h-12.1V829h12.1V836.4z M1487.2,836.4h-12.1V829h12.1V836.4z M1458.1,836.4
		H1446V829h12.1V836.4z M1443.5,836.4h-12.1V829h12.1V836.4z M1429,836.4h-12.1V829h12.1V836.4z M1402.3,829h12.1v7.4h-12.1V829z
		 M1402.3,868h12.1v12.1h-12.1V868z M1416.9,868h12.1v12.1h-12.1V868z M1431.4,868h12.1v12.1h-12.1V868z M1446,868h13.3h14.6h14.6
		h13.3v12.1H1446V868z M1504.2,868h12.1v12.1h-12.1V868z M1518.7,868h12.1v12.1h-12.1V868z M1545.4,880.1h-12.1V868h12.1V880.1z"/>
</g>
<path class="st3" d="M371.5,189.4c0,0-12.9-16.7,10.6-35c0,0-3.2,10.3,6.1,17.5c9.3,7.2,2.7,16.3,0,18.8c0,0,26.8-7.4,26.8-31.5
	c0,0-2.1-12.2-5.7-17.7c0,0,1.9,5.5-1.5,5.3c-3.4-0.2-5.1-12.2-7.6-19.2c0,0-1.5,8.4-6.1,5.5c-2.4-1.5-0.4-18.6-5.3-26.4
	c0,0-0.8,3-2.7,1.5c0,0-6.5-11-13.7-14.1c0,0,5.9,12.5,1.7,20.1c0,0-3.8,12.2-8.9,12.9c0,0-8.4-4.6,0-10.6c0,0-8.9-1.3-11,10.1
	c-2.1,11.4,4.4,16.9,3.2,25.3c-1.3,8.4-9.7,4.9-8.2-0.8c0,0-1.5-1.1,0.8-7.2c0,0-10.1,8.9-4.4,22.6
	C351.2,180.1,355,183.9,371.5,189.4z"/>
<g>
	<g>
		<path class="st3" d="M1469.1,166c22.2-3.7,22.2-35.5,20.7-42.1c-1.5-6.7,0-11.8,0-11.8l9.6-4.4l-8.6-5.6
			c-2.2-4.5-7.5-7.7-13.6-7.7c-8.2,0-14.8,5.6-14.8,12.6c0,0,1.5,5.9-1.5,11.1s-11.1,22.2-8.1,36.9c1.5,6.7-4.4,28.1-4.4,28.1
			l6.7,9.6l8.9-27.3l7.4-8.9c2.2-2.2,9.6-22.9,17.7-22.9"/>
		<path class="st3" d="M1489.1,119.4"/>
		<line class="st3" x1="1451.2" y1="187.1" x2="1455.8" y2="172.6"/>
	</g>
	<g>
		<line class="st3" x1="1477.2" y1="163" x2="1477.2" y2="172.6"/>
		<path class="st3" d="M1471.3,174.8c3.3,0,5.9-1,5.9-2.2c0,1.2,2.6,2.2,5.9,2.2"/>
	</g>
</g>
<g>
	<path class="st3" d="M731.7,282.9c0-8.3,6.7-15,15-15c8.3,0,15,6.7,15,15"/>
	<g>
		<path class="st3" d="M745,272.1c0,2.8-3.3,5-7.5,5"/>
		<path class="st3" d="M748.3,272.1c0,2.8,3.3,5,7.5,5"/>
	</g>
	<g>
		<path class="st3" d="M741.3,268.9c0,0-3.7-14.3-17-15.1"/>
		<path class="st3" d="M752.1,268.9c0,0,3.7-14.3,17-15.1"/>
	</g>
	<path class="st3" d="M733.6,352.9l13-22.6l13,22.6c14.2-5.3,24.4-19,24.4-35.1c0-20.7-16.7-37.4-37.4-37.4
		c-20.7,0-37.4,16.7-37.4,37.4C709.3,333.9,719.4,347.6,733.6,352.9z"/>
	<circle class="st3" cx="729.2" cy="315.3" r="8.3"/>
	<path class="st3" d="M725.2,287.1c1.7,1.5,2.7,3.7,2.7,6.1c0,4.6-3.7,8.3-8.3,8.3c-2.1,0-4.1-0.8-5.6-2.2"/>
	<path class="st3" d="M713.6,335.2c1.5-2.2,4-3.7,6.9-3.7c4.6,0,8.3,3.7,8.3,8.3c0,3.4-2,6.3-5,7.6"/>
	<circle class="st3" cx="764.1" cy="315.3" r="8.3"/>
	<path class="st3" d="M768.1,287.1c-1.7,1.5-2.7,3.7-2.7,6.1c0,4.6,3.7,8.3,8.3,8.3c2.1,0,4.1-0.8,5.6-2.2"/>
	<path class="st3" d="M779.8,335.2c-1.5-2.2-4-3.7-6.9-3.7c-4.6,0-8.3,3.7-8.3,8.3c0,3.4,2,6.3,5,7.6"/>
	<line class="st3" x1="746.7" y1="287" x2="746.7" y2="321.9"/>
	<path class="st3" d="M756.3,347c-3,1-6.3,1.6-9.7,1.6c-3.4,0-6.6-0.5-9.7-1.6"/>
</g>
<g>
	<path class="st1" d="M1476.9,440.6c-0.6,0.2-0.9,0.9-0.7,1.4l0.4,1.1c0.2,0.5,0.6,0.7,1.1,0.7c0.1,0,0.3,0,0.4-0.1
		c0.6-0.2,0.9-0.9,0.7-1.4l-0.4-1.1C1478.1,440.7,1477.5,440.4,1476.9,440.6z"/>
	<path class="st1" d="M1463.2,473.1c0.2,0.5,0.6,0.7,1.1,0.7c0.1,0,0.3,0,0.4-0.1c0.6-0.2,0.9-0.9,0.7-1.4l-0.4-1.1
		c-0.2-0.6-0.9-0.9-1.4-0.7c-0.6,0.2-0.9,0.9-0.7,1.4L1463.2,473.1z"/>
	<path class="st1" d="M1460.8,463.2c-0.6,0.2-0.9,0.9-0.7,1.4l0.4,1.1c0.2,0.5,0.6,0.7,1.1,0.7c0.1,0,0.3,0,0.4-0.1
		c0.6-0.2,0.9-0.9,0.7-1.4l-0.4-1.1C1462,463.3,1461.4,463,1460.8,463.2z"/>
	<path class="st1" d="M1477.8,465.3c-0.6,0.2-0.9,0.9-0.7,1.4l0.4,1.1c0.2,0.5,0.6,0.7,1.1,0.7c0.1,0,0.3,0,0.4-0.1
		c0.6-0.2,0.9-0.9,0.7-1.4l-0.4-1.1C1479.1,465.4,1478.4,465.1,1477.8,465.3z"/>
	<path class="st1" d="M1463.7,449c0.6-0.2,0.9-0.9,0.7-1.4l-0.4-1.1c-0.2-0.6-0.9-0.9-1.4-0.7c-0.6,0.2-0.9,0.9-0.7,1.4l0.4,1.1
		c0.2,0.5,0.6,0.7,1.1,0.7C1463.4,449.1,1463.6,449.1,1463.7,449z"/>
	<path class="st1" d="M1487.1,471.7c0.2,0.5,0.6,0.7,1.1,0.7c0.1,0,0.3,0,0.4-0.1c0.6-0.2,0.9-0.9,0.7-1.4l-0.1-0.2
		c-0.2-0.6-0.9-0.9-1.4-0.7c-0.6,0.2-0.9,0.9-0.7,1.4L1487.1,471.7z"/>
	<path class="st1" d="M1484.7,465.2c0.2,0.5,0.6,0.7,1.1,0.7c0.1,0,0.3,0,0.4-0.1c0.6-0.2,0.9-0.9,0.7-1.4l-0.4-1.1
		c-0.2-0.6-0.9-0.9-1.4-0.7c-0.6,0.2-0.9,0.9-0.7,1.4L1484.7,465.2z"/>
	<path class="st1" d="M1482,457.8c0.2,0.5,0.6,0.7,1.1,0.7c0.1,0,0.3,0,0.4-0.1c0.6-0.2,0.9-0.9,0.7-1.4l-0.4-1.1
		c-0.2-0.6-0.9-0.9-1.4-0.7c-0.6,0.2-0.9,0.9-0.7,1.4L1482,457.8z"/>
	<path class="st1" d="M1480.5,472.7c-0.6,0.2-0.9,0.9-0.7,1.4l0.1,0.2c0.2,0.5,0.6,0.7,1.1,0.7c0.1,0,0.3,0,0.4-0.1
		c0.6-0.2,0.9-0.9,0.7-1.4l-0.1-0.2C1481.8,472.8,1481.1,472.5,1480.5,472.7z"/>
	<path class="st1" d="M1479.3,450.5c0.2,0.5,0.6,0.7,1.1,0.7c0.1,0,0.3,0,0.4-0.1c0.6-0.2,0.9-0.9,0.7-1.4l-0.4-1.1
		c-0.2-0.6-0.9-0.9-1.4-0.7c-0.6,0.2-0.9,0.9-0.7,1.4L1479.3,450.5z"/>
	<path class="st1" d="M1466.4,456.4c0.6-0.2,0.9-0.9,0.7-1.4l-0.4-1.1c-0.2-0.6-0.9-0.9-1.4-0.7c-0.6,0.2-0.9,0.9-0.7,1.4l0.4,1.1
		c0.2,0.5,0.6,0.7,1.1,0.7C1466.1,456.5,1466.3,456.4,1466.4,456.4z"/>
	<path class="st1" d="M1475.9,461.2c0.1,0,0.3,0,0.4-0.1c0.6-0.2,0.9-0.9,0.7-1.4l-0.4-1.1c-0.2-0.6-0.9-0.9-1.4-0.7
		c-0.6,0.2-0.9,0.9-0.7,1.4l0.4,1.1C1475,460.9,1475.4,461.2,1475.9,461.2z"/>
	<g>
		<path class="st1" d="M1456.8,425.4l-10.9,11l2.7,7l30.2-11.9l-2.8-6.9l-14.1-1.5l-1.3,0.5c-3.1-3.5-7.6-5.6-12.3-5.6
			c-9,0-16.2,7.3-16.2,16.2c0,0-8.9,55.2-7.5,55.2"/>
		<path class="st1" d="M1523.3,499c0,10-8.2,18.2-18.3,18.2h-61.5c-10.1,0-18.3-8.2-18.3-18.2v-3.1h98.1V499z"/>
		<rect x="1425.3" y="488.5" class="st1" width="98.1" height="6.1"/>
	</g>
	<path class="st1" d="M1472.8,477c0.2,0.5,0.6,0.7,1.1,0.7c0.1,0,0.3,0,0.4-0.1c0.6-0.2,0.9-0.9,0.7-1.4l-0.1-0.2
		c-0.2-0.6-0.9-0.9-1.4-0.7c-0.6,0.2-0.9,0.9-0.7,1.4L1472.8,477z"/>
	<path class="st1" d="M1458.1,455.9c-0.6,0.2-0.9,0.9-0.7,1.4l0.4,1.1c0.2,0.5,0.6,0.7,1.1,0.7c0.1,0,0.3,0,0.4-0.1
		c0.6-0.2,0.9-0.9,0.7-1.4l-0.4-1.1C1459.3,455.9,1458.6,455.6,1458.1,455.9z"/>
	<path class="st1" d="M1465.6,479.6c0.2,0.5,0.6,0.7,1.1,0.7c0.1,0,0.3,0,0.4-0.1c0.6-0.2,0.9-0.9,0.7-1.4l-0.1-0.2
		c-0.2-0.6-0.9-0.9-1.4-0.7c-0.6,0.2-0.9,0.9-0.7,1.4L1465.6,479.6z"/>
	<path class="st1" d="M1455.4,448.5c-0.6,0.2-0.9,0.9-0.7,1.4l0.4,1.1c0.2,0.5,0.6,0.7,1.1,0.7c0.1,0,0.3,0,0.4-0.1
		c0.6-0.2,0.9-0.9,0.7-1.4l-0.4-1.1C1456.6,448.6,1455.9,448.3,1455.4,448.5z"/>
	<path class="st1" d="M1468.7,463.8c0.1,0,0.3,0,0.4-0.1c0.6-0.2,0.9-0.9,0.7-1.4l-0.4-1.1c-0.2-0.6-0.9-0.9-1.4-0.7
		c-0.6,0.2-0.9,0.9-0.7,1.4l0.4,1.1C1467.8,463.5,1468.3,463.8,1468.7,463.8z"/>
	<path class="st1" d="M1473.6,453.8c0.6-0.2,0.9-0.9,0.7-1.4l-0.4-1.1c-0.2-0.6-0.9-0.9-1.4-0.7c-0.6,0.2-0.9,0.9-0.7,1.4l0.4,1.1
		c0.2,0.5,0.6,0.7,1.1,0.7C1473.3,453.8,1473.4,453.8,1473.6,453.8z"/>
	<path class="st1" d="M1470.9,446.4c0.6-0.2,0.9-0.9,0.7-1.4l-0.4-1.1c-0.2-0.6-0.9-0.9-1.4-0.7c-0.6,0.2-0.9,0.9-0.7,1.4l0.4,1.1
		c0.2,0.5,0.6,0.7,1.1,0.7C1470.6,446.5,1470.7,446.4,1470.9,446.4z"/>
	<path class="st1" d="M1470.4,470.5c0.2,0.5,0.6,0.7,1.1,0.7c0.1,0,0.3,0,0.4-0.1c0.6-0.2,0.9-0.9,0.7-1.4l-0.4-1.1
		c-0.2-0.6-0.9-0.9-1.4-0.7c-0.6,0.2-0.9,0.9-0.7,1.4L1470.4,470.5z"/>
</g>
<g>
	<path class="st1" d="M1442,303.8c0,0-8.8,19.3-2.4,20h67.6c0.9,0,1.7-0.3,2.3-1v0c0.8-0.8,1.1-1.9,0.9-3
		c-1.7-7.5-8.9-34.3-36.3-34.3c-6.5,0-14,2.6-22.7,7.4"/>
	<path class="st1" d="M1450.9,323.8c-4.7,0-3.7-32.1,21-38.3"/>
	<path class="st1" d="M1495.5,323.8c3.2-2.5,7.5-29.4-21.5-38.3"/>
	<path class="st1" d="M1471.9,323.8v29.6c0,2.3-1.1,4.5-3.1,5.6c-1.9,1-4.6,1-7.5-3.1"/>
	<line class="st1" x1="1455.7" y1="260.4" x2="1439.9" y2="276.2"/>
	<line class="st1" x1="1481.9" y1="260.4" x2="1466.2" y2="276.2"/>
	<line class="st1" x1="1508.2" y1="260.4" x2="1492.5" y2="276.2"/>
</g>
</svg>
