<?xml version="1.0" encoding="utf-8"?>
<!-- Generator: Adobe Illustrator 19.0.0, SVG Export Plug-In . SVG Version: 6.00 Build 0)  -->
<svg version="1.1" id="图层_1" xmlns="http://www.w3.org/2000/svg" xmlns:xlink="http://www.w3.org/1999/xlink" x="0px" y="0px"
	 viewBox="0 0 440 331" style="enable-background:new 0 0 440 331;" xml:space="preserve">
<style type="text/css">
	.st0{fill:#D8341C;}
	.st1{opacity:0.45;fill:#DA3B26;}
	.st2{opacity:0.4;fill:#570E10;}
	.st3{opacity:0.31;fill:#CA261C;}
	.st4{opacity:0.29;fill:#EDB8B8;}
	.st5{fill:#E5982B;}
	.st6{fill:#9EB2B9;}
	.st7{fill:none;stroke:#231815;stroke-width:2.0902;stroke-miterlimit:10;}
	.st8{fill:#FFFFFF;stroke:#FFFFFF;stroke-width:1.9764;stroke-miterlimit:10;}
	.st9{fill:#FFFFFF;}
	.st10{fill:#C12736;}
	.st11{fill:none;stroke:#231815;stroke-width:5.9291;stroke-miterlimit:10;}
	.st12{fill:none;stroke:#231815;stroke-width:3.9527;stroke-miterlimit:10;}
	.st13{fill:#CFE8F3;}
	.st14{fill:#226849;}
	.st15{fill:none;stroke:#231815;stroke-width:7.9055;stroke-miterlimit:10;}
	.st16{fill:#66AAAB;}
	.st17{fill:#EFEEED;}
</style>
<g id="XMLID_7_">
	<circle id="XMLID_57_" class="st0" cx="246" cy="157.8" r="19.8"/>
	<circle id="XMLID_56_" class="st1" cx="246.5" cy="157.8" r="39.4"/>
	<circle id="XMLID_55_" class="st2" cx="246.5" cy="157.8" r="65.2"/>
	<circle id="XMLID_54_" class="st3" cx="246" cy="157.8" r="98.3"/>
	<circle id="XMLID_53_" class="st4" cx="246" cy="165.4" r="165.4"/>
	<rect id="XMLID_50_" x="143.2" y="113.6" class="st5" width="255" height="183.1"/>
	<path id="XMLID_49_" class="st6" d="M206.7,158.6"/>
	<path id="XMLID_48_" class="st7" d="M208.9,158.6h123.7c0.8,0,1.2-0.9,0.8-1.5l-4.9-6.8c-2.4-3.3-6.2-5.3-10.3-5.3h-95.7
		c-3.9,0-7.5,1.9-9.7,5l-4.9,6.8C207.4,157.6,208,158.6,208.9,158.6z"/>
	<path id="XMLID_47_" class="st7" d="M332.4,223H208.7c-0.8,0-1.2,0.9-0.8,1.5l4.9,6.8c2.4,3.3,6.2,5.3,10.3,5.3h95.7
		c3.9,0,7.5-1.9,9.7-5l4.9-6.8C333.9,224,333.4,223,332.4,223z"/>
	<rect id="XMLID_46_" x="211.2" y="158.6" class="st8" width="116" height="63.8"/>
	<rect id="XMLID_45_" x="211.2" y="158.6" class="st7" width="116" height="63.8"/>
	<line id="XMLID_44_" class="st7" x1="269.2" y1="158.6" x2="269.2" y2="222.4"/>
	<polyline id="XMLID_43_" class="st9" points="165.3,77 131.2,74.5 131.2,108.6 410.1,108.6 410.1,100.7 199.9,81.4 	"/>
	<polygon id="XMLID_40_" class="st10" points="177.3,78 177.3,111.1 223.3,111.1 223.3,83.7 	"/>
	<polygon id="XMLID_39_" class="st10" points="269.7,85.9 269.7,111.1 316.6,111.1 316.6,94.5 	"/>
	<polygon id="XMLID_38_" class="st10" points="362.6,94.5 362.6,111.1 409.3,111.1 409.3,102.8 	"/>
	<polyline id="XMLID_37_" class="st11" points="142.2,206.4 142.2,111.6 397.2,110.9 397.2,294.7 251.6,294.7 	"/>
	<line id="XMLID_36_" class="st11" x1="142.2" y1="234.1" x2="142.2" y2="296.7"/>
	<polyline id="XMLID_35_" class="st11" points="164.5,77 130.4,74.5 130.4,108.6 409.3,108.6 409.3,100.7 199,81.4 	"/>
	<path id="XMLID_34_" class="st12" d="M57.7,147.2c0-5.6,1.5-10.1,4.6-13.5c5.1-5.7,12.6-8.7,20.2-8.7h62.2"/>
	<path id="XMLID_31_" class="st5" d="M43.3,165.4h28.2c1,0,1.6-1,1.1-1.9l-5-10c-4.4-6.5-14.4-6.2-19.6,0l-5.8,9.8
		C41.6,164.3,42.2,165.4,43.3,165.4z"/>
	<path id="XMLID_30_" class="st12" d="M43.3,165.4h28.2c1,0,1.6-1,1.1-1.9l-5-10c-4.4-6.5-14.4-6.2-19.6,0l-5.8,9.8
		C41.6,164.3,42.2,165.4,43.3,165.4z"/>
	<polygon id="XMLID_29_" class="st13" points="40.2,165.4 7.1,291.1 108.4,291.1 74,165.4 	"/>
	<path id="XMLID_28_" class="st14" d="M380.1,166.3c0,0,17.9-12.9,36.2,0c0,0,22.4,13.2,11.9,36.2c0,0,26.7,49.2-20.3,66
		c-7.4,2.6-15.4,2.5-22.7-0.3c-17.6-6.9-47-26.6-20.8-63.9c0,0-1.4-15.6,2.6-22.2"/>
	<path id="XMLID_27_" class="st6" d="M368.3,251.4c0,0-8.6-36.6,7.9-46.7c0,0,1-35.6,33.1-43.7c0,0-44.8-7.4-43.3,34.1
		c0,0-15.8,26.7-9.8,39.3C356.2,234.4,359.4,252.7,368.3,251.4z"/>
	<path id="XMLID_26_" class="st11" d="M381,163.6c0,0,17.9-12.9,36.2,0c0,0,22.4,13.2,11.9,36.2c0,0,26.7,49.2-20.3,66
		c-7.4,2.6-15.4,2.5-22.7-0.3c-17.6-6.9-47-26.6-20.8-63.9c0,0-1.4-15.6,2.6-22.2"/>
	<line id="XMLID_25_" class="st15" x1="395.7" y1="267.7" x2="395.7" y2="294.7"/>
	<circle id="XMLID_22_" class="st16" cx="331.8" cy="263.8" r="17.1"/>
	<path id="XMLID_21_" class="st17" d="M322.1,278.9c0,0,4-28.5,18.4-30.2c0,0-15.1-10.7-26.5,5.8
		C314.1,254.5,306.3,275.9,322.1,278.9z"/>
	<circle id="XMLID_20_" class="st11" cx="331.8" cy="263.8" r="18.8"/>
	<line id="XMLID_19_" class="st15" x1="331.8" y1="282.7" x2="331.8" y2="296.4"/>
	<circle id="XMLID_16_" class="st16" cx="285.4" cy="263.5" r="17.1"/>
	<path id="XMLID_15_" class="st17" d="M275.6,278.6c0,0,4-28.5,18.4-30.2c0,0-15.1-10.7-26.5,5.8
		C267.6,254.2,259.8,275.6,275.6,278.6z"/>
	<circle id="XMLID_14_" class="st11" cx="285.4" cy="263.5" r="18.8"/>
	<line id="XMLID_13_" class="st15" x1="285.4" y1="282.3" x2="285.4" y2="296"/>
	<path id="XMLID_12_" class="st11" d="M149.8,293.7h17.1v-15.8c0-5.2,4.5-9.6,9.7-9c3.6,0.4,6.8,3.2,7.1,11.7"/>
	<path id="XMLID_11_" class="st11" d="M218.6,280.6c-0.3-8.5-3.5-11.2-7.1-11.7c-5.2-0.6-9.7,3.7-9.7,9v18.8"/>
	<path id="XMLID_10_" class="st11" d="M248.5,280.6c-0.3-8.5-3.5-11.2-7.1-11.7c-5.2-0.6-9.7,3.7-9.7,9v18.8"/>
	<line id="XMLID_9_" class="st11" x1="-3.4" y1="293.7" x2="160.7" y2="293.7"/>
</g>
</svg>
