<?xml version="1.0" encoding="utf-8"?>
<!-- Generator: Adobe Illustrator 19.0.0, SVG Export Plug-In . SVG Version: 6.00 Build 0)  -->
<svg version="1.1" id="图层_1" xmlns="http://www.w3.org/2000/svg" xmlns:xlink="http://www.w3.org/1999/xlink" x="0px" y="0px"
	 viewBox="0 0 686.8 1221.5" style="enable-background:new 0 0 686.8 1221.5;" xml:space="preserve">
<style type="text/css">
	.st0{fill:url(#XMLID_2_);stroke:#231815;stroke-width:2.9701;stroke-miterlimit:10;}
	.st1{fill:#FFFFFF;}
	.st2{fill:#9EB2B9;}
	.st3{fill:#DB7C1E;}
	.st4{opacity:0.45;fill:#95A5C3;}
	.st5{opacity:0.4;fill:#837C99;}
	.st6{opacity:0.31;fill:#9EB2B9;}
	.st7{opacity:0.29;fill:#CFE8F3;}
	.st8{fill:none;stroke:#95A5C3;stroke-width:10.7416;stroke-miterlimit:10;}
	.st9{fill:none;stroke:#95A5C3;stroke-width:9.9048;stroke-miterlimit:10;}
	.st10{fill:#5B4235;}
	.st11{fill:#79191D;}
	.st12{fill:none;stroke:#3B182D;stroke-width:8.0562;stroke-miterlimit:10;}
	.st13{fill:#996CA4;}
	.st14{font-family:'Hind-Bold';}
	.st15{font-size:32.4647px;}
	.st16{fill:none;stroke:url(#XMLID_3_);stroke-width:2.4157;stroke-miterlimit:10;}
	.st17{font-size:35.6406px;}
	.st18{fill:none;stroke:#996CA4;stroke-width:3.508;stroke-miterlimit:10;}
	.st19{fill:#9EB1BA;}
	.st20{fill:#FFFFFF;stroke:#231815;stroke-width:0.5182;stroke-miterlimit:10;}
	.st21{fill:#C54087;}
	.st22{fill:none;stroke:#FFFFFF;stroke-width:2.9701;stroke-miterlimit:10;}
	.st23{font-family:'Hind-Semibold';}
	.st24{font-size:53.461px;}
	.st25{fill:#A7619C;}
</style>
<linearGradient id="XMLID_2_" gradientUnits="userSpaceOnUse" x1="61.1305" y1="74.4291" x2="273.0681" y2="475.6701">
	<stop  offset="0" style="stop-color:#1A85B8"/>
	<stop  offset="0.5192" style="stop-color:#5C4590"/>
	<stop  offset="0.9889" style="stop-color:#C93983"/>
</linearGradient>
<rect id="XMLID_70_" x="1" y="0" class="st0" width="686.8" height="1221.5"/>
<path id="XMLID_69_" class="st1" d="M1,129.2c0,0,267.3,235.5,686.8,0v1092.3H1V129.2z"/>
<g id="XMLID_37_">
	<path id="XMLID_68_" class="st2" d="M80.8,670.8c0-0.1-0.2-0.2-0.3-0.3l-2.1-0.3l-0.9-1.9c-0.1-0.1-0.2-0.2-0.3-0.2
		c-0.1,0-0.3,0.1-0.3,0.2l-0.9,1.9l-2.1,0.3c-0.1,0-0.3,0.1-0.3,0.3c0,0.1,0,0.3,0.1,0.4l1.6,1.5l-0.4,2.1c0,0.1,0,0.3,0.1,0.4
		c0.1,0.1,0.3,0.1,0.4,0l1.9-1l1.9,1c0.1,0,0.1,0,0.2,0c0.1,0,0.2,0,0.2-0.1c0.1-0.1,0.2-0.2,0.1-0.4l-0.4-2.1l1.6-1.5
		C80.8,671,80.8,670.9,80.8,670.8z"/>
	<path id="XMLID_67_" class="st2" d="M162.5,634l-1.1,6.2c-0.1,0.4,0.1,0.8,0.4,1.1c0.3,0.2,0.8,0.3,1.1,0.1l5.5-2.9l5.5,2.9
		c0.2,0.1,0.3,0.1,0.5,0.1c0.2,0,0.4-0.1,0.6-0.2c0.3-0.2,0.5-0.7,0.4-1.1l-1.1-6.2l4.5-4.3c0.3-0.3,0.4-0.7,0.3-1.1
		c-0.1-0.4-0.5-0.7-0.9-0.7l-6.2-0.9l-2.7-5.6c-0.2-0.4-0.6-0.6-1-0.6c-0.4,0-0.8,0.2-1,0.6l-2.7,5.6l-6.2,0.9
		c-0.4,0.1-0.8,0.3-0.9,0.7c-0.1,0.4,0,0.8,0.3,1.1L162.5,634z"/>
	<path id="XMLID_66_" class="st2" d="M207.8,510.3c-0.3,0-0.6,0.2-0.7,0.4l-2,4.1l-4.5,0.6c-0.3,0-0.5,0.2-0.6,0.5
		c-0.1,0.3,0,0.6,0.2,0.8l3.3,3.1l-0.8,4.4c-0.1,0.3,0.1,0.6,0.3,0.8c0.2,0.2,0.6,0.2,0.8,0.1l4-2.1l4,2.1c0.1,0.1,0.2,0.1,0.4,0.1
		c0.2,0,0.3-0.1,0.5-0.1c0.2-0.2,0.4-0.5,0.3-0.8l-0.8-4.4l3.3-3.1c0.2-0.2,0.3-0.5,0.2-0.8c-0.1-0.3-0.3-0.5-0.6-0.5l-4.5-0.6
		l-2-4.1C208.4,510.5,208.1,510.3,207.8,510.3z"/>
	<path id="XMLID_65_" class="st2" d="M297,456.6c-0.3,0-0.6,0.2-0.7,0.4l-2,4.1l-4.5,0.6c-0.3,0-0.5,0.2-0.6,0.5s0,0.6,0.2,0.8
		l3.3,3.1l-0.8,4.4c-0.1,0.3,0.1,0.6,0.3,0.8c0.2,0.2,0.6,0.2,0.8,0.1l4-2.1l4,2.1c0.1,0.1,0.2,0.1,0.4,0.1c0.2,0,0.3-0.1,0.5-0.1
		c0.2-0.2,0.4-0.5,0.3-0.8l-0.8-4.4l3.3-3.1c0.2-0.2,0.3-0.5,0.2-0.8c-0.1-0.3-0.3-0.5-0.6-0.5l-4.5-0.6l-2-4.1
		C297.6,456.8,297.3,456.6,297,456.6z"/>
	<path id="XMLID_64_" class="st2" d="M72.5,527.8c2.7-8.1,8.2-14.5,15-18.5c-13.7,0.7-26.2,9.5-30.8,23.3
		c-6.1,18,3.6,37.4,21.5,43.5c9.9,3.3,20.2,1.9,28.5-3c-4.2,0.2-8.5-0.4-12.7-1.8C76,565.3,66.4,545.8,72.5,527.8z"/>
	<polygon id="XMLID_63_" class="st2" points="512.6,607.2 515.3,606 518.1,607.2 517.7,604.2 519.7,602 516.8,601.4 515.3,598.8 
		513.8,601.4 510.9,602 512.9,604.2 	"/>
	<polygon id="XMLID_62_" class="st2" points="372.5,534.4 364.2,532.6 359.9,525.3 355.7,532.6 347.4,534.4 353.1,540.7 
		352.2,549.2 359.9,545.7 367.7,549.2 366.8,540.7 	"/>
	<polygon id="XMLID_61_" class="st2" points="487.4,519.2 495.5,522.9 494.6,514 500.6,507.3 491.8,505.5 487.4,497.7 482.9,505.5 
		474.1,507.3 480.1,514 479.2,522.9 	"/>
	<polygon id="XMLID_60_" class="st2" points="455.8,691.2 458.5,690 461.3,691.2 460.9,688.2 463,686 460,685.4 458.5,682.8 
		457.1,685.4 454.1,686 456.1,688.2 	"/>
	<polygon id="XMLID_59_" class="st2" points="592.5,640 600.7,643.7 599.7,634.8 605.8,628.1 597,626.3 592.5,618.5 588.1,626.3 
		579.3,628.1 585.3,634.8 584.4,643.7 	"/>
	<circle id="XMLID_58_" class="st3" cx="328" cy="637.8" r="38.4"/>
	<circle id="XMLID_57_" class="st4" cx="329" cy="637.8" r="76.6"/>
	<circle id="XMLID_56_" class="st5" cx="329" cy="637.8" r="126.5"/>
	<circle id="XMLID_55_" class="st6" cx="328" cy="637.8" r="190.9"/>
	<circle id="XMLID_54_" class="st7" cx="329" cy="637.8" r="291.4"/>
	<path id="XMLID_53_" class="st8" d="M425.9,717.5c0,0,14.8,0.7,14.5-9.2c0,0,3.1-13.4-14.5-13.2"/>
	<path id="XMLID_52_" class="st8" d="M454.1,718.4c0,0,14.8,0.7,14.5-9.2c0,0,3.1-13.4-14.5-13.2"/>
	<path id="XMLID_51_" class="st8" d="M480,717.5c0,0,14.8,0.7,14.5-9.2c0,0,3.1-13.4-14.5-13.2"/>
	<path id="XMLID_50_" class="st9" d="M503.3,718.4h18.3c5.7,0,10.8-3,12.8-7.2c0.7-1.4,1-3,0.9-4.6c0-0.1,0-0.1,0-0.2
		c0-13.1-15-10.1-15-10.1"/>
	<line id="XMLID_49_" class="st8" x1="355.2" y1="754.5" x2="480" y2="754.5"/>
	<line id="XMLID_48_" class="st8" x1="519.3" y1="752.4" x2="549.8" y2="752.4"/>
	<line id="XMLID_47_" class="st8" x1="389.6" y1="787.4" x2="450.9" y2="787.4"/>
	<line id="XMLID_46_" class="st8" x1="474.7" y1="787.4" x2="490.8" y2="787.4"/>
	<path id="XMLID_45_" class="st9" d="M340.1,717.5h61.5c5.7,0,10.8-3,12.8-7.2c0.7-1.4,1-3,0.9-4.6c0-0.1,0-0.1,0-0.2
		c0-13.1-15-10.1-15-10.1"/>
	<polygon id="XMLID_44_" class="st1" points="301,619.2 292.6,802.5 365.5,802.5 352.4,619.2 	"/>
	<polygon id="XMLID_43_" class="st10" points="327.2,585 290.7,619.2 362.2,619.2 	"/>
	<circle id="XMLID_42_" class="st3" cx="328.3" cy="637.8" r="12.1"/>
	<polygon id="XMLID_41_" class="st11" points="295.8,730.9 354.8,673.6 358.2,725.1 293.6,775.2 	"/>
	<polygon id="XMLID_40_" class="st11" points="361.3,762.7 319.5,802.5 361.3,802.5 	"/>
	<polyline id="XMLID_39_" class="st12" points="292.8,764.2 290.7,802.5 363.6,802.5 352.2,664.7 298.5,664.7 296.2,715.5 	"/>
	<line id="XMLID_38_" class="st12" x1="289.2" y1="661.8" x2="365.2" y2="661.8"/>
</g>
<g id="XMLID_34_">
	<text id="XMLID_74_" transform="matrix(1 0 0 1 45.028 895.3037)" class="st13 st14 st15">Rain</text>
</g>
<linearGradient id="XMLID_3_" gradientUnits="userSpaceOnUse" x1="149.7121" y1="465.0401" x2="372.7589" y2="887.313">
	<stop  offset="0" style="stop-color:#1A85B8"/>
	<stop  offset="0.5192" style="stop-color:#5C4590"/>
	<stop  offset="0.9889" style="stop-color:#C93983"/>
</linearGradient>
<polygon id="XMLID_33_" class="st16" points="320.6,377.2 439.1,582.3 557.5,787.4 320.6,787.4 83.8,787.4 202.2,582.3 "/>
<text id="XMLID_32_" transform="matrix(1 0 0 1 229.6647 330.1045)" class="st13 st14 st17">Whispering</text>
<circle id="XMLID_31_" class="st18" cx="329" cy="637.8" r="222.9"/>
<circle id="XMLID_30_" class="st13" cx="75.4" cy="787.4" r="15.3"/>
<circle id="XMLID_29_" class="st13" cx="320.6" cy="377.2" r="15.3"/>
<text id="XMLID_28_" transform="matrix(1 0 0 1 263.9167 987.4561)" class="st19 st14 st15">00:40</text>
<polygon id="XMLID_27_" class="st13" points="295.7,1125.8 267.8,1141.9 239.9,1158 239.9,1125.8 239.9,1093.6 267.8,1109.7 "/>
<path id="XMLID_26_" class="st13" d="M130.4,1158H87.5c-8.2,0-15-6.7-15-15v-42.9c0-8.2,6.7-15,15-15h42.9c8.2,0,15,6.7,15,15v42.9
	C145.4,1151.3,138.6,1158,130.4,1158z"/>
<g id="XMLID_23_">
	<rect id="XMLID_25_" x="366.2" y="1093.6" class="st13" width="18.8" height="64.2"/>
	<rect id="XMLID_24_" x="403.1" y="1093.8" class="st13" width="18.8" height="64.2"/>
</g>
<g id="XMLID_20_">
	<rect id="XMLID_22_" x="528.7" y="1091.6" class="st13" width="68.4" height="68.4"/>
	<polygon id="XMLID_21_" class="st20" points="528.7,1092 597.1,1092 561.5,1127.6 	"/>
</g>
<g id="XMLID_17_">
	<text id="XMLID_73_" transform="matrix(1 0 0 1 225.8483 1051.958)" class="st21 st14 st15">Meditation</text>
</g>
<polyline id="XMLID_16_" class="st22" points="43.2,49.8 28,67.6 43.2,84.7 "/>
<polyline id="XMLID_15_" class="st22" points="60.2,49.8 45,67.6 60.2,84.7 "/>
<rect id="XMLID_14_" x="604.9" y="49.8" class="st1" width="48.2" height="4.6"/>
<rect id="XMLID_13_" x="604.9" y="63.8" class="st1" width="48.2" height="4.6"/>
<rect id="XMLID_12_" x="604.9" y="77.8" class="st1" width="48.2" height="4.6"/>
<text id="XMLID_11_" transform="matrix(1 0 0 1 218.1032 84.0039)" class="st1 st23 st24">Immersive</text>
<ellipse id="XMLID_10_" class="st25" cx="369.5" cy="934.8" rx="23.6" ry="22.8"/>
</svg>
