<?xml version="1.0" encoding="utf-8"?>
<!-- Generator: Adobe Illustrator 19.0.0, SVG Export Plug-In . SVG Version: 6.00 Build 0)  -->
<svg version="1.1" id="图层_1" xmlns="http://www.w3.org/2000/svg" xmlns:xlink="http://www.w3.org/1999/xlink" x="0px" y="0px"
	 viewBox="0 0 291.1 291.1" style="enable-background:new 0 0 291.1 291.1;" xml:space="preserve">
<style type="text/css">
	.st0{clip-path:url(#XMLID_14_);}
	.st1{fill:#5A4643;}
	.st2{fill:#FFDFCB;}
	.st3{fill:#E9A085;}
	.st4{fill:#DB6A5E;}
	.st5{fill:#9EB1BA;}
	.st6{fill:#070001;}
</style>
<g id="XMLID_2_">
	<defs>
		<circle id="XMLID_3_" cx="145.5" cy="145.5" r="145.5"/>
	</defs>
	<use xlink:href="#XMLID_3_"  style="overflow:visible;fill:#8081B7;"/>
	<clipPath id="XMLID_14_">
		<use xlink:href="#XMLID_3_"  style="overflow:visible;"/>
	</clipPath>
	<g id="XMLID_4_" class="st0">
		<path id="XMLID_13_" class="st1" d="M66.5,203c-6.1-2.4-11.3-7.2-14.1-13.2c-3.5-7.7-1.9-17.1-2.2-25.3c-0.3-10.4,3-21.2,6.3-30.9
			c6.3-18.4,17.3-34.9,22.6-53.3c4.5-15.4,15.4-31,29.9-38.2c2.2-1.1,8.7-1.9,10-3.2c0.2-0.2,15.9-15.6,50.3-4.4
			c11.7,3.8,21.3,11.9,28.4,21.8c7,9.7,9.8,19.9,15,30.4c7,14.2,17.4,26.4,24.4,40.6c11.9,24.3,6.9,64.4-22.3,73.7
			c-7.8,2.5-16.3,3.8-22.9,8.6c-2.8,2.1-5.1,4.7-7.9,6.8c-10,7.3-24.9,6.4-36,2.8c-8.9-2.9-14.6,1.3-23,1.6
			c-9.4,0.3-18.9-2.2-27-6.9c-4.2-2.5-8.1-5.6-12.8-7.2c-5.3-1.8-11-1.5-16.4-2.9C68,203.6,67.3,203.3,66.5,203z"/>
		<path id="XMLID_12_" class="st2" d="M112.8,263.5c-7.3-5.5-11.6-14.9-11-24c0.1-1.6-0.1-3.8,0.8-5.2c0.9-1.5,2.7-2.4,4-3.5
			c3.4-2.7,7-5.2,10.4-7.9c2.6-2.1,5.1-4.4,7.3-7c0.4-0.4,4.3-6.9,4.5-6.9h27.8c-0.3,0,0.9,2.7,0.9,2.8c2.3,3.8,6,6.8,9.4,9.5
			c4,3.2,8.2,6.1,12.6,8.8c0.4,0.2,0.8,0.5,1,0.9c0,0.1,0.1,0.3,0.1,0.4c0.3,2.6,0.9,4.8,0.1,7.4c-0.7,2.4-2.2,4.5-3.6,6.6
			c-3,4.5-6.2,9-10.6,12.1c-4,2.7-8.7,4.1-13.2,5.6c-6.2,2-12.4,4.4-18.9,4.6c-10.4,0.3-20-5.1-29.1-10.2"/>
		<path id="XMLID_11_" class="st2" d="M180.6,199.9c-9.1,6.6-19.8,12.6-30.9,14.9c-10.9,2.2-23.9-2.3-33.2-7.7
			c-16.6-9.6-25.9-25.3-26.5-44.3c-0.4-12.3-2.1-25.7-0.1-37.9c1.5-9.4,10.5-15.8,19.6-17.5c2.8-0.5,6.1-1,7.4-3.5
			c0.4-0.7,0.5-1.5,0.7-2.3c0.5-3.4,0.1-6.9,0.2-10.4c0.1-3.2,0.4-6.6,1.5-9.6c4.7,4.4,7.1,11.5,11.8,16.3c4.9,5,10.9,8.8,17.7,10.7
			c7.2,2,14.8,2.1,22.1,4c11.9,3,25.3,11.9,30.5,23.5c5.5,12.2-1.5,31.8-6,44c-1.5,4-3.3,8-5.9,11.4
			C187,194.8,183.9,197.5,180.6,199.9z"/>
		<ellipse id="XMLID_10_" class="st3" cx="183.2" cy="159" rx="9.4" ry="7.7"/>
		<ellipse id="XMLID_9_" class="st3" cx="105.2" cy="159" rx="9.4" ry="7.7"/>
		<path id="XMLID_8_" class="st4" d="M125.9,159c0.4,0,39.2,0,39.2,0c-0.1,0-8.4,16.5-9.7,17.9c-3.2,3.4-6.7,5.5-11.5,5.2
			c-7.1-0.4-11-7.1-14.2-12.7C129.5,169,124.9,159.1,125.9,159z"/>
		<path id="XMLID_7_" class="st5" d="M73.1,331.4h140.2c0,0,0.3-55.5-12-78.4c0,0-6.6-15.3-23-23.9c0,0-3.9,20.6-27.7,24.7
			c-23.8,4.1-38.3-12.4-45-22.1c0,0-18.7,9.6-26.8,37.3C70.6,296.7,73.1,331.4,73.1,331.4z"/>
		<ellipse id="XMLID_6_" class="st6" cx="109.5" cy="137.6" rx="4.3" ry="5.5"/>
		<ellipse id="XMLID_5_" class="st6" cx="180.1" cy="137.6" rx="4.3" ry="5.5"/>
	</g>
</g>
</svg>
