<?xml version="1.0" encoding="utf-8"?>
<!-- Generator: Adobe Illustrator 19.0.0, SVG Export Plug-In . SVG Version: 6.00 Build 0)  -->
<svg version="1.1" id="图层_1" xmlns="http://www.w3.org/2000/svg" xmlns:xlink="http://www.w3.org/1999/xlink" x="0px" y="0px"
	 viewBox="0 0 693.9 372" style="enable-background:new 0 0 693.9 372;" xml:space="preserve">
<style type="text/css">
	.st0{clip-path:url(#SVGID_2_);fill:#8081B7;}
	.st1{clip-path:url(#SVGID_4_);fill:#6492C6;}
	.st2{clip-path:url(#SVGID_6_);fill:#C54087;}
	.st3{fill:#231815;}
	.st4{font-family:'Edelsans';}
	.st5{font-size:16px;}
	.st6{fill:#8081B7;}
	.st7{fill:#6492C6;}
	.st8{fill:#C54087;}
	.st9{fill:none;}
	.st10{fill:#9EB1BA;}
</style>
<g>
	<g>
		<defs>
			<path id="SVGID_1_" d="M164.3,0l0.2,49.6c72.7-0.2,131.7,58.5,132,131.1c0.2,72.7-58.5,131.7-131.1,132
				c-55.3,0.2-102.7-33.8-122.3-82.1l-43.8,17.8l103.3,121.7l243.8-63.7l-0.7-232.6L164.3,0z"/>
		</defs>
		<clipPath id="SVGID_2_">
			<use xlink:href="#SVGID_1_"  style="overflow:visible;"/>
		</clipPath>
		<circle class="st0" cx="164.8" cy="181.1" r="152.5"/>
	</g>
	<g>
		<defs>
			<path id="SVGID_3_" d="M164.3,0l0.2,70.5c61.1-0.2,110.7,49.2,110.9,110.2c0.2,61.1-54,110.1-115.1,111l-7.4,80.2l193.4-65.6
				l-0.7-232.6L164.3,0z"/>
		</defs>
		<clipPath id="SVGID_4_">
			<use xlink:href="#SVGID_3_"  style="overflow:visible;"/>
		</clipPath>
		<circle class="st1" cx="164.8" cy="181.1" r="131.6"/>
	</g>
	<g>
		<defs>
			<path id="SVGID_5_" d="M164.3,0l0.3,91.5c49.5-0.2,89.7,39.8,89.9,89.3c0.1,40.8-39.3,89.4-89.3,92.3l2.3,78.2L321.6,337
				l24-263.2L164.3,0z"/>
		</defs>
		<clipPath id="SVGID_6_">
			<use xlink:href="#SVGID_5_"  style="overflow:visible;"/>
		</clipPath>
		<circle class="st2" cx="164.8" cy="181.1" r="110.6"/>
	</g>
	<text transform="matrix(1 -3.080000e-003 3.080000e-003 1 105.1169 43.6803)" class="st3 st4 st5">38%</text>
	<text transform="matrix(1 -3.080000e-003 3.080000e-003 1 105.1169 91.6803)" class="st3 st4 st5">17%</text>
	<text transform="matrix(1 -3.080000e-003 3.080000e-003 1 105.1169 68.6803)" class="st3 st4 st5">18%</text>
	<rect x="370.6" y="92.4" class="st6" width="45.3" height="17.4"/>
	<rect x="370.6" y="176.5" class="st7" width="45.3" height="17.4"/>
	<rect x="370.6" y="249.1" class="st8" width="45.3" height="17.4"/>
	<rect id="XMLID_3_" x="447" y="84.8" class="st9" width="246" height="37.2"/>
	<text transform="matrix(1 0 0 1 446.9531 99.332)"><tspan x="0" y="0" class="st10 st4 st5">20-29 years, use smartphone and </tspan><tspan x="0" y="19.2" class="st10 st4 st5">experience ASMR.</tspan></text>
	<g>
		<rect id="XMLID_26_" x="447" y="164.3" class="st9" width="228.8" height="37.7"/>
		<text id="XMLID_25_" transform="matrix(1 0 0 1 446.9531 178.8193)"><tspan x="0" y="0" class="st10 st4 st5">30-39 years, use smartphone </tspan><tspan x="0" y="19.2" class="st10 st4 st5">and experience ASMR.</tspan></text>
	</g>
	<rect id="XMLID_1_" x="452.3" y="242.2" class="st9" width="203.4" height="36.8"/>
	<text transform="matrix(1 0 0 1 452.333 256.7275)"><tspan x="0" y="0" class="st10 st4 st5">10-19 years, use smartphone </tspan><tspan x="0" y="19.2" class="st10 st4 st5">and experience ASMR.</tspan></text>
</g>
</svg>
