<?xml version="1.0" encoding="utf-8"?>
<!-- Generator: Adobe Illustrator 19.0.0, SVG Export Plug-In . SVG Version: 6.00 Build 0)  -->
<svg version="1.1" id="图层_1" xmlns="http://www.w3.org/2000/svg" xmlns:xlink="http://www.w3.org/1999/xlink" x="0px" y="0px"
	 viewBox="0 0 933 361" style="enable-background:new 0 0 933 361;" xml:space="preserve">
<style type="text/css">
	.st0{opacity:0.5;fill:#C54087;}
	.st1{fill:#5A4643;}
	.st2{fill:#FFDFCB;}
	.st3{fill:#9CAEB6;}
	.st4{fill:#201D1E;}
	.st5{fill:#B55463;}
	.st6{fill:#7E3D43;}
	.st7{fill:#FFFFFF;}
	.st8{fill:#6593C7;}
	.st9{fill:none;stroke:#424042;stroke-width:3.2057;stroke-miterlimit:10;}
	.st10{fill:#424042;}
</style>
<rect y="0" class="st0" width="933" height="361"/>
<g>
	<path class="st1" d="M530.4,230.2c-5.3-2.1-9.8-6.4-12.1-11.6c-2.9-6.7-1.5-14.9-1.6-22c-0.2-9.1,2.8-18.4,5.9-26.8
		c5.7-15.9,15.4-30.2,20.2-46.1c4-13.4,13.7-26.8,26.4-32.9c1.9-0.9,7.6-1.6,8.7-2.7c0.2-0.2,14-13.4,43.8-3.3
		c10.1,3.4,18.4,10.6,24.5,19.2c6,8.5,8.3,17.4,12.7,26.6c5.9,12.4,14.8,23.2,20.8,35.6c10.1,21.3,5.3,56.1-20.2,63.9
		c-6.8,2.1-14.2,3.1-20,7.3c-2.4,1.8-4.5,4-6.9,5.8c-8.8,6.3-21.7,5.3-31.4,2c-7.7-2.6-12.7,1-20.1,1.1c-8.2,0.2-16.4-2.1-23.4-6.3
		c-3.6-2.2-7-5-11-6.4c-4.6-1.6-9.6-1.4-14.2-2.7C531.8,230.7,531.1,230.5,530.4,230.2z"/>
	<path class="st2" d="M570.1,283.3c-6.3-4.9-9.9-13.1-9.3-21c0.1-1.4,0-3.3,0.7-4.5c0.8-1.3,2.3-2.1,3.5-3c3-2.3,6.1-4.4,9.1-6.8
		c2.3-1.8,4.5-3.7,6.4-6c0.3-0.4,3.8-6,4-6l24.2,0.3c-0.3,0,0.7,2.4,0.8,2.4c1.9,3.3,5.2,6,8.1,8.3c3.5,2.8,7.1,5.4,10.9,7.8
		c0.3,0.2,0.7,0.4,0.8,0.8c0,0.1,0.1,0.3,0.1,0.4c0.2,2.3,0.7,4.2,0,6.4c-0.7,2.1-1.9,3.9-3.2,5.7c-2.7,3.9-5.5,7.8-9.4,10.4
		c-3.5,2.3-7.6,3.5-11.6,4.7c-5.4,1.7-10.8,3.7-16.5,3.8c-9.1,0.1-17.4-4.6-25.2-9.2"/>
	<path class="st2" d="M629.7,228.8c-8,5.6-17.3,10.8-27,12.6c-9.5,1.8-20.7-2.2-28.8-7c-14.3-8.5-22.2-22.3-22.5-38.8
		c-0.2-10.7-1.6-22.4,0.3-33c1.5-8.2,9.3-13.6,17.3-15c2.4-0.4,5.3-0.8,6.5-2.9c0.3-0.6,0.5-1.3,0.6-2c0.5-3,0.2-6,0.3-9
		c0.1-2.8,0.4-5.7,1.4-8.3c4,3.8,6.1,10.1,10.1,14.3c4.2,4.4,9.4,7.7,15.3,9.5c6.2,1.8,12.9,2,19.2,3.7
		c10.4,2.7,21.9,10.7,26.3,20.8c4.6,10.7-1.6,27.6-5.7,38.2c-1.3,3.5-2.9,6.9-5.2,9.8C635.4,224.4,632.6,226.7,629.7,228.8z"/>
	<path class="st3" d="M534.7,341.9l121.9,1.5c0,0,0.9-48.3-9.6-68.3c0,0-5.6-13.4-19.7-21c0,0-3.6,17.8-24.4,21.2
		c-20.8,3.3-33.2-11.2-38.9-19.7c0,0-16.4,8.2-23.7,32.2C533,311.7,534.7,341.9,534.7,341.9z"/>
</g>
<path class="st4" d="M584.9,160.4c-0.3-2.5-1.6-4.7-3.7-6.3c-2.3-1.7-5.3-2.4-8.2-1.8c-2.2,0.4-4.1,1.7-5.3,3.5
	c-1.2,1.8-1.7,4.1-1.3,6.2c0.4,1.8,1.4,3.4,2.9,4.4c1.5,1,3.3,1.4,5.1,1c3.1-0.6,5.1-3.6,4.5-6.7c-0.2-1.3-1-2.3-2-3
	c-1.1-0.7-2.3-1-3.6-0.7c-1.1,0.2-2,0.8-2.6,1.7c-0.6,0.9-0.8,2-0.6,3c0.4,1.9,2.2,3.1,4,2.7c0.8-0.2,1.4-0.6,1.9-1.3
	c0.4-0.7,0.6-1.4,0.5-2.2c-0.1-0.7-0.6-1.3-1.3-1.6c-0.5-0.2-1.1-0.2-1.8-0.1c0,0-1.3,1.6,0.4,2.1c0.3-0.1,0.6,0,0.6,0
	c0,0.2,0,0.4-0.1,0.6c-0.1,0.2-0.3,0.3-0.5,0.4c-0.7,0.1-1.4-0.3-1.5-1c-0.1-0.5,0-1,0.3-1.4c0.3-0.4,0.7-0.7,1.2-0.8
	c0.7-0.1,1.4,0,2,0.4c0.6,0.4,1,1,1.1,1.7c0.4,1.9-0.9,3.8-2.8,4.2c-1.2,0.2-2.5,0-3.6-0.7c-1.1-0.7-1.8-1.8-2-3
	c-0.3-1.6,0-3.3,0.9-4.6c0.9-1.4,2.3-2.3,4-2.6c2.3-0.4,4.7,0.1,6.5,1.4c1.6,1.2,2.7,2.9,2.9,4.8c0.3,3-0.2,5.3-1.5,6.7
	c-1.6,1.8-4.6,2.6-8.8,2.4c-1,0.3-1.2,1.8-0.1,2.1c0.2,0.1,0.4,0,0.5,0c4.6,0.1,7.9-1,9.9-3.1C584.6,166.9,585.3,164,584.9,160.4z"
	/>
<path class="st4" d="M621,154.3c-2.4-0.8-4.9-0.7-7.3,0.6c-2.6,1.3-4.5,3.7-5.3,6.5c-0.6,2.1-0.3,4.4,0.8,6.3c1.1,1.9,2.9,3.3,5,3.9
	c1.8,0.5,3.6,0.3,5.2-0.7c1.6-0.9,2.7-2.4,3.2-4.2c0.8-3-1-6.2-4-7c-1.2-0.3-2.5-0.2-3.6,0.5c-1.1,0.6-1.9,1.7-2.2,2.9
	c-0.3,1-0.1,2.1,0.4,3.1c0.5,0.9,1.4,1.6,2.4,1.9c1.8,0.5,3.7-0.6,4.2-2.4c0.2-0.8,0.1-1.6-0.3-2.3c-0.4-0.7-1-1.2-1.8-1.4
	c-0.7-0.2-1.4,0-2,0.5c-0.4,0.4-0.7,0.9-0.9,1.5c0,0,0.9,1.9,2,0.6c0.1-0.3,0.2-0.5,0.3-0.5c0.2,0.1,0.4,0.2,0.5,0.4
	c0.1,0.2,0.1,0.4,0.1,0.6c-0.2,0.7-0.9,1.1-1.6,0.9c-0.5-0.1-0.9-0.5-1.2-0.9c-0.3-0.4-0.3-1-0.2-1.5c0.2-0.7,0.6-1.3,1.2-1.6
	c0.6-0.4,1.3-0.4,2-0.3c1.9,0.5,3,2.5,2.5,4.4c-0.3,1.2-1.1,2.2-2.2,2.9c-1.1,0.6-2.4,0.8-3.6,0.5c-1.6-0.4-2.9-1.5-3.7-2.9
	c-0.8-1.4-1-3.1-0.6-4.7c0.6-2.2,2.1-4.1,4.2-5.2c1.8-0.9,3.8-1.1,5.6-0.4c2.8,1,4.6,2.5,5.4,4.4c0.9,2.2,0.3,5.3-1.7,9
	c-0.2,1,1.1,1.8,1.9,1c0.1-0.2,0.2-0.3,0.2-0.5c2.1-4.1,2.7-7.5,1.6-10.3C626.7,157.4,624.5,155.6,621,154.3z"/>
<g>
	<path class="st5" d="M573.7,207.1c-4.3,8.7,2.7,15.3,9.8,11.9c7.4-3.5,20.4-5.4,27.4-5c0.3,0,0.6,0,0.8,0
		C601,202,582.1,205,573.7,207.1z"/>
	<path class="st6" d="M625.3,202.3c-0.2-3-1.5-5-3.4-6.5c-4.9-3.9-13.5-3.5-13.5-3.5c-10.6-1.6-19.2,1.9-25.2,5.8
		c-5.8,3.8-9.1,8-9.1,8c-0.2,0.3-0.4,0.7-0.5,1c8.4-2.1,27.4-5.1,38.1,7C618.6,214.4,625.8,212.7,625.3,202.3z"/>
	<g>
		<path class="st7" d="M619.6,196.8c0-0.7,0.1-1.6,0-2.4c-4.9-2.4-11.2-2.1-11.2-2.1c-9.9-1.5-18.1,1.5-24,5c0,0,1.2,2.9,1.9,2.9
			c0,0,18.5-4.2,31.9-1.7C619.3,198.4,619.6,196.8,619.6,196.8z"/>
	</g>
</g>
<rect x="499.5" y="270.9" class="st8" width="197.5" height="89.7"/>
<line class="st9" x1="503" y1="306.2" x2="693.5" y2="306.2"/>
<path class="st10" d="M694.2,106.9c1.9-0.9,3-4.3,2.7-6.6c-0.3-2-2.5-5.1-4.7-5.7c-0.3-2.1-1.8-4.5-3.4-5.6c-2.4-1.8-5.4-0.6-7,1.5
	c-0.3,0-0.6,0-1,0.1c-2.6,0.9-3.5,4-3.7,6.5c-0.1,1,0.1,1.9,0.6,2.8c-0.1,0.1-0.2,0.3-0.2,0.4c0,0.2-0.1,0.5-0.1,0.7
	c-0.1,0-0.2,0-0.4,0c-0.6,0-1.1,0.5-1.1,1.1c-0.1,2,1,4.2,2.7,5.6c0.1,0.3,0.3,0.6,0.4,0.9c-0.1,1.5,0.1,2.9,0.5,4.1
	c-1.9-1.3-3.7-3.2-4.6-4.1c-0.6-0.6-1.7-0.4-1.9,0.5c-0.1,0.4-0.1,1-0.2,1.4c-0.7-0.4-1.5-0.6-2.5-0.6c-0.9,0.1-1.5,1.2-0.8,1.9
	c0.9,0.9,1.8,1.5,2.9,1.6c0.3,0.4,0.6,0.8,0.9,1.3c0,0,1,2.2,0.4,1.9c-0.6-0.3-1.5,0-1.6,0.7c-0.3,1.6,0.1,3.1,0.6,4.5
	c-1.4-1.1-2.7-2.3-4.3-3.1c-0.8-0.4-1.6,0.1-1.7,1c-0.2,1.9,0.6,3.6,1.2,5.4c-1,0.2-1.8,0.6-2.2,1.8c-0.7,2.1-9.8,5.2-11.6,6.2
	c-1.3,0.7-0.1,2.7,1.1,1.9c0.9-0.5,1.8-0.4,2.6-0.9c1-0.6,7-3.4,8.2-3.9c1.6-0.6,1.2-3.1,3.3-3.1c0.8,0,1.2-0.7,1.1-1.4
	c-0.2-1.3-0.8-2.5-1.2-3.8c1.5,1.2,2.9,2.5,4.7,3.3c0.9,0.4,1.8-0.2,1.6-1.3c-0.3-1.6-1.2-3.2-1.4-4.9c2.1-0.1,2.2-3.9,0.5-6.6
	c0.1-0.2,0.1-0.4,0.2-0.6c2.4,2.4,6,5.6,8.8,5.3c1.1-0.1,1.9-0.6,2.5-1.3c2,1.3,4.2,2.2,6.2,2.4C698,118.6,696.3,111.2,694.2,106.9z
	 M685.4,112.1c-1.2-0.9-2.3-1.9-3.3-3c0.4-0.1,0.7-0.3,0.8-0.8c0.2-0.9,0.2-2,0-3.2c1.7,1.1,3.1,2.5,3.3,4.1
	C686.3,110.4,686,111.4,685.4,112.1z M680.2,103.8C680.2,103.9,680.2,103.9,680.2,103.8c-0.1,0.4-0.2,0.7-0.4,1
	c-0.1-0.4-0.2-0.8-0.2-1.2C679.8,103.7,680,103.8,680.2,103.8z M683,113.2c-0.4-0.1-0.7-0.5-1-1C682.3,112.6,682.6,112.9,683,113.2z
	 M683.5,103.1c0.1-0.2,0-0.4,0-0.6c1.1-1.3,2.7-0.9,4.8,1.1c-0.1,1.1-0.4,2.2-0.9,3.2c0,0,0,0,0,0.1
	C686.5,105.4,685.1,104.1,683.5,103.1z M690.3,115.1c-0.9-0.4-1.8-1-2.7-1.5c0.8-1.1,1.1-2.3,1-3.4c0.1-0.2,0.1-0.4,0.2-0.5
	c0.9-2.9,3.5-7.6,0.2-10.1c-2.6-2-5.3-0.6-7.1,1.6c-1.9-1.4-2.8-3-2.2-5.7c0.1-0.5,0.5-1.2,0.8-1.7c-0.1,0.9,0.1,1.8,0.6,2.6
	c0.2,0.4,0.8,0.7,1.3,0.5c1.9-0.7,2.1-3.2,1.2-4.9c0.7-0.8,1.8-1.2,3.3-1.3c1.1,0.5,1.9,1.3,2.4,2.3c0.4,0.6,0.7,1.2,1.2,1.7
	c-1.8,0.4-2.8,1.8-2,3.8c0.2,0.4,0.8,0.7,1.3,0.5c1.3-0.5,2-1.3,2.3-2.3c0.8,0.9,1.5,1.8,2.2,2.8c0.6,0.9,0.2,6.7-1.6,4.9
	c-1-1-2.6,0.5-1.6,1.6C692.7,107.7,696.6,118.5,690.3,115.1z"/>
</svg>
