<?xml version="1.0" encoding="utf-8"?>
<!-- Generator: Adobe Illustrator 19.0.0, SVG Export Plug-In . SVG Version: 6.00 Build 0)  -->
<svg version="1.1" id="图层_1" xmlns="http://www.w3.org/2000/svg" xmlns:xlink="http://www.w3.org/1999/xlink" x="0px" y="0px"
	 viewBox="0 0 692.4 393.4" style="enable-background:new 0 0 692.4 393.4;" xml:space="preserve">
<style type="text/css">
	.st0{fill:none;stroke:#D4D4D2;stroke-width:1.4702;stroke-linecap:round;stroke-miterlimit:10;}
	.st1{fill:none;stroke:#D4D4D2;stroke-width:1.0384;stroke-linecap:round;stroke-miterlimit:10;}
	.st2{fill:none;stroke:#D4D4D2;stroke-width:1.315;stroke-linecap:round;stroke-miterlimit:10;}
	.st3{fill:#8081B7;}
	.st4{fill:#C54087;}
	.st5{fill:#9EB1BA;}
	.st6{fill:#996CA4;}
	.st7{font-family:'Edelsans';}
	.st8{font-size:16px;}
</style>
<g id="XMLID_2_">
	<g id="XMLID_8_">
		<line id="XMLID_26_" class="st0" x1="0" y1="0.7" x2="690.4" y2="0.7"/>
		<line id="XMLID_25_" class="st0" x1="0" y1="345.9" x2="690.4" y2="345.9"/>
		<g id="XMLID_21_">
			<line id="XMLID_24_" class="st1" x1="2" y1="253.4" x2="692.4" y2="253.4"/>
			<line id="XMLID_23_" class="st1" x1="2" y1="168.2" x2="692.4" y2="168.2"/>
			<line id="XMLID_22_" class="st1" x1="2" y1="82.9" x2="692.4" y2="82.9"/>
		</g>
		<line id="XMLID_20_" class="st2" x1="0" y1="-1" x2="0" y2="344.2"/>
		<line id="XMLID_19_" class="st2" x1="140.1" y1="1.6" x2="140.1" y2="346.8"/>
		<line id="XMLID_18_" class="st2" x1="278.2" y1="1.6" x2="278.2" y2="346.8"/>
		<line id="XMLID_17_" class="st2" x1="416.3" y1="1.6" x2="416.3" y2="346.8"/>
		<line id="XMLID_16_" class="st2" x1="554.3" y1="1.6" x2="554.3" y2="346.8"/>
		<line id="XMLID_15_" class="st2" x1="690.4" y1="-1" x2="690.4" y2="344.2"/>
		<g id="XMLID_9_">
			<rect id="XMLID_14_" x="54.6" y="224.9" class="st3" width="32.9" height="121.3"/>
			<rect id="XMLID_13_" x="330.8" y="99.6" class="st4" width="32.9" height="246.6"/>
			<rect id="XMLID_12_" x="468.9" y="213.6" class="st5" width="32.9" height="132.5"/>
			<rect id="XMLID_11_" x="192.7" y="188.4" class="st6" width="32.9" height="157.8"/>
			<rect id="XMLID_10_" x="606.9" y="138.2" class="st6" width="32.9" height="208"/>
		</g>
	</g>
	<text id="XMLID_7_" transform="matrix(1 0 0 1 55.0958 388.6797)" class="st5 st7 st8">2012</text>
	<text id="XMLID_6_" transform="matrix(1 0 0 1 192.3131 388.6797)" class="st5 st7 st8">2013</text>
	<text id="XMLID_5_" transform="matrix(1 0 0 1 330.3311 388.6797)" class="st5 st7 st8">2014</text>
	<text id="XMLID_4_" transform="matrix(1 0 0 1 469.1373 388.6792)" class="st5 st7 st8">2015</text>
	<text id="XMLID_3_" transform="matrix(1 0 0 1 606.6466 388.6782)" class="st5 st7 st8">2016</text>
</g>
</svg>
