<?xml version="1.0" encoding="utf-8"?>
<!-- Generator: Adobe Illustrator 19.0.0, SVG Export Plug-In . SVG Version: 6.00 Build 0)  -->
<svg version="1.1" id="图层_1" xmlns="http://www.w3.org/2000/svg" xmlns:xlink="http://www.w3.org/1999/xlink" x="0px" y="0px"
	 viewBox="0 0 686.1 521.5" style="enable-background:new 0 0 686.1 521.5;" xml:space="preserve">
<style type="text/css">
	.st0{fill:#9EB1BA;}
	.st1{fill:#F8DBC5;}
	.st2{fill:#070001;}
	.st3{fill:none;stroke:#231815;stroke-width:1.2395;stroke-miterlimit:10;}
	.st4{fill:#837C99;}
	.st5{fill:#E79992;}
	.st6{fill:#D33728;}
	.st7{fill:#8081B7;}
	.st8{fill:none;stroke:#070001;stroke-width:0.6947;stroke-linecap:round;stroke-linejoin:round;stroke-miterlimit:10;}
	.st9{fill:#A7619C;}
	.st10{fill:none;stroke:#070001;stroke-width:0.9174;stroke-linecap:round;stroke-linejoin:round;stroke-miterlimit:10;}
	.st11{fill:none;stroke:#070001;stroke-width:0.5933;stroke-linecap:round;stroke-linejoin:round;stroke-miterlimit:10;}
	.st12{fill:#C6D2D8;}
	.st13{fill:#6492C6;stroke:#3AB0C5;stroke-width:1.3737;stroke-miterlimit:10;}
	.st14{fill:#C54087;}
	.st15{fill:#996CA4;}
	.st16{fill:#F8FAFB;}
	.st17{fill:none;stroke:#070001;stroke-width:2.7473;stroke-miterlimit:10;}
	.st18{font-family:'Edelsans';}
	.st19{font-size:16px;}
	.st20{font-family:'Campton-BoldDEMO';}
	.st21{font-size:24px;}
</style>
<g id="XMLID_2_">
	<g id="XMLID_51_">
		<path id="XMLID_56_" class="st0" d="M639.3,144.8c0,0,10.3-9.3,18.4-2.3c8.1,7,12.7,24.1,15.6,27.2c2.9,3.1,12.5,24.1-7.9,31.9
			c0,0-2.8,6.7-18.9,4.2c0,0-7.6,5.3-17.8-2.4c0,0-8.7,2.8-13.4-9.3c0,0-3-4.2,0-16.4C618.2,165.5,624.4,138.6,639.3,144.8z"/>
		<path id="XMLID_55_" class="st1" d="M639.7,156.3c0.5,0,1.3-0.4,1.8-0.5c1.6-0.4,3.3-0.9,4.9-0.9c3-0.1,6.5-0.2,9.2,1.4
			c6.4,3.8,7.3,13.7,7.9,20.4c1.3,16.5-5.7,24.9-17.1,25.7c-13.7,0.9-18.7-9.7-19.2-15.2s-2-22,2.8-26.6
			C634.9,155.9,639.7,156.3,639.7,156.3z"/>
		<ellipse id="XMLID_54_" class="st2" cx="634.5" cy="175" rx="1.7" ry="2.1"/>
		<ellipse id="XMLID_53_" class="st2" cx="655" cy="175" rx="1.7" ry="2.1"/>
		<line id="XMLID_52_" class="st3" x1="637" y1="188.9" x2="655.4" y2="188.9"/>
	</g>
	<g id="XMLID_43_">
		<path id="XMLID_50_" class="st4" d="M635.7,82.1c-0.3,0.1-0.7,0.2-1,0.4c-2.2,0.9-4.4,2.7-6.9,2.6c-2.2-0.1-4.7-1-6.9-1.5
			c-0.3-0.1-0.7-0.2-0.9-0.4c-0.2-0.2-0.3-0.6-0.3-0.9c-0.1-1.5,0.3-3.3-0.8-4.4c-1-1-2.6-0.9-4-1.4c-3.7-1.3-4.8-7.4-4.2-10.9
			c0.4-2.3,2.6-3.6,2.6-6.1c0-2.3-1.6-4.3-2.1-6.5c-0.6-2.5-0.7-5.1,0.1-7.6c1.7-4.9,6.6-7.4,7.7-12.6c0.5-2.5,0.5-5,0.8-7.5
			c0.6-5.6,2.9-14.2,7.9-17.5c1.3-0.8,2.8-1.7,4.3-2.1c0.3-0.1,3.4-0.4,3,0.2c2.9-4.7,7.6-6,12.8-6.1c4.8-0.1,9.6,1.6,13.3,4.6
			c5.1,4.1,8.2,10.3,9.2,16.7c0.3,1.8,0.4,3.7,1,5.5c0.6,1.8,1.6,3.5,3.3,4.3c1.3,0.7,2.9,0.7,4.2,1.5c1.3,0.8,2,2.4,2.6,3.8
			c0.6,1.5,1.2,3,0.9,4.6c-0.4,2.3-2.7,4-2.7,6.3c0,1.3,0.7,2.4,1.2,3.6c2.1,4.6,2.7,10.6-1.1,14.4c-1.1,1-2.4,2.1-2.3,3.6
			c0.1,0.9,0.7,1.7,1.1,2.5c0.9,2.4-0.9,5.1-3,6.5c-1.6,1.1-4.6,3.3-6.5,3.7c-2.5,0.5-5.1-1.9-7.6-1.9c-2.8,0-5,2.3-7.5,3.5
			c-2.9,1.5-6.7,1.4-9.6-0.1C641.3,81.8,638.6,81.3,635.7,82.1z"/>
		<path id="XMLID_49_" class="st1" d="M636.5,20.8c0.9-1.7,2.4-4.4,2.1-4.5c1.2,0.4,2.2,1.3,3.5,1.7c2,0.5,4.1,0.6,6,1.1
			c2,0.5,4,1.7,4.7,3.6c0.6,1.5,0.3,3.1,0.9,4.6c1.2,3.4,5.5,4.3,8.5,6.4c0.5,0.4,1,0.8,1.3,1.4c0.2,0.6,0.2,1.3,0.1,2
			c-0.3,3.4,0.7,5.9,1.7,9c0.9,2.9-0.6,5.2-1.9,7.8c-2.9,5.7-9.4,11.4-17.3,12.1c0,0-9.9-1-16.5-11.1c-3.2-5-2.5-11.8-2.4-17.5
			c0.2-6.7,5.5-10.1,8.6-15.5C635.9,21.9,636.2,21.4,636.5,20.8z"/>
		<ellipse id="XMLID_48_" class="st5" cx="632.7" cy="44.1" rx="3.2" ry="2.4"/>
		<ellipse id="XMLID_47_" class="st5" cx="659.8" cy="44.1" rx="3.2" ry="2.4"/>
		<ellipse id="XMLID_46_" class="st2" cx="634.5" cy="36" rx="1.5" ry="1.8"/>
		<ellipse id="XMLID_45_" class="st2" cx="657" cy="36" rx="1.5" ry="1.8"/>
		<path id="XMLID_44_" class="st6" d="M640.3,48.6h11.6c0,0-1.2,6.7-5.8,7.2C641.5,56.4,640.3,48.6,640.3,48.6z"/>
	</g>
	<g id="XMLID_33_">
		<path id="XMLID_42_" class="st7" d="M641.7,366.7c-0.3,0.1-0.6,0.2-1,0.3c-2.1,0.8-4.2,2.6-6.5,2.5c-2.1-0.1-4.5-0.9-6.5-1.4
			c-0.3-0.1-0.6-0.1-0.9-0.4c-0.2-0.2-0.3-0.6-0.3-0.9c-0.1-1.5,0.2-3.1-0.8-4.2c-0.9-1-2.5-0.9-3.8-1.3c-3.5-1.2-4.6-7.1-4-10.3
			c0.4-2.2,2.5-3.4,2.5-5.8c0-2.2-1.5-4.1-2-6.2c-0.5-2.4-0.7-4.8,0.1-7.2c1.6-4.6,6.3-7,7.3-12c0.5-2.3,0.5-4.7,0.8-7.1
			c0.6-5.4,2.7-13.5,7.5-16.7c1.2-0.8,2.7-1.6,4.1-2c0.3-0.1,3.2-0.4,2.8,0.2c2.7-4.5,7.3-5.7,12.1-5.8c4.5-0.1,9.1,1.5,12.7,4.4
			c4.8,3.9,7.8,9.8,8.7,15.9c0.3,1.7,0.4,3.5,0.9,5.2c0.5,1.7,1.6,3.3,3.1,4.1c1.3,0.6,2.8,0.7,4,1.4c1.2,0.8,1.9,2.3,2.4,3.6
			c0.6,1.4,1.2,2.9,0.9,4.4c-0.4,2.2-2.5,3.8-2.5,6c0,1.2,0.7,2.3,1.2,3.4c2,4.4,2.6,10.1-1.1,13.8c-1,1-2.3,2-2.2,3.4
			c0.1,0.9,0.7,1.6,1,2.4c0.9,2.3-0.8,4.8-2.8,6.2c-1.6,1.1-4.4,3.2-6.2,3.5c-2.4,0.5-4.8-1.8-7.2-1.8c-2.7,0-4.8,2.2-7.1,3.4
			c-2.8,1.4-6.4,1.3-9.2-0.1C647,366.4,644.4,365.9,641.7,366.7z"/>
		<path id="XMLID_41_" class="st1" d="M642.5,308.3c0.9-1.6,2.3-4.2,2-4.2c1.1,0.4,2.1,1.2,3.3,1.6c1.9,0.5,3.9,0.6,5.8,1.1
			c1.9,0.5,3.8,1.6,4.5,3.4c0.5,1.4,0.3,3,0.8,4.4c1.1,3.3,5.2,4.1,8.1,6.1c0.5,0.4,1,0.8,1.2,1.3c0.2,0.6,0.1,1.3,0.1,1.9
			c-0.3,3.2,0.7,5.6,1.6,8.5c0.9,2.8-0.6,5-1.8,7.4c-2.7,5.4-9,10.8-16.4,11.5c0,0-9.5-1-15.7-10.6c-3.1-4.7-2.4-11.3-2.3-16.6
			c0.2-6.4,5.2-9.6,8.2-14.7C641.9,309.4,642.1,308.9,642.5,308.3z"/>
		<ellipse id="XMLID_40_" class="st2" cx="640.5" cy="322.9" rx="1.4" ry="1.8"/>
		<ellipse id="XMLID_39_" class="st2" cx="662" cy="322.9" rx="1.4" ry="1.8"/>
		<path id="XMLID_38_" class="st6" d="M646.1,334.9h11c0,0-1.2,6.3-5.5,6.9C647.2,342.3,646.1,334.9,646.1,334.9z"/>
		<g id="XMLID_34_">
			<circle id="XMLID_37_" class="st8" cx="641.5" cy="322.9" r="5.6"/>
			<circle id="XMLID_36_" class="st8" cx="661.9" cy="322.9" r="5.6"/>
			<line id="XMLID_35_" class="st8" x1="646.7" y1="320.9" x2="656.6" y2="320.9"/>
		</g>
	</g>
	<g id="XMLID_23_">
		<path id="XMLID_32_" class="st9" d="M645.6,453.9c0.1-0.1,0.3-0.2,0.4-0.2c4.1-2.2,9.4-2.5,13.8-0.6c2.4,1,3.9,2.8,5.7,4.5
			c2,1.9,3.2,4.5,5.1,6.3c2.2,2.1,5.1,3,6.7,5.7c0.9,1.4,1.2,3.3,0.4,4.8c-0.4,0.7-1,1.3-1,2.1c-0.1,1.2,1.2,2,2.2,2.7
			c1.8,1.4,2.7,3.6,3.2,5.8c0.5,2.5-1.1,4.7-0.7,7.1c0.2,1.6,1.4,3,1.3,4.6c-0.1,2-2.1,3.3-4,3.9c-0.5,0.2-1.1,0.3-1.5,0.8
			c-0.4,0.5-0.5,1.1-0.6,1.7c-0.5,2.1-2.3,3.5-3.4,5.3c-1.3,2.1-3,3.4-5.6,2.7c-1.4-0.4-2.9-1.3-4.2-0.7c-0.5,0.2-0.9,0.7-1.3,1
			c-1.4,1.1-3.6,1.4-5.2,0.5c-1.5-0.8-1.9-2.3-3.9-1.6c-1,0.3-1.9,1-3,1.1c-1.7,0.2-3.5-0.9-5-0.1c-3.1,1.7-7.2,3.4-10.3,0
			c-0.3-0.3-0.5-0.6-0.8-0.8c-0.3-0.2-0.7-0.2-1.1-0.2c-2,0-4.4,0.4-5.7-1.2c-1.4-1.7-0.3-4.6-1.6-6.4c-0.7-1-2-1.4-3-2
			c-3.9-2.2-5.2-8-2.6-11.7c0.7-1,1.7-1.9,2.4-2.9c3.1-4.6-1.4-11.5,3.8-15.3c0.9-0.7,1.9-1.1,2.9-1.7c2.2-1.5,2.3-3.5,3.1-5.8
			c0.7-1.9,2.3-4,3.7-5.5c1.9-2.1,6.3-5.5,8.8-2.6C644.7,454.8,645.1,454.3,645.6,453.9z"/>
		<path id="XMLID_31_" class="st1" d="M642.8,467.2c0.8-1.3,2-3.5,1.7-3.6c1,0.3,1.8,1.1,2.8,1.3c1.6,0.4,3.3,0.5,4.9,0.9
			c1.6,0.4,3.2,1.4,3.8,2.9c0.5,1.2,0.3,2.5,0.7,3.8c1,2.8,4.5,3.5,6.9,5.2c0.4,0.3,0.8,0.7,1,1.1c0.2,0.5,0.1,1.1,0.1,1.7
			c-0.3,2.8,0.6,4.8,1.4,7.3c0.7,2.4-0.5,4.3-1.5,6.3c-2.3,4.6-7.7,9.3-14,9.8c0,0-8.1-0.8-13.4-9c-2.6-4-2.1-9.6-1.9-14.2
			c0.1-5.5,4.5-8.2,7-12.6C642.3,468.1,642.6,467.7,642.8,467.2z"/>
		<ellipse id="XMLID_30_" class="st2" cx="641.2" cy="479.6" rx="1.2" ry="1.5"/>
		<ellipse id="XMLID_29_" class="st2" cx="659.5" cy="479.6" rx="1.2" ry="1.5"/>
		<path id="XMLID_28_" class="st10" d="M642.5,494.3c0,0,7.8,5.7,16.5-0.8"/>
		<g id="XMLID_24_">
			<circle id="XMLID_27_" class="st11" cx="642" cy="479.6" r="4.8"/>
			<circle id="XMLID_26_" class="st11" cx="659.4" cy="479.6" r="4.8"/>
			<line id="XMLID_25_" class="st11" x1="646.5" y1="477.9" x2="654.9" y2="477.9"/>
		</g>
	</g>
	<circle id="XMLID_22_" class="st12" cx="206.6" cy="263.3" r="206.1"/>
	<path id="XMLID_21_" class="st13" d="M412.4,264.7C412.4,150.5,319.9,58,205.7,58C128.8,58,61.8,99.9,26.2,162.1l179.5,102.6
		l90.3,186C364.9,417.1,412.4,346.5,412.4,264.7z"/>
	<path id="XMLID_20_" class="st14" d="M3.7,226.8l201.9,37.9L26.2,162.1C26.2,162.1,0.8,217.5,3.7,226.8z"/>
	<path id="XMLID_19_" class="st15" d="M205.7,264.7L68.4,416.2c0,0-48.5-44.6-61.2-100.7c0,0-13.5-52.9-3.4-88.6L205.7,264.7z"/>
	<path id="XMLID_18_" class="st7" d="M205.7,264.7l90.3,186c0,0-59.7,23.4-105.4,18.1c0,0-70.2-4.2-122.2-52.6L205.7,264.7z"/>
	<circle id="XMLID_17_" class="st16" cx="206.6" cy="263.3" r="178.6"/>
	<polyline id="XMLID_16_" class="st17" points="184.5,72.7 215.4,41.8 486.7,41.8 	"/>
	<polyline id="XMLID_15_" class="st17" points="212,456.5 242.9,487.4 490.4,487.4 	"/>
	<polyline id="XMLID_14_" class="st17" points="13.3,294.8 44.2,324.3 476,324.3 	"/>
	<polyline id="XMLID_13_" class="st17" points="21.7,210.5 49.3,179.6 486.7,179.6 	"/>
	<circle id="XMLID_12_" class="st2" cx="184.5" cy="72.7" r="6.9"/>
	<circle id="XMLID_11_" class="st2" cx="212.7" cy="459" r="6.9"/>
	<text id="XMLID_10_" transform="matrix(1 0 0 1 242.3969 16.3164)" class="st0 st18 st19">Before the ages of 13 years</text>
	<text id="XMLID_9_" transform="matrix(1 0 0 1 118.016 163.6555)" class="st0 st18 st19">Never experience</text>
	<text id="XMLID_8_" transform="matrix(1 0 0 1 512.4672 41.594)" class="st0 st20 st21">73%</text>
	<text id="XMLID_7_" transform="matrix(1 0 0 1 523.2074 180.9431)" class="st0 st20 st21">5%</text>
	<text id="XMLID_6_" transform="matrix(1 0 0 1 512.2806 324.6145)" class="st0 st20 st21">13%</text>
	<text id="XMLID_5_" transform="matrix(1 0 0 1 518.35 489.5046)" class="st0 st20 st21">11%</text>
	<text id="XMLID_4_" transform="matrix(1 0 0 1 118.016 362.2859)"><tspan x="0" y="0" class="st0 st18 st19">Between the ages of </tspan><tspan x="0" y="19.2" class="st0 st18 st19">13 -18  years</tspan></text>
	<text id="XMLID_3_" transform="matrix(1 0 0 1 244.7621 517.7551)" class="st0 st18 st19">After the ages of 18 years</text>
</g>
</svg>
