<?xml version="1.0" encoding="utf-8"?>
<!-- Generator: Adobe Illustrator 19.0.0, SVG Export Plug-In . SVG Version: 6.00 Build 0)  -->
<svg version="1.1" id="图层_1" xmlns="http://www.w3.org/2000/svg" xmlns:xlink="http://www.w3.org/1999/xlink" x="0px" y="0px"
	 viewBox="0 0 687.1 340.5" style="enable-background:new 0 0 687.1 340.5;" xml:space="preserve">
<style type="text/css">
	.st0{opacity:0.7;fill:#A7619C;}
	.st1{fill:#B2B4B7;}
	.st2{opacity:0.73;fill:#8081B7;}
	.st3{opacity:0.64;fill:#6492C6;}
	.st4{opacity:0.7;fill:#C54087;}
	.st5{fill:#996CA4;}
	.st6{font-family:'Campton-LightDEMO';}
	.st7{font-size:16px;}
	.st8{fill:#C54087;}
	.st9{fill:#6492C6;}
	.st10{font-family:'Hind-Bold';}
	.st11{font-size:24px;}
	.st12{fill:#A7619C;}
	.st13{fill:#8081B7;}
</style>
<g id="XMLID_2_">
	<g id="XMLID_17_">
		<rect id="XMLID_25_" x="137.7" y="204.2" class="st0" width="474.7" height="23"/>
		<rect id="XMLID_24_" x="198.8" y="204.2" class="st1" width="414" height="23"/>
		<rect id="XMLID_23_" x="137.7" y="311.1" class="st2" width="474.7" height="23"/>
		<rect id="XMLID_22_" x="443.8" y="311.4" class="st1" width="169.2" height="23"/>
		<rect id="XMLID_21_" x="137.7" y="0.3" class="st3" width="475.1" height="22.1"/>
		<rect id="XMLID_20_" x="158" y="0.3" class="st1" width="454.7" height="21.2"/>
		<rect id="XMLID_19_" x="137.7" y="98.3" class="st4" width="474.7" height="23"/>
		<rect id="XMLID_18_" x="244.8" y="98.3" class="st1" width="368" height="23"/>
	</g>
	<g id="XMLID_10_">
		<text id="XMLID_16_" transform="matrix(1 -8.890000e-003 8.890000e-003 1 90.7913 332.1737)" class="st5 st6 st7">Work</text>
		<text id="XMLID_15_" transform="matrix(1 3.400000e-003 -3.400000e-003 1 -5.662797e-005 117.1226)" class="st8 st6 st7">Sometimes Work</text>
		<text id="XMLID_13_" transform="matrix(1 3.250000e-003 -3.250000e-003 1 28.7976 19.0276)" class="st9 st6 st7">Doesn’t Work</text>
		<text id="XMLID_12_" transform="matrix(1 3.400000e-003 -3.400000e-003 1 51.9194 225.7702)" class="st8 st6 st7">No feeling</text>
	</g>
	<g id="XMLID_3_">
		<text id="XMLID_9_" transform="matrix(1 0 0 1 646.3545 22.6011)" class="st9 st10 st11">5%</text>
		<g id="XMLID_6_">
			<text id="XMLID_35_" transform="matrix(1 0 0 1 641.6123 122.3896)" class="st8 st10 st11">18%</text>
		</g>
		<text id="XMLID_5_" transform="matrix(1 0 0 1 643.4531 228.2124)" class="st12 st10 st11">11%</text>
		<text id="XMLID_4_" transform="matrix(1 0 0 1 640.4741 334.8242)" class="st13 st10 st11">70%</text>
	</g>
</g>
</svg>
