<?xml version="1.0" encoding="utf-8"?>
<!-- Generator: Adobe Illustrator 19.0.0, SVG Export Plug-In . SVG Version: 6.00 Build 0)  -->
<svg version="1.1" id="图层_1" xmlns="http://www.w3.org/2000/svg" xmlns:xlink="http://www.w3.org/1999/xlink" x="0px" y="0px"
	 viewBox="0 0 682 313" style="enable-background:new 0 0 682 313;" xml:space="preserve">
<style type="text/css">
	.st0{fill:#996CA4;}
	.st1{fill:#243153;}
	.st2{fill:#A7619C;}
	.st3{fill:#070001;}
	.st4{fill:#6492C6;}
	.st5{fill:#D33728;}
	.st6{fill:none;stroke:#070001;stroke-width:0.4619;stroke-linecap:round;stroke-linejoin:round;stroke-miterlimit:10;}
	.st7{fill:#213540;}
	.st8{fill:#C54087;}
	.st9{font-family:'Campton-BoldDEMO';}
	.st10{font-size:24px;}
	.st11{fill:none;}
	.st12{fill:#9EB1BA;}
	.st13{font-family:'Edelsans';}
	.st14{font-size:16px;}
	.st15{font-family:'Hind-Light';}
</style>
<g id="XMLID_12_">
	<g id="XMLID_173_">
		<path id="XMLID_222_" class="st0" d="M451.4,65.9c-0.4-3-3-5.8-3.5-8.7c0,0,0,0,0-0.1c-0.9-0.8-1.8-1.6-2.7-2.3
			c-1.5-1.1-3.5-2.6-6.2-4.1c0,0,0,0,0,0c-0.4-0.3-1.4-1.1-2-2.5c-0.1-0.3-0.2-0.6-0.3-0.9c-0.1,0-0.2-0.1-0.3-0.1
			c-0.4-0.1-0.7-0.3-0.9-0.5c-0.3-0.1-0.6-0.3-0.9-0.4c-0.1,0-0.2-0.1-0.3-0.2c-0.4,0.3-0.8,0.6-1.2,1c-0.9,1-1.3,2-1.5,2.7
			c0,0.1-0.1,0.1-0.1,0.1c-1.1-0.3-2.3-0.6-3.7-0.9c-1.2-0.2-2.4-0.3-3.4-0.3c-0.1,0-0.1,0.1-0.1,0.1c0.2,1.2,0.3,2.5,0.5,3.7
			c0,0,0,0.1-0.1,0.1c-2.2,0.7-5.5,2.1-8.8,4.8c-2.5,2.1-6.3,5.3-7.4,10.8c-0.5,2.5-0.2,4.9,0.3,6.8c0,0.1,0.2,0.1,0.2,0
			c0.2-1.6,1.2-0.3,2.6,0.6c5.5,3.4,1.4-8.1,3-6.6c0.4,0.4,0.8,0.7,1.1,1c0.1-0.2,0.3-0.5,0.4-0.7c0.5,0.7,1.3,1.7,2.2,2.6
			c0,0,0,0,0,0c4.8,3.2,10.9,5.2,16.6,4.9c0.1,0,3.2,1.9,3.1,1.9c-0.5-0.9-4.1-8.4-0.8-9.1c1.5-0.3,0,0,1.7,0.4
			c1.2,0.3-0.7,0.7-0.1,1.7c0,0,0,0,0.1,0c0.4,0.1,0.8,0.3,1.2,0.5c2.3,1.8,5,2.9,7.8,3.6c0,0,2.3,2,2.3,2
			C451.1,73.6,452,69.7,451.4,65.9z"/>
		<circle id="XMLID_221_" class="st1" cx="459.5" cy="143.1" r="1.9"/>
		<circle id="XMLID_220_" class="st1" cx="482.5" cy="98.7" r="1.9"/>
		<path id="XMLID_219_" class="st0" d="M466.2,134.8c-0.4-5.1-1.8-9.1-2.9-11.4c0,0-4.2-7.8-13-11c-1.1-0.4-2.3-0.7-2.3-0.7
			c-0.8-0.2-1.7-0.4-2.5-0.5c-0.2,0-0.3-0.1-0.4-0.1c-3.6,3.3-8.4,5.2-13.6,5.2h-2.1c-5.2,0-10-2-13.6-5.2c-0.1,0-0.3,0.1-0.4,0.1
			c-0.9,0.1-1.7,0.3-2.5,0.5c0,0-1.2,0.3-2.3,0.7c-8.9,3.2-13,11-13,11c-1.1,2.4-2.5,6.3-2.9,11.4H466.2z"/>
		<g id="XMLID_217_">
			<path id="XMLID_218_" class="st1" d="M410.2,89.4c-0.8,0-1.5-0.6-1.6-1.3l0,0c0,0-0.3-0.2-0.4-0.3c-0.9-0.6-2.4-1.7-3.1-4.7
				c-1.1-4.7,0.2-6.7,1.4-7.5c1.3-0.9,2.9-0.8,4.3,0.1c0.8,0.5,0.9,1.6,0.4,2.3c-0.5,0.8-1.6,0.9-2.3,0.4c-0.2-0.1-0.4-0.2-0.5-0.1
				c-0.2,0.2-0.7,1.2-0.1,4c0.4,1.8,1.1,2.3,1.8,2.7c0.6,0.5,1.5,1.1,1.8,2.4c0.2,0.9-0.4,1.8-1.3,2
				C410.4,89.4,410.3,89.4,410.2,89.4z"/>
		</g>
		<g id="XMLID_215_">
			<path id="XMLID_216_" class="st1" d="M450.4,89.4c-0.1,0-0.2,0-0.3,0c-0.9-0.2-1.5-1.1-1.3-2c0.3-1.3,1.1-2,1.8-2.4
				c0.7-0.5,1.3-0.9,1.8-2.7c0.7-2.8,0.2-3.8-0.1-4c-0.1-0.1-0.3,0-0.5,0.1c-0.8,0.5-1.8,0.3-2.3-0.4c-0.5-0.8-0.3-1.8,0.4-2.3
				c1.3-0.9,3-1,4.3-0.1c1.3,0.9,2.5,2.9,1.4,7.5c-0.7,3-2.2,4.1-3.1,4.7c-0.2,0.1-0.4,0.3-0.4,0.3
				C451.8,88.9,451.1,89.4,450.4,89.4z"/>
		</g>
		<g id="XMLID_213_">
			<path id="XMLID_214_" class="st1" d="M430.3,111.3c-10.5,0-19.7-9.8-21.7-23.3c-0.1-0.9,0.5-1.8,1.4-1.9c0.9-0.1,1.8,0.5,1.9,1.4
				c1.8,11.9,9.5,20.5,18.4,20.5c8.9,0,16.6-8.6,18.4-20.5c0.1-0.9,1-1.5,1.9-1.4c0.9,0.1,1.5,1,1.4,1.9
				C450,101.5,440.8,111.3,430.3,111.3z"/>
		</g>
		<g id="XMLID_211_">
			<path id="XMLID_212_" class="st1" d="M438.3,88.1c-1.6,0-2.8-0.7-3.4-1.2c-0.7-0.6-0.9-1.6-0.3-2.3c0.6-0.7,1.6-0.9,2.3-0.3
				c0.2,0.1,0.7,0.5,1.4,0.5c0.6,0,1-0.3,1.3-0.5c0.7-0.6,1.8-0.4,2.3,0.3c0.6,0.7,0.4,1.8-0.3,2.3c-0.5,0.4-1.7,1.1-3.2,1.2
				C438.4,88.1,438.4,88.1,438.3,88.1z"/>
		</g>
		<g id="XMLID_209_">
			<path id="XMLID_210_" class="st1" d="M422.3,88.1c0,0-0.1,0-0.1,0c-1.6,0-2.7-0.7-3.2-1.2c-0.7-0.6-0.9-1.6-0.3-2.3
				c0.6-0.7,1.6-0.9,2.3-0.3c0.2,0.2,0.6,0.4,1.3,0.5c0.7,0,1.2-0.3,1.4-0.5c0.7-0.6,1.8-0.4,2.3,0.3c0.6,0.7,0.4,1.8-0.3,2.3
				C425.1,87.4,423.9,88.1,422.3,88.1z"/>
		</g>
		<g id="XMLID_207_">
			<path id="XMLID_208_" class="st1" d="M430.3,103.2c-1.9,0-3.7-0.7-5.4-2c-0.7-0.6-0.9-1.6-0.3-2.3c0.6-0.7,1.6-0.9,2.3-0.3
				c2.3,1.7,4.6,1.7,6.8,0c0.7-0.6,1.8-0.4,2.3,0.3c0.6,0.7,0.4,1.8-0.3,2.3C434,102.5,432.2,103.2,430.3,103.2z"/>
		</g>
		<g id="XMLID_203_">
			<path id="XMLID_204_" class="st1" d="M411.5,81.5c-0.5,0-1-0.2-1.3-0.7c-1.5-2-4.7-7.4-3.5-14c1.1-5.9,5.2-9.3,7.7-11.4
				c2.3-2,4.9-3.5,7.8-4.6l-0.3-2.4c-0.1-0.5,0.1-1,0.4-1.3c0.3-0.4,0.8-0.6,1.3-0.5c1.2,0,2.4,0.1,3.6,0.3c0.8,0.1,1.6,0.3,2.4,0.5
				c0.3-0.6,0.7-1.2,1.2-1.8c1.4-1.6,3.1-2.3,4.2-2.6c0.6-0.2,1.2,0,1.6,0.4c0.4,0.4,0.6,1,0.5,1.6c-0.1,0.4-0.2,1.3,0.2,2.2
				c0.4,0.9,1,1.4,1.3,1.6c2.1,1.2,4.2,2.6,6.1,4.1c1.9,1.5,4.3,3.4,6.2,6.2c1.2,1.8,2,3.6,2.2,4.3c0.4,1.1,0.6,1.8,0.6,1.9
				c0.6,3.1,0.5,6.3-0.4,9.3c-0.6,2-1.4,3.8-2.6,5.5c-0.4,0.6-1.2,0.9-2,0.6c-2.7-1-5.2-2.3-7.6-3.8c-0.9-0.6-1.9-1.3-2.7-1.9
				c0,0,0,0.1,0,0.1c0.2,1,0.5,2,0.9,3c0.2,0.5,0.2,1.1-0.1,1.6c-0.3,0.5-0.8,0.8-1.3,0.8c-3.6,0.2-9.1-0.1-14.8-3.2
				c-2.8-1.5-5.4-3.6-7.5-6c-0.4,0.8-0.8,1.6-1.2,2.5c-0.8,2-1.3,4.1-1.5,6.3c-0.1,0.7-0.5,1.3-1.2,1.5
				C411.8,81.5,411.7,81.5,411.5,81.5z M415.7,66.7c0.5,0,1,0.3,1.3,0.7c2.1,2.9,4.8,5.3,7.9,6.9c3.9,2.1,7.7,2.8,10.7,2.8
				c-0.1-0.5-0.3-1-0.3-1.5c-0.2-1.5-0.2-3,0-4.5c0.1-0.6,0.5-1.1,1.1-1.3c0.6-0.2,1.2-0.1,1.7,0.4c1.5,1.4,3.2,2.7,5,3.9
				c1.8,1.2,3.7,2.2,5.7,3c0.6-1.1,1.1-2.3,1.5-3.5c0.7-2.4,0.8-5.1,0.3-7.6v0c0,0-0.1-0.5-0.4-1.3c-0.2-0.6-0.9-2.1-1.9-3.6
				c-1.6-2.3-3.7-4-5.5-5.4c-1.8-1.4-3.7-2.7-5.8-3.9c0,0-0.1,0-0.1-0.1c-0.8-0.5-1.9-1.5-2.6-3.1c-0.2-0.4-0.3-0.8-0.4-1.2
				c-0.2,0.2-0.4,0.4-0.6,0.6c-0.5,0.6-0.9,1.3-1.1,2.1c-0.1,0.4-0.4,0.8-0.8,1c-0.4,0.2-0.9,0.2-1.3,0.1c-1.1-0.3-2.3-0.6-3.4-0.8
				c-0.4-0.1-0.8-0.1-1.3-0.2l0.2,1.8c0.1,0.8-0.4,1.5-1.1,1.8c-3,1-5.7,2.4-8,4.4c-2.3,1.9-5.7,4.8-6.6,9.5c-0.5,2.8,0,5.4,0.8,7.5
				c0.2-0.8,0.5-1.7,0.9-2.5c0.7-1.8,1.6-3.5,2.7-5.1C414.6,67,415.1,66.7,415.7,66.7C415.7,66.7,415.7,66.7,415.7,66.7z"/>
		</g>
		<g id="XMLID_201_">
			<path id="XMLID_202_" class="st1" d="M394.5,135.5c-0.1,0-0.1,0-0.2,0c-0.9-0.1-1.5-0.9-1.4-1.8c0.4-3.8,1.4-7.5,3-11
				c0,0,0-0.1,0.1-0.1c0.2-0.3,4.6-8.4,13.9-11.7c1.2-0.4,2.4-0.7,2.4-0.8c0.9-0.2,1.8-0.4,2.6-0.6c0.2-0.1,0.4-0.1,0.5-0.1
				c0.5-0.1,0.9,0.1,1.3,0.4c3.4,3.1,7.9,4.8,12.6,4.8h2.1c4.7,0,9.1-1.7,12.6-4.8c0.3-0.3,0.8-0.5,1.3-0.4c0.2,0,0.3,0.1,0.5,0.1
				c0.8,0.1,1.7,0.3,2.7,0.6c0,0,1.2,0.3,2.4,0.8c9.3,3.4,13.7,11.4,13.9,11.7c0,0,0,0.1,0.1,0.1c1.6,3.5,2.6,7.2,3,10.9
				c0.1,0.9-0.5,1.7-1.4,1.8c-0.9,0.1-1.7-0.6-1.8-1.4c-0.4-3.4-1.2-6.7-2.7-9.9c-0.3-0.6-4.3-7.4-12.1-10.2
				c-1.1-0.4-2.2-0.7-2.2-0.7c-0.7-0.2-1.4-0.3-2.1-0.5c-3.9,3.3-8.9,5.1-14.1,5.1h-2.1c-5.2,0-10.2-1.8-14.1-5.1
				c-0.7,0.1-1.3,0.3-2.1,0.5c0,0-1.1,0.3-2.2,0.7c-7.8,2.8-11.8,9.6-12.1,10.2c-1.4,3.2-2.3,6.5-2.7,9.9
				C396,134.9,395.3,135.5,394.5,135.5z"/>
		</g>
		<g id="XMLID_199_">
			<path id="XMLID_200_" class="st1" d="M429.3,117.9c-5.4,0-10.7-2-14.7-5.6c-0.7-0.6-0.7-1.6-0.1-2.3c0.6-0.7,1.6-0.7,2.3-0.1
				c3.5,3.1,7.9,4.8,12.6,4.8c0.9,0,1.6,0.7,1.6,1.6C430.9,117.2,430.1,117.9,429.3,117.9z"/>
		</g>
		<g id="XMLID_197_">
			<path id="XMLID_198_" class="st1" d="M408,136.5c-0.8,0-1.5-0.7-1.5-1.5v-5.6c0-0.8,0.7-1.5,1.5-1.5c0.8,0,1.5,0.7,1.5,1.5v5.6
				C409.6,135.8,408.9,136.5,408,136.5z"/>
		</g>
		<g id="XMLID_195_">
			<path id="XMLID_196_" class="st1" d="M452.6,136.5c-0.9,0-1.5-0.7-1.5-1.5v-5.6c0-0.8,0.7-1.5,1.5-1.5c0.9,0,1.5,0.7,1.5,1.5v5.6
				C454.1,135.8,453.4,136.5,452.6,136.5z"/>
		</g>
		<g id="XMLID_190_">
			<g id="XMLID_193_">
				<path id="XMLID_194_" class="st1" d="M388.2,101.5c-1.2-1.5-2.1-3.2-2.6-5.1c-1.5-5.3-2.2-11.1-2.2-17.5c0-4.5,0.4-9,1.3-13.2
					c0.7-3.7,2.4-7,4.8-9.9l2.9-3.6c1.6-2,3.7-3.5,6-4.4c5.6-2.3,11.8-4,18.3-5c1-0.1,1.9,0.6,1.9,1.6c0,0.9-0.7,1.6-1.5,1.7
					c-8.1,1.2-15.8,3.6-22.1,7c-0.7,0.4-5.2,6.3-5.4,6.8c-1.9,5.7-2.9,12.3-2.9,19.1c0,7.8,1,14.2,3.3,20.2c0.2,0.6,4.3,6.8,5,7.1
					c1.7,0.9,3.5,1.8,5.4,2.6c0.8,0.3,1.3,1.2,1.1,2.1c-0.3,1-1.3,1.4-2.2,1.1c-0.9-0.4-1.7-0.7-2.6-1.1c-1.3-0.6-2.5-1.6-3.4-2.7
					L388.2,101.5z"/>
			</g>
			<g id="XMLID_191_">
				<path id="XMLID_192_" class="st1" d="M461.8,112.1C461.8,112.1,461.8,112.1,461.8,112.1c-0.8,0.3-1.7,0.1-2.2-0.6
					c-0.5-0.9-0.1-2,0.8-2.4c1.8-0.7,3.5-1.5,5.2-2.4c0.7-0.4,5.5-6.3,5.6-6.9c1.9-5.7,2.9-12.3,2.9-19c0-7.8-1-14.2-3.3-20.2
					c-0.2-0.6-4.5-6.8-5.2-7.1c-6.6-3.5-14.4-6.1-22.6-7.4c-0.9-0.1-1.6-0.9-1.5-1.8c0.1-1,1-1.7,1.9-1.6c6.7,1.1,12.9,3.1,19.9,5.9
					c2.9,1.2,5.4,3.2,7.1,5.7l2.3,3.4c1,1.5,1.9,3.2,2.4,5c1.6,5.4,2.4,11.5,2.4,18c0,5.3-0.6,10.5-1.7,15.3
					c-0.6,2.4-1.7,4.7-3.3,6.6l-3.9,4.6C466.7,109.4,464.4,111.1,461.8,112.1z"/>
			</g>
		</g>
		<g id="XMLID_188_">
			<path id="XMLID_189_" class="st1" d="M483.6,94.1c-0.1,0-0.1,0-0.2,0c-0.9-0.1-1.6-1-1.4-1.9c0.5-3.7,0.7-7.5,0.7-11.4
				c0-7.7-0.8-14.4-2.6-20.4c-0.3-0.9,0.3-1.8,1.1-2.1c0.9-0.3,1.8,0.3,2.1,1.1c1.8,6.3,2.7,13.2,2.7,21.3c0,4-0.3,8-0.8,11.8
				C485.1,93.5,484.4,94.1,483.6,94.1z"/>
		</g>
		<g id="XMLID_186_">
			<path id="XMLID_187_" class="st1" d="M485.3,146.6c-0.9,0-1.7-0.7-1.7-1.7v-5.4c0-1.6-1.3-2.9-2.9-2.9H379.8
				c-1.6,0-2.9,1.3-2.9,2.9v5.4c0,0.9-0.7,1.7-1.7,1.7s-1.7-0.7-1.7-1.7v-5.4c0-3.4,2.8-6.2,6.2-6.2h100.9c3.4,0,6.2,2.8,6.2,6.2
				v5.4C487,145.9,486.3,146.6,485.3,146.6z"/>
		</g>
		<g id="XMLID_184_">
			<path id="XMLID_185_" class="st1" d="M452.6,144.7h-65.7c-0.9,0-1.7-0.7-1.7-1.7c0-0.9,0.7-1.7,1.7-1.7h65.7
				c0.9,0,1.7,0.7,1.7,1.7C454.3,144,453.5,144.7,452.6,144.7z"/>
		</g>
		<g id="XMLID_182_">
			<path id="XMLID_183_" class="st1" d="M398.2,43.8c-0.4,0-0.9-0.2-1.2-0.5c-0.5-0.5-0.6-1.2-0.4-1.8l1-2.4l-0.4,0.2
				c-0.9,0.4-1.8-0.1-2.2-0.9c-0.4-0.9,0.1-1.8,0.9-2.2l4.1-1.7c0.6-0.3,1.3-0.1,1.8,0.4c0.5,0.5,0.6,1.2,0.4,1.8l-1,2.4l0.6-0.2
				c0.9-0.4,1.8,0.1,2.2,0.9c0.4,0.9-0.1,1.8-0.9,2.2l-4.3,1.8C398.7,43.8,398.4,43.8,398.2,43.8z"/>
		</g>
		<g id="XMLID_180_">
			<path id="XMLID_181_" class="st1" d="M409.1,39.2c-0.6,0-1.1-0.3-1.4-0.8c-0.4-0.6-0.3-1.3,0.1-1.9l2.6-3.6l-1.7,0.3
				c-0.9,0.1-1.8-0.5-1.9-1.4c-0.1-0.9,0.5-1.8,1.4-1.9l5.7-0.9c0.7-0.1,1.3,0.2,1.7,0.8c0.4,0.6,0.3,1.3-0.1,1.9l-2.6,3.6l1.9-0.3
				c0.9-0.1,1.8,0.5,1.9,1.4c0.1,0.9-0.5,1.8-1.4,1.9l-5.9,0.9C409.3,39.2,409.2,39.2,409.1,39.2z"/>
		</g>
		<g id="XMLID_178_">
			<path id="XMLID_179_" class="st1" d="M420.4,36.6c-0.6,0-1.2-0.4-1.5-0.9c-0.3-0.6-0.2-1.3,0.2-1.8l6-6.9l-4.9,0.4
				c-0.9,0.1-1.7-0.6-1.8-1.5c-0.1-0.9,0.6-1.7,1.5-1.8l8.9-0.7c0.7-0.1,1.3,0.3,1.6,0.9c0.3,0.6,0.2,1.3-0.2,1.8l-6,6.9l5.3-0.4
				c0.9-0.1,1.7,0.6,1.8,1.5c0.1,0.9-0.6,1.7-1.5,1.8l-9.3,0.7C420.5,36.6,420.4,36.6,420.4,36.6z"/>
		</g>
		<g id="XMLID_174_">
			<path id="XMLID_175_" class="st1" d="M411.5,81.5c-0.5,0-1-0.2-1.3-0.7c-1.5-2-4.7-7.4-3.5-14c1.1-5.9,5.2-9.3,7.7-11.4
				c2.3-2,4.9-3.5,7.8-4.6l-0.3-2.4c-0.1-0.5,0.1-1,0.4-1.3c0.3-0.4,0.8-0.6,1.3-0.5c1.2,0,2.4,0.1,3.6,0.3c0.8,0.1,1.6,0.3,2.4,0.5
				c0.3-0.6,0.7-1.2,1.2-1.8c1.4-1.6,3.1-2.3,4.2-2.6c0.6-0.2,1.2,0,1.6,0.4c0.4,0.4,0.6,1,0.5,1.6c-0.1,0.4-0.2,1.3,0.2,2.2
				c0.4,0.9,1,1.4,1.3,1.6c2.1,1.2,4.2,2.6,6.1,4.1c1.9,1.5,4.3,3.4,6.2,6.2c1.2,1.8,2,3.6,2.2,4.3c0.4,1.1,0.6,1.8,0.6,1.9
				c0.6,3.1,0.5,6.3-0.4,9.3c-0.6,2-1.4,3.8-2.6,5.5c-0.4,0.6-1.2,0.9-2,0.6c-2.7-1-5.2-2.3-7.6-3.8c-0.9-0.6-1.9-1.3-2.7-1.9
				c0,0,0,0.1,0,0.1c0.2,1,0.5,2,0.9,3c0.2,0.5,0.2,1.1-0.1,1.6c-0.3,0.5-0.8,0.8-1.3,0.8c-3.6,0.2-9.1-0.1-14.8-3.2
				c-2.8-1.5-5.4-3.6-7.5-6c-0.4,0.8-0.8,1.6-1.2,2.5c-0.8,2-1.3,4.1-1.5,6.3c-0.1,0.7-0.5,1.3-1.2,1.5
				C411.8,81.5,411.7,81.5,411.5,81.5z M415.7,66.7c0.5,0,1,0.3,1.3,0.7c2.1,2.9,4.8,5.3,7.9,6.9c3.9,2.1,7.7,2.8,10.7,2.8
				c-0.1-0.5-0.3-1-0.3-1.5c-0.2-1.5-0.2-3,0-4.5c0.1-0.6,0.5-1.1,1.1-1.3c0.6-0.2,1.2-0.1,1.7,0.4c1.5,1.4,3.2,2.7,5,3.9
				c1.8,1.2,3.7,2.2,5.7,3c0.6-1.1,1.1-2.3,1.5-3.5c0.7-2.4,0.8-5.1,0.3-7.6v0c0,0-0.1-0.5-0.4-1.3c-0.2-0.6-0.9-2.1-1.9-3.6
				c-1.6-2.3-3.7-4-5.5-5.4c-1.8-1.4-3.7-2.7-5.8-3.9c0,0-0.1,0-0.1-0.1c-0.8-0.5-1.9-1.5-2.6-3.1c-0.2-0.4-0.3-0.8-0.4-1.2
				c-0.2,0.2-0.4,0.4-0.6,0.6c-0.5,0.6-0.9,1.3-1.1,2.1c-0.1,0.4-0.4,0.8-0.8,1c-0.4,0.2-0.9,0.2-1.3,0.1c-1.1-0.3-2.3-0.6-3.4-0.8
				c-0.4-0.1-0.8-0.1-1.3-0.2l0.2,1.8c0.1,0.8-0.4,1.5-1.1,1.8c-3,1-5.7,2.4-8,4.4c-2.3,1.9-5.7,4.8-6.6,9.5c-0.5,2.8,0,5.4,0.8,7.5
				c0.2-0.8,0.5-1.7,0.9-2.5c0.7-1.8,1.6-3.5,2.7-5.1C414.6,67,415.1,66.7,415.7,66.7C415.7,66.7,415.7,66.7,415.7,66.7z"/>
		</g>
	</g>
	<g id="XMLID_158_">
		<g id="XMLID_165_">
			<path id="XMLID_172_" class="st2" d="M36.9,100.2c0,0-49.5-51.7-1.7-91c2.1-1.8,0,0,0,0S53.4-4.6,73.7,8.4s0,0,0,0
				s50.7,40.8-2.2,89.3l0,0l0,0l-5.2-13.1c0,0,23-9,22.3-39c-0.7-30,0,0,0,0S50,48.7,36.5,29s0,0,0,0S27.8,54.2,22.2,54
				c-5.6-0.1,0,0,0,0s5.9,22.6,21.5,31.3l0,0L36.9,100.2"/>
			<path id="XMLID_171_" class="st2" d="M20.1,111.7l0.1,33.1h69.7l0.1-33.1l-14.4-6.2c0,0-17.9,27.3-41,0L20.1,111.7z"/>
			<path id="XMLID_166_" class="st3" d="M90.8,108.3c-0.5-0.2-1.1-0.4-1.6-0.6l-0.7-0.2l0,0l0,0l-1.2-0.4c-2.9-1-5.9-2-8.6-3.4
				c-1.3-0.7-2.2-1.2-3.1-1.8c-0.8-0.6-1.7-1.3-2.5-2.1c15.6-12.7,25-36.8,21.8-57.9c-0.8-5.5-1.9-10.3-3.2-14.4
				C85.5,7.5,64.1-0.5,54.8,0C45.2-0.4,24,7.5,17.7,27.5c-1.3,4.1-2.3,8.9-3.2,14.4C11.4,62.9,20.8,87,36.4,99.7
				c-0.8,0.8-1.7,1.5-2.5,2.1c-0.8,0.6-1.8,1.2-3.1,1.8l0,0c-2.7,1.4-5.7,2.4-8.6,3.4l-1.2,0.4c0,0,0,0,0,0l-0.7,0.2
				c-0.5,0.2-1.1,0.4-1.6,0.6c-13,4.9-18.2,11.3-18.2,21.9v12.8c0,0.9,0.7,1.6,1.6,1.6c0.9,0,1.6-0.7,1.6-1.6v-12.8
				c0-7.6,2.7-13.8,16.1-18.9c0,0,0,0,0.1,0v31.7c0,0.9,0.7,1.6,1.6,1.6c0.9,0,1.6-0.7,1.6-1.6v-32.8l0.1,0c2.6-0.9,5.4-1.9,8-3.1
				c0.4,0.4,0.7,0.7,1.1,1c0.4,0.4,0.8,0.8,1.2,1.1c0.5,0.5,1,0.9,1.6,1.3c0.4,0.3,0.8,0.7,1.3,1c0.5,0.4,1.1,0.7,1.6,1.1
				c0.4,0.3,0.9,0.6,1.3,0.9c0.5,0.3,1.1,0.6,1.6,0.9c0.4,0.2,0.9,0.5,1.3,0.7c0.6,0.3,1.1,0.5,1.7,0.7c0.4,0.2,0.9,0.4,1.3,0.5
				c0.6,0.2,1.2,0.4,1.8,0.6c0.4,0.1,0.8,0.3,1.3,0.4c0.7,0.2,1.4,0.3,2.1,0.4c0.4,0.1,0.7,0.1,1.1,0.2c1.1,0.1,2.1,0.2,3.2,0.2
				c1.1,0,2.1-0.1,3.2-0.2c0.4,0,0.7-0.1,1.1-0.2c0.7-0.1,1.4-0.2,2.1-0.4c0.4-0.1,0.8-0.2,1.2-0.4c0.6-0.2,1.3-0.3,1.9-0.6
				c0.4-0.2,0.9-0.4,1.3-0.5c0.6-0.2,1.2-0.5,1.7-0.7c0.4-0.2,0.9-0.5,1.3-0.7c0.6-0.3,1.1-0.6,1.7-0.9c0.4-0.3,0.9-0.6,1.3-0.9
				c0.5-0.4,1.1-0.7,1.6-1.1c0.4-0.3,0.9-0.7,1.3-1c0.5-0.4,1-0.8,1.5-1.3c0.4-0.4,0.8-0.8,1.3-1.2c0.3-0.3,0.7-0.6,1-1
				c2.6,1.2,5.3,2.2,8,3.1l0.1,32.9c0,0.9,0.7,1.6,1.6,1.6c0.9,0,1.6-0.7,1.6-1.6v-31.7c0,0,0,0,0.1,0c13.4,5.1,16.1,11.2,16.1,18.8
				v12.8c0,0.9,0.7,1.6,1.6,1.6c0.9,0,1.6-0.7,1.6-1.6v-12.8C109,119.6,103.7,113.2,90.8,108.3z M17.7,42.3c0.8-5.3,1.8-10,3.1-13.9
				C26.9,9.1,47.2,3.3,54.3,3.3c0.2,0,0.3,0,0.5,0c6.6-0.2,27.7,5.4,33.9,25.2c1.2,3.9,2.3,8.6,3.1,13.9c3,20-5.9,42.9-20.7,54.9
				c-2-2.8-3.7-6.7-4.7-12.5c12.8-5.3,22-19,22-35.1c0-1.5-0.1-2.9-0.2-4.4c-0.1-0.9-0.7-1.5-1.7-1.5c-10.2,0.4-35.3-0.2-48.9-14.8
				c-0.4-0.4-1-0.6-1.5-0.5c-0.6,0.1-1,0.6-1.2,1.1c0,0.2-4.9,15.7-13.1,24c-0.4,0.4-0.5,0.9-0.5,1.4c1.8,14,10.5,25.3,21.9,29.9
				c-1,5.8-2.7,9.7-4.7,12.4C23.7,85.3,14.7,62.4,17.7,42.3z M24.5,55.2C31,48.4,35.3,37.8,37,33c14.1,13.1,37,14.3,48,14
				c0.1,0.8,0.1,1.7,0.1,2.5c0,18.9-13.7,34.2-30.5,34.2C39.7,83.8,27,71.6,24.5,55.2z M46.2,85.8c2.7,0.8,5.5,1.2,8.3,1.2
				c3,0,5.9-0.5,8.7-1.3c1.6,8.7,5,14.8,10.4,18.7c0.5,0.3,1,0.7,1.5,1c-0.2,0.2-0.3,0.3-0.5,0.5c-0.4,0.4-0.8,0.8-1.3,1.1
				c-0.4,0.3-0.7,0.6-1.1,0.9c-0.6,0.5-1.2,0.9-1.8,1.3c-0.1,0.1-0.3,0.2-0.4,0.3c-9.9,6.7-21.1,6.7-31,0c-0.1-0.1-0.3-0.2-0.4-0.3
				c-0.6-0.4-1.2-0.9-1.8-1.4c-0.3-0.3-0.7-0.6-1-0.9c-0.4-0.4-0.9-0.8-1.3-1.2c-0.2-0.1-0.3-0.3-0.5-0.5c0.6-0.3,1.1-0.7,1.5-1
				C41.2,100.6,44.6,94.5,46.2,85.8z"/>
		</g>
		<g id="XMLID_163_">
			<path id="XMLID_164_" class="st1" d="M65.5,59c-2.2,0-3.8-1-4.5-1.6c-1-0.8-1.2-2.2-0.4-3.2c0.8-1,2.2-1.2,3.1-0.4
				c0.2,0.2,0.9,0.6,1.8,0.6c0.8,0,1.4-0.4,1.7-0.6c1-0.8,2.4-0.6,3.1,0.4c0.8,1,0.6,2.4-0.4,3.2C69.3,58,67.8,59,65.7,59
				C65.7,59,65.6,59,65.5,59z"/>
		</g>
		<g id="XMLID_161_">
			<path id="XMLID_162_" class="st1" d="M43.9,59c-0.1,0-0.1,0-0.2,0c-2.1-0.1-3.6-1-4.3-1.6c-1-0.8-1.2-2.2-0.4-3.2
				c0.8-1,2.2-1.2,3.1-0.4c0.3,0.2,0.9,0.6,1.7,0.6c0.9,0,1.6-0.4,1.8-0.6c1-0.8,2.4-0.6,3.1,0.4c0.8,1,0.6,2.4-0.4,3.2
				C47.7,58,46.1,59,43.9,59z"/>
		</g>
		<g id="XMLID_159_">
			<path id="XMLID_160_" class="st1" d="M54.7,76.1c-2.5,0-5-0.9-7.3-2.7c-1-0.8-1.2-2.2-0.4-3.2c0.7-1,2.2-1.2,3.1-0.4
				c3,2.3,6.1,2.3,9.2,0c1-0.8,2.4-0.6,3.1,0.4c0.7,1,0.6,2.4-0.4,3.2C59.7,75.2,57.2,76.1,54.7,76.1z"/>
		</g>
	</g>
	<g id="XMLID_118_">
		<g id="XMLID_147_">
			<path id="XMLID_157_" class="st4" d="M432.8,290.3c0,0-23.7-24.4-0.8-43c1-0.8,0,0,0,0s8.7-6.5,18.4-0.4s0,0,0,0
				s24.3,19.2-1,42.2l0,0l0,0l-2.5-6.2c0,0,11-4.2,10.7-18.4s0,0,0,0s-18.4,1.4-24.9-7.9c-6.5-9.3,0,0,0,0s-4.2,11.9-6.8,11.8
				c-2.7-0.1,0,0,0,0s2.8,10.7,10.3,14.8l0,0L432.8,290.3"/>
			<path id="XMLID_156_" class="st4" d="M424.8,295.7l0,15.6h33.4l0-15.6l-6.9-2.9c0,0-8.6,12.9-19.6,0L424.8,295.7z"/>
			<path id="XMLID_151_" class="st3" d="M458.6,294.2c-0.3-0.1-0.5-0.2-0.8-0.3l-0.3-0.1h0l0,0l-0.6-0.2c-1.4-0.5-2.8-1-4.1-1.6
				c-0.6-0.3-1.1-0.6-1.5-0.9c-0.4-0.3-0.8-0.6-1.2-1c7.5-6,12-17.4,10.5-27.3c-0.4-2.6-0.9-4.9-1.5-6.8c-3-9.4-13.2-13.2-17.7-12.9
				c-4.6-0.2-14.7,3.5-17.7,12.9c-0.6,1.9-1.1,4.2-1.5,6.8c-1.5,10,3,21.3,10.5,27.3c-0.4,0.4-0.8,0.7-1.2,1
				c-0.4,0.3-0.9,0.6-1.5,0.9l0,0c-1.3,0.7-2.7,1.2-4.1,1.6l-0.6,0.2l0,0l-0.3,0.1c-0.3,0.1-0.5,0.2-0.8,0.3
				c-6.2,2.3-8.7,5.3-8.7,10.3v6.1c0,0.4,0.3,0.8,0.8,0.8c0.4,0,0.8-0.3,0.8-0.8v-6.1c0-3.6,1.3-6.5,7.7-8.9c0,0,0,0,0,0v15
				c0,0.4,0.3,0.8,0.8,0.8c0.4,0,0.8-0.3,0.8-0.8v-15.5l0.1,0c1.3-0.4,2.6-0.9,3.8-1.5c0.2,0.2,0.3,0.3,0.5,0.5
				c0.2,0.2,0.4,0.4,0.6,0.5c0.2,0.2,0.5,0.4,0.7,0.6c0.2,0.2,0.4,0.3,0.6,0.5c0.3,0.2,0.5,0.4,0.8,0.5c0.2,0.1,0.4,0.3,0.6,0.4
				c0.3,0.2,0.5,0.3,0.8,0.4c0.2,0.1,0.4,0.2,0.6,0.3c0.3,0.1,0.5,0.2,0.8,0.3c0.2,0.1,0.4,0.2,0.6,0.3c0.3,0.1,0.6,0.2,0.9,0.3
				c0.2,0.1,0.4,0.1,0.6,0.2c0.3,0.1,0.7,0.1,1,0.2c0.2,0,0.3,0.1,0.5,0.1c0.5,0.1,1,0.1,1.5,0.1c0.5,0,1,0,1.5-0.1
				c0.2,0,0.3-0.1,0.5-0.1c0.3-0.1,0.7-0.1,1-0.2c0.2,0,0.4-0.1,0.6-0.2c0.3-0.1,0.6-0.2,0.9-0.3c0.2-0.1,0.4-0.2,0.6-0.3
				c0.3-0.1,0.6-0.2,0.8-0.4c0.2-0.1,0.4-0.2,0.6-0.3c0.3-0.1,0.5-0.3,0.8-0.4c0.2-0.1,0.4-0.3,0.6-0.4c0.3-0.2,0.5-0.3,0.8-0.5
				c0.2-0.2,0.4-0.3,0.6-0.5c0.2-0.2,0.5-0.4,0.7-0.6c0.2-0.2,0.4-0.4,0.6-0.6c0.2-0.2,0.3-0.3,0.5-0.5c1.2,0.6,2.5,1,3.8,1.5
				l0.1,15.5c0,0.4,0.3,0.8,0.8,0.8c0.4,0,0.8-0.3,0.8-0.8v-15c0,0,0,0,0,0c6.4,2.4,7.7,5.3,7.7,8.9v6.1c0,0.4,0.3,0.8,0.8,0.8
				c0.4,0,0.8-0.3,0.8-0.8v-6.1C467.3,299.5,464.8,296.5,458.6,294.2z M423.6,263c0.4-2.5,0.9-4.7,1.5-6.6
				c2.9-9.1,12.6-11.9,16-11.9c0.1,0,0.1,0,0.2,0c3.2-0.1,13.2,2.6,16.2,11.9c0.6,1.8,1.1,4.1,1.5,6.6c1.5,9.5-2.8,20.3-9.9,25.9
				c-0.9-1.3-1.7-3.2-2.2-5.9c6.1-2.5,10.5-9,10.5-16.6c0-0.7,0-1.4-0.1-2.1c0-0.4-0.3-0.7-0.8-0.7c-4.9,0.2-16.9-0.1-23.4-7
				c-0.2-0.2-0.5-0.3-0.7-0.2c-0.3,0.1-0.5,0.3-0.6,0.5c0,0.1-2.4,7.4-6.3,11.3c-0.2,0.2-0.3,0.4-0.2,0.6c0.9,6.6,5,11.9,10.5,14.1
				c-0.5,2.7-1.3,4.6-2.2,5.9C426.5,283.3,422.2,272.5,423.6,263z M426.9,269.1c3.1-3.2,5.1-8.2,6-10.5c6.8,6.2,17.7,6.7,23,6.6
				c0,0.4,0,0.8,0,1.2c0,8.9-6.5,16.2-14.6,16.2C434.2,282.6,428,276.8,426.9,269.1z M437.3,283.5c1.3,0.4,2.6,0.6,4,0.6
				c1.4,0,2.8-0.2,4.2-0.6c0.8,4.1,2.4,7,5,8.8c0.2,0.2,0.5,0.3,0.7,0.5c-0.1,0.1-0.2,0.2-0.2,0.2c-0.2,0.2-0.4,0.4-0.6,0.5
				c-0.2,0.1-0.3,0.3-0.5,0.4c-0.3,0.2-0.6,0.4-0.9,0.6c-0.1,0-0.1,0.1-0.2,0.1c-4.7,3.2-10.1,3.2-14.8,0c-0.1,0-0.1-0.1-0.2-0.1
				c-0.3-0.2-0.6-0.4-0.9-0.6c-0.2-0.1-0.3-0.3-0.5-0.4c-0.2-0.2-0.4-0.4-0.6-0.6c-0.1-0.1-0.1-0.1-0.2-0.2c0.3-0.2,0.5-0.3,0.7-0.5
				C434.9,290.5,436.5,287.6,437.3,283.5z"/>
			<path id="XMLID_150_" class="st5" d="M437.4,274.3h7.8c0,0-0.8,4-3.9,4.3C438.2,279,437.4,274.3,437.4,274.3z"/>
			<path id="XMLID_149_" class="st6" d="M436.4,269.1c0,0-2-2.3-4,0"/>
			<path id="XMLID_148_" class="st6" d="M450.5,269.1c0,0-2-2.3-4,0"/>
		</g>
		<g id="XMLID_119_">
			<path id="XMLID_146_" class="st4" d="M410.3,262c-0.3-2.2-2.2-4.2-2.6-6.3c0,0,0,0,0,0c-0.7-0.6-1.3-1.1-2-1.6
				c-1.1-0.8-2.6-1.9-4.5-3c0,0,0,0,0,0c-0.3-0.2-1-0.8-1.5-1.8c-0.1-0.2-0.2-0.5-0.2-0.7c-0.1,0-0.2,0-0.2-0.1
				c-0.3-0.1-0.5-0.2-0.7-0.4c-0.2-0.1-0.4-0.2-0.6-0.3c-0.1,0-0.1-0.1-0.2-0.1c-0.3,0.2-0.6,0.5-0.8,0.8c-0.6,0.7-1,1.5-1.1,1.9
				c0,0-0.1,0.1-0.1,0c-0.8-0.2-1.7-0.5-2.7-0.6c-0.9-0.1-1.7-0.2-2.5-0.2c0,0-0.1,0-0.1,0.1c0.1,0.9,0.2,1.8,0.3,2.7
				c0,0,0,0.1,0,0.1c-1.6,0.5-4,1.5-6.4,3.5c-1.8,1.5-4.6,3.9-5.4,7.8c-0.4,1.8-0.2,3.5,0.2,5c0,0.1,0.1,0.1,0.1,0
				c0.1-1.2,0.8-0.2,1.9,0.4c4,2.5,1-5.9,2.1-4.8c0.3,0.3,0.5,0.5,0.8,0.8c0.1-0.2,0.2-0.3,0.3-0.5c0.4,0.5,0.9,1.2,1.6,1.9
				c0,0,0,0,0,0c3.5,2.3,7.9,3.7,12.1,3.6c0.1,0,2.3,1.4,2.3,1.4c-0.3-0.7-3-6.1-0.6-6.6c1.1-0.2,0,0,1.2,0.3
				c0.9,0.2-0.5,0.5-0.1,1.2c0,0,0,0,0,0c0.3,0.1,0.6,0.2,0.8,0.4c1.7,1.3,3.6,2.1,5.6,2.6c0,0,1.7,1.5,1.7,1.4
				C410,267.6,410.7,264.8,410.3,262z"/>
			<path id="XMLID_145_" class="st4" d="M421,312.1c-0.3-3.7-1.3-6.6-2.1-8.3c0,0-3-5.6-9.5-8c-0.8-0.3-1.7-0.5-1.7-0.5
				c-0.6-0.2-1.2-0.3-1.8-0.4c-0.1,0-0.2,0-0.3-0.1c-2.6,2.4-6.1,3.8-9.9,3.8h-1.5c-3.8,0-7.3-1.4-9.9-3.8c-0.1,0-0.2,0-0.3,0.1
				c-0.6,0.1-1.2,0.2-1.8,0.4c0,0-0.8,0.2-1.7,0.5c-6.4,2.3-9.5,8-9.5,8c-0.8,1.7-1.8,4.6-2.1,8.3H421z"/>
			<g id="XMLID_143_">
				<path id="XMLID_144_" class="st1" d="M380.3,279.1c-0.6,0-1.1-0.4-1.2-1l0,0c0,0-0.2-0.1-0.3-0.2c-0.6-0.4-1.7-1.2-2.2-3.4
					c-0.8-3.4,0.1-4.8,1-5.5c0.9-0.6,2.1-0.6,3.1,0.1c0.5,0.4,0.7,1.1,0.3,1.7c-0.4,0.5-1.1,0.7-1.7,0.3c-0.1-0.1-0.3-0.1-0.4-0.1
					c-0.2,0.1-0.5,0.9,0,2.9c0.3,1.3,0.8,1.6,1.3,2c0.5,0.3,1.1,0.8,1.3,1.7c0.1,0.7-0.3,1.3-1,1.4
					C380.5,279.1,380.4,279.1,380.3,279.1z"/>
			</g>
			<g id="XMLID_141_">
				<path id="XMLID_142_" class="st1" d="M409.5,279.1c-0.1,0-0.2,0-0.2,0c-0.7-0.1-1.1-0.8-1-1.4c0.2-1,0.8-1.4,1.3-1.7
					c0.5-0.3,1-0.7,1.3-2c0.5-2,0.1-2.8,0-2.9c-0.1,0-0.2,0-0.4,0.1c-0.5,0.4-1.3,0.3-1.7-0.3c-0.4-0.5-0.3-1.3,0.3-1.7
					c1-0.7,2.2-0.7,3.1-0.1c0.9,0.6,1.8,2.1,1,5.5c-0.5,2.2-1.6,3-2.2,3.4c-0.1,0.1-0.3,0.2-0.3,0.2
					C410.5,278.7,410,279.1,409.5,279.1z"/>
			</g>
			<g id="XMLID_139_">
				<path id="XMLID_140_" class="st1" d="M394.9,295c-7.7,0-14.3-7.1-15.8-17c-0.1-0.7,0.4-1.3,1-1.4c0.7-0.1,1.3,0.4,1.4,1
					c1.3,8.6,6.9,14.9,13.4,14.9c6.5,0,12.1-6.3,13.4-14.9c0.1-0.7,0.7-1.1,1.4-1c0.7,0.1,1.1,0.7,1,1.4
					C409.2,287.9,402.6,295,394.9,295z"/>
			</g>
			<g id="XMLID_135_">
				<path id="XMLID_136_" class="st1" d="M381.2,273.3c-0.4,0-0.7-0.2-1-0.5c-1.1-1.5-3.4-5.3-2.5-10.1c0.8-4.3,3.8-6.8,5.6-8.3
					c1.7-1.4,3.6-2.5,5.7-3.3l-0.2-1.8c0-0.4,0.1-0.7,0.3-1c0.2-0.3,0.6-0.4,0.9-0.4c0.9,0,1.8,0.1,2.6,0.2c0.6,0.1,1.2,0.2,1.7,0.4
					c0.2-0.5,0.5-0.9,0.9-1.3c1-1.2,2.2-1.7,3.1-1.9c0.4-0.1,0.8,0,1.2,0.3c0.3,0.3,0.5,0.7,0.4,1.1c-0.1,0.3-0.1,0.9,0.2,1.6
					c0.3,0.6,0.7,1,1,1.2c1.6,0.9,3,1.9,4.4,3c1.4,1.1,3.2,2.5,4.5,4.5c0.9,1.3,1.4,2.6,1.6,3.1c0.3,0.8,0.4,1.3,0.4,1.4
					c0.4,2.3,0.4,4.6-0.3,6.7c-0.4,1.4-1,2.8-1.9,4c-0.3,0.5-0.9,0.6-1.4,0.5c-1.9-0.7-3.8-1.6-5.5-2.8c-0.7-0.4-1.4-0.9-2-1.4
					c0,0,0,0.1,0,0.1c0.1,0.7,0.3,1.5,0.7,2.1c0.2,0.4,0.2,0.8,0,1.1c-0.2,0.3-0.6,0.6-1,0.6c-2.6,0.2-6.6-0.1-10.8-2.3
					c-2-1.1-3.9-2.6-5.5-4.4c-0.3,0.6-0.6,1.2-0.9,1.8c-0.6,1.5-1,3-1.1,4.6c0,0.5-0.4,0.9-0.9,1.1
					C381.5,273.3,381.3,273.3,381.2,273.3z M384.3,262.6c0.4,0,0.7,0.2,1,0.5c1.5,2.1,3.5,3.8,5.8,5c2.8,1.5,5.6,2,7.8,2.1
					c-0.1-0.4-0.2-0.7-0.2-1.1c-0.2-1.1-0.2-2.2,0-3.2c0.1-0.4,0.4-0.8,0.8-0.9c0.4-0.1,0.9,0,1.2,0.3c1.1,1,2.4,2,3.6,2.8
					c1.3,0.8,2.7,1.6,4.1,2.2c0.5-0.8,0.8-1.6,1.1-2.5c0.5-1.8,0.6-3.7,0.2-5.6v0c0,0-0.1-0.4-0.3-1c-0.2-0.4-0.6-1.5-1.4-2.6
					c-1.2-1.7-2.7-2.9-4-3.9c-1.3-1-2.7-2-4.2-2.8c0,0-0.1,0-0.1-0.1c-0.6-0.4-1.4-1.1-1.9-2.3c-0.1-0.3-0.2-0.6-0.3-0.9
					c-0.1,0.1-0.3,0.3-0.4,0.4c-0.4,0.4-0.7,0.9-0.8,1.5c-0.1,0.3-0.3,0.6-0.6,0.7c-0.3,0.2-0.6,0.2-0.9,0.1
					c-0.8-0.3-1.6-0.4-2.5-0.6c-0.3,0-0.6-0.1-0.9-0.1l0.2,1.3c0.1,0.6-0.3,1.1-0.8,1.3c-2.2,0.7-4.1,1.8-5.8,3.2
					c-1.6,1.4-4.1,3.5-4.8,6.9c-0.4,2.1,0,3.9,0.5,5.4c0.2-0.6,0.4-1.2,0.6-1.8c0.5-1.3,1.2-2.5,2-3.7
					C383.5,262.8,383.9,262.6,384.3,262.6C384.3,262.6,384.3,262.6,384.3,262.6z"/>
			</g>
			<g id="XMLID_133_">
				<path id="XMLID_134_" class="st1" d="M368.9,312.6c0,0-0.1,0-0.1,0c-0.6-0.1-1.1-0.6-1-1.3c0.3-2.7,1-5.4,2.1-8c0,0,0,0,0-0.1
					c0.1-0.2,3.3-6.1,10.1-8.5c0.9-0.3,1.7-0.5,1.8-0.6c0.7-0.2,1.3-0.3,1.9-0.4c0.2,0,0.3-0.1,0.4-0.1c0.3,0,0.7,0.1,0.9,0.3
					c2.5,2.3,5.7,3.5,9.1,3.5h1.5c3.4,0,6.6-1.2,9.1-3.5c0.3-0.2,0.6-0.3,0.9-0.3c0.1,0,0.2,0,0.4,0.1c0.6,0.1,1.3,0.2,1.9,0.4
					c0,0,0.9,0.2,1.8,0.6c6.8,2.4,10,8.3,10.1,8.5c0,0,0,0,0,0.1c1.1,2.5,1.9,5.2,2.1,7.9c0.1,0.6-0.4,1.2-1,1.3
					c-0.6,0.1-1.2-0.4-1.3-1c-0.3-2.5-0.9-4.9-1.9-7.2c-0.2-0.4-3.1-5.3-8.8-7.4c-0.8-0.3-1.6-0.5-1.6-0.5c-0.5-0.1-1-0.3-1.5-0.3
					c-2.9,2.4-6.5,3.7-10.3,3.7h-1.5c-3.8,0-7.4-1.3-10.3-3.7c-0.5,0.1-1,0.2-1.5,0.3c0,0-0.8,0.2-1.6,0.5c-5.7,2-8.6,7-8.8,7.4
					c-1,2.3-1.7,4.7-1.9,7.2C370,312.1,369.5,312.6,368.9,312.6z"/>
			</g>
			<g id="XMLID_131_">
				<path id="XMLID_132_" class="st1" d="M394.1,299.8c-3.9,0-7.7-1.5-10.7-4.1c-0.5-0.4-0.5-1.2-0.1-1.6c0.4-0.5,1.2-0.5,1.6-0.1
					c2.5,2.3,5.8,3.5,9.1,3.5c0.6,0,1.2,0.5,1.2,1.2C395.3,299.3,394.8,299.8,394.1,299.8z"/>
			</g>
			<g id="XMLID_129_">
				<path id="XMLID_130_" class="st1" d="M378.7,311.3c-0.6,0-1.1-0.5-1.1-1.1v-4.1c0-0.6,0.5-1.1,1.1-1.1s1.1,0.5,1.1,1.1v4.1
					C379.8,310.8,379.3,311.3,378.7,311.3z"/>
			</g>
			<g id="XMLID_127_">
				<path id="XMLID_128_" class="st1" d="M411.1,311.3c-0.6,0-1.1-0.5-1.1-1.1v-4.1c0-0.6,0.5-1.1,1.1-1.1c0.6,0,1.1,0.5,1.1,1.1
					v4.1C412.2,310.8,411.7,311.3,411.1,311.3z"/>
			</g>
			<g id="XMLID_123_">
				<path id="XMLID_124_" class="st1" d="M381.2,273.3c-0.4,0-0.7-0.2-1-0.5c-1.1-1.5-3.4-5.3-2.5-10.1c0.8-4.3,3.8-6.8,5.6-8.3
					c1.7-1.4,3.6-2.5,5.7-3.3l-0.2-1.8c0-0.4,0.1-0.7,0.3-1c0.2-0.3,0.6-0.4,0.9-0.4c0.9,0,1.8,0.1,2.6,0.2c0.6,0.1,1.2,0.2,1.7,0.4
					c0.2-0.5,0.5-0.9,0.9-1.3c1-1.2,2.2-1.7,3.1-1.9c0.4-0.1,0.8,0,1.2,0.3c0.3,0.3,0.5,0.7,0.4,1.1c-0.1,0.3-0.1,0.9,0.2,1.6
					c0.3,0.6,0.7,1,1,1.2c1.6,0.9,3,1.9,4.4,3c1.4,1.1,3.2,2.5,4.5,4.5c0.9,1.3,1.4,2.6,1.6,3.1c0.3,0.8,0.4,1.3,0.4,1.4
					c0.4,2.3,0.4,4.6-0.3,6.7c-0.4,1.4-1,2.8-1.9,4c-0.3,0.5-0.9,0.6-1.4,0.5c-1.9-0.7-3.8-1.6-5.5-2.8c-0.7-0.4-1.4-0.9-2-1.4
					c0,0,0,0.1,0,0.1c0.1,0.7,0.3,1.5,0.7,2.1c0.2,0.4,0.2,0.8,0,1.1c-0.2,0.3-0.6,0.6-1,0.6c-2.6,0.2-6.6-0.1-10.8-2.3
					c-2-1.1-3.9-2.6-5.5-4.4c-0.3,0.6-0.6,1.2-0.9,1.8c-0.6,1.5-1,3-1.1,4.6c0,0.5-0.4,0.9-0.9,1.1
					C381.5,273.3,381.3,273.3,381.2,273.3z M384.3,262.6c0.4,0,0.7,0.2,1,0.5c1.5,2.1,3.5,3.8,5.8,5c2.8,1.5,5.6,2,7.8,2.1
					c-0.1-0.4-0.2-0.7-0.2-1.1c-0.2-1.1-0.2-2.2,0-3.2c0.1-0.4,0.4-0.8,0.8-0.9c0.4-0.1,0.9,0,1.2,0.3c1.1,1,2.4,2,3.6,2.8
					c1.3,0.8,2.7,1.6,4.1,2.2c0.5-0.8,0.8-1.6,1.1-2.5c0.5-1.8,0.6-3.7,0.2-5.6v0c0,0-0.1-0.4-0.3-1c-0.2-0.4-0.6-1.5-1.4-2.6
					c-1.2-1.7-2.7-2.9-4-3.9c-1.3-1-2.7-2-4.2-2.8c0,0-0.1,0-0.1-0.1c-0.6-0.4-1.4-1.1-1.9-2.3c-0.1-0.3-0.2-0.6-0.3-0.9
					c-0.1,0.1-0.3,0.3-0.4,0.4c-0.4,0.4-0.7,0.9-0.8,1.5c-0.1,0.3-0.3,0.6-0.6,0.7c-0.3,0.2-0.6,0.2-0.9,0.1
					c-0.8-0.3-1.6-0.4-2.5-0.6c-0.3,0-0.6-0.1-0.9-0.1l0.2,1.3c0.1,0.6-0.3,1.1-0.8,1.3c-2.2,0.7-4.1,1.8-5.8,3.2
					c-1.6,1.4-4.1,3.5-4.8,6.9c-0.4,2.1,0,3.9,0.5,5.4c0.2-0.6,0.4-1.2,0.6-1.8c0.5-1.3,1.2-2.5,2-3.7
					C383.5,262.8,383.9,262.6,384.3,262.6C384.3,262.6,384.3,262.6,384.3,262.6z"/>
			</g>
			<path id="XMLID_122_" class="st5" d="M390.6,282.8h7.8c0,0-0.8,4-3.9,4.3C391.4,287.4,390.6,282.8,390.6,282.8z"/>
			<path id="XMLID_121_" class="st6" d="M389.6,277.5c0,0-2-2.3-4,0"/>
			<path id="XMLID_120_" class="st6" d="M403.7,277.5c0,0-2-2.3-4,0"/>
		</g>
	</g>
	<g id="XMLID_103_">
		<g id="XMLID_107_">
			<g id="Element_1_">
				<path id="XMLID_115_" class="st7" d="M68.4,234.7c-1.2-13.4-14-23.8-29.4-23.8c-15.3,0-28.1,10.4-29.4,23.8
					c-5.4,0.2-9.7,4.2-9.7,9c0,4.9,4.6,9,10.2,9h3.9c1.1,0,1.9-0.8,1.9-1.7v-14.3c0.1-5.3,2.5-10.4,6.8-14.1
					c4.3-3.8,10.1-5.9,16.2-5.9c6.2,0,12,2.1,16.4,5.9c4.3,3.8,6.7,8.8,6.8,14.1l0.1,14.3c0,0.9,0.9,1.7,1.9,1.7H68
					c5.6,0,10.2-4,10.2-9C78.1,238.9,73.8,235,68.4,234.7z M68,251.5h-3.8c3.8,0-0.6-0.3-0.6-0.6l-0.1-14.3
					c-0.1-5.6-2.6-10.9-7.1-14.9c-4.6-4-10.7-6.3-17.3-6.3c-6.5,0-12.6,2.2-17.1,6.3c-4.5,4-7.1,9.3-7.1,14.9V251
					c0,0.3-0.3,0.6-0.6,0.6h-3.9c-4.9,0-8.9-3.5-8.9-7.8c0-4.3,4-7.8,8.9-7.8h0.7l0-0.5c0.9-13,13.3-23.3,28.1-23.3
					c14.9,0,27.2,10.2,28.1,23.3l0,0.5H68c4.9,0,8.9,3.5,8.9,7.8C76.9,248,72.9,251.5,68,251.5z"/>
			</g>
			<path id="XMLID_114_" class="st8" d="M26.8,282.6c0,0-34.2-35.2-1.2-61.9c1.5-1.2,0,0,0,0s12.5-9.4,26.6-0.6c14,8.9,0,0,0,0
				s35,27.7-1.5,60.8l0,0l0,0l-3.6-8.9c0,0,15.8-6.1,15.4-26.5c-0.5-20.4,0,0,0,0s-26.6,2.1-35.9-11.4c-9.3-13.4,0,0,0,0
				s-6,17.1-9.9,17.1c-3.8-0.1,0,0,0,0s4,15.4,14.8,21.3l0,0L26.8,282.6"/>
			<path id="XMLID_113_" class="st8" d="M15.2,290.4l0,22.5h48.1l0-22.5l-9.9-4.2c0,0-12.4,18.5-28.3,0L15.2,290.4z"/>
			<path id="XMLID_108_" class="st3" d="M63.9,288.1c-0.4-0.1-0.7-0.3-1.1-0.4l-0.5-0.2l0,0l0,0l-0.8-0.3c-2-0.7-4.1-1.4-5.9-2.3
				c-0.9-0.5-1.5-0.8-2.1-1.3c-0.6-0.4-1.1-0.9-1.7-1.4c10.8-8.6,17.3-25,15.1-39.4c-0.6-3.7-1.3-7-2.2-9.8
				c-4.3-13.6-19-19-25.5-18.7c-6.6-0.3-21.3,5.1-25.6,18.7c-0.9,2.8-1.6,6.1-2.2,9.8c-2.2,14.3,4.3,30.7,15.1,39.4
				c-0.6,0.6-1.2,1-1.7,1.5c-0.6,0.4-1.2,0.8-2.1,1.3l0,0c-1.9,1-3.9,1.7-6,2.3l-0.8,0.3c0,0,0,0,0,0l-0.5,0.2
				c-0.4,0.1-0.8,0.3-1.1,0.4c-8.9,3.3-12.6,7.7-12.6,14.9v8.7c0,0.6,0.5,1.1,1.1,1.1c0.6,0,1.1-0.5,1.1-1.1v-8.7
				c0-5.2,1.9-9.4,11.1-12.8c0,0,0,0,0,0v21.6c0,0.6,0.5,1.1,1.1,1.1c0.6,0,1.1-0.5,1.1-1.1v-22.4l0.1,0c1.8-0.6,3.7-1.3,5.5-2.1
				c0.2,0.2,0.5,0.5,0.8,0.7c0.3,0.3,0.6,0.5,0.8,0.8c0.4,0.3,0.7,0.6,1.1,0.9c0.3,0.2,0.6,0.5,0.9,0.7c0.4,0.3,0.7,0.5,1.1,0.7
				c0.3,0.2,0.6,0.4,0.9,0.6c0.4,0.2,0.8,0.4,1.1,0.6c0.3,0.2,0.6,0.3,0.9,0.5c0.4,0.2,0.8,0.3,1.2,0.5c0.3,0.1,0.6,0.3,0.9,0.4
				c0.4,0.1,0.8,0.3,1.3,0.4c0.3,0.1,0.6,0.2,0.9,0.2c0.5,0.1,1,0.2,1.4,0.3c0.2,0,0.5,0.1,0.7,0.1c0.7,0.1,1.5,0.1,2.2,0.1
				c0.7,0,1.5,0,2.2-0.1c0.2,0,0.5-0.1,0.7-0.1c0.5-0.1,1-0.1,1.4-0.3c0.3-0.1,0.6-0.2,0.8-0.2c0.4-0.1,0.9-0.2,1.3-0.4
				c0.3-0.1,0.6-0.2,0.9-0.4c0.4-0.2,0.8-0.3,1.2-0.5c0.3-0.1,0.6-0.3,0.9-0.5c0.4-0.2,0.8-0.4,1.1-0.6c0.3-0.2,0.6-0.4,0.9-0.6
				c0.4-0.2,0.7-0.5,1.1-0.7c0.3-0.2,0.6-0.5,0.9-0.7c0.4-0.3,0.7-0.6,1.1-0.9c0.3-0.3,0.6-0.5,0.9-0.8c0.2-0.2,0.5-0.4,0.7-0.7
				c1.8,0.8,3.7,1.5,5.5,2.1l0.1,22.4c0,0.6,0.5,1.1,1.1,1.1c0.6,0,1.1-0.5,1.1-1.1v-21.6c0,0,0,0,0,0c9.2,3.4,11.1,7.6,11.1,12.8
				v8.7c0,0.6,0.5,1.1,1.1,1.1c0.6,0,1.1-0.5,1.1-1.1v-8.7C76.5,295.8,72.9,291.5,63.9,288.1z M13.6,243.2c0.6-3.6,1.3-6.8,2.1-9.5
				c4.2-13.1,18.2-17.1,23.1-17.1c0.1,0,0.2,0,0.3,0c4.5-0.2,19.1,3.7,23.4,17.1c0.8,2.7,1.6,5.8,2.1,9.5
				c2.1,13.6-4.1,29.2-14.3,37.3c-1.3-1.9-2.5-4.6-3.2-8.5c8.8-3.6,15.2-13,15.2-23.9c0-1-0.1-2-0.2-3c-0.1-0.6-0.5-1-1.2-1
				c-7,0.3-24.3-0.2-33.7-10.1c-0.3-0.3-0.7-0.4-1.1-0.3c-0.4,0.1-0.7,0.4-0.8,0.8c0,0.1-3.4,10.7-9,16.3c-0.2,0.2-0.4,0.6-0.3,0.9
				c1.2,9.5,7.3,17.2,15.1,20.4c-0.7,3.9-1.9,6.6-3.2,8.4C17.6,272.4,11.5,256.9,13.6,243.2z M18.2,252c4.4-4.7,7.4-11.9,8.6-15.1
				c9.7,8.9,25.6,9.7,33.1,9.5c0,0.6,0.1,1.1,0.1,1.7c0,12.8-9.4,23.3-21,23.3C28.7,271.4,19.9,263.1,18.2,252z M33.2,272.8
				c1.9,0.5,3.8,0.8,5.8,0.8c2.1,0,4.1-0.3,6-0.9c1.1,5.9,3.5,10.1,7.2,12.8c0.3,0.2,0.7,0.5,1.1,0.7c-0.1,0.1-0.2,0.2-0.3,0.3
				c-0.3,0.3-0.6,0.5-0.9,0.8c-0.2,0.2-0.5,0.4-0.7,0.6c-0.4,0.3-0.8,0.6-1.2,0.9c-0.1,0.1-0.2,0.1-0.3,0.2
				c-6.8,4.6-14.6,4.6-21.4,0c-0.1-0.1-0.2-0.1-0.3-0.2c-0.4-0.3-0.8-0.6-1.2-0.9c-0.2-0.2-0.5-0.4-0.7-0.6
				c-0.3-0.3-0.6-0.5-0.9-0.8c-0.1-0.1-0.2-0.2-0.3-0.3c0.4-0.2,0.7-0.4,1.1-0.7C29.7,282.9,32,278.7,33.2,272.8z"/>
		</g>
		<ellipse id="XMLID_106_" class="st3" cx="30.7" cy="251.5" rx="1.6" ry="2"/>
		<path id="XMLID_105_" class="st5" d="M36.1,263.9h6.3c0,0-0.7,3.6-3.1,3.9C36.8,268.1,36.1,263.9,36.1,263.9z"/>
		<ellipse id="XMLID_104_" class="st3" cx="46.9" cy="251.5" rx="1.6" ry="2"/>
	</g>
	<g id="XMLID_100_">
		<text id="XMLID_30_" transform="matrix(1 0 0 1 495.7207 72.7461)" class="st0 st9 st10">59%</text>
	</g>
	<g id="XMLID_97_">
		<text id="XMLID_31_" transform="matrix(1 0 0 1 130.0186 238.2588)" class="st0 st9 st10">26%</text>
	</g>
	<g id="XMLID_92_">
		<rect id="XMLID_60_" x="129.7" y="111.4" class="st11" width="200.3" height="34.3"/>
		<text id="XMLID_59_" transform="matrix(1 0 0 1 129.7441 125.9189)"><tspan x="0" y="0" class="st12 st13 st14">Help me to feel less </tspan><tspan x="0" y="19.2" class="st12 st13 st14">stressed.</tspan></text>
	</g>
	<g id="XMLID_87_">
		<rect id="XMLID_57_" x="130" y="51.6" class="st11" width="69.5" height="23.2"/>
		<text id="XMLID_56_" transform="matrix(1 0 0 1 130.0186 71.7471)" class="st0 st9 st10">63%</text>
	</g>
	<g id="XMLID_82_">
		<rect id="XMLID_54_" x="494.7" y="110.5" class="st11" width="187.3" height="16.3"/>
		<text id="XMLID_53_" transform="matrix(1 0 0 1 494.7207 124.9883)" class="st12 st13 st14">Helps me to fall asleep</text>
	</g>
	<g id="XMLID_77_">
		<rect id="XMLID_51_" x="496.7" y="87.2" class="st11" width="43.3" height="16.6"/>
		<text id="XMLID_50_" transform="matrix(1 0 0 1 496.7207 101.6885)" class="st12 st13 st14">Sleep</text>
	</g>
	<g id="XMLID_72_">
		<rect id="XMLID_55_" x="128.5" y="277.8" class="st11" width="193.3" height="33.9"/>
		<text id="XMLID_52_" transform="matrix(1 0 0 1 128.541 292.3525)"><tspan x="0" y="0" class="st12 st13 st14">It does not </tspan><tspan x="81.9" y="0" class="st12 st15 st14">“</tspan><tspan x="87.6" y="0" class="st12 st13 st14">help me”, I just </tspan><tspan x="0" y="19.2" class="st12 st13 st14">enjor it</tspan></text>
	</g>
	<g id="XMLID_67_">
		<rect id="XMLID_61_" x="128.1" y="252.6" class="st11" width="55.4" height="15.2"/>
		<text id="XMLID_58_" transform="matrix(1 0 0 1 128.1221 267.1016)" class="st12 st13 st14">Enjor</text>
	</g>
	<g id="XMLID_62_">
		<rect id="XMLID_64_" x="129.7" y="87.9" class="st11" width="68.2" height="15.8"/>
		<text id="XMLID_63_" transform="matrix(1 0 0 1 129.7441 102.4414)" class="st12 st13 st14">Relax</text>
	</g>
	<g id="XMLID_27_">
		<rect id="XMLID_66_" x="495.7" y="276.5" class="st11" width="171.4" height="36.3"/>
		<text id="XMLID_65_" transform="matrix(1 0 0 1 495.6768 290.9893)"><tspan x="0" y="0" class="st12 st13 st14">It helps me in another </tspan><tspan x="0" y="19.2" class="st12 st13 st14">wy not mentioned here</tspan></text>
	</g>
	<g id="XMLID_18_">
		<rect id="XMLID_69_" x="496.7" y="253.5" class="st11" width="63.8" height="16.3"/>
		<text id="XMLID_68_" transform="matrix(1 0 0 1 496.7207 267.9951)" class="st12 st13 st14">Other</text>
	</g>
	<g id="XMLID_13_">
		<rect id="XMLID_71_" x="496.2" y="216.1" class="st11" width="68.6" height="22.7"/>
		<text id="XMLID_70_" transform="matrix(1 0 0 1 496.1768 236.2168)" class="st0 st9 st10">19%</text>
	</g>
</g>
</svg>
