<svg xmlns="http://www.w3.org/2000/svg" xmlns:xlink="http://www.w3.org/1999/xlink" viewBox="0 0 322.38 322.38"><defs><style>.cls-1,.cls-3{fill:none;}.cls-2{clip-path:url(#clip-path);}.cls-3{stroke:#418fff;stroke-miterlimit:10;stroke-width:8px;}</style><clipPath id="clip-path"><circle class="cls-1" cx="161.19" cy="161.19" r="161.16" transform="translate(-24.53 293.38) rotate(-80.44)"/></clipPath></defs><title>s1_part2_wave</title><g id="图层_29" data-name="图层 29"><g class="cls-2"><path class="cls-3" d="M43.72,285.44s-9-41.13,27.8-22.48c.65.33,1.29.68,1.92,1,5.29,3,36.81,19.55,28.58-22.57-9-45.93,30-22.64,30-22.64s40.78,23.54,29.32-22.13,29.49-21.9,29.49-21.9,42.66,27.66,30.34-22.9S251,131.49,251,131.49s39.25,26,30-22.64,30.5-21.52,30.5-21.52,35.94,26.69,28.93-21S370.82,41,370.82,41"/><path class="cls-3" d="M74.81,326.64s-9-41.13,27.8-22.48c.65.33,1.29.68,1.92,1,5.29,3,36.81,19.55,28.58-22.57-9-45.93,30-22.64,30-22.64s40.78,23.54,29.32-22.13S221.92,216,221.92,216s42.66,27.66,30.34-22.9,29.87-20.38,29.87-20.38,39.25,26,30-22.64,30.5-21.52,30.5-21.52,35.94,26.69,28.93-21,30.35-25.31,30.35-25.31"/><path class="cls-3" d="M105.9,367.83s-9-41.13,27.8-22.48c.65.33,1.29.68,1.92,1,5.29,3,36.81,19.55,28.58-22.57-9-45.93,30-22.64,30-22.64s40.78,23.54,29.32-22.13S253,257.16,253,257.16s42.66,27.66,30.34-22.9,29.87-20.38,29.87-20.38,39.25,26,30-22.64,30.5-21.52,30.5-21.52,35.94,26.69,28.93-21S433,123.43,433,123.43"/><path class="cls-3" d="M137,409s-9-41.13,27.8-22.48c.65.33,1.29.68,1.92,1,5.29,3,36.81,19.55,28.58-22.57-9-45.93,30-22.64,30-22.64s40.78,23.54,29.32-22.13,29.49-21.9,29.49-21.9,42.66,27.66,30.34-22.9,29.87-20.38,29.87-20.38,39.25,26,30-22.64,30.5-21.52,30.5-21.52,35.94,26.69,28.93-21,30.35-25.31,30.35-25.31"/><path class="cls-3" d="M-81.17,121.78s-9-41.13,27.8-22.48c.65.33,1.29.68,1.92,1,5.29,3,36.81,19.55,28.58-22.57-9-45.93,30-22.64,30-22.64S47.9,78.68,36.44,33s29.49-21.9,29.49-21.9,42.66,27.66,30.34-22.9,29.87-20.38,29.87-20.38,39.25,26,30-22.64,30.5-21.52,30.5-21.52,35.94,26.69,28.93-21,30.35-25.31,30.35-25.31"/><path class="cls-3" d="M-50.08,163s-9-41.13,27.8-22.48c.65.33,1.29.68,1.92,1,5.29,3,36.81,19.55,28.58-22.57-9-45.93,30-22.64,30-22.64S79,119.87,67.54,74.21,97,52.31,97,52.31,139.68,80,127.37,29.4,157.24,9,157.24,9s39.25,26,30-22.64,30.5-21.52,30.5-21.52,35.94,26.69,28.93-21S277-81.43,277-81.43"/><path class="cls-3" d="M-19,204.17S-28,163,8.81,181.69c.65.33,1.29.68,1.92,1,5.29,3,36.81,19.55,28.58-22.57-9-45.93,30-22.64,30-22.64s40.78,23.54,29.32-22.13,29.49-21.9,29.49-21.9,42.66,27.66,30.34-22.9,29.87-20.38,29.87-20.38,39.25,26,30-22.64,30.5-21.52,30.5-21.52,35.94,26.69,28.93-21,30.35-25.31,30.35-25.31"/><path class="cls-3" d="M12.11,245.37s-9-41.13,27.8-22.48c.65.33,1.29.68,1.92,1,5.29,3,36.81,19.55,28.58-22.57-9-45.93,30-22.64,30-22.64s40.78,23.54,29.32-22.13,29.49-21.9,29.49-21.9,42.66,27.66,30.34-22.9,29.87-20.38,29.87-20.38,39.25,26,30-22.64,30.5-21.52,30.5-21.52,35.94,26.69,28.93-21S339.2,1,339.2,1"/></g></g></svg>