<svg xmlns="http://www.w3.org/2000/svg" xmlns:xlink="http://www.w3.org/1999/xlink" viewBox="0 0 342.52 285.8"><defs><style>.cls-1,.cls-3,.cls-5{fill:none;}.cls-2{clip-path:url(#clip-path);}.cls-3{stroke:#418fff;stroke-width:8px;}.cls-3,.cls-5{stroke-miterlimit:10;}.cls-4{clip-path:url(#clip-path-2);}.cls-5{stroke:#ff9ffe;stroke-width:11px;}.cls-6{fill:#fff;}</style><clipPath id="clip-path"><circle class="cls-1" cx="-275.68" cy="160.53" r="161.16" transform="translate(-388.21 -137.98) rotate(-80.44)"/></clipPath><clipPath id="clip-path-2"><circle class="cls-1" cx="178.84" cy="127.76" r="121.43" transform="translate(14.59 273.8) rotate(-77.19)"/></clipPath></defs><title>left_s1</title><g id="图层_2" data-name="图层 2"><g class="cls-2"><path class="cls-3" d="M-299.87,408.37s-9-41.13,27.8-22.48c.65.33,1.29.68,1.92,1,5.29,3,36.81,19.55,28.58-22.57-9-45.93,30-22.64,30-22.64s40.78,23.54,29.32-22.13,29.49-21.9,29.49-21.9,42.66,27.66,30.34-22.9,29.87-20.38,29.87-20.38,39.25,26,30-22.64,30.5-21.52,30.5-21.52,35.94,26.69,28.93-21S27.23,164,27.23,164"/></g></g><g id="图层_3" data-name="图层 3"><g class="cls-4"><path class="cls-5" d="M58,7.07S87.53,2.14,73,27.61c-.26.45-.53.89-.81,1.33C69.81,32.59,57,54.36,87.15,50c32.92-4.72,15,22.11,15,22.11S84,100.24,116.79,93.75s14.48,21.72,14.48,21.72-21.17,29.28,15.16,22.36,13.39,21.93,13.39,21.93-19.83,26.92,15,22.11S189,204.3,189,204.3s-20.24,24.55,13.85,21.29S219.71,248,219.71,248"/><path class="cls-5" d="M-2.71,48.25s29.52-4.93,15,20.54c-.26.45-.53.89-.81,1.33-2.34,3.65-15.2,25.42,15,21.1,32.92-4.72,15,22.11,15,22.11s-18.18,28.09,14.65,21.61,14.48,21.72,14.48,21.72S49.38,185.93,85.71,179,99.1,200.94,99.1,200.94s-19.83,26.92,15,22.11,14.18,22.42,14.18,22.42S108,270,142.12,266.76,159,289.22,159,289.22"/><path class="cls-5" d="M178.68-75.68s29.52-4.93,15,20.54c-.26.45-.53.89-.81,1.33-2.34,3.65-15.2,25.42,15,21.1,32.92-4.72,15,22.11,15,22.11S204.62,17.49,237.45,11s14.48,21.72,14.48,21.72S230.77,62,267.1,55.08,280.49,77,280.49,77s-19.83,26.92,15,22.11,14.18,22.42,14.18,22.42-20.24,24.55,13.85,21.29,16.87,22.45,16.87,22.45"/><path class="cls-5" d="M118-34.51s29.52-4.93,15,20.54c-.26.45-.53.89-.81,1.33-2.34,3.65-15.2,25.42,15,21.1,32.92-4.72,15,22.11,15,22.11S143.9,58.66,176.73,52.17s14.48,21.72,14.48,21.72S170,103.17,206.37,96.25s13.39,21.93,13.39,21.93-19.83,26.92,15,22.11,14.18,22.42,14.18,22.42S228.69,187.27,262.78,184s16.87,22.45,16.87,22.45"/></g><circle class="cls-6" cx="110.11" cy="211.62" r="67.87" transform="translate(-120.26 273.56) rotate(-77.56)"/></g></svg>