<svg id="图层_1" data-name="图层 1" xmlns="http://www.w3.org/2000/svg" xmlns:xlink="http://www.w3.org/1999/xlink" viewBox="0 0 1431 919.9"><defs><style>.cls-1,.cls-5{fill:none;}.cls-2{fill:#3cf0bb;}.cls-3{fill:#f8d252;fill-rule:evenodd;}.cls-4{clip-path:url(#clip-path);}.cls-5{stroke:#418fff;stroke-miterlimit:10;stroke-width:8px;}</style><clipPath id="clip-path"><circle class="cls-1" cx="242.01" cy="511.58" r="161.16" transform="translate(-302.65 665.29) rotate(-80.44)"/></clipPath></defs><title>about_bg_simpleway</title><g id="rectangle_bg"><rect class="cls-2" y="4.9" width="1431" height="915"/></g><path id="circle" class="cls-3" d="M611.59,279.1c0,114.22-92.59,206.8-206.8,206.8S198,393.32,198,279.1s92.57-206.8,206.79-206.8S611.59,164.89,611.59,279.1Z"/><g class="cls-4"><path class="cls-5" d="M124.54,635.83s-9-41.13,27.8-22.48c.65.33,1.29.68,1.92,1,5.29,3,36.81,19.55,28.58-22.57-9-45.93,30-22.64,30-22.64s40.78,23.54,29.32-22.13,29.49-21.9,29.49-21.9,42.66,27.66,30.34-22.9,29.87-20.38,29.87-20.38,39.25,26,30-22.64,30.5-21.52,30.5-21.52,35.94,26.69,28.93-21,30.35-25.31,30.35-25.31"/><path class="cls-5" d="M155.63,677s-9-41.13,27.8-22.48c.65.33,1.29.68,1.92,1,5.29,3,36.81,19.55,28.58-22.57-9-45.93,30-22.64,30-22.64s40.78,23.54,29.32-22.13,29.49-21.9,29.49-21.9,42.66,27.66,30.34-22.9,29.87-20.38,29.87-20.38,39.25,26,30-22.64,30.5-21.52,30.5-21.52,35.94,26.69,28.93-21,30.35-25.31,30.35-25.31"/><path class="cls-5" d="M186.72,718.22s-9-41.13,27.8-22.48c.65.33,1.29.68,1.92,1,5.29,3,36.81,19.55,28.58-22.57-9-45.93,30-22.64,30-22.64s40.78,23.54,29.32-22.13,29.49-21.9,29.49-21.9,42.66,27.66,30.34-22.9S394,564.27,394,564.27s39.25,26,30-22.64,30.5-21.52,30.5-21.52,35.94,26.69,28.93-21,30.35-25.31,30.35-25.31"/><path class="cls-5" d="M217.81,759.42s-9-41.13,27.8-22.48c.65.33,1.29.68,1.92,1,5.29,3,36.81,19.55,28.58-22.57-9-45.93,30-22.64,30-22.64s40.78,23.54,29.32-22.13,29.49-21.9,29.49-21.9,42.66,27.66,30.34-22.9,29.87-20.38,29.87-20.38,39.25,26,30-22.64,30.5-21.52,30.5-21.52,35.94,26.69,28.93-21S544.91,515,544.91,515"/><path class="cls-5" d="M-.35,472.17s-9-41.13,27.8-22.48c.65.33,1.29.68,1.92,1,5.29,3,36.81,19.55,28.58-22.57-9-45.93,30-22.64,30-22.64s40.78,23.54,29.32-22.13,29.49-21.9,29.49-21.9,42.66,27.66,30.34-22.9S207,318.22,207,318.22s39.25,26,30-22.64,30.5-21.52,30.5-21.52,35.94,26.69,28.93-21,30.35-25.31,30.35-25.31"/><path class="cls-5" d="M30.74,513.36s-9-41.13,27.8-22.48c.65.33,1.29.68,1.92,1,5.29,3,36.81,19.55,28.58-22.57-9-45.93,30-22.64,30-22.64s40.78,23.54,29.32-22.13,29.49-21.9,29.49-21.9,42.66,27.66,30.34-22.9,29.87-20.38,29.87-20.38,39.25,26,30-22.64,30.5-21.52,30.5-21.52,35.94,26.69,28.93-21S357.84,269,357.84,269"/><path class="cls-5" d="M61.83,554.56s-9-41.13,27.8-22.48c.65.33,1.29.68,1.92,1,5.29,3,36.81,19.55,28.58-22.57-9-45.93,30-22.64,30-22.64s40.78,23.54,29.32-22.13,29.49-21.9,29.49-21.9,42.66,27.66,30.34-22.9,29.87-20.38,29.87-20.38,39.25,26,30-22.64,30.5-21.52,30.5-21.52,35.94,26.69,28.93-21,30.35-25.31,30.35-25.31"/><path class="cls-5" d="M92.92,595.76s-9-41.13,27.8-22.48c.65.33,1.29.68,1.92,1,5.29,3,36.81,19.55,28.58-22.57-9-45.93,30-22.64,30-22.64S222,552.66,210.54,507,240,485.09,240,485.09s42.66,27.66,30.34-22.9,29.87-20.38,29.87-20.38,39.25,26,30-22.64,30.5-21.52,30.5-21.52,35.94,26.69,28.93-21S420,351.36,420,351.36"/></g></svg>