<svg xmlns="http://www.w3.org/2000/svg" xmlns:xlink="http://www.w3.org/1999/xlink" viewBox="0 0 328 349.23"><defs><style>.cls-1,.cls-3{fill:none;}.cls-2{clip-path:url(#clip-path);}.cls-3{stroke:#ff9ffe;stroke-miterlimit:10;stroke-width:11px;}.cls-4{fill:#3cf0bb;}</style><clipPath id="clip-path"><circle class="cls-1" cx="167.57" cy="160.88" r="121.43" transform="translate(-26.47 288.6) rotate(-77.19)"/></clipPath></defs><title>contact</title><g id="图层_32" data-name="图层 32"><g class="cls-2"><path class="cls-3" d="M46.75,40.2s29.52-4.93,15,20.54c-.26.45-.53.89-.81,1.33-2.34,3.65-15.2,25.42,15,21.1,32.92-4.72,15,22.11,15,22.11s-18.18,28.09,14.65,21.61S120,148.6,120,148.6,98.84,177.88,135.17,171s13.39,21.93,13.39,21.93-19.83,26.92,15,22.11,14.18,22.42,14.18,22.42S157.49,262,191.58,258.72s16.87,22.45,16.87,22.45"/><path class="cls-3" d="M-14,81.37s29.52-4.93,15,20.54c-.26.45-.53.89-.81,1.33-2.34,3.65-15.2,25.42,15,21.1,32.92-4.72,15,22.11,15,22.11S12,174.54,44.81,168s14.48,21.72,14.48,21.72-21.17,29.28,15.16,22.36,13.39,21.93,13.39,21.93S68,261,102.83,256.17,117,278.6,117,278.6s-20.24,24.55,13.85,21.29,16.87,22.45,16.87,22.45"/><path class="cls-3" d="M167.41-42.56s29.52-4.93,15,20.54c-.26.45-.53.89-.81,1.33-2.34,3.65-15.2,25.42,15,21.1,32.92-4.72,15,22.11,15,22.11s-18.18,28.09,14.65,21.61,14.48,21.72,14.48,21.72-21.17,29.28,15.16,22.36,13.39,21.93,13.39,21.93-19.83,26.92,15,22.11,14.18,22.42,14.18,22.42S278.15,179.22,312.24,176s16.87,22.45,16.87,22.45"/><path class="cls-3" d="M106.69-1.38s29.52-4.93,15,20.54c-.26.45-.53.89-.81,1.33-2.34,3.65-15.2,25.42,15,21.1,32.92-4.72,15,22.11,15,22.11S132.64,91.78,165.47,85.3,180,107,180,107s-21.17,29.28,15.16,22.36,13.39,21.93,13.39,21.93-19.83,26.92,15,22.11,14.18,22.42,14.18,22.42-20.24,24.55,13.85,21.29,16.87,22.45,16.87,22.45"/></g><circle class="cls-4" cx="98.85" cy="244.75" r="67.87" transform="translate(-161.44 288.56) rotate(-77.56)"/></g></svg>