<svg xmlns="http://www.w3.org/2000/svg" xmlns:xlink="http://www.w3.org/1999/xlink" viewBox="0 0 573.84 600.46"><defs><style>.cls-1,.cls-6{fill:none;}.cls-2{clip-path:url(#clip-path);}.cls-3,.cls-4{fill:#f8d252;}.cls-4{fill-rule:evenodd;}.cls-5{clip-path:url(#clip-path-2);}.cls-6{stroke:#418fff;stroke-miterlimit:10;stroke-width:8px;}</style><clipPath id="clip-path"><rect class="cls-1" x="-367.75" y="-970.41" width="1325.73" height="719.86"/></clipPath><clipPath id="clip-path-2"><circle class="cls-1" cx="204.26" cy="439.27" r="161.16" transform="translate(-262.83 567.76) rotate(-80.44)"/></clipPath></defs><title>about</title><g id="图层_31" data-name="图层 31"><g class="cls-2"><circle class="cls-3" cx="262.44" cy="-298.2" r="583.35"/></g><path id="circle" class="cls-4" d="M573.84,206.8c0,114.22-92.59,206.8-206.8,206.8S160.25,321,160.25,206.8,252.83,0,367,0,573.84,92.58,573.84,206.8Z"/><g class="cls-5"><path class="cls-6" d="M86.79,563.52s-9-41.13,27.8-22.48c.65.33,1.29.68,1.92,1,5.29,3,36.81,19.55,28.58-22.57-9-45.93,30-22.64,30-22.64s40.78,23.54,29.32-22.13,29.49-21.9,29.49-21.9,42.66,27.66,30.34-22.9,29.87-20.38,29.87-20.38,39.25,26,30-22.64,30.5-21.52,30.5-21.52,35.94,26.69,28.93-21,30.35-25.31,30.35-25.31"/><path class="cls-6" d="M117.88,604.72s-9-41.13,27.8-22.48c.65.33,1.29.68,1.92,1,5.29,3,36.81,19.55,28.58-22.57-9-45.93,30-22.64,30-22.64S247,561.62,235.5,515.95,265,494,265,494s42.66,27.66,30.34-22.9,29.87-20.38,29.87-20.38,39.25,26,30-22.64,30.5-21.52,30.5-21.52,35.94,26.69,28.93-21S445,360.32,445,360.32"/><path class="cls-6" d="M149,645.91s-9-41.13,27.8-22.48c.65.33,1.29.68,1.92,1,5.29,3,36.81,19.55,28.58-22.57-9-45.93,30-22.64,30-22.64s40.78,23.54,29.32-22.13,29.49-21.9,29.49-21.9,42.66,27.66,30.34-22.9S356.29,492,356.29,492s39.25,26,30-22.64,30.5-21.52,30.5-21.52,35.94,26.69,28.93-21,30.35-25.31,30.35-25.31"/><path class="cls-6" d="M180.07,687.11s-9-41.13,27.8-22.48c.65.33,1.29.68,1.92,1,5.29,3,36.81,19.55,28.58-22.57-9-45.93,30-22.64,30-22.64s40.78,23.54,29.32-22.13,29.49-21.9,29.49-21.9,42.66,27.66,30.34-22.9,29.87-20.38,29.87-20.38,39.25,26,30-22.64S447.88,489,447.88,489s35.94,26.69,28.93-21,30.35-25.31,30.35-25.31"/><path class="cls-6" d="M-38.1,399.86s-9-41.13,27.8-22.48c.65.33,1.29.68,1.92,1,5.29,3,36.81,19.55,28.58-22.57-9-45.93,30-22.64,30-22.64S91,356.76,79.52,311.09,109,289.19,109,289.19s42.66,27.66,30.34-22.9,29.87-20.38,29.87-20.38,39.25,26,30-22.64,30.5-21.52,30.5-21.52,35.94,26.69,28.93-21S289,155.46,289,155.46"/><path class="cls-6" d="M-7,441.06s-9-41.13,27.8-22.48c.65.33,1.29.68,1.92,1,5.29,3,36.81,19.55,28.58-22.57-9-45.93,30-22.64,30-22.64s40.78,23.54,29.32-22.13,29.49-21.9,29.49-21.9,42.66,27.66,30.34-22.9,29.87-20.38,29.87-20.38,39.25,26,30-22.64,30.5-21.52,30.5-21.52,35.94,26.69,28.93-21,30.35-25.31,30.35-25.31"/><path class="cls-6" d="M24.09,482.25s-9-41.13,27.8-22.48c.65.33,1.29.68,1.92,1,5.29,3,36.81,19.55,28.58-22.57-9-45.93,30-22.64,30-22.64s40.78,23.54,29.32-22.13,29.49-21.9,29.49-21.9,42.66,27.66,30.34-22.9S231.4,328.3,231.4,328.3s39.25,26,30-22.64,30.5-21.52,30.5-21.52,35.94,26.69,28.93-21,30.35-25.31,30.35-25.31"/><path class="cls-6" d="M55.18,523.45S46.14,482.32,83,501c.65.33,1.29.68,1.92,1,5.29,3,36.81,19.55,28.58-22.57-9-45.93,30-22.64,30-22.64s40.78,23.54,29.32-22.13,29.49-21.9,29.49-21.9,42.66,27.66,30.34-22.9,29.87-20.38,29.87-20.38,39.25,26,30-22.64S323,325.34,323,325.34s35.94,26.69,28.93-21S382.28,279,382.28,279"/></g></g></svg>