<?xml version="1.0" encoding="utf-8"?>
<!-- Generator: Adobe Illustrator 19.0.0, SVG Export Plug-In . SVG Version: 6.00 Build 0)  -->
<svg version="1.1" id="图层_1" xmlns="http://www.w3.org/2000/svg" xmlns:xlink="http://www.w3.org/1999/xlink" x="0px" y="0px"
	 viewBox="0 0 373.1 300.7" style="enable-background:new 0 0 373.1 300.7;" xml:space="preserve">
<style type="text/css">
	.st0{opacity:0.25;}
	.st1{fill-rule:evenodd;clip-rule:evenodd;fill:#DD2925;}
	.st2{fill:#FFFFFF;}
	.st3{fill:#EFCB55;}
	.st4{clip-path:url(#SVGID_2_);}
	.st5{fill:none;stroke:#D6A1C8;stroke-width:3.4928;stroke-miterlimit:10;}
	.st6{fill:#6BC1A4;}
	.st7{fill-rule:evenodd;clip-rule:evenodd;fill:#A6D7C3;}
	.st8{fill:none;stroke:#6BC1A4;stroke-width:4;stroke-miterlimit:10;}
	.st9{fill:none;stroke:#4C82C3;stroke-width:7.1815;stroke-miterlimit:10;}
	.st10{fill:none;stroke:#EFCB55;stroke-width:2.8726;stroke-miterlimit:10;}
	.st11{clip-path:url(#SVGID_4_);}
	.st12{clip-path:url(#SVGID_6_);}
	.st13{clip-path:url(#XMLID_25_);}
	.st14{fill:none;}
	.st15{fill:#040000;}
	.st16{font-family:'Korolev-Heavy';}
	.st17{font-size:32px;}
	.st18{font-family:'Korolev-Light';}
	.st19{font-size:10px;}
</style>
<g id="Columns_3_" class="st0">
	<g id="XMLID_56_">
		<path id="XMLID_57_" class="st1" d="M-4795.8,1952h77.4V-511.4h-77.4V1952z M-4682.7,1952h77.4V-511.4h-77.4V1952z M-4569.7-511.4
			V1952h77.4V-511.4H-4569.7z"/>
	</g>
</g>
<rect x="-4833" y="1881" class="st2" width="374" height="67"/>
<rect id="XMLID_4_" x="-4714.4" y="1896.6" class="st14" width="132.1" height="10.6"/>
<text transform="matrix(0.996 0 0 1 -4703.3228 1904.9346)" class="st18 st19" style="fill:#92AFAD;">Design by Shiyi Liu @ 2017</text>
<g>
	<rect id="XMLID_156_" x="-4715" y="1908.8" class="st14" width="144" height="22.2"/>
	<text id="XMLID_123_" transform="matrix(0.996 0 0 1 -4684.0996 1917.1287)"><tspan x="0" y="0" class="st18 st19" style="fill:#92AFAD;">San Francisco, U.S.A</tspan><tspan x="-7.1" y="12" class="st18 st19" style="fill:#92AFAD;">poetrylizzy@gmail.com</tspan></text>
</g>
<rect id="bg_2_" x="-4832.1" y="1581" class="st2" width="373.1" height="300"/>
<rect id="element_2_" x="-4799.6" y="1580.3" class="st3" width="47.6" height="246"/>
<g>
	<g>
		<defs>
			<circle id="SVGID_1_" cx="-4507.5" cy="1646.6" r="38.6"/>
		</defs>
		<clipPath id="SVGID_2_">
			<use xlink:href="#SVGID_1_"  style="overflow:visible;"/>
		</clipPath>
		<g class="st4">
			<g>
				<path class="st5" d="M-4545.9,1608.2c0,0,9.4-1.6,4.7,6.5c-0.1,0.1-0.2,0.3-0.3,0.4c-0.7,1.2-4.8,8.1,4.8,6.7
					c10.5-1.5,4.8,7,4.8,7s-5.8,8.9,4.7,6.9s4.6,6.9,4.6,6.9s-6.7,9.3,4.8,7.1c11.5-2.2,4.3,7,4.3,7s-6.3,8.5,4.8,7
					c11.1-1.5,4.5,7.1,4.5,7.1s-6.4,7.8,4.4,6.8c10.8-1,5.4,7.1,5.4,7.1"/>
				<path class="st5" d="M-4565.2,1621.3c0,0,9.4-1.6,4.7,6.5c-0.1,0.1-0.2,0.3-0.3,0.4c-0.7,1.2-4.8,8.1,4.8,6.7
					c10.5-1.5,4.8,7,4.8,7s-5.8,8.9,4.7,6.9s4.6,6.9,4.6,6.9s-6.7,9.3,4.8,7.1c11.5-2.2,4.3,7,4.3,7s-6.3,8.5,4.8,7
					c11.1-1.5,4.5,7.1,4.5,7.1s-6.4,7.8,4.4,6.8s5.4,7.1,5.4,7.1"/>
				<path class="st5" d="M-4507.6,1582c0,0,9.4-1.6,4.7,6.5c-0.1,0.1-0.2,0.3-0.3,0.4c-0.7,1.2-4.8,8.1,4.8,6.7
					c10.5-1.5,4.8,7,4.8,7s-5.8,8.9,4.7,6.9c10.4-2.1,4.6,6.9,4.6,6.9s-6.7,9.3,4.8,7.1c11.5-2.2,4.3,7,4.3,7s-6.3,8.5,4.8,7
					c11.1-1.5,4.5,7.1,4.5,7.1s-6.4,7.8,4.4,6.8s5.4,7.1,5.4,7.1"/>
				<path class="st5" d="M-4526.8,1595c0,0,9.4-1.6,4.7,6.5c-0.1,0.1-0.2,0.3-0.3,0.4c-0.7,1.2-4.8,8.1,4.8,6.7
					c10.5-1.5,4.8,7,4.8,7s-5.8,8.9,4.7,6.9s4.6,6.9,4.6,6.9s-6.7,9.3,4.8,7.1c11.5-2.2,4.3,7,4.3,7s-6.3,8.5,4.8,7s4.5,7.1,4.5,7.1
					s-6.4,7.8,4.4,6.8s5.4,7.1,5.4,7.1"/>
			</g>
		</g>
	</g>
	<g>
		<circle id="XMLID_15_" class="st6" cx="-4529.3" cy="1673.2" r="21.5"/>
	</g>
</g>
<rect id="XMLID_2_" x="-4685.3" y="1675.7" class="st14" width="199.3" height="37.3"/>
<text transform="matrix(1 0 0 1 -4685.2998 1703.0059)" class="st15 st16 st17">CONTACT ME</text>
<g>
	<rect id="XMLID_1_" x="-4685.9" y="1740.3" class="st14" width="189.9" height="118.7"/>
	<text transform="matrix(1 0 0 1 -4685.873 1748.6777)"><tspan x="0" y="0" class="st15 st18 st19">We definitely should get in touch</tspan><tspan x="0" y="24" class="st15 st18 st19">Please feel free to contact me at anytime!</tspan><tspan x="0" y="48" class="st15 st18 st19">poetrylizzy@gmail.com</tspan><tspan x="0" y="72" class="st15 st18 st19">Follow Me</tspan></text>
	<path class="st7" d="M-4676.4,1842.7h-1.7c-0.5,0-0.9-0.4-0.9-0.9v0v-2.9c0-0.4-0.3-0.7-0.7-0.7s-0.7,0.3-0.7,0.7v2.9v0
		c0,0.2-0.1,0.4-0.2,0.6c-0.1,0.1-0.2,0.1-0.3,0.1c-0.2,0-0.4-0.2-0.4-0.4c0-0.1,0.1-0.2,0.1-0.3c0-0.1,0.1-0.1,0.1-0.2v-0.5v-0.7
		v-1.6c0-0.7,0.6-1.3,1.4-1.3s1.4,0.6,1.4,1.3v2.3c0,0,0,0,0,0.1c0,0,0,0,0,0v0.4c0,0.2,0.2,0.3,0.3,0.3h1.4c0.2,0,0.3-0.2,0.3-0.3
		v-3.1c0,0,0,0,0,0c-0.1-1.5-1.3-2.7-2.7-2.7c-0.6,0-1.2,0.2-1.6,0.6c0,0-0.1,0-0.1,0c-0.1,0-0.3-0.1-0.3-0.3c0,0,0,0,0,0
		c0-0.2-0.2-0.3-0.3-0.3h-1c-0.4,0-0.7,0.3-0.7,0.7v5.1c0,0,0,0.1,0,0.1c0,0,0,0.1,0,0.1c0,0.5-0.4,0.9-0.9,0.9h-0.1h-1.7
		c-0.5,0-0.9-0.4-0.9-0.9v-5.8c0-0.5,0.4-0.9,0.9-0.9h0.9c0.6,0,1-0.5,1-1s-0.5-1-1-1c-0.6,0-1,0.5-1,1c0,0.2-0.2,0.3-0.3,0.3
		s-0.3-0.2-0.3-0.3c0-0.9,0.8-1.7,1.7-1.7c0.9,0,1.7,0.8,1.7,1.7s-0.8,1.7-1.7,1.7h-0.7c-0.2,0-0.3,0.2-0.3,0.3v5.5
		c0,0.2,0.2,0.3,0.3,0.3h1.4c0.2,0,0.3-0.2,0.3-0.3v-5.1c0-0.8,0.6-1.4,1.4-1.4h1.2c0.2,0,0.4,0.1,0.6,0.2c0,0,0,0,0,0
		c0.1,0.1,0.1,0.1,0.2,0.1c0,0,0.1,0,0.1,0c0.4-0.2,0.9-0.3,1.3-0.3c1.8,0,3.2,1.4,3.4,3.1c0,0.1,0,0.1,0,0.2v3.4
		C-4675.5,1842.3-4675.9,1842.7-4676.4,1842.7L-4676.4,1842.7z M-4682,1842c0.2,0,0.3,0.2,0.3,0.3c0,0.2-0.2,0.3-0.3,0.3
		s-0.3-0.2-0.3-0.3C-4682.4,1842.1-4682.2,1842-4682,1842L-4682,1842z"/>
	<path class="st7" d="M-4644.7,1839.8h-3.1c-0.2,0-0.4-0.2-0.4-0.4c0-0.2,0.2-0.4,0.4-0.4h3c0.2,0,0.3-0.1,0.3-0.3c0,0,0,0,0-0.1
		c-0.3-0.9-1.1-1.5-2.1-1.5c-1.2,0-2.2,1-2.2,2.2c0,1.2,1,2.2,2.2,2.2c0.7,0,1.4-0.4,1.8-0.9c0.1-0.1,0.2-0.2,0.3-0.2
		c0.2,0,0.4,0.2,0.4,0.4c0,0.1,0,0.1-0.1,0.2l0,0c-0.5,0.8-1.4,1.3-2.4,1.3c-1.6,0-2.9-1.3-2.9-3c0-1.7,1.3-3,2.9-3
		c1.4,0,2.5,0.9,2.8,2.2c0,0.1,0,0.1,0,0.2C-4643.7,1839.4-4644.1,1839.8-4644.7,1839.8L-4644.7,1839.8z M-4645.6,1835.7h-2.2
		c-0.2,0-0.4-0.2-0.4-0.4c0-0.2,0.2-0.4,0.4-0.4h2.2c0.2,0,0.4,0.2,0.4,0.4C-4645.2,1835.5-4645.4,1835.7-4645.6,1835.7
		L-4645.6,1835.7z M-4655.3,1835.7c0.2,0,0.4,0.2,0.4,0.4s-0.2,0.4-0.4,0.4s-0.4-0.2-0.4-0.4S-4655.6,1835.7-4655.3,1835.7
		L-4655.3,1835.7z M-4650.5,1838.1c0.1,0,0.3,0.1,0.3,0.2c0.3,0.4,0.4,0.9,0.4,1.5c0,1.4-1.2,2.6-2.6,2.6h-0.6h-0.2h-1.7
		c-0.5,0-0.9-0.4-0.9-0.9v-3.4c0-0.5,0.4-0.9,0.9-0.9h2.1h0.2c1,0,1.9-0.8,1.9-1.9c0-1-0.8-1.9-1.9-1.9h-0.6h-1.5
		c-0.2,0-0.4,0.2-0.4,0.4v0.7c0,0.2-0.2,0.4-0.4,0.4s-0.4-0.2-0.4-0.4v-0.9c0-0.5,0.4-0.9,0.9-0.9h1.7h0.2h0.4
		c1.4,0,2.6,1.2,2.6,2.6c0,1.4-1.1,2.5-2.4,2.6v0h-0.4h-0.4h-1.6c-0.2,0-0.3,0.1-0.3,0.3v3.1c0,0.2,0.2,0.4,0.4,0.4h1.5h0.8
		c1,0,1.9-0.8,1.9-1.9c0-0.4-0.1-0.8-0.3-1.1l0,0c0-0.1-0.1-0.1-0.1-0.2C-4650.9,1838.3-4650.7,1838.1-4650.5,1838.1L-4650.5,1838.1
		z"/>
	<path class="st7" d="M-4613.4,1839.6c-1.5,1.7-2.7,2.5-3.6,2.5c-0.9,0-1.8-1.5-2.3-4c-0.3-1.3-0.5-1.8-0.6-1.9c0,0,0,0,0,0v0
		c0,0-0.1,0-0.1,0c-0.2,0-0.3-0.1-0.3-0.3c0-0.1,0.1-0.2,0.1-0.3v0c0.1-0.1,0.3-0.2,0.4-0.2c0.5,0,0.8,0.7,1.2,2.5
		c0.5,2.4,1.3,3.4,1.7,3.4c0.4,0,1.3-0.3,3.1-2.3c0.5-0.5,2-2.4,2-3.9c0-0.8-0.2-1.5-1.3-1.5c-1.4,0-2,0.9-2.3,1.5c0,0,0,0,0,0.1
		c0,0.1,0.1,0.2,0.2,0.2c0,0,0,0,0,0c0.1,0,0.2,0,0.2,0c0,0,0,0,0,0c0,0,0.1,0,0.1,0c0.5,0,0.7,0.2,0.7,0.7c0,0.7-1,2.3-1.4,2.7
		c-0.1,0.1-0.2,0.1-0.3,0.1c-0.4,0-0.7-0.7-1-2.1c0-0.2-0.1-0.4-0.1-0.7c-0.1-1-0.4-2.4-1-2.4c-0.7,0-1.7,0.9-2.4,1.5l0,0
		c-0.1,0.1-0.1,0.1-0.2,0.1c-0.2,0-0.3-0.1-0.3-0.3c0-0.1,0-0.2,0.1-0.2c0.7-0.7,1.8-1.7,2.8-1.7c1.3,0,1.6,1.8,1.7,3
		c0,0.2,0.1,0.5,0.1,0.6c0.1,0.7,0.3,1.1,0.4,1.4c0.4-0.5,1-1.6,1-1.9v0c0,0,0,0,0,0c0,0,0,0-0.1,0c0,0,0,0,0,0c0,0,0,0-0.1,0
		c0,0,0,0,0,0c-0.1,0-0.1,0-0.2,0c-0.5,0-0.8-0.4-0.8-0.8c0-0.1,0-0.2,0-0.3c0.3-0.9,1.2-2,2.9-2c0.9,0,2,0.4,2,2.2
		C-4611.3,1835.8-4611.5,1837.3-4613.4,1839.6L-4613.4,1839.6z M-4621.4,1836.2c-0.2,0-0.3-0.1-0.3-0.3c0-0.2,0.1-0.3,0.3-0.3
		c0.2,0,0.3,0.1,0.3,0.3C-4621.1,1836.1-4621.2,1836.2-4621.4,1836.2L-4621.4,1836.2z"/>
</g>
<rect id="rectangle_4_" x="-4723" y="1813" class="st6" width="11.8" height="41"/>
<line class="st8" x1="-4685" y1="1803" x2="-4578" y2="1803"/>
<g>
	<circle class="st9" cx="-4542.6" cy="1844.3" r="27.3"/>
	<circle class="st10" cx="-4513.8" cy="1861.6" r="17.4"/>
</g>
<g id="Columns_1_" class="st0">
	<g id="XMLID_92_">
		<path id="XMLID_93_" class="st1" d="M-4795.8,1952h77.4V-511.4h-77.4V1952z M-4682.7,1952h77.4V-511.4h-77.4V1952z M-4569.7-511.4
			V1952h77.4V-511.4H-4569.7z"/>
	</g>
</g>
<rect x="-4833" y="1881" class="st2" width="374" height="67"/>
<rect id="XMLID_9_" x="-4714.4" y="1896.6" class="st14" width="132.1" height="10.6"/>
<text transform="matrix(0.996 0 0 1 -4703.3228 1904.9346)" class="st18 st19" style="fill:#92AFAD;">Design by Shiyi Liu @ 2017</text>
<g>
	<rect id="XMLID_158_" x="-4715" y="1908.8" class="st14" width="144" height="22.2"/>
	<text id="XMLID_157_" transform="matrix(0.996 0 0 1 -4684.0996 1917.1287)"><tspan x="0" y="0" class="st18 st19" style="fill:#92AFAD;">San Francisco, U.S.A</tspan><tspan x="-7.1" y="12" class="st18 st19" style="fill:#92AFAD;">poetrylizzy@gmail.com</tspan></text>
</g>
<rect id="bg_1_" x="-4832.1" y="1581" class="st2" width="373.1" height="300"/>
<rect id="element_1_" x="-4799.6" y="1580.3" class="st3" width="47.6" height="246"/>
<g>
	<g>
		<defs>
			<circle id="SVGID_3_" cx="-4507.5" cy="1646.6" r="38.6"/>
		</defs>
		<clipPath id="SVGID_4_">
			<use xlink:href="#SVGID_3_"  style="overflow:visible;"/>
		</clipPath>
		<g class="st11">
			<g>
				<path class="st5" d="M-4545.9,1608.2c0,0,9.4-1.6,4.7,6.5c-0.1,0.1-0.2,0.3-0.3,0.4c-0.7,1.2-4.8,8.1,4.8,6.7
					c10.5-1.5,4.8,7,4.8,7s-5.8,8.9,4.7,6.9s4.6,6.9,4.6,6.9s-6.7,9.3,4.8,7.1c11.5-2.2,4.3,7,4.3,7s-6.3,8.5,4.8,7
					c11.1-1.5,4.5,7.1,4.5,7.1s-6.4,7.8,4.4,6.8c10.8-1,5.4,7.1,5.4,7.1"/>
				<path class="st5" d="M-4565.2,1621.3c0,0,9.4-1.6,4.7,6.5c-0.1,0.1-0.2,0.3-0.3,0.4c-0.7,1.2-4.8,8.1,4.8,6.7
					c10.5-1.5,4.8,7,4.8,7s-5.8,8.9,4.7,6.9s4.6,6.9,4.6,6.9s-6.7,9.3,4.8,7.1c11.5-2.2,4.3,7,4.3,7s-6.3,8.5,4.8,7
					c11.1-1.5,4.5,7.1,4.5,7.1s-6.4,7.8,4.4,6.8s5.4,7.1,5.4,7.1"/>
				<path class="st5" d="M-4507.6,1582c0,0,9.4-1.6,4.7,6.5c-0.1,0.1-0.2,0.3-0.3,0.4c-0.7,1.2-4.8,8.1,4.8,6.7
					c10.5-1.5,4.8,7,4.8,7s-5.8,8.9,4.7,6.9c10.4-2.1,4.6,6.9,4.6,6.9s-6.7,9.3,4.8,7.1c11.5-2.2,4.3,7,4.3,7s-6.3,8.5,4.8,7
					c11.1-1.5,4.5,7.1,4.5,7.1s-6.4,7.8,4.4,6.8s5.4,7.1,5.4,7.1"/>
				<path class="st5" d="M-4526.8,1595c0,0,9.4-1.6,4.7,6.5c-0.1,0.1-0.2,0.3-0.3,0.4c-0.7,1.2-4.8,8.1,4.8,6.7
					c10.5-1.5,4.8,7,4.8,7s-5.8,8.9,4.7,6.9s4.6,6.9,4.6,6.9s-6.7,9.3,4.8,7.1c11.5-2.2,4.3,7,4.3,7s-6.3,8.5,4.8,7s4.5,7.1,4.5,7.1
					s-6.4,7.8,4.4,6.8s5.4,7.1,5.4,7.1"/>
			</g>
		</g>
	</g>
	<g>
		<circle id="XMLID_21_" class="st6" cx="-4529.3" cy="1673.2" r="21.5"/>
	</g>
</g>
<rect id="XMLID_6_" x="-4685.3" y="1675.7" class="st14" width="199.3" height="37.3"/>
<text transform="matrix(1 0 0 1 -4685.2998 1703.0059)" class="st15 st16 st17">CONTACT ME</text>
<g>
	<rect id="XMLID_5_" x="-4685.9" y="1740.3" class="st14" width="189.9" height="118.7"/>
	<text transform="matrix(1 0 0 1 -4685.873 1748.6777)"><tspan x="0" y="0" class="st15 st18 st19">We definitely should get in touch</tspan><tspan x="0" y="24" class="st15 st18 st19">Please feel free to contact me at anytime!</tspan><tspan x="0" y="48" class="st15 st18 st19">poetrylizzy@gmail.com</tspan><tspan x="0" y="72" class="st15 st18 st19">Follow Me</tspan></text>
	<path class="st7" d="M-4676.4,1842.7h-1.7c-0.5,0-0.9-0.4-0.9-0.9v0v-2.9c0-0.4-0.3-0.7-0.7-0.7s-0.7,0.3-0.7,0.7v2.9v0
		c0,0.2-0.1,0.4-0.2,0.6c-0.1,0.1-0.2,0.1-0.3,0.1c-0.2,0-0.4-0.2-0.4-0.4c0-0.1,0.1-0.2,0.1-0.3c0-0.1,0.1-0.1,0.1-0.2v-0.5v-0.7
		v-1.6c0-0.7,0.6-1.3,1.4-1.3s1.4,0.6,1.4,1.3v2.3c0,0,0,0,0,0.1c0,0,0,0,0,0v0.4c0,0.2,0.2,0.3,0.3,0.3h1.4c0.2,0,0.3-0.2,0.3-0.3
		v-3.1c0,0,0,0,0,0c-0.1-1.5-1.3-2.7-2.7-2.7c-0.6,0-1.2,0.2-1.6,0.6c0,0-0.1,0-0.1,0c-0.1,0-0.3-0.1-0.3-0.3c0,0,0,0,0,0
		c0-0.2-0.2-0.3-0.3-0.3h-1c-0.4,0-0.7,0.3-0.7,0.7v5.1c0,0,0,0.1,0,0.1c0,0,0,0.1,0,0.1c0,0.5-0.4,0.9-0.9,0.9h-0.1h-1.7
		c-0.5,0-0.9-0.4-0.9-0.9v-5.8c0-0.5,0.4-0.9,0.9-0.9h0.9c0.6,0,1-0.5,1-1s-0.5-1-1-1c-0.6,0-1,0.5-1,1c0,0.2-0.2,0.3-0.3,0.3
		s-0.3-0.2-0.3-0.3c0-0.9,0.8-1.7,1.7-1.7c0.9,0,1.7,0.8,1.7,1.7s-0.8,1.7-1.7,1.7h-0.7c-0.2,0-0.3,0.2-0.3,0.3v5.5
		c0,0.2,0.2,0.3,0.3,0.3h1.4c0.2,0,0.3-0.2,0.3-0.3v-5.1c0-0.8,0.6-1.4,1.4-1.4h1.2c0.2,0,0.4,0.1,0.6,0.2c0,0,0,0,0,0
		c0.1,0.1,0.1,0.1,0.2,0.1c0,0,0.1,0,0.1,0c0.4-0.2,0.9-0.3,1.3-0.3c1.8,0,3.2,1.4,3.4,3.1c0,0.1,0,0.1,0,0.2v3.4
		C-4675.5,1842.3-4675.9,1842.7-4676.4,1842.7L-4676.4,1842.7z M-4682,1842c0.2,0,0.3,0.2,0.3,0.3c0,0.2-0.2,0.3-0.3,0.3
		s-0.3-0.2-0.3-0.3C-4682.4,1842.1-4682.2,1842-4682,1842L-4682,1842z"/>
	<path class="st7" d="M-4644.7,1839.8h-3.1c-0.2,0-0.4-0.2-0.4-0.4c0-0.2,0.2-0.4,0.4-0.4h3c0.2,0,0.3-0.1,0.3-0.3c0,0,0,0,0-0.1
		c-0.3-0.9-1.1-1.5-2.1-1.5c-1.2,0-2.2,1-2.2,2.2c0,1.2,1,2.2,2.2,2.2c0.7,0,1.4-0.4,1.8-0.9c0.1-0.1,0.2-0.2,0.3-0.2
		c0.2,0,0.4,0.2,0.4,0.4c0,0.1,0,0.1-0.1,0.2l0,0c-0.5,0.8-1.4,1.3-2.4,1.3c-1.6,0-2.9-1.3-2.9-3c0-1.7,1.3-3,2.9-3
		c1.4,0,2.5,0.9,2.8,2.2c0,0.1,0,0.1,0,0.2C-4643.7,1839.4-4644.1,1839.8-4644.7,1839.8L-4644.7,1839.8z M-4645.6,1835.7h-2.2
		c-0.2,0-0.4-0.2-0.4-0.4c0-0.2,0.2-0.4,0.4-0.4h2.2c0.2,0,0.4,0.2,0.4,0.4C-4645.2,1835.5-4645.4,1835.7-4645.6,1835.7
		L-4645.6,1835.7z M-4655.3,1835.7c0.2,0,0.4,0.2,0.4,0.4s-0.2,0.4-0.4,0.4s-0.4-0.2-0.4-0.4S-4655.6,1835.7-4655.3,1835.7
		L-4655.3,1835.7z M-4650.5,1838.1c0.1,0,0.3,0.1,0.3,0.2c0.3,0.4,0.4,0.9,0.4,1.5c0,1.4-1.2,2.6-2.6,2.6h-0.6h-0.2h-1.7
		c-0.5,0-0.9-0.4-0.9-0.9v-3.4c0-0.5,0.4-0.9,0.9-0.9h2.1h0.2c1,0,1.9-0.8,1.9-1.9c0-1-0.8-1.9-1.9-1.9h-0.6h-1.5
		c-0.2,0-0.4,0.2-0.4,0.4v0.7c0,0.2-0.2,0.4-0.4,0.4s-0.4-0.2-0.4-0.4v-0.9c0-0.5,0.4-0.9,0.9-0.9h1.7h0.2h0.4
		c1.4,0,2.6,1.2,2.6,2.6c0,1.4-1.1,2.5-2.4,2.6v0h-0.4h-0.4h-1.6c-0.2,0-0.3,0.1-0.3,0.3v3.1c0,0.2,0.2,0.4,0.4,0.4h1.5h0.8
		c1,0,1.9-0.8,1.9-1.9c0-0.4-0.1-0.8-0.3-1.1l0,0c0-0.1-0.1-0.1-0.1-0.2C-4650.9,1838.3-4650.7,1838.1-4650.5,1838.1L-4650.5,1838.1
		z"/>
	<path class="st7" d="M-4613.4,1839.6c-1.5,1.7-2.7,2.5-3.6,2.5c-0.9,0-1.8-1.5-2.3-4c-0.3-1.3-0.5-1.8-0.6-1.9c0,0,0,0,0,0v0
		c0,0-0.1,0-0.1,0c-0.2,0-0.3-0.1-0.3-0.3c0-0.1,0.1-0.2,0.1-0.3v0c0.1-0.1,0.3-0.2,0.4-0.2c0.5,0,0.8,0.7,1.2,2.5
		c0.5,2.4,1.3,3.4,1.7,3.4c0.4,0,1.3-0.3,3.1-2.3c0.5-0.5,2-2.4,2-3.9c0-0.8-0.2-1.5-1.3-1.5c-1.4,0-2,0.9-2.3,1.5c0,0,0,0,0,0.1
		c0,0.1,0.1,0.2,0.2,0.2c0,0,0,0,0,0c0.1,0,0.2,0,0.2,0c0,0,0,0,0,0c0,0,0.1,0,0.1,0c0.5,0,0.7,0.2,0.7,0.7c0,0.7-1,2.3-1.4,2.7
		c-0.1,0.1-0.2,0.1-0.3,0.1c-0.4,0-0.7-0.7-1-2.1c0-0.2-0.1-0.4-0.1-0.7c-0.1-1-0.4-2.4-1-2.4c-0.7,0-1.7,0.9-2.4,1.5l0,0
		c-0.1,0.1-0.1,0.1-0.2,0.1c-0.2,0-0.3-0.1-0.3-0.3c0-0.1,0-0.2,0.1-0.2c0.7-0.7,1.8-1.7,2.8-1.7c1.3,0,1.6,1.8,1.7,3
		c0,0.2,0.1,0.5,0.1,0.6c0.1,0.7,0.3,1.1,0.4,1.4c0.4-0.5,1-1.6,1-1.9v0c0,0,0,0,0,0c0,0,0,0-0.1,0c0,0,0,0,0,0c0,0,0,0-0.1,0
		c0,0,0,0,0,0c-0.1,0-0.1,0-0.2,0c-0.5,0-0.8-0.4-0.8-0.8c0-0.1,0-0.2,0-0.3c0.3-0.9,1.2-2,2.9-2c0.9,0,2,0.4,2,2.2
		C-4611.3,1835.8-4611.5,1837.3-4613.4,1839.6L-4613.4,1839.6z M-4621.4,1836.2c-0.2,0-0.3-0.1-0.3-0.3c0-0.2,0.1-0.3,0.3-0.3
		c0.2,0,0.3,0.1,0.3,0.3C-4621.1,1836.1-4621.2,1836.2-4621.4,1836.2L-4621.4,1836.2z"/>
</g>
<rect id="rectangle_1_" x="-4723" y="1813" class="st6" width="11.8" height="41"/>
<line class="st8" x1="-4685" y1="1803" x2="-4578" y2="1803"/>
<g>
	<circle class="st9" cx="-4542.6" cy="1844.3" r="27.3"/>
	<circle class="st10" cx="-4513.8" cy="1861.6" r="17.4"/>
</g>
<g id="Columns_2_" class="st0">
	<g id="XMLID_128_">
		<path id="XMLID_129_" class="st1" d="M-4795.8,1952h77.4V-511.4h-77.4V1952z M-4682.7,1952h77.4V-511.4h-77.4V1952z
			 M-4569.7-511.4V1952h77.4V-511.4H-4569.7z"/>
	</g>
</g>
<rect x="-4833" y="1881" class="st2" width="374" height="67"/>
<rect id="XMLID_14_" x="-4714.4" y="1896.6" class="st14" width="132.1" height="10.6"/>
<text transform="matrix(0.996 0 0 1 -4703.3228 1904.9346)" class="st18 st19" style="fill:#92AFAD;">Design by Shiyi Liu @ 2017</text>
<g>
	<rect id="XMLID_160_" x="-4715" y="1908.8" class="st14" width="144" height="22.2"/>
	<text id="XMLID_159_" transform="matrix(0.996 0 0 1 -4684.0996 1917.1287)"><tspan x="0" y="0" class="st18 st19" style="fill:#92AFAD;">San Francisco, U.S.A</tspan><tspan x="-7.1" y="12" class="st18 st19" style="fill:#92AFAD;">poetrylizzy@gmail.com</tspan></text>
</g>
<rect id="bg_3_" x="-4832.1" y="1581" class="st2" width="373.1" height="300"/>
<rect id="element_3_" x="-4799.6" y="1580.3" class="st3" width="47.6" height="246"/>
<g>
	<g>
		<defs>
			<circle id="SVGID_5_" cx="-4507.5" cy="1646.6" r="38.6"/>
		</defs>
		<clipPath id="SVGID_6_">
			<use xlink:href="#SVGID_5_"  style="overflow:visible;"/>
		</clipPath>
		<g class="st12">
			<g>
				<path class="st5" d="M-4545.9,1608.2c0,0,9.4-1.6,4.7,6.5c-0.1,0.1-0.2,0.3-0.3,0.4c-0.7,1.2-4.8,8.1,4.8,6.7
					c10.5-1.5,4.8,7,4.8,7s-5.8,8.9,4.7,6.9s4.6,6.9,4.6,6.9s-6.7,9.3,4.8,7.1c11.5-2.2,4.3,7,4.3,7s-6.3,8.5,4.8,7
					c11.1-1.5,4.5,7.1,4.5,7.1s-6.4,7.8,4.4,6.8c10.8-1,5.4,7.1,5.4,7.1"/>
				<path class="st5" d="M-4565.2,1621.3c0,0,9.4-1.6,4.7,6.5c-0.1,0.1-0.2,0.3-0.3,0.4c-0.7,1.2-4.8,8.1,4.8,6.7
					c10.5-1.5,4.8,7,4.8,7s-5.8,8.9,4.7,6.9s4.6,6.9,4.6,6.9s-6.7,9.3,4.8,7.1c11.5-2.2,4.3,7,4.3,7s-6.3,8.5,4.8,7
					c11.1-1.5,4.5,7.1,4.5,7.1s-6.4,7.8,4.4,6.8s5.4,7.1,5.4,7.1"/>
				<path class="st5" d="M-4507.6,1582c0,0,9.4-1.6,4.7,6.5c-0.1,0.1-0.2,0.3-0.3,0.4c-0.7,1.2-4.8,8.1,4.8,6.7
					c10.5-1.5,4.8,7,4.8,7s-5.8,8.9,4.7,6.9c10.4-2.1,4.6,6.9,4.6,6.9s-6.7,9.3,4.8,7.1c11.5-2.2,4.3,7,4.3,7s-6.3,8.5,4.8,7
					c11.1-1.5,4.5,7.1,4.5,7.1s-6.4,7.8,4.4,6.8s5.4,7.1,5.4,7.1"/>
				<path class="st5" d="M-4526.8,1595c0,0,9.4-1.6,4.7,6.5c-0.1,0.1-0.2,0.3-0.3,0.4c-0.7,1.2-4.8,8.1,4.8,6.7
					c10.5-1.5,4.8,7,4.8,7s-5.8,8.9,4.7,6.9s4.6,6.9,4.6,6.9s-6.7,9.3,4.8,7.1c11.5-2.2,4.3,7,4.3,7s-6.3,8.5,4.8,7s4.5,7.1,4.5,7.1
					s-6.4,7.8,4.4,6.8s5.4,7.1,5.4,7.1"/>
			</g>
		</g>
	</g>
	<g>
		<circle id="XMLID_33_" class="st6" cx="-4529.3" cy="1673.2" r="21.5"/>
	</g>
</g>
<rect id="XMLID_11_" x="-4685.3" y="1675.7" class="st14" width="199.3" height="37.3"/>
<text transform="matrix(1 0 0 1 -4685.2998 1703.0059)" class="st15 st16 st17">CONTACT ME</text>
<g>
	<rect id="XMLID_10_" x="-4685.9" y="1740.3" class="st14" width="189.9" height="118.7"/>
	<text transform="matrix(1 0 0 1 -4685.873 1748.6777)"><tspan x="0" y="0" class="st15 st18 st19">We definitely should get in touch</tspan><tspan x="0" y="24" class="st15 st18 st19">Please feel free to contact me at anytime!</tspan><tspan x="0" y="48" class="st15 st18 st19">poetrylizzy@gmail.com</tspan><tspan x="0" y="72" class="st15 st18 st19">Follow Me</tspan></text>
	<path class="st7" d="M-4676.4,1842.7h-1.7c-0.5,0-0.9-0.4-0.9-0.9v0v-2.9c0-0.4-0.3-0.7-0.7-0.7s-0.7,0.3-0.7,0.7v2.9v0
		c0,0.2-0.1,0.4-0.2,0.6c-0.1,0.1-0.2,0.1-0.3,0.1c-0.2,0-0.4-0.2-0.4-0.4c0-0.1,0.1-0.2,0.1-0.3c0-0.1,0.1-0.1,0.1-0.2v-0.5v-0.7
		v-1.6c0-0.7,0.6-1.3,1.4-1.3s1.4,0.6,1.4,1.3v2.3c0,0,0,0,0,0.1c0,0,0,0,0,0v0.4c0,0.2,0.2,0.3,0.3,0.3h1.4c0.2,0,0.3-0.2,0.3-0.3
		v-3.1c0,0,0,0,0,0c-0.1-1.5-1.3-2.7-2.7-2.7c-0.6,0-1.2,0.2-1.6,0.6c0,0-0.1,0-0.1,0c-0.1,0-0.3-0.1-0.3-0.3c0,0,0,0,0,0
		c0-0.2-0.2-0.3-0.3-0.3h-1c-0.4,0-0.7,0.3-0.7,0.7v5.1c0,0,0,0.1,0,0.1c0,0,0,0.1,0,0.1c0,0.5-0.4,0.9-0.9,0.9h-0.1h-1.7
		c-0.5,0-0.9-0.4-0.9-0.9v-5.8c0-0.5,0.4-0.9,0.9-0.9h0.9c0.6,0,1-0.5,1-1s-0.5-1-1-1c-0.6,0-1,0.5-1,1c0,0.2-0.2,0.3-0.3,0.3
		s-0.3-0.2-0.3-0.3c0-0.9,0.8-1.7,1.7-1.7c0.9,0,1.7,0.8,1.7,1.7s-0.8,1.7-1.7,1.7h-0.7c-0.2,0-0.3,0.2-0.3,0.3v5.5
		c0,0.2,0.2,0.3,0.3,0.3h1.4c0.2,0,0.3-0.2,0.3-0.3v-5.1c0-0.8,0.6-1.4,1.4-1.4h1.2c0.2,0,0.4,0.1,0.6,0.2c0,0,0,0,0,0
		c0.1,0.1,0.1,0.1,0.2,0.1c0,0,0.1,0,0.1,0c0.4-0.2,0.9-0.3,1.3-0.3c1.8,0,3.2,1.4,3.4,3.1c0,0.1,0,0.1,0,0.2v3.4
		C-4675.5,1842.3-4675.9,1842.7-4676.4,1842.7L-4676.4,1842.7z M-4682,1842c0.2,0,0.3,0.2,0.3,0.3c0,0.2-0.2,0.3-0.3,0.3
		s-0.3-0.2-0.3-0.3C-4682.4,1842.1-4682.2,1842-4682,1842L-4682,1842z"/>
	<path class="st7" d="M-4644.7,1839.8h-3.1c-0.2,0-0.4-0.2-0.4-0.4c0-0.2,0.2-0.4,0.4-0.4h3c0.2,0,0.3-0.1,0.3-0.3c0,0,0,0,0-0.1
		c-0.3-0.9-1.1-1.5-2.1-1.5c-1.2,0-2.2,1-2.2,2.2c0,1.2,1,2.2,2.2,2.2c0.7,0,1.4-0.4,1.8-0.9c0.1-0.1,0.2-0.2,0.3-0.2
		c0.2,0,0.4,0.2,0.4,0.4c0,0.1,0,0.1-0.1,0.2l0,0c-0.5,0.8-1.4,1.3-2.4,1.3c-1.6,0-2.9-1.3-2.9-3c0-1.7,1.3-3,2.9-3
		c1.4,0,2.5,0.9,2.8,2.2c0,0.1,0,0.1,0,0.2C-4643.7,1839.4-4644.1,1839.8-4644.7,1839.8L-4644.7,1839.8z M-4645.6,1835.7h-2.2
		c-0.2,0-0.4-0.2-0.4-0.4c0-0.2,0.2-0.4,0.4-0.4h2.2c0.2,0,0.4,0.2,0.4,0.4C-4645.2,1835.5-4645.4,1835.7-4645.6,1835.7
		L-4645.6,1835.7z M-4655.3,1835.7c0.2,0,0.4,0.2,0.4,0.4s-0.2,0.4-0.4,0.4s-0.4-0.2-0.4-0.4S-4655.6,1835.7-4655.3,1835.7
		L-4655.3,1835.7z M-4650.5,1838.1c0.1,0,0.3,0.1,0.3,0.2c0.3,0.4,0.4,0.9,0.4,1.5c0,1.4-1.2,2.6-2.6,2.6h-0.6h-0.2h-1.7
		c-0.5,0-0.9-0.4-0.9-0.9v-3.4c0-0.5,0.4-0.9,0.9-0.9h2.1h0.2c1,0,1.9-0.8,1.9-1.9c0-1-0.8-1.9-1.9-1.9h-0.6h-1.5
		c-0.2,0-0.4,0.2-0.4,0.4v0.7c0,0.2-0.2,0.4-0.4,0.4s-0.4-0.2-0.4-0.4v-0.9c0-0.5,0.4-0.9,0.9-0.9h1.7h0.2h0.4
		c1.4,0,2.6,1.2,2.6,2.6c0,1.4-1.1,2.5-2.4,2.6v0h-0.4h-0.4h-1.6c-0.2,0-0.3,0.1-0.3,0.3v3.1c0,0.2,0.2,0.4,0.4,0.4h1.5h0.8
		c1,0,1.9-0.8,1.9-1.9c0-0.4-0.1-0.8-0.3-1.1l0,0c0-0.1-0.1-0.1-0.1-0.2C-4650.9,1838.3-4650.7,1838.1-4650.5,1838.1L-4650.5,1838.1
		z"/>
	<path class="st7" d="M-4613.4,1839.6c-1.5,1.7-2.7,2.5-3.6,2.5c-0.9,0-1.8-1.5-2.3-4c-0.3-1.3-0.5-1.8-0.6-1.9c0,0,0,0,0,0v0
		c0,0-0.1,0-0.1,0c-0.2,0-0.3-0.1-0.3-0.3c0-0.1,0.1-0.2,0.1-0.3v0c0.1-0.1,0.3-0.2,0.4-0.2c0.5,0,0.8,0.7,1.2,2.5
		c0.5,2.4,1.3,3.4,1.7,3.4c0.4,0,1.3-0.3,3.1-2.3c0.5-0.5,2-2.4,2-3.9c0-0.8-0.2-1.5-1.3-1.5c-1.4,0-2,0.9-2.3,1.5c0,0,0,0,0,0.1
		c0,0.1,0.1,0.2,0.2,0.2c0,0,0,0,0,0c0.1,0,0.2,0,0.2,0c0,0,0,0,0,0c0,0,0.1,0,0.1,0c0.5,0,0.7,0.2,0.7,0.7c0,0.7-1,2.3-1.4,2.7
		c-0.1,0.1-0.2,0.1-0.3,0.1c-0.4,0-0.7-0.7-1-2.1c0-0.2-0.1-0.4-0.1-0.7c-0.1-1-0.4-2.4-1-2.4c-0.7,0-1.7,0.9-2.4,1.5l0,0
		c-0.1,0.1-0.1,0.1-0.2,0.1c-0.2,0-0.3-0.1-0.3-0.3c0-0.1,0-0.2,0.1-0.2c0.7-0.7,1.8-1.7,2.8-1.7c1.3,0,1.6,1.8,1.7,3
		c0,0.2,0.1,0.5,0.1,0.6c0.1,0.7,0.3,1.1,0.4,1.4c0.4-0.5,1-1.6,1-1.9v0c0,0,0,0,0,0c0,0,0,0-0.1,0c0,0,0,0,0,0c0,0,0,0-0.1,0
		c0,0,0,0,0,0c-0.1,0-0.1,0-0.2,0c-0.5,0-0.8-0.4-0.8-0.8c0-0.1,0-0.2,0-0.3c0.3-0.9,1.2-2,2.9-2c0.9,0,2,0.4,2,2.2
		C-4611.3,1835.8-4611.5,1837.3-4613.4,1839.6L-4613.4,1839.6z M-4621.4,1836.2c-0.2,0-0.3-0.1-0.3-0.3c0-0.2,0.1-0.3,0.3-0.3
		c0.2,0,0.3,0.1,0.3,0.3C-4621.1,1836.1-4621.2,1836.2-4621.4,1836.2L-4621.4,1836.2z"/>
</g>
<rect id="rectangle_2_" x="-4723" y="1813" class="st6" width="11.8" height="41"/>
<line class="st8" x1="-4685" y1="1803" x2="-4578" y2="1803"/>
<g>
	<circle class="st9" cx="-4542.6" cy="1844.3" r="27.3"/>
	<circle class="st10" cx="-4513.8" cy="1861.6" r="17.4"/>
</g>
<rect id="bg_4_" x="0" y="0.7" class="st2" width="373.1" height="300"/>
<rect id="element_4_" x="32.6" y="0" class="st3" width="47.6" height="246"/>
<g id="XMLID_146_">
	<g id="XMLID_148_">
		<defs>
			<circle id="XMLID_149_" cx="324.6" cy="66.3" r="38.6"/>
		</defs>
		<clipPath id="XMLID_25_">
			<use xlink:href="#XMLID_149_"  style="overflow:visible;"/>
		</clipPath>
		<g id="XMLID_150_" class="st13">
			<g id="XMLID_151_">
				<path id="XMLID_155_" class="st5" d="M286.3,27.9c0,0,9.4-1.6,4.7,6.5c-0.1,0.1-0.2,0.3-0.3,0.4c-0.7,1.2-4.8,8.1,4.8,6.7
					c10.5-1.5,4.8,7,4.8,7s-5.8,8.9,4.7,6.9c10.4-2.1,4.6,6.9,4.6,6.9s-6.7,9.3,4.8,7.1s4.3,7,4.3,7s-6.3,8.5,4.8,7
					c11.1-1.5,4.5,7.1,4.5,7.1s-6.4,7.8,4.4,6.8c10.8-1,5.4,7.1,5.4,7.1"/>
				<path id="XMLID_154_" class="st5" d="M267,41c0,0,9.4-1.6,4.7,6.5c-0.1,0.1-0.2,0.3-0.3,0.4c-0.7,1.2-4.8,8.1,4.8,6.7
					c10.5-1.5,4.8,7,4.8,7s-5.8,8.9,4.7,6.9c10.4-2.1,4.6,6.9,4.6,6.9s-6.7,9.3,4.8,7.1s4.3,7,4.3,7s-6.3,8.5,4.8,7
					c11.1-1.5,4.5,7.1,4.5,7.1s-6.4,7.8,4.4,6.8c10.8-1,5.4,7.1,5.4,7.1"/>
				<path id="XMLID_153_" class="st5" d="M324.6,1.7c0,0,9.4-1.6,4.7,6.5c-0.1,0.1-0.2,0.3-0.3,0.4c-0.7,1.2-4.8,8.1,4.8,6.7
					c10.5-1.5,4.8,7,4.8,7s-5.8,8.9,4.7,6.9c10.4-2.1,4.6,6.9,4.6,6.9s-6.7,9.3,4.8,7.1s4.3,7,4.3,7s-6.3,8.5,4.8,7
					c11.1-1.5,4.5,7.1,4.5,7.1s-6.4,7.8,4.4,6.8c10.8-1,5.4,7.1,5.4,7.1"/>
				<path id="XMLID_152_" class="st5" d="M305.3,14.7c0,0,9.4-1.6,4.7,6.5c-0.1,0.1-0.2,0.3-0.3,0.4c-0.7,1.2-4.8,8.1,4.8,6.7
					c10.5-1.5,4.8,7,4.8,7s-5.8,8.9,4.7,6.9c10.4-2.1,4.6,6.9,4.6,6.9s-6.7,9.3,4.8,7.1s4.3,7,4.3,7s-6.3,8.5,4.8,7
					c11.1-1.5,4.5,7.1,4.5,7.1s-6.4,7.8,4.4,6.8c10.8-1,5.4,7.1,5.4,7.1"/>
			</g>
		</g>
	</g>
	<g id="XMLID_147_">
		<circle id="XMLID_121_" class="st6" cx="302.8" cy="92.9" r="21.5"/>
	</g>
</g>
<rect id="XMLID_145_" x="146.8" y="95.4" class="st14" width="199.3" height="37.3"/>
<text id="XMLID_144_" transform="matrix(1 0 0 1 146.8485 122.7059)" class="st15 st16 st17">CONTACT ME</text>
<g id="XMLID_22_">
	<rect id="XMLID_143_" x="146.3" y="160" class="st14" width="189.9" height="118.7"/>
	<text id="XMLID_142_" transform="matrix(1 0 0 1 146.2752 168.3777)"><tspan x="0" y="0" class="st15 st18 st19">We definitely should get in touch</tspan><tspan x="0" y="24" class="st15 st18 st19">Please feel free to contact me at anytime!</tspan><tspan x="0" y="48" class="st15 st18 st19">poetrylizzy@gmail.com</tspan><tspan x="0" y="72" class="st15 st18 st19">Follow Me</tspan></text>
	<path id="XMLID_118_" class="st7" d="M155.8,262.4h-1.7c-0.5,0-0.9-0.4-0.9-0.9v0v-2.9c0-0.4-0.3-0.7-0.7-0.7
		c-0.4,0-0.7,0.3-0.7,0.7v2.9v0c0,0.2-0.1,0.4-0.2,0.6c-0.1,0.1-0.2,0.1-0.3,0.1c-0.2,0-0.4-0.2-0.4-0.4c0-0.1,0.1-0.2,0.1-0.3
		c0-0.1,0.1-0.1,0.1-0.2v-0.5v-0.7v-1.6c0-0.7,0.6-1.3,1.4-1.3c0.8,0,1.4,0.6,1.4,1.3v2.3c0,0,0,0,0,0.1c0,0,0,0,0,0v0.4
		c0,0.2,0.2,0.3,0.3,0.3h1.4c0.2,0,0.3-0.2,0.3-0.3v-3.1c0,0,0,0,0,0c-0.1-1.5-1.3-2.7-2.7-2.7c-0.6,0-1.2,0.2-1.6,0.6
		c0,0-0.1,0-0.1,0c-0.1,0-0.3-0.1-0.3-0.3c0,0,0,0,0,0c0-0.2-0.2-0.3-0.3-0.3h-1c-0.4,0-0.7,0.3-0.7,0.7v5.1c0,0,0,0.1,0,0.1
		c0,0,0,0.1,0,0.1c0,0.5-0.4,0.9-0.9,0.9h-0.1h-1.7c-0.5,0-0.9-0.4-0.9-0.9v-5.8c0-0.5,0.4-0.9,0.9-0.9h0.9c0.6,0,1-0.5,1-1
		s-0.5-1-1-1s-1,0.5-1,1c0,0.2-0.2,0.3-0.3,0.3c-0.2,0-0.3-0.2-0.3-0.3c0-0.9,0.8-1.7,1.7-1.7s1.7,0.8,1.7,1.7s-0.8,1.7-1.7,1.7
		h-0.7c-0.2,0-0.3,0.2-0.3,0.3v5.5c0,0.2,0.2,0.3,0.3,0.3h1.4c0.2,0,0.3-0.2,0.3-0.3v-5.1c0-0.8,0.6-1.4,1.4-1.4h1.2
		c0.2,0,0.4,0.1,0.6,0.2c0,0,0,0,0,0c0.1,0.1,0.1,0.1,0.2,0.1c0,0,0.1,0,0.1,0c0.4-0.2,0.9-0.3,1.3-0.3c1.8,0,3.2,1.4,3.4,3.1
		c0,0.1,0,0.1,0,0.2v3.4C156.6,262,156.2,262.4,155.8,262.4L155.8,262.4z M150.1,261.7c0.2,0,0.3,0.2,0.3,0.3s-0.2,0.3-0.3,0.3
		c-0.2,0-0.3-0.2-0.3-0.3S149.9,261.7,150.1,261.7L150.1,261.7z"/>
	<path id="XMLID_48_" class="st7" d="M187.5,259.5h-3.1c-0.2,0-0.4-0.2-0.4-0.4s0.2-0.4,0.4-0.4h3c0.2,0,0.3-0.1,0.3-0.3
		c0,0,0,0,0-0.1c-0.3-0.9-1.1-1.5-2.1-1.5c-1.2,0-2.2,1-2.2,2.2c0,1.2,1,2.2,2.2,2.2c0.7,0,1.4-0.4,1.8-0.9c0.1-0.1,0.2-0.2,0.3-0.2
		c0.2,0,0.4,0.2,0.4,0.4c0,0.1,0,0.1-0.1,0.2l0,0c-0.5,0.8-1.4,1.3-2.4,1.3c-1.6,0-2.9-1.3-2.9-3c0-1.7,1.3-3,2.9-3
		c1.4,0,2.5,0.9,2.8,2.2c0,0.1,0,0.1,0,0.2C188.4,259.1,188,259.5,187.5,259.5L187.5,259.5z M186.5,255.4h-2.2
		c-0.2,0-0.4-0.2-0.4-0.4c0-0.2,0.2-0.4,0.4-0.4h2.2c0.2,0,0.4,0.2,0.4,0.4C186.9,255.2,186.8,255.4,186.5,255.4L186.5,255.4z
		 M176.8,255.4c0.2,0,0.4,0.2,0.4,0.4c0,0.2-0.2,0.4-0.4,0.4c-0.2,0-0.4-0.2-0.4-0.4C176.4,255.5,176.6,255.4,176.8,255.4
		L176.8,255.4z M181.6,257.8c0.1,0,0.3,0.1,0.3,0.2c0.3,0.4,0.4,0.9,0.4,1.5c0,1.4-1.2,2.6-2.6,2.6h-0.6H179h-1.7
		c-0.5,0-0.9-0.4-0.9-0.9v-3.4c0-0.5,0.4-0.9,0.9-0.9h2.1h0.2c1,0,1.9-0.8,1.9-1.9c0-1-0.8-1.9-1.9-1.9H179h-1.5
		c-0.2,0-0.4,0.2-0.4,0.4v0.7c0,0.2-0.2,0.4-0.4,0.4c-0.2,0-0.4-0.2-0.4-0.4v-0.9c0-0.5,0.4-0.9,0.9-0.9h1.7h0.2h0.4
		c1.4,0,2.6,1.2,2.6,2.6c0,1.4-1.1,2.5-2.4,2.6v0h-0.4H179h-1.6c-0.2,0-0.3,0.1-0.3,0.3v3.1c0,0.2,0.2,0.4,0.4,0.4h1.5h0.7
		c1,0,1.9-0.8,1.9-1.9c0-0.4-0.1-0.8-0.3-1.1l0,0c0-0.1-0.1-0.1-0.1-0.2C181.3,258,181.4,257.8,181.6,257.8L181.6,257.8z"/>
	<path id="XMLID_23_" class="st7" d="M218.7,259.3c-1.5,1.7-2.7,2.5-3.6,2.5c-0.9,0-1.8-1.5-2.3-4c-0.3-1.3-0.5-1.8-0.6-1.9
		c0,0,0,0,0,0v0c0,0-0.1,0-0.1,0c-0.2,0-0.3-0.1-0.3-0.3c0-0.1,0.1-0.2,0.1-0.3l0,0c0.1-0.1,0.3-0.2,0.4-0.2c0.5,0,0.8,0.7,1.2,2.5
		c0.5,2.4,1.3,3.4,1.7,3.4c0.4,0,1.3-0.3,3.1-2.3c0.5-0.5,2-2.4,2-3.9c0-0.8-0.2-1.5-1.3-1.5c-1.4,0-2,0.9-2.3,1.5c0,0,0,0,0,0.1
		c0,0.1,0.1,0.2,0.2,0.2c0,0,0,0,0,0c0.1,0,0.2,0,0.2,0c0,0,0,0,0,0c0,0,0.1,0,0.1,0c0.5,0,0.7,0.2,0.7,0.7c0,0.7-1,2.3-1.4,2.7
		c-0.1,0.1-0.2,0.1-0.3,0.1c-0.4,0-0.7-0.7-1-2.1c0-0.2-0.1-0.4-0.1-0.7c-0.1-1-0.4-2.4-1-2.4c-0.7,0-1.7,0.9-2.4,1.5l0,0
		c-0.1,0.1-0.1,0.1-0.2,0.1c-0.2,0-0.3-0.1-0.3-0.3c0-0.1,0-0.2,0.1-0.2c0.7-0.7,1.8-1.7,2.8-1.7c1.3,0,1.6,1.8,1.7,3
		c0,0.2,0.1,0.5,0.1,0.6c0.1,0.7,0.3,1.1,0.4,1.4c0.4-0.5,1-1.6,1-1.9v0c0,0,0,0,0,0c0,0,0,0-0.1,0c0,0,0,0,0,0c0,0,0,0-0.1,0
		c0,0,0,0,0,0c-0.1,0-0.1,0-0.2,0c-0.5,0-0.8-0.4-0.8-0.8c0-0.1,0-0.2,0-0.3c0.3-0.9,1.2-2,2.9-2c0.9,0,2,0.4,2,2.2
		C220.9,255.5,220.6,257,218.7,259.3L218.7,259.3z M210.7,255.9c-0.2,0-0.3-0.1-0.3-0.3s0.1-0.3,0.3-0.3s0.3,0.1,0.3,0.3
		S210.9,255.9,210.7,255.9L210.7,255.9z"/>
</g>
<rect id="rectangle_3_" x="109.1" y="232.7" class="st6" width="11.8" height="41"/>
<line id="XMLID_20_" class="st8" x1="147.1" y1="222.7" x2="254.1" y2="222.7"/>
<g id="XMLID_16_">
	<circle id="XMLID_18_" class="st9" cx="289.5" cy="264" r="27.3"/>
	<circle id="XMLID_17_" class="st10" cx="318.4" cy="281.3" r="17.4"/>
</g>
</svg>
