<?xml version="1.0" encoding="utf-8"?>
<!-- Generator: Adobe Illustrator 19.0.0, SVG Export Plug-In . SVG Version: 6.00 Build 0)  -->
<svg version="1.1" id="图层_1" xmlns="http://www.w3.org/2000/svg" xmlns:xlink="http://www.w3.org/1999/xlink" x="0px" y="0px"
	 viewBox="0 0 79.4 79.4" style="enable-background:new 0 0 79.4 79.4;" xml:space="preserve">
<style type="text/css">
	.st0{clip-path:url(#XMLID_2_);}
	.st1{fill:#5A4643;}
	.st2{fill:#FFDFCB;}
	.st3{fill:#E9A085;}
	.st4{fill:#DB6A5E;}
	.st5{fill:#9EB1BA;}
	.st6{fill:#070001;}
</style>
<g id="XMLID_21_">
	<defs>
		<circle id="XMLID_22_" cx="39.6" cy="39.7" r="39.7"/>
	</defs>
	<use xlink:href="#XMLID_22_"  style="overflow:visible;fill:#8081B7;"/>
	<clipPath id="XMLID_2_">
		<use xlink:href="#XMLID_22_"  style="overflow:visible;"/>
	</clipPath>
	<g id="XMLID_23_" class="st0">
		<path id="XMLID_32_" class="st1" d="M18.1,55.4c-1.7-0.6-3.1-2-3.8-3.6c-0.9-2.1-0.5-4.7-0.6-6.9c-0.1-2.8,0.8-5.8,1.7-8.4
			c1.7-5,4.7-9.5,6.2-14.5c1.2-4.2,4.2-8.4,8.2-10.4c0.6-0.3,2.4-0.5,2.7-0.9c0.1-0.1,4.3-4.2,13.7-1.2c3.2,1,5.8,3.3,7.8,5.9
			c1.9,2.6,2.7,5.4,4.1,8.3c1.9,3.9,4.7,7.2,6.7,11.1c3.3,6.6,1.9,17.6-6.1,20.1c-2.1,0.7-4.4,1-6.2,2.4c-0.8,0.6-1.4,1.3-2.2,1.8
			c-2.7,2-6.8,1.7-9.8,0.8c-2.4-0.8-4,0.4-6.3,0.4c-2.6,0.1-5.2-0.6-7.4-1.9c-1.2-0.7-2.2-1.5-3.5-2c-1.4-0.5-3-0.4-4.5-0.8
			C18.5,55.6,18.3,55.5,18.1,55.4z"/>
		<path id="XMLID_31_" class="st2" d="M30.7,71.9c-2-1.5-3.2-4.1-3-6.6c0-0.4,0-1,0.2-1.4c0.3-0.4,0.7-0.7,1.1-1
			c0.9-0.7,1.9-1.4,2.8-2.2c0.7-0.6,1.4-1.2,2-1.9c0.1-0.1,1.2-1.9,1.2-1.9h7.6c-0.1,0,0.2,0.7,0.3,0.8c0.6,1,1.6,1.9,2.6,2.6
			c1.1,0.9,2.2,1.7,3.4,2.4c0.1,0.1,0.2,0.1,0.3,0.3c0,0,0,0.1,0,0.1c0.1,0.7,0.2,1.3,0,2c-0.2,0.7-0.6,1.2-1,1.8
			c-0.8,1.2-1.7,2.5-2.9,3.3c-1.1,0.7-2.4,1.1-3.6,1.5c-1.7,0.6-3.4,1.2-5.1,1.2c-2.8,0.1-5.5-1.4-7.9-2.8"/>
		<path id="XMLID_30_" class="st2" d="M49.2,54.6c-2.5,1.8-5.4,3.5-8.4,4.1c-3,0.6-6.5-0.6-9.1-2.1c-4.5-2.6-7.1-6.9-7.2-12.1
			c-0.1-3.3-0.6-7,0-10.3c0.4-2.6,2.9-4.3,5.4-4.8c0.8-0.1,1.7-0.3,2-0.9c0.1-0.2,0.1-0.4,0.2-0.6c0.1-0.9,0-1.9,0-2.8
			c0-0.9,0.1-1.8,0.4-2.6c1.3,1.2,1.9,3.1,3.2,4.4c1.3,1.4,3,2.4,4.8,2.9c2,0.6,4,0.6,6,1.1c3.3,0.8,6.9,3.3,8.3,6.4
			c1.5,3.3-0.4,8.7-1.6,12c-0.4,1.1-0.9,2.2-1.6,3.1C50.9,53.2,50.1,53.9,49.2,54.6z"/>
		<ellipse id="XMLID_29_" class="st3" cx="49.9" cy="43.4" rx="2.6" ry="2.1"/>
		<ellipse id="XMLID_28_" class="st3" cx="28.6" cy="43.4" rx="2.6" ry="2.1"/>
		<path id="XMLID_27_" class="st4" d="M34.3,43.4c0.1,0,10.7,0,10.7,0c0,0-2.3,4.5-2.6,4.9c-0.9,0.9-1.8,1.5-3.1,1.4
			c-1.9-0.1-3-1.9-3.9-3.5C35.2,46.1,34,43.4,34.3,43.4z"/>
		<path id="XMLID_26_" class="st5" d="M19.8,90.4h38.2c0,0,0.1-15.1-3.3-21.4c0,0-1.8-4.2-6.3-6.5c0,0-1.1,5.6-7.6,6.7
			c-6.5,1.1-10.5-3.4-12.3-6c0,0-5.1,2.6-7.3,10.2C19.2,81,19.8,90.4,19.8,90.4z"/>
		<ellipse id="XMLID_25_" class="st6" cx="29.8" cy="37.5" rx="1.2" ry="1.5"/>
		<ellipse id="XMLID_24_" class="st6" cx="49.1" cy="37.5" rx="1.2" ry="1.5"/>
	</g>
</g>
</svg>
