<?xml version="1.0" encoding="utf-8"?>
<!-- Generator: Adobe Illustrator 19.0.0, SVG Export Plug-In . SVG Version: 6.00 Build 0)  -->
<svg version="1.1" id="图层_1" xmlns="http://www.w3.org/2000/svg" xmlns:xlink="http://www.w3.org/1999/xlink" x="0px" y="0px"
	 viewBox="0 0 78.2 78.2" style="enable-background:new 0 0 78.2 78.2;" xml:space="preserve">
<style type="text/css">
	.st0{clip-path:url(#XMLID_2_);}
	.st1{fill:#F7C4A1;}
	.st2{fill:#544741;}
	.st3{fill:#FBDDC7;}
	.st4{fill:#EF9D96;}
	.st5{fill:#040000;}
	.st6{fill:#DB6A5E;}
	.st7{fill:#9EB1BA;}
</style>
<g id="XMLID_21_">
	<defs>
		<circle id="XMLID_22_" cx="39.2" cy="39.1" r="39.1"/>
	</defs>
	<use xlink:href="#XMLID_22_"  style="overflow:visible;fill:#6593C7;"/>
	<clipPath id="XMLID_2_">
		<use xlink:href="#XMLID_22_"  style="overflow:visible;"/>
	</clipPath>
	<g id="XMLID_23_" class="st0">
		<path id="XMLID_36_" class="st1" d="M40.2,67.6c1.3-0.8,5.2-5.4,6.4-6.8c-1.6-0.8-1.3-2.9-1.3-4.4c0-0.2,0-0.5-0.2-0.6
			c-0.1-0.1-0.2-0.1-0.4-0.1c-1.6-0.1-3.2-0.1-4.8-0.1c-1.6,0-3.1,0-4.7-0.1c-0.1,0-0.1,0-0.2,0c-0.1,0-0.1,0.1-0.1,0.2
			c0,0.9,0,1.7-0.1,2.6c-0.2,1-0.6,2-1.5,2.5C35.4,63.5,39.1,68.2,40.2,67.6z"/>
		<path id="XMLID_35_" class="st2" d="M56.2,40.8c0,0,4-10,1.3-19.4c-1.8-6.3-9.1-8.5-14.9-9c-3.2-0.3-6.5-0.1-9.7,0.6
			c-4.5,0.9-8.5,2-13.1,0.4c-0.5-0.2-1-0.4-1.5-0.3c-0.5,0-1,0.4-1,0.9c0,0.2,0.1,0.5,0.2,0.7c0.7,1.3,1.7,2.4,2.9,3.3
			c-0.5,0-1-0.2-1.5-0.3c-0.5-0.1-1.1,0-1.3,0.5c-0.2,0.3-0.1,0.6-0.1,0.9c0.3,1.6,1.3,3,2.7,3.9c-0.5-0.4-1.3-0.1-1.6,0.5
			c-0.3,0.6-0.1,1.3,0.3,1.9c0.4,0.5,0.8,1,1.2,1.5c1.4,1.8,1,4.1,1.2,6.3c0.4,2.9,0.2,6.9,3.2,8.5C27.5,43,56.2,40.8,56.2,40.8z"/>
		<path id="XMLID_34_" class="st3" d="M27.5,25c0,0,2.9,6.7,11.8,6.3c9-0.4,10.1-0.3,12.8,1.9c2.7,2.2,1.7,11.1,1.6,13.4
			c-0.1,2.3-3.6,13.2-13.3,13.3s-13.2-9.6-13.6-12.1c-0.4-2.4-1-14-1-14S27.7,29,27.5,25z"/>
		<path id="XMLID_33_" class="st3" d="M53.1,40.3c0,0,0.4-2.6,2.3-1.8c2,0.8,1.4,5.5-2.3,6.3"/>
		<path id="XMLID_32_" class="st3" d="M26.7,40.3c0,0-0.4-2.6-2.3-1.8s-1.4,5.5,2.3,6.3"/>
		<ellipse id="XMLID_31_" class="st4" cx="30.7" cy="45.3" rx="2.3" ry="1.8"/>
		<ellipse id="XMLID_30_" class="st4" cx="49.7" cy="45.3" rx="2.3" ry="1.8"/>
		<ellipse id="XMLID_29_" class="st5" cx="31.5" cy="39.9" rx="1" ry="1.4"/>
		<ellipse id="XMLID_28_" class="st5" cx="48.4" cy="39.9" rx="1" ry="1.4"/>
		<path id="XMLID_27_" class="st6" d="M35,48h10c0,0-0.7,5-5,5.1C35.8,53.1,35,48,35,48z"/>
		<g id="XMLID_24_">
			<path id="XMLID_26_" class="st7" d="M49.5,62.2c-1.2-0.6-2.2-1.1-2.9-1.4c-1.2,1.4-5.1,6-6.4,6.8c-1.1,0.7-4.8-4-6.9-6.8
				c-0.7,0.4-1.7,0.8-2.9,1.4C33.3,74.2,41,85.7,41,85.7C45.3,77.9,48.2,67.5,49.5,62.2z"/>
			<path id="XMLID_25_" class="st7" d="M59.4,75.6c-1.6-7.9-6.4-11.5-9.9-13.4c-1.3,5.3-4.2,15.6-8.5,23.5c0,0-7.7-11.5-10.6-23.5
				c-3.5,1.9-8.4,5.4-10,13.4c-1.1,5.2-1.5,10-1.7,13.5h42.5C60.9,85.6,60.4,80.8,59.4,75.6z"/>
		</g>
	</g>
</g>
</svg>
