<?xml version="1.0" encoding="utf-8"?>
<!-- Generator: Adobe Illustrator 19.0.0, SVG Export Plug-In . SVG Version: 6.00 Build 0)  -->
<svg version="1.1" id="图层_1" xmlns="http://www.w3.org/2000/svg" xmlns:xlink="http://www.w3.org/1999/xlink" x="0px" y="0px"
	 viewBox="0 0 375 142.7" style="enable-background:new 0 0 375 142.7;" xml:space="preserve">
<style type="text/css">
	.st0{fill-rule:evenodd;clip-rule:evenodd;fill:#FFFFFF;stroke:#FFFFFF;stroke-width:1.0112;stroke-miterlimit:10;}
	.st1{opacity:0.5;fill:#C54087;}
	.st2{fill:#5A4643;}
	.st3{fill:#FFDFCB;}
	.st4{fill:#9CAEB6;}
	.st5{fill:#201D1E;}
	.st6{fill:#B55463;}
	.st7{fill:#7E3D43;}
	.st8{fill:#FFFFFF;}
	.st9{fill:#6593C7;}
	.st10{fill:none;stroke:#424042;stroke-width:1.2425;stroke-miterlimit:10;}
	.st11{fill:#424042;}
</style>
<rect id="XMLID_43_" x="-0.5" y="-341" class="st0" width="374" height="4135"/>
<rect id="XMLID_42_" x="0.3" y="0.2" class="st1" width="375" height="142.7"/>
<g id="XMLID_37_">
	<path id="XMLID_41_" class="st2" d="M164.3,92.3c-2.1-0.8-3.8-2.5-4.7-4.5c-1.1-2.6-0.6-5.8-0.6-8.5c-0.1-3.5,1.1-7.1,2.3-10.4
		c2.2-6.2,6-11.7,7.8-17.9c1.6-5.2,5.3-10.4,10.2-12.7c0.8-0.4,2.9-0.6,3.4-1c0.1-0.1,5.4-5.2,17-1.3c3.9,1.3,7.1,4.1,9.5,7.5
		c2.3,3.3,3.2,6.7,4.9,10.3c2.3,4.8,5.7,9,8,13.8c3.9,8.2,2.1,21.7-7.8,24.8c-2.6,0.8-5.5,1.2-7.7,2.8c-0.9,0.7-1.7,1.6-2.7,2.2
		c-3.4,2.4-8.4,2.1-12.2,0.8c-3-1-4.9,0.4-7.8,0.4c-3.2,0.1-6.4-0.8-9.1-2.5c-1.4-0.9-2.7-1.9-4.3-2.5c-1.8-0.6-3.7-0.5-5.5-1.1
		C164.8,92.5,164.5,92.4,164.3,92.3z"/>
	<path id="XMLID_40_" class="st3" d="M179.6,112.9c-2.5-1.9-3.9-5.1-3.6-8.1c0-0.5,0-1.3,0.3-1.7c0.3-0.5,0.9-0.8,1.4-1.2
		c1.2-0.9,2.4-1.7,3.5-2.6c0.9-0.7,1.8-1.5,2.5-2.3c0.1-0.1,1.5-2.3,1.5-2.3l9.4,0.1c-0.1,0,0.3,0.9,0.3,0.9c0.7,1.3,2,2.3,3.1,3.2
		c1.3,1.1,2.7,2.1,4.2,3c0.1,0.1,0.3,0.2,0.3,0.3c0,0,0,0.1,0,0.1c0.1,0.9,0.3,1.6,0,2.5c-0.3,0.8-0.8,1.5-1.2,2.2
		c-1,1.5-2.1,3-3.6,4c-1.3,0.9-2.9,1.3-4.5,1.8c-2.1,0.7-4.2,1.4-6.4,1.5c-3.5,0.1-6.7-1.8-9.8-3.6"/>
	<path id="XMLID_39_" class="st3" d="M202.8,91.7c-3.1,2.2-6.7,4.2-10.5,4.9c-3.7,0.7-8-0.9-11.2-2.7c-5.5-3.3-8.6-8.6-8.7-15.1
		c-0.1-4.1-0.6-8.7,0.1-12.8c0.6-3.2,3.6-5.3,6.7-5.8c0.9-0.2,2-0.3,2.5-1.1c0.1-0.2,0.2-0.5,0.2-0.8c0.2-1.2,0.1-2.3,0.1-3.5
		c0-1.1,0.2-2.2,0.5-3.2c1.6,1.5,2.4,3.9,3.9,5.5c1.6,1.7,3.6,3,5.9,3.7c2.4,0.7,5,0.8,7.4,1.4c4,1.1,8.5,4.1,10.2,8.1
		c1.8,4.1-0.6,10.7-2.2,14.8c-0.5,1.3-1.1,2.7-2,3.8C205,90,203.9,90.9,202.8,91.7z"/>
	<path id="XMLID_38_" class="st4" d="M166,135.6l47.3,0.6c0,0,0.3-18.7-3.7-26.5c0,0-2.2-5.2-7.7-8.1c0,0-1.4,6.9-9.5,8.2
		c-8,1.3-12.9-4.3-15.1-7.6c0,0-6.3,3.2-9.2,12.5C165.3,123.9,166,135.6,166,135.6z"/>
</g>
<path id="XMLID_36_" class="st5" d="M185.4,65.2c-0.1-1-0.6-1.8-1.4-2.4c-0.9-0.7-2.1-0.9-3.2-0.7c-0.8,0.2-1.6,0.6-2.1,1.4
	c-0.5,0.7-0.7,1.6-0.5,2.4c0.1,0.7,0.5,1.3,1.1,1.7c0.6,0.4,1.3,0.5,2,0.4c1.2-0.2,2-1.4,1.7-2.6c-0.1-0.5-0.4-0.9-0.8-1.2
	c-0.4-0.3-0.9-0.4-1.4-0.3c-0.4,0.1-0.8,0.3-1,0.7c-0.2,0.3-0.3,0.8-0.2,1.2c0.1,0.7,0.8,1.2,1.6,1.1c0.3-0.1,0.6-0.2,0.7-0.5
	c0.2-0.3,0.2-0.6,0.2-0.9c-0.1-0.3-0.2-0.5-0.5-0.6c-0.2-0.1-0.4-0.1-0.7,0c0,0-0.5,0.6,0.2,0.8c0.1,0,0.2,0,0.2,0
	c0,0.1,0,0.2,0,0.2c0,0.1-0.1,0.1-0.2,0.1c-0.3,0.1-0.5-0.1-0.6-0.4c0-0.2,0-0.4,0.1-0.6c0.1-0.2,0.3-0.3,0.5-0.3
	c0.3-0.1,0.5,0,0.8,0.2c0.2,0.2,0.4,0.4,0.4,0.7c0.1,0.8-0.3,1.5-1.1,1.6c-0.5,0.1-1,0-1.4-0.3c-0.4-0.3-0.7-0.7-0.8-1.2
	c-0.1-0.6,0-1.3,0.4-1.8c0.4-0.5,0.9-0.9,1.5-1c0.9-0.2,1.8,0,2.5,0.6c0.6,0.5,1,1.1,1.1,1.9c0.1,1.2-0.1,2-0.6,2.6
	c-0.6,0.7-1.8,1-3.4,0.9c-0.4,0.1-0.4,0.7,0,0.8c0.1,0,0.1,0,0.2,0c1.8,0,3.1-0.4,3.8-1.2C185.3,67.7,185.6,66.6,185.4,65.2z"/>
<path id="XMLID_35_" class="st5" d="M199.4,62.9c-0.9-0.3-1.9-0.3-2.8,0.2c-1,0.5-1.7,1.4-2,2.5c-0.2,0.8-0.1,1.7,0.3,2.4
	c0.4,0.7,1.1,1.3,1.9,1.5c0.7,0.2,1.4,0.1,2-0.3c0.6-0.4,1.1-0.9,1.2-1.6c0.3-1.2-0.4-2.4-1.5-2.7c-0.5-0.1-1-0.1-1.4,0.2
	c-0.4,0.2-0.7,0.6-0.9,1.1c-0.1,0.4-0.1,0.8,0.2,1.2c0.2,0.4,0.5,0.6,0.9,0.7c0.7,0.2,1.4-0.2,1.6-0.9c0.1-0.3,0-0.6-0.1-0.9
	c-0.2-0.3-0.4-0.5-0.7-0.5c-0.3-0.1-0.6,0-0.8,0.2c-0.2,0.1-0.3,0.3-0.3,0.6c0,0,0.3,0.7,0.8,0.2c0-0.1,0.1-0.2,0.1-0.2
	c0.1,0,0.2,0.1,0.2,0.2c0,0.1,0.1,0.2,0,0.2c-0.1,0.3-0.4,0.4-0.6,0.4c-0.2-0.1-0.3-0.2-0.4-0.3c-0.1-0.2-0.1-0.4-0.1-0.6
	c0.1-0.3,0.2-0.5,0.5-0.6c0.2-0.1,0.5-0.2,0.8-0.1c0.7,0.2,1.2,1,1,1.7c-0.1,0.5-0.4,0.9-0.9,1.1c-0.4,0.2-0.9,0.3-1.4,0.2
	c-0.6-0.2-1.1-0.6-1.5-1.1c-0.3-0.6-0.4-1.2-0.2-1.8c0.2-0.9,0.8-1.6,1.6-2c0.7-0.4,1.5-0.4,2.2-0.2c1.1,0.4,1.8,1,2.1,1.7
	c0.3,0.9,0.1,2-0.7,3.5c-0.1,0.4,0.4,0.7,0.7,0.4c0.1-0.1,0.1-0.1,0.1-0.2c0.8-1.6,1-2.9,0.6-4C201.6,64.1,200.7,63.3,199.4,62.9z"
	/>
<g id="XMLID_30_">
	<path id="XMLID_34_" class="st6" d="M181,83.3c-1.7,3.4,1.1,5.9,3.8,4.6c2.9-1.4,7.9-2.1,10.6-1.9c0.1,0,0.2,0,0.3,0
		C191.6,81.3,184.3,82.5,181,83.3z"/>
	<path id="XMLID_33_" class="st7" d="M201.1,81.5c-0.1-1.1-0.6-2-1.3-2.5c-1.9-1.5-5.2-1.4-5.2-1.4c-4.1-0.6-7.5,0.7-9.7,2.2
		c-2.3,1.5-3.5,3.1-3.5,3.1c-0.1,0.1-0.1,0.3-0.2,0.4c3.3-0.8,10.6-2,14.8,2.7C198.4,86.1,201.3,85.5,201.1,81.5z"/>
	<g id="XMLID_31_">
		<path id="XMLID_32_" class="st8" d="M198.8,79.3c0-0.3,0-0.6,0-0.9c-1.9-0.9-4.3-0.8-4.3-0.8c-3.9-0.6-7,0.6-9.3,2
			c0,0,0.5,1.1,0.7,1.1c0,0,7.2-1.6,12.4-0.7C198.7,79.9,198.8,79.3,198.8,79.3z"/>
	</g>
</g>
<rect id="XMLID_29_" x="152.3" y="108" class="st9" width="76.5" height="34.8"/>
<line id="XMLID_28_" class="st10" x1="153.7" y1="121.7" x2="227.5" y2="121.7"/>
<path id="XMLID_21_" class="st11" d="M227.8,44.5c0.7-0.3,1.2-1.7,1.1-2.5c-0.1-0.8-1-2-1.8-2.2c-0.1-0.8-0.7-1.7-1.3-2.2
	c-0.9-0.7-2.1-0.2-2.7,0.6c-0.1,0-0.2,0-0.4,0c-1,0.3-1.3,1.6-1.4,2.5c0,0.4,0.1,0.7,0.2,1.1c0,0-0.1,0.1-0.1,0.2c0,0.1,0,0.2,0,0.3
	c0,0-0.1,0-0.1,0c-0.2,0-0.4,0.2-0.4,0.4c0,0.8,0.4,1.6,1,2.2c0.1,0.1,0.1,0.2,0.2,0.3c0,0.6,0,1.1,0.2,1.6
	c-0.7-0.5-1.4-1.2-1.8-1.6c-0.2-0.2-0.7-0.1-0.7,0.2c0,0.2,0,0.4-0.1,0.5c-0.3-0.2-0.6-0.3-1-0.2c-0.4,0-0.6,0.5-0.3,0.7
	c0.4,0.4,0.7,0.6,1.1,0.6c0.1,0.1,0.2,0.3,0.3,0.5c0,0,0.4,0.9,0.2,0.7c-0.2-0.1-0.6,0-0.6,0.3c-0.1,0.6,0,1.2,0.2,1.8
	c-0.6-0.4-1.1-0.9-1.7-1.2c-0.3-0.2-0.6,0-0.7,0.4c-0.1,0.8,0.3,1.4,0.5,2.1c-0.4,0.1-0.7,0.2-0.8,0.7c-0.3,0.8-3.8,2-4.5,2.4
	c-0.5,0.3-0.1,1,0.4,0.8c0.3-0.2,0.7-0.2,1-0.4c0.4-0.2,2.7-1.3,3.2-1.5c0.6-0.2,0.5-1.2,1.3-1.2c0.3,0,0.5-0.3,0.4-0.5
	c-0.1-0.5-0.3-1-0.5-1.5c0.6,0.5,1.1,1,1.8,1.3c0.4,0.1,0.7-0.1,0.6-0.5c-0.1-0.6-0.5-1.3-0.5-1.9c0.8,0,0.8-1.5,0.2-2.5
	c0-0.1,0.1-0.2,0.1-0.2c0.9,0.9,2.3,2.2,3.4,2c0.4-0.1,0.7-0.2,1-0.5c0.8,0.5,1.6,0.9,2.4,0.9C229.2,49,228.6,46.1,227.8,44.5z
	 M224.4,46.5c-0.5-0.3-0.9-0.7-1.3-1.2c0.2,0,0.3-0.1,0.3-0.3c0.1-0.4,0.1-0.8,0-1.2c0.7,0.4,1.2,1,1.3,1.6
	C224.7,45.8,224.6,46.2,224.4,46.5z M222.3,43.3C222.3,43.3,222.3,43.3,222.3,43.3c0,0.1-0.1,0.3-0.1,0.4c0-0.2-0.1-0.3-0.1-0.5
	C222.2,43.2,222.2,43.3,222.3,43.3z M223.4,46.9c-0.1-0.1-0.3-0.2-0.4-0.4C223.1,46.7,223.3,46.8,223.4,46.9z M223.6,43
	c0-0.1,0-0.2,0-0.2c0.4-0.5,1-0.4,1.9,0.4c0,0.4-0.2,0.8-0.3,1.2c0,0,0,0,0,0C224.8,43.9,224.2,43.4,223.6,43z M226.2,47.7
	c-0.3-0.2-0.7-0.4-1-0.6c0.3-0.4,0.4-0.9,0.4-1.3c0-0.1,0-0.1,0.1-0.2c0.3-1.1,1.4-2.9,0.1-3.9c-1-0.8-2-0.2-2.8,0.6
	c-0.7-0.5-1.1-1.2-0.9-2.2c0-0.2,0.2-0.5,0.3-0.6c0,0.3,0,0.7,0.2,1c0.1,0.2,0.3,0.3,0.5,0.2c0.7-0.3,0.8-1.3,0.5-1.9
	c0.3-0.3,0.7-0.5,1.3-0.5c0.4,0.2,0.7,0.5,0.9,0.9c0.1,0.2,0.3,0.5,0.5,0.7c-0.7,0.2-1.1,0.7-0.8,1.5c0.1,0.2,0.3,0.3,0.5,0.2
	c0.5-0.2,0.8-0.5,0.9-0.9c0.3,0.3,0.6,0.7,0.8,1.1c0.2,0.3,0.1,2.6-0.6,1.9c-0.4-0.4-1,0.2-0.6,0.6C227.2,44.8,228.7,49,226.2,47.7z
	"/>
</svg>
