<?xml version="1.0" encoding="utf-8"?>
<!-- Generator: Adobe Illustrator 19.0.0, SVG Export Plug-In . SVG Version: 6.00 Build 0)  -->
<svg version="1.1" id="图层_1" xmlns="http://www.w3.org/2000/svg" xmlns:xlink="http://www.w3.org/1999/xlink" x="0px" y="0px"
	 viewBox="0 0 375 201" style="enable-background:new 0 0 375 201;" xml:space="preserve">
<style type="text/css">
	.st0{fill:#6593C7;stroke:#FFFFFF;stroke-width:0.2045;stroke-miterlimit:10;}
	.st1{fill:none;stroke:#FFFFFF;stroke-width:1.3475;stroke-miterlimit:10;}
	.st2{fill:none;stroke:#FFFFFF;stroke-width:1.3475;stroke-linecap:round;stroke-linejoin:round;stroke-miterlimit:10;}
</style>
<g id="XMLID_24_">
	<rect id="XMLID_224_" x="-0.6" y="0.4" class="st0" width="375.4" height="201"/>
	<g id="XMLID_215_">
		<line id="XMLID_223_" class="st1" x1="210.8" y1="124" x2="213.1" y2="126.3"/>
		<line id="XMLID_222_" class="st1" x1="203.8" y1="130.4" x2="207" y2="130.4"/>
		<line id="XMLID_221_" class="st1" x1="209.9" y1="130.4" x2="213.1" y2="130.4"/>
		<line id="XMLID_220_" class="st1" x1="216.7" y1="122.8" x2="216.7" y2="126"/>
		<line id="XMLID_219_" class="st1" x1="230.4" y1="130.3" x2="227.3" y2="130.3"/>
		<line id="XMLID_218_" class="st1" x1="224.4" y1="130.5" x2="221.2" y2="130.5"/>
		<line id="XMLID_217_" class="st1" x1="221.9" y1="124" x2="219.7" y2="126.2"/>
		<line id="XMLID_216_" class="st1" x1="208.4" y1="137" x2="225" y2="137"/>
	</g>
	<g id="XMLID_212_">
		<path id="XMLID_213_" class="st1" d="M80.3,135.5H67.1c-0.4,0-0.7-0.2-0.8-0.5c-0.1-0.3,0-0.7,0.3-0.9c1.4-1.1,2.2-2.8,2.2-4.7
			v-2.2c0-2.7,2.2-4.9,4.9-4.9s4.9,2.2,4.9,4.9v2.2c0,1.8,0.8,3.5,2.2,4.6c0.3,0.2,0.4,0.6,0.3,0.9
			C80.9,135.3,80.6,135.5,80.3,135.5z"/>
	</g>
	<line id="XMLID_211_" class="st1" x1="73.7" y1="156.4" x2="73.7" y2="171.7"/>
	<path id="XMLID_210_" class="st1" d="M144.4,133.3c0.5-0.2,0.6-0.3,0.6-0.5c0-0.2-1.3-0.6-0.2-1.8c1.2-1.2,1.6-0.4,1.7-0.5
		c0.2-0.1-0.2-0.6,0.2-0.9c0.3-0.3,2.2-0.9,2.2-2.6c0-0.9-0.3-1.7-0.6-2.2l4.7-4.7c0.2,0,0.4,0,0.6-0.2l0.4,0.4
		c0.1,0.1,0.2,0.1,0.3,0.1c0.1,0,0.2,0,0.3-0.1c0.2-0.2,0.2-0.4,0-0.6l-0.4-0.4l0.3-0.3c0,0,0,0,0,0l0.4,0.4
		c0.1,0.1,0.2,0.1,0.3,0.1c0.1,0,0.2,0,0.3-0.1c0.2-0.2,0.2-0.4,0-0.6l-0.7-0.7c0-0.2-0.1-0.3-0.3-0.4c-0.3-0.3-0.7-0.3-1-0.2
		l-0.5-0.5c-0.2-0.2-0.4-0.2-0.6,0c-0.2,0.2-0.2,0.4,0,0.6l0.4,0.4l-0.4,0.4l-0.4-0.4c-0.2-0.2-0.4-0.2-0.6,0
		c-0.2,0.2-0.2,0.4,0,0.6l0.5,0.5c0,0.1,0,0.1,0,0.2l-4.7,4.7c-0.5-0.3-1.3-0.6-2.2-0.6c-1.6,0-2.3,1.8-2.6,2.2
		c-0.3,0.3-0.8,0-0.9,0.2c-0.1,0.2,0.6,0.6-0.5,1.7c-1.2,1.2-1.6-0.1-1.8-0.2c-0.2,0-0.3,0.1-0.5,0.6c-0.2,0.5-0.9,0.1-2.4,1.7
		c-1.5,1.6-1.3,3.4,0.8,5.5c2.1,2.1,3.9,2.3,5.5,0.8C144.3,134.2,143.9,133.5,144.4,133.3z"/>
	<g id="XMLID_198_">
		<g id="XMLID_206_">
			<path id="XMLID_207_" class="st1" d="M299.3,121.1H296c0,0,0,0,0,0c0,0,0,0,0,0h-3.3c0,0,0,0,0,0c0,0,0,0,0,0h-3.3c0,0,0,0,0,0
				c0,0,0,0,0,0h-3.3c0,0,0,0,0,0c0,0,0,0,0,0h-3.3c0,0,0,0,0,0c0,0,0,0,0,0h-3.3c0,0,0,0,0,0c0,0,0,0,0,0h-3.3
				c-0.2,0-0.4,0.2-0.4,0.4v11.6c0,0.2,0.2,0.4,0.4,0.4h3.3c0,0,0,0,0,0c0,0,0,0,0,0h3.3c0,0,0,0,0,0c0,0,0,0,0,0h3.3c0,0,0,0,0,0
				c0,0,0,0,0,0h3.3c0,0,0,0,0,0c0,0,0,0,0,0h3.3c0,0,0,0,0,0c0,0,0,0,0,0h3.3c0,0,0,0,0,0c0,0,0,0,0,0h3.3c0.2,0,0.4-0.2,0.4-0.4
				v-11.6C299.7,121.3,299.5,121.1,299.3,121.1z M276.5,132.7"/>
		</g>
		<path id="XMLID_205_" class="st1" d="M279.5,133.4"/>
		<line id="XMLID_204_" class="st1" x1="279.5" y1="133.4" x2="279.5" y2="126.2"/>
		<line id="XMLID_203_" class="st1" x1="282.8" y1="133.4" x2="282.8" y2="126.2"/>
		<line id="XMLID_202_" class="st1" x1="286" y1="133.4" x2="286" y2="126.2"/>
		<line id="XMLID_201_" class="st1" x1="289.4" y1="133.4" x2="289.4" y2="126.2"/>
		<line id="XMLID_200_" class="st1" x1="292.7" y1="133.4" x2="292.7" y2="126.2"/>
		<line id="XMLID_199_" class="st1" x1="296.1" y1="133.4" x2="296.1" y2="126.2"/>
	</g>
	<g id="XMLID_180_">
		<g id="XMLID_181_">
			<path id="XMLID_182_" class="st1" d="M72.4,96.4c0.1,0.1,0.6,0.3,1.3,0.3c0.7,0,1.2-0.2,1.3-0.3V95c-0.3,0.2-0.7,0.4-1,0.7
				c-0.1,0.1-0.1,0.1-0.2,0.1l0,0c0,0,0,0,0,0l0,0l0,0l0,0c-0.1,0-0.2,0-0.3-0.1c0,0,0,0,0,0c-0.3-0.3-0.7-0.5-1-0.7V96.4z
				 M63.5,85.5l-1,11.3l8.9-0.6v-1.4c-2-0.7-4.4-0.3-7.2,1.1c-0.2,0.1-0.3,0.1-0.5,0c-0.1-0.1-0.2-0.3-0.2-0.4l0.7-10.2
				c-0.2,0.1-0.3,0.2-0.5,0.3C63.7,85.4,63.6,85.4,63.5,85.5z M76,96.1l8.9,0.6l-1-11.3c-0.2-0.1-0.4-0.2-0.6-0.3c0,0-0.1,0-0.1-0.1
				l0.7,10.2c0,0.2-0.1,0.3-0.2,0.4c-0.1,0.1-0.3,0.1-0.5,0c-2.8-1.4-5.2-1.8-7.2-1.1V96.1z M65.3,84.3l-0.7,10.2
				c3.3-1.5,6.3-1.6,8.7-0.1V83.6c-1.9-2-4.5-2-7.9,0.1L65.3,84.3C65.3,84.2,65.3,84.3,65.3,84.3z M78.1,93.3c1.5,0,3.1,0.4,4.8,1.2
				l-0.8-10.8c-3.4-2.1-6-2.1-7.9-0.1v10.8c0.4-0.2,0.7-0.4,1.1-0.6c0,0,0,0,0,0C76.2,93.5,77.1,93.3,78.1,93.3z M65.1,92.1
				c1.5-0.7,2.9-1,4.1-1.1c1.3-0.1,2.6,0.3,3.7,0.9 M74.5,92c1.1-0.7,2.4-1,3.7-0.9c1.2,0,2.6,0.4,4.1,1.1 M65.2,90.3
				c1.4-0.7,2.8-1,4-1.1c1.3-0.1,2.6,0.3,3.7,0.9 M74.5,90.1c1.1-0.7,2.3-1,3.7-0.9c1.2,0.1,2.6,0.4,4,1.1 M65.4,88.4
				c1.4-0.7,2.7-1,3.9-1.1c1.3-0.1,2.6,0.2,3.7,0.9 M74.5,88.2c1.1-0.7,2.3-1,3.7-0.9c1.2,0.1,2.4,0.4,3.9,1.1 M65.5,86.5
				c1.3-0.7,2.6-1.1,3.8-1.1c1.4-0.1,2.6,0.2,3.6,0.9 M74.5,86.3c1.1-0.7,2.3-1.1,3.6-0.9c1.2,0.1,2.4,0.5,3.8,1.1 M65.6,84.6
				c1.3-0.7,2.5-1.1,3.6-1.2c1.4-0.1,2.6,0.2,3.6,1 M74.5,84.4c1-0.8,2.3-1.1,3.6-1c1.1,0.1,2.3,0.5,3.6,1.2"/>
		</g>
	</g>
	<g id="XMLID_171_">
		<path id="XMLID_2_" class="st1" d="M155.6,99.1l-0.5-0.7l-1.2-4.1c0,0,0-0.1,0-0.1l-0.8-1.1c0.1,0,0.2,0,0.3,0c0.1,0,0.2,0,0.3,0
			c0.4-0.1,0.6-0.4,0.8-0.7c0.2-0.5,0-1.1-0.5-1.8c-1.7-2.4-3-4.3-4.7-6.7c-0.1-0.2-0.3-0.4-0.5-0.6c-0.4-0.3-0.8-0.5-1.4-0.4
			c-0.4,0.1-0.8,0.3-1.1,0.4l-0.4-0.6c-0.3-0.4-0.7-0.7-1.2-0.8c-0.4-0.1-0.9,0-1.2,0.3c-0.8,0.5-0.9,1.6-0.4,2.4l0.4,0.5
			c-0.9,0.6-1.8,1.1-2.6,1.6c-1.2,0.8-2.2,1.4-3,1.9c-0.4,0.3-0.9,0.5-1.6,0.5c-0.1,0-0.3,0-0.4,0l-0.2,0c-0.2,0-0.3,0.2-0.3,0.3
			v4.4c0,0.2,0.1,0.3,0.3,0.3c4.2,0.3,8.4,0.3,12.4,0.3c0.2,0,0.4,0,0.6,0c0,0,0,0,0,0c0.5,0,0.9-0.1,1.2-0.3l1.2,1.7
			c0,0,0,0.1,0.1,0.1l3.4,2.6l0.5,0.7c0.1,0.1,0.2,0.1,0.3,0.1c0.1,0,0.1,0,0.2-0.1C155.7,99.5,155.7,99.3,155.6,99.1z M152,91.6
			L152,91.6 M146.6,84 M145.9,88.8l1.9,2.7c-0.1,0-0.3,0-0.4,0c-0.5,0-1-0.1-1.4-0.1c-0.5,0-0.8-0.2-1.2-0.4l-0.1,0
			c-0.3-0.2-0.3-0.5-0.1-0.8C144.8,89.9,145.3,89.4,145.9,88.8z M150.4,94c0.2-0.3,0.3-0.6,0.3-1c0-0.7-0.9-1.3-1.6-1.4
			c-0.1,0-0.3,0-0.5,0"/>
		<line id="XMLID_173_" class="st1" x1="151.8" y1="96.8" x2="154.9" y2="94.8"/>
		<polyline id="XMLID_172_" class="st1" points="146,88.6 143.2,84.7 146.3,82.5 153.9,93.4 		"/>
	</g>
	<g id="XMLID_165_">
		<path id="XMLID_170_" class="st1" d="M224.9,60L224.9,60c0.6,0,1.1,0.2,1.5,0.7c0.4,0.4,0.6,1,0.6,1.5c0,1.2-1,2.1-2.2,2.1
			c0,0-4,0-10.2-0.1c-3.7,0-7-0.1-7.3-0.1"/>
		<path id="XMLID_169_" class="st1" d="M223.4,70.5c0,0.1,0,0.1,0.1,0.2c0,0,0.1,0.1,0.2,0.1l0,0c1.4,0,2.5-1,2.5-2.5
			c0-0.7-0.2-1.3-0.7-1.8c-0.5-0.5-1.1-0.7-1.7-0.8l-12.9-0.2"/>
		<path id="XMLID_168_" class="st1" d="M222.3,55.8c0-0.6,0.6-1.3,1.4-1.3h0c0.4,0,0.7,0.1,0.9,0.4c0.3,0.3,0.4,0.6,0.4,1
			c0,0.7-0.6,1.3-1.4,1.3c0,0-1.8,0-4.7-0.1c-2.8,0-5.9-0.1-6.2-0.1"/>
		<path id="XMLID_167_" class="st1" d="M211.8,55.2h8.7c0,0,1.5,0,1.9-0.9c0,0,1-2.2-1.9-2.2"/>
		<path id="XMLID_166_" class="st1" d="M211.2,62.9h8.7c0,0,1.5,0,1.9-0.9c0,0,1-2.2-1.9-2.2"/>
	</g>
	<g id="XMLID_155_">
		<line id="XMLID_164_" class="st1" x1="215.2" y1="154.9" x2="219.1" y2="154.9"/>
		<path id="XMLID_163_" class="st1" d="M216.8,154.9v2.1c0,0-5.5,0.1-7.5,1.7v1.8l15.7,0.1v-2c0,0-4.4-1.6-7-1.5"/>
		<path id="XMLID_162_" class="st1" d="M207.6,160.4c0,0,0.4,1.6,2.1,1.6v6.5c0,0,0.4,0.8,1.7,0.8h11.4c0,0,1.1-0.2,1.7-0.9v-6.5
			c0,0,1.3,0,2.2-1.4"/>
		<line id="XMLID_161_" class="st1" x1="208.9" y1="173.4" x2="225.3" y2="173.4"/>
		<line id="XMLID_160_" class="st1" x1="212.1" y1="170.6" x2="212.1" y2="173.4"/>
		<line id="XMLID_159_" class="st1" x1="214.6" y1="171.2" x2="214.6" y2="173.4"/>
		<line id="XMLID_158_" class="st1" x1="217.1" y1="170.6" x2="217.1" y2="173.4"/>
		<line id="XMLID_157_" class="st1" x1="219.7" y1="171.2" x2="219.7" y2="173.4"/>
		<line id="XMLID_156_" class="st1" x1="222.2" y1="170.6" x2="222.2" y2="173.4"/>
	</g>
	<g id="XMLID_148_">
		<path id="XMLID_153_" class="st1" d="M64.9,57.6c0,0.2,0.1,0.3,0.3,0.3c0.6,0,1.2-0.3,1.7-0.7c0.4,0.5,1,0.7,1.7,0.7
			c0.6,0,1.2-0.3,1.7-0.7c0,0,0,0,0,0c0,0,0,0,0,0c0,0,0,0,0,0c0,0,0,0,0,0c0,0,0,0,0,0c0,0,0,0,0,0c0,0,0,0,0.1,0c0,0,0,0,0,0
			c0,0,0,0,0.1,0c0,0,0,0,0,0c0,0,0,0,0.1,0c0,0,0,0,0,0c0,0,0,0,0.1,0c0,0,0,0,0,0c0,0,0,0,0.1,0c0,0,0,0,0,0c0,0,0,0,0.1,0
			c0,0,0,0,0.1,0c0,0,0,0,0.1,0c0,0,0,0,0.1,0c0,0,0,0,0.1,0c0,0,0,0,0.1,0c0,0,0,0,0.1,0c0,0,0,0,0.1,0c0,0,0,0,0.1,0c0,0,0,0,0,0
			c0,0,0,0,0.1,0c0,0,0,0,0,0c0,0,0.1,0,0.1,0c0,0,0,0,0,0c0,0,0.1,0,0.1,0c0.1,0,0.1,0,0.2,0c0,0,0.1,0,0.1,0c0,0,0.1,0,0.1,0
			c0.1,0,0.1,0,0.2,0c0,0,0,0,0,0c0.4-0.1,0.8-0.3,1.1-0.6c0.1,0.1,0.1,0.1,0.2,0.2c0,0,0,0,0,0c0,0,0,0,0,0c0,0,0,0,0,0
			c0.4,0.3,0.9,0.5,1.4,0.5c0.6,0,1.2-0.3,1.7-0.7c0.4,0.5,1,0.7,1.7,0.7c0.6,0,1.2-0.3,1.7-0.7c0.4,0.5,1,0.7,1.7,0.7"/>
		<path id="XMLID_151_" class="st1" d="M65,51.5c0,0.2,0.1,0.3,0.3,0.3c0.6,0,1.2-0.3,1.7-0.7c0.4,0.5,1,0.7,1.7,0.7
			c0.6,0,1.2-0.3,1.7-0.7c0,0,0,0,0,0c0,0,0,0,0,0c0,0,0,0,0,0c0,0,0,0,0,0c0,0,0,0,0,0c0,0,0,0,0,0c0,0,0,0,0.1,0c0,0,0,0,0,0
			c0,0,0,0,0.1,0c0,0,0,0,0,0c0,0,0,0,0.1,0c0,0,0,0,0,0c0,0,0,0,0.1,0c0,0,0,0,0,0c0,0,0,0,0.1,0c0,0,0,0,0,0c0,0,0,0,0.1,0
			c0,0,0,0,0.1,0c0,0,0,0,0.1,0c0,0,0,0,0.1,0c0,0,0,0,0.1,0c0,0,0,0,0.1,0c0,0,0,0,0.1,0c0,0,0,0,0.1,0c0,0,0,0,0.1,0c0,0,0,0,0,0
			c0,0,0,0,0.1,0c0,0,0,0,0,0c0,0,0.1,0,0.1,0c0,0,0,0,0,0c0,0,0.1,0,0.1,0c0.1,0,0.1,0,0.2,0c0,0,0.1,0,0.1,0c0,0,0.1,0,0.1,0
			c0.1,0,0.1,0,0.2,0c0,0,0,0,0,0c0.4-0.1,0.8-0.3,1.1-0.6c0.1,0.1,0.1,0.1,0.2,0.2c0,0,0,0,0,0c0,0,0,0,0,0c0,0,0,0,0,0
			c0.4,0.3,0.9,0.5,1.4,0.5c0.6,0,1.2-0.3,1.7-0.7c0.4,0.5,1,0.7,1.7,0.7s1.2-0.3,1.7-0.7c0.4,0.5,1,0.7,1.7,0.7"/>
		<path id="XMLID_149_" class="st1" d="M65.7,63.3c0,0.2,0.1,0.3,0.3,0.3c0.6,0,1.2-0.3,1.7-0.7c0.4,0.5,1,0.7,1.7,0.7
			c0.6,0,1.2-0.3,1.7-0.7c0,0,0,0,0,0c0,0,0,0,0,0c0,0,0,0,0,0c0,0,0,0,0,0c0,0,0,0,0,0c0,0,0,0,0,0c0,0,0,0,0.1,0c0,0,0,0,0,0
			c0,0,0,0,0.1,0c0,0,0,0,0,0c0,0,0,0,0.1,0c0,0,0,0,0,0c0,0,0,0,0.1,0c0,0,0,0,0,0c0,0,0,0,0.1,0c0,0,0,0,0,0c0,0,0,0,0.1,0
			c0,0,0,0,0.1,0c0,0,0,0,0.1,0c0,0,0,0,0.1,0c0,0,0,0,0.1,0c0,0,0,0,0.1,0c0,0,0,0,0.1,0c0,0,0,0,0.1,0c0,0,0,0,0.1,0c0,0,0,0,0,0
			c0,0,0,0,0.1,0c0,0,0,0,0,0c0,0,0.1,0,0.1,0c0,0,0,0,0,0c0,0,0.1,0,0.1,0c0.1,0,0.1,0,0.2,0c0,0,0.1,0,0.1,0c0,0,0.1,0,0.1,0
			c0.1,0,0.1,0,0.2,0c0,0,0,0,0,0c0.4-0.1,0.8-0.3,1.1-0.6c0.1,0.1,0.1,0.1,0.2,0.2c0,0,0,0,0,0c0,0,0,0,0,0c0,0,0,0,0,0
			c0.4,0.3,0.9,0.5,1.4,0.5c0.6,0,1.2-0.3,1.7-0.7c0.4,0.5,1,0.7,1.7,0.7s1.2-0.3,1.7-0.7c0.4,0.5,1,0.7,1.7,0.7"/>
	</g>
	<g id="XMLID_133_">
		<g id="XMLID_141_">
			<path id="XMLID_146_" class="st2" d="M153.2,23.2c-0.1,0-0.1,0-0.2,0c0-0.1,0-0.2,0-0.4c0-1.5-1.2-2.7-2.7-2.7
				c-0.6,0-1.1,0.2-1.5,0.5c-0.7-1.4-2.2-2.4-3.9-2.4c-2.1,0-3.8,1.4-4.2,3.3c-0.4-0.2-0.8-0.3-1.2-0.3c-1.5,0-2.7,1.2-2.7,2.7
				c0,0.3,0,0.5,0.1,0.7c-1.4,0.1-2.4,1.3-2.4,2.7c0,1.5,1.2,2.7,2.7,2.7h16c1.9,0,3.4-1.5,3.4-3.4S155.1,23.2,153.2,23.2z"/>
			<path id="XMLID_145_" class="st2" d="M140.7,21.5c0.9,0.4,1.5,1.4,1.5,2.4"/>
			<path id="XMLID_144_" class="st2" d="M147.6,22.8c0-0.9,0.5-1.8,1.2-2.2"/>
			<path id="XMLID_143_" class="st2" d="M137.2,24.6c1,0,1.9,0.6,2.4,1.4"/>
			<path id="XMLID_142_" class="st2" d="M145.7,24.1c0.4-0.7,1.2-1.3,2.1-1.3c1.3,0,2.3,1,2.3,2.3"/>
		</g>
		<line id="XMLID_140_" class="st2" x1="138.6" y1="32.2" x2="138.6" y2="33.4"/>
		<line id="XMLID_139_" class="st2" x1="143.1" y1="32.2" x2="143.1" y2="33.4"/>
		<line id="XMLID_138_" class="st2" x1="147.8" y1="32.2" x2="147.8" y2="33.4"/>
		<line id="XMLID_137_" class="st2" x1="152.3" y1="32.2" x2="152.3" y2="33.4"/>
		<line id="XMLID_136_" class="st2" x1="140.9" y1="36.1" x2="140.9" y2="37.4"/>
		<line id="XMLID_135_" class="st2" x1="145.4" y1="36.1" x2="145.4" y2="37.4"/>
		<line id="XMLID_134_" class="st2" x1="149.9" y1="36.1" x2="149.9" y2="37.4"/>
	</g>
	<path id="XMLID_132_" class="st1" d="M135.7,169.5c0,0-2.7-8.2,6-12.4c0,0,5.8-3.1,13.9-1.2c0,0-0.2,12.9-9.2,16
		c0,0-3.6,1.8-8.2,0.1c0,0,0.8-6.1,11.1-10.9C149.4,161.1,140.4,160.8,135.7,169.5z"/>
	<g id="XMLID_122_">
		<path id="XMLID_131_" class="st1" d="M211.2,87.7c0,0,4.3-1.2,6-1.4c0,0,5.2-1.1,8,0.2c0,0,7.8,4.1,0,8.8c0,0-2.4,0.8-3.5,0.7
			c0,0-7.4-0.5-10.5-1.9c0,0-0.8-0.1-0.8-1v-4.4C210.4,88.7,210.3,87.8,211.2,87.7z"/>
		<polyline id="XMLID_130_" class="st1" points="220.8,96.9 222.6,105.5 224.7,105.5 224.7,96.3 		"/>
		<polygon id="XMLID_129_" class="st1" points="219.1,100.9 221.5,100.4 222,102.7 219.5,103.1 		"/>
		<line id="XMLID_128_" class="st1" x1="205.6" y1="90.1" x2="209.2" y2="90.1"/>
		<line id="XMLID_127_" class="st1" x1="205.6" y1="91.4" x2="209.2" y2="91.4"/>
		<line id="XMLID_126_" class="st1" x1="205.6" y1="92.5" x2="209.2" y2="92.5"/>
		<line id="XMLID_125_" class="st1" x1="221.3" y1="88.2" x2="222.8" y2="89.9"/>
		<line id="XMLID_124_" class="st1" x1="222.8" y1="88.2" x2="224.2" y2="89.9"/>
		<line id="XMLID_123_" class="st1" x1="224" y1="88.2" x2="225.5" y2="89.9"/>
	</g>
	<path id="XMLID_121_" class="st1" d="M225.3,26.7c0-1.2-0.7-2.3-1.7-2.8c0.4-0.5,0.6-1.2,0.6-1.9c0-1.7-1.4-3.1-3.1-3.1
		c-0.6,0-1.1,0.2-1.5,0.4c-0.3-1.2-1.3-2-2.5-2c-1.2,0-2.2,0.8-2.5,1.9c-0.4-0.2-0.9-0.4-1.4-0.4c-1.7,0-3.1,1.4-3.1,3.1
		c0,0.7,0.2,1.3,0.6,1.9c-1,0.5-1.7,1.5-1.7,2.8c0,1.4,1,2.6,2.3,3c0,0.2-0.1,0.4-0.1,0.6c0,1.7,1.4,3.1,3.1,3.1
		c0.6,0,1.2-0.2,1.7-0.5h0V37h2.4v-4.2c0.5,0.3,1.1,0.5,1.7,0.5c1.7,0,3.1-1.4,3.1-3.1c0-0.2,0-0.4-0.1-0.6
		C224.3,29.3,225.3,28.2,225.3,26.7z"/>
	<g id="Element_1_">
		<path id="XMLID_84_" class="st1" d="M286,161.9h-1.2H282h-2.8h-2.8h-2.8c-0.1,0-0.2,0.1-0.2,0.2v1.9v2.8v2.8v2.8
			c0,0.1,0.1,0.2,0.2,0.2h2.8h2.8h2.8h11.4h2.8h2.8h2.8c0.1,0,0.2-0.1,0.2-0.2v-2.8V164v-1.9c0-0.1-0.1-0.2-0.2-0.2h-2.8h-2.8h-2.8
			h-2.8h-1.2C289.4,161.9,286.9,162,286,161.9l1.1-3.4c1-1.4,1.8-2,3-2h11.8c0.1,0,0.2-0.1,0.2-0.2 M288,169.5v-2.4h2.4v2.4H288z
			 M285.1,169.5v-2.4h2.4v2.4H285.1z M282.3,169.5v-2.4h2.4v2.4H282.3z M276.3,169.5h-2.6v-2.4h2.6h2.6v2.4H276.3z M285.1,162.4h2.4
			v1.4h-2.4V162.4z M298.9,166.6h-2.4v-2.4h2.4V166.6z M296,166.6h-2.4v-2.4h2.4V166.6z M293.2,166.6h-2.4v-2.4h2.4V166.6z
			 M290.3,166.6H288v-2.4h2.4V166.6z M285.1,164.3h2.4v2.4h-2.4V164.3z M284.6,166.6h-2.4v-2.4h2.4V166.6z M281.8,166.6h-2.4v-2.4
			h2.4V166.6z M278.9,166.6h-2.4v-2.4h2.4V166.6z M276.1,166.6h-2.4v-2.4h2.4V166.6z M279.4,167.1h2.4v2.4h-2.4V167.1z M290.8,167.1
			h2.4v2.4h-2.4V167.1z M293.6,167.1h2.4v2.4h-2.4V167.1z M296.5,167.1h2.4v2.4h-2.4V167.1z M299.3,166.9v-2.6h2.4v5.2h-2.4V166.9z
			 M301.7,163.8h-2.4v-1.4h2.4V163.8z M298.9,163.8h-2.4v-1.4h2.4V163.8z M296,163.8h-2.4v-1.4h2.4V163.8z M293.2,163.8h-2.4v-1.4
			h2.4V163.8z M290.3,163.8H288v-1.4h2.4V163.8z M284.6,163.8h-2.4v-1.4h2.4V163.8z M281.8,163.8h-2.4v-1.4h2.4V163.8z M278.9,163.8
			h-2.4v-1.4h2.4V163.8z M273.7,162.4h2.4v1.4h-2.4V162.4z M273.7,170h2.4v2.4h-2.4V170z M276.6,170h2.4v2.4h-2.4V170z M279.4,170
			h2.4v2.4h-2.4V170z M282.3,170h2.6h2.8h2.8h2.6v2.4h-10.9V170z M293.6,170h2.4v2.4h-2.4V170z M296.5,170h2.4v2.4h-2.4V170z
			 M301.7,172.3h-2.4V170h2.4V172.3z"/>
	</g>
	<path id="XMLID_83_" class="st2" d="M72.2,37.3c0,0-2.5-3.3,2.1-6.9c0,0-0.6,2,1.2,3.4c1.8,1.4,0.5,3.2,0,3.7c0,0,5.2-1.4,5.2-6.2
		c0,0-0.4-2.4-1.1-3.5c0,0,0.4,1.1-0.3,1c-0.7,0-1-2.4-1.5-3.8c0,0-0.3,1.7-1.2,1.1c-0.5-0.3-0.1-3.6-1-5.2c0,0-0.2,0.6-0.5,0.3
		c0,0-1.3-2.1-2.7-2.8c0,0,1.2,2.4,0.3,3.9c0,0-0.7,2.4-1.7,2.5c0,0-1.7-0.9,0-2.1c0,0-1.7-0.2-2.1,2c-0.4,2.2,0.9,3.3,0.6,5
		c-0.2,1.7-1.9,0.9-1.6-0.2c0,0-0.3-0.2,0.2-1.4c0,0-2,1.7-0.9,4.4C68.2,35.5,69,36.2,72.2,37.3z"/>
	<g id="XMLID_75_">
		<g id="XMLID_79_">
			<path id="XMLID_82_" class="st2" d="M286.8,32.7c4.3-0.7,4.3-6.9,4-8.2c-0.3-1.3,0-2.3,0-2.3l1.9-0.9l-1.7-1.1
				c-0.4-0.9-1.5-1.5-2.7-1.5c-1.6,0-2.9,1.1-2.9,2.5c0,0,0.3,1.2-0.3,2.2c-0.6,1-2.2,4.3-1.6,7.2c0.3,1.3-0.9,5.5-0.9,5.5l1.3,1.9
				l1.7-5.3l1.4-1.7c0.4-0.4,1.9-4.5,3.5-4.5"/>
			<path id="XMLID_81_" class="st2" d="M290.7,23.6"/>
			<line id="XMLID_80_" class="st2" x1="283.3" y1="36.8" x2="284.2" y2="34"/>
		</g>
		<g id="XMLID_76_">
			<line id="XMLID_78_" class="st2" x1="288.4" y1="32.1" x2="288.4" y2="34"/>
			<path id="XMLID_77_" class="st2" d="M287.2,34.4c0.6,0,1.2-0.2,1.2-0.4c0,0.2,0.5,0.4,1.2,0.4"/>
		</g>
	</g>
	<g id="XMLID_58_">
		<path id="XMLID_74_" class="st2" d="M142.6,55.6c0-1.6,1.3-2.9,2.9-2.9s2.9,1.3,2.9,2.9"/>
		<g id="XMLID_71_">
			<path id="XMLID_73_" class="st2" d="M145.2,53.5c0,0.5-0.7,1-1.5,1"/>
			<path id="XMLID_72_" class="st2" d="M145.9,53.5c0,0.5,0.7,1,1.5,1"/>
		</g>
		<g id="XMLID_68_">
			<path id="XMLID_70_" class="st2" d="M144.5,52.8c0,0-0.7-2.8-3.3-3"/>
			<path id="XMLID_69_" class="st2" d="M146.6,52.8c0,0,0.7-2.8,3.3-3"/>
		</g>
		<path id="XMLID_67_" class="st2" d="M143,69.3l2.6-4.4l2.6,4.4c2.8-1,4.8-3.7,4.8-6.9c0-4-3.3-7.3-7.3-7.3s-7.3,3.3-7.3,7.3
			C138.2,65.5,140.2,68.2,143,69.3z"/>
		<circle id="XMLID_66_" class="st2" cx="142.1" cy="61.9" r="1.6"/>
		<path id="XMLID_65_" class="st2" d="M141.3,56.4c0.3,0.3,0.5,0.7,0.5,1.2c0,0.9-0.7,1.6-1.6,1.6c-0.4,0-0.8-0.2-1.1-0.4"/>
		<path id="XMLID_64_" class="st2" d="M139.1,65.8c0.3-0.4,0.8-0.7,1.4-0.7c0.9,0,1.6,0.7,1.6,1.6c0,0.7-0.4,1.2-1,1.5"/>
		<circle id="XMLID_63_" class="st2" cx="148.9" cy="61.9" r="1.6"/>
		<path id="XMLID_62_" class="st2" d="M149.7,56.4c-0.3,0.3-0.5,0.7-0.5,1.2c0,0.9,0.7,1.6,1.6,1.6c0.4,0,0.8-0.2,1.1-0.4"/>
		<path id="XMLID_61_" class="st2" d="M152,65.8c-0.3-0.4-0.8-0.7-1.4-0.7c-0.9,0-1.6,0.7-1.6,1.6c0,0.7,0.4,1.2,1,1.5"/>
		<line id="XMLID_60_" class="st2" x1="145.5" y1="56.4" x2="145.5" y2="63.2"/>
		<path id="XMLID_59_" class="st2" d="M147.4,68.1c-0.6,0.2-1.2,0.3-1.9,0.3c-0.7,0-1.3-0.1-1.9-0.3"/>
	</g>
	<g id="XMLID_33_">
		<path id="XMLID_57_" class="st1" d="M288.3,86.4c-0.1,0-0.2,0.2-0.1,0.3l0.1,0.2c0,0.1,0.1,0.1,0.2,0.1c0,0,0.1,0,0.1,0
			c0.1,0,0.2-0.2,0.1-0.3l-0.1-0.2C288.5,86.4,288.4,86.4,288.3,86.4z"/>
		<path id="XMLID_56_" class="st1" d="M285.6,92.8c0,0.1,0.1,0.1,0.2,0.1c0,0,0.1,0,0.1,0c0.1,0,0.2-0.2,0.1-0.3l-0.1-0.2
			c0-0.1-0.2-0.2-0.3-0.1c-0.1,0-0.2,0.2-0.1,0.3L285.6,92.8z"/>
		<path id="XMLID_55_" class="st1" d="M285.2,90.8c-0.1,0-0.2,0.2-0.1,0.3l0.1,0.2c0,0.1,0.1,0.1,0.2,0.1c0,0,0.1,0,0.1,0
			c0.1,0,0.2-0.2,0.1-0.3l-0.1-0.2C285.4,90.8,285.3,90.8,285.2,90.8z"/>
		<path id="XMLID_54_" class="st1" d="M288.5,91.2c-0.1,0-0.2,0.2-0.1,0.3l0.1,0.2c0,0.1,0.1,0.1,0.2,0.1c0,0,0.1,0,0.1,0
			c0.1,0,0.2-0.2,0.1-0.3l-0.1-0.2C288.7,91.3,288.6,91.2,288.5,91.2z"/>
		<path id="XMLID_53_" class="st1" d="M285.7,88.1c0.1,0,0.2-0.2,0.1-0.3l-0.1-0.2c0-0.1-0.2-0.2-0.3-0.1c-0.1,0-0.2,0.2-0.1,0.3
			l0.1,0.2C285.5,88,285.6,88.1,285.7,88.1C285.7,88.1,285.7,88.1,285.7,88.1z"/>
		<path id="XMLID_52_" class="st1" d="M290.3,92.5c0,0.1,0.1,0.1,0.2,0.1c0,0,0.1,0,0.1,0c0.1,0,0.2-0.2,0.1-0.3l0,0
			c0-0.1-0.2-0.2-0.3-0.1C290.3,92.2,290.3,92.3,290.3,92.5L290.3,92.5z"/>
		<path id="XMLID_51_" class="st1" d="M289.8,91.2c0,0.1,0.1,0.1,0.2,0.1c0,0,0.1,0,0.1,0c0.1,0,0.2-0.2,0.1-0.3l-0.1-0.2
			c0-0.1-0.2-0.2-0.3-0.1c-0.1,0-0.2,0.2-0.1,0.3L289.8,91.2z"/>
		<path id="XMLID_50_" class="st1" d="M289.3,89.8c0,0.1,0.1,0.1,0.2,0.1c0,0,0.1,0,0.1,0c0.1,0,0.2-0.2,0.1-0.3l-0.1-0.2
			c0-0.1-0.2-0.2-0.3-0.1c-0.1,0-0.2,0.2-0.1,0.3L289.3,89.8z"/>
		<path id="XMLID_49_" class="st1" d="M289,92.7c-0.1,0-0.2,0.2-0.1,0.3l0,0c0,0.1,0.1,0.1,0.2,0.1c0,0,0.1,0,0.1,0
			c0.1,0,0.2-0.2,0.1-0.3l0,0C289.3,92.7,289.1,92.6,289,92.7z"/>
		<path id="XMLID_48_" class="st1" d="M288.8,88.3c0,0.1,0.1,0.1,0.2,0.1c0,0,0.1,0,0.1,0c0.1,0,0.2-0.2,0.1-0.3l-0.1-0.2
			c0-0.1-0.2-0.2-0.3-0.1c-0.1,0-0.2,0.2-0.1,0.3L288.8,88.3z"/>
		<path id="XMLID_47_" class="st1" d="M286.3,89.5c0.1,0,0.2-0.2,0.1-0.3l-0.1-0.2c0-0.1-0.2-0.2-0.3-0.1c-0.1,0-0.2,0.2-0.1,0.3
			l0.1,0.2C286,89.5,286.1,89.5,286.3,89.5C286.2,89.5,286.2,89.5,286.3,89.5z"/>
		<path id="XMLID_46_" class="st1" d="M288.1,90.4C288.1,90.4,288.2,90.4,288.1,90.4c0.2-0.1,0.2-0.2,0.2-0.3l-0.1-0.2
			c0-0.1-0.2-0.2-0.3-0.1c-0.1,0-0.2,0.2-0.1,0.3l0.1,0.2C287.9,90.4,288,90.4,288.1,90.4z"/>
		<g id="XMLID_42_">
			<path id="XMLID_45_" class="st1" d="M284.4,83.4l-2.1,2.2l0.5,1.4l5.9-2.3l-0.5-1.4l-2.8-0.3l-0.3,0.1c-0.6-0.7-1.5-1.1-2.4-1.1
				c-1.8,0-3.2,1.4-3.2,3.2c0,0-1.7,10.8-1.5,10.8"/>
			<path id="XMLID_44_" class="st1" d="M297.4,97.8c0,2-1.6,3.6-3.6,3.6h-12c-2,0-3.6-1.6-3.6-3.6v-0.6h19.2V97.8z"/>
			<rect id="XMLID_43_" x="278.2" y="95.8" class="st1" width="19.2" height="1.2"/>
		</g>
		<path id="XMLID_41_" class="st1" d="M287.5,93.5c0,0.1,0.1,0.1,0.2,0.1c0,0,0.1,0,0.1,0c0.1,0,0.2-0.2,0.1-0.3l0,0
			c0-0.1-0.2-0.2-0.3-0.1C287.5,93.2,287.4,93.4,287.5,93.5L287.5,93.5z"/>
		<path id="XMLID_40_" class="st1" d="M284.6,89.4c-0.1,0-0.2,0.2-0.1,0.3l0.1,0.2c0,0.1,0.1,0.1,0.2,0.1c0,0,0.1,0,0.1,0
			c0.1,0,0.2-0.2,0.1-0.3l-0.1-0.2C284.9,89.4,284.7,89.3,284.6,89.4z"/>
		<path id="XMLID_39_" class="st1" d="M286.1,94c0,0.1,0.1,0.1,0.2,0.1c0,0,0.1,0,0.1,0c0.1,0,0.2-0.2,0.1-0.3l0,0
			c0-0.1-0.2-0.2-0.3-0.1C286.1,93.8,286,93.9,286.1,94L286.1,94z"/>
		<path id="XMLID_38_" class="st1" d="M284.1,88c-0.1,0-0.2,0.2-0.1,0.3l0.1,0.2c0,0.1,0.1,0.1,0.2,0.1c0,0,0.1,0,0.1,0
			c0.1,0,0.2-0.2,0.1-0.3l-0.1-0.2C284.3,88,284.2,87.9,284.1,88z"/>
		<path id="XMLID_37_" class="st1" d="M286.7,90.9C286.7,90.9,286.8,90.9,286.7,90.9c0.2-0.1,0.2-0.2,0.2-0.3l-0.1-0.2
			c0-0.1-0.2-0.2-0.3-0.1c-0.1,0-0.2,0.2-0.1,0.3l0.1,0.2C286.5,90.9,286.6,90.9,286.7,90.9z"/>
		<path id="XMLID_36_" class="st1" d="M287.7,89c0.1,0,0.2-0.2,0.1-0.3l-0.1-0.2c0-0.1-0.2-0.2-0.3-0.1c-0.1,0-0.2,0.2-0.1,0.3
			l0.1,0.2C287.4,88.9,287.5,89,287.7,89C287.6,89,287.6,89,287.7,89z"/>
		<path id="XMLID_35_" class="st1" d="M287.1,87.5c0.1,0,0.2-0.2,0.1-0.3l-0.1-0.2c0-0.1-0.2-0.2-0.3-0.1c-0.1,0-0.2,0.2-0.1,0.3
			l0.1,0.2C286.9,87.5,287,87.6,287.1,87.5C287.1,87.6,287.1,87.5,287.1,87.5z"/>
		<path id="XMLID_34_" class="st1" d="M287,92.2c0,0.1,0.1,0.1,0.2,0.1c0,0,0.1,0,0.1,0c0.1,0,0.2-0.2,0.1-0.3l-0.1-0.2
			c0-0.1-0.2-0.2-0.3-0.1c-0.1,0-0.2,0.2-0.1,0.3L287,92.2z"/>
	</g>
	<g id="XMLID_25_">
		<path id="XMLID_32_" class="st1" d="M281.5,59.7c0,0-1.7,3.8-0.5,3.9h13.2c0.2,0,0.3-0.1,0.5-0.2l0,0c0.2-0.2,0.2-0.4,0.2-0.6
			c-0.3-1.5-1.7-6.7-7.1-6.7c-1.3,0-2.7,0.5-4.4,1.4"/>
		<path id="XMLID_31_" class="st1" d="M283.2,63.6c-0.9,0-0.7-6.3,4.1-7.5"/>
		<path id="XMLID_30_" class="st1" d="M292,63.6c0.6-0.5,1.5-5.7-4.2-7.5"/>
		<path id="XMLID_29_" class="st1" d="M287.3,63.6v5.8c0,0.4-0.2,0.9-0.6,1.1c-0.4,0.2-0.9,0.2-1.5-0.6"/>
		<line id="XMLID_28_" class="st1" x1="284.2" y1="51.2" x2="281.1" y2="54.3"/>
		<line id="XMLID_27_" class="st1" x1="289.3" y1="51.2" x2="286.2" y2="54.3"/>
		<line id="XMLID_26_" class="st1" x1="294.4" y1="51.2" x2="291.4" y2="54.3"/>
	</g>
</g>
</svg>
