<?xml version="1.0" encoding="utf-8"?>
<!-- Generator: Adobe Illustrator 19.0.0, SVG Export Plug-In . SVG Version: 6.00 Build 0)  -->
<svg version="1.1" id="图层_1" xmlns="http://www.w3.org/2000/svg" xmlns:xlink="http://www.w3.org/1999/xlink" x="0px" y="0px"
	 viewBox="0 0 375 388.3" style="enable-background:new 0 0 375 388.3;" xml:space="preserve">
<style type="text/css">
	.st0{fill:url(#XMLID_2_);stroke:#231815;stroke-width:0.9442;stroke-miterlimit:10;}
	.st1{fill:#FFFFFF;}
	.st2{fill:#9EB2B9;}
	.st3{fill:#DB7C1E;}
	.st4{opacity:0.45;fill:#95A5C3;}
	.st5{opacity:0.4;fill:#837C99;}
	.st6{opacity:0.31;fill:#9EB2B9;}
	.st7{opacity:0.29;fill:#CFE8F3;}
	.st8{fill:none;stroke:#95A5C3;stroke-width:3.4148;stroke-miterlimit:10;}
	.st9{fill:none;stroke:#95A5C3;stroke-width:3.1488;stroke-miterlimit:10;}
	.st10{fill:#5B4235;}
	.st11{fill:#79191D;}
	.st12{fill:none;stroke:#3B182D;stroke-width:2.5611;stroke-miterlimit:10;}
	.st13{fill:none;stroke:url(#XMLID_3_);stroke-width:0.768;stroke-miterlimit:10;}
	.st14{fill:#996CA4;}
	.st15{font-family:'Hind-Bold';}
	.st16{font-size:11.3304px;}
	.st17{fill:none;stroke:#996CA4;stroke-width:1.1152;stroke-miterlimit:10;}
	.st18{fill:#9EB1BA;}
	.st19{font-size:10.3208px;}
	.st20{fill:#FFFFFF;stroke:#231815;stroke-width:0.1648;stroke-miterlimit:10;}
	.st21{fill:#C54087;}
	.st22{fill:#A7619C;}
</style>
<linearGradient id="XMLID_2_" gradientUnits="userSpaceOnUse" x1="97.0917" y1="23.7934" x2="164.468" y2="151.3506">
	<stop  offset="0" style="stop-color:#1A85B8"/>
	<stop  offset="0.5192" style="stop-color:#5C4590"/>
	<stop  offset="0.9889" style="stop-color:#C93983"/>
</linearGradient>
<rect id="XMLID_78_" x="78" y="0.1" class="st0" width="218.3" height="388.3"/>
<path id="XMLID_77_" class="st1" d="M78,41.2c0,0,85,74.9,218.3,0v347.3H78V41.2z"/>
<g id="XMLID_25_">
	<path id="XMLID_76_" class="st2" d="M103.3,213.4C103.3,213.3,103.3,213.3,103.3,213.4l-0.8-0.2l-0.3-0.6c0,0-0.1-0.1-0.1-0.1
		c0,0-0.1,0-0.1,0.1l-0.3,0.6l-0.7,0.1c0,0-0.1,0-0.1,0.1c0,0,0,0.1,0,0.1l0.5,0.5l-0.1,0.7c0,0,0,0.1,0,0.1c0,0,0.1,0,0.1,0
		l0.6-0.3l0.6,0.3c0,0,0,0,0.1,0c0,0,0,0,0.1,0c0,0,0.1-0.1,0-0.1l-0.1-0.7l0.5-0.5C103.3,213.5,103.3,213.4,103.3,213.4z"/>
	<path id="XMLID_75_" class="st2" d="M129.3,201.7l-0.3,2c0,0.1,0,0.3,0.1,0.3c0.1,0.1,0.2,0.1,0.4,0l1.8-0.9l1.8,0.9
		c0.1,0,0.1,0,0.2,0c0.1,0,0.1,0,0.2-0.1c0.1-0.1,0.2-0.2,0.1-0.3l-0.3-2l1.4-1.4c0.1-0.1,0.1-0.2,0.1-0.4c0-0.1-0.1-0.2-0.3-0.2
		l-2-0.3l-0.9-1.8c-0.1-0.1-0.2-0.2-0.3-0.2c-0.1,0-0.3,0.1-0.3,0.2l-0.9,1.8l-2,0.3c-0.1,0-0.2,0.1-0.3,0.2c0,0.1,0,0.3,0.1,0.4
		L129.3,201.7z"/>
	<path id="XMLID_74_" class="st2" d="M143.7,162.4c-0.1,0-0.2,0.1-0.2,0.1l-0.6,1.3l-1.4,0.2c-0.1,0-0.2,0.1-0.2,0.2
		c0,0.1,0,0.2,0.1,0.3l1,1l-0.3,1.4c0,0.1,0,0.2,0.1,0.2c0.1,0.1,0.2,0.1,0.3,0l1.3-0.7l1.3,0.7c0,0,0.1,0,0.1,0c0.1,0,0.1,0,0.1,0
		c0.1-0.1,0.1-0.2,0.1-0.2l-0.3-1.4l1-1c0.1-0.1,0.1-0.2,0.1-0.3c0-0.1-0.1-0.2-0.2-0.2l-1.4-0.2l-0.6-1.3
		C143.9,162.4,143.8,162.4,143.7,162.4z"/>
	<path id="XMLID_73_" class="st2" d="M172.1,145.3c-0.1,0-0.2,0.1-0.2,0.1l-0.6,1.3l-1.4,0.2c-0.1,0-0.2,0.1-0.2,0.2s0,0.2,0.1,0.3
		l1,1l-0.3,1.4c0,0.1,0,0.2,0.1,0.2c0.1,0.1,0.2,0.1,0.3,0l1.3-0.7l1.3,0.7c0,0,0.1,0,0.1,0c0.1,0,0.1,0,0.1,0
		c0.1-0.1,0.1-0.2,0.1-0.2l-0.3-1.4l1-1c0.1-0.1,0.1-0.2,0.1-0.3c0-0.1-0.1-0.2-0.2-0.2l-1.4-0.2l-0.6-1.3
		C172.3,145.3,172.2,145.3,172.1,145.3z"/>
	<path id="XMLID_72_" class="st2" d="M100.7,167.9c0.9-2.6,2.6-4.6,4.8-5.9c-4.3,0.2-8.3,3-9.8,7.4c-1.9,5.7,1.1,11.9,6.8,13.8
		c3.1,1.1,6.4,0.6,9.1-0.9c-1.3,0.1-2.7-0.1-4-0.6C101.8,179.8,98.8,173.6,100.7,167.9z"/>
	<polygon id="XMLID_71_" class="st2" points="240.6,193.2 241.5,192.8 242.4,193.2 242.2,192.2 242.9,191.5 242,191.3 241.5,190.5 
		241,191.3 240.1,191.5 240.7,192.2 	"/>
	<polygon id="XMLID_70_" class="st2" points="196.1,170 193.4,169.5 192.1,167.1 190.7,169.5 188.1,170 189.9,172 189.6,174.7 
		192.1,173.6 194.6,174.7 194.3,172 	"/>
	<polygon id="XMLID_69_" class="st2" points="232.6,165.2 235.2,166.4 234.9,163.5 236.8,161.4 234,160.8 232.6,158.4 231.2,160.8 
		228.4,161.4 230.3,163.5 230,166.4 	"/>
	<polygon id="XMLID_68_" class="st2" points="222.6,219.9 223.4,219.5 224.3,219.9 224.2,218.9 224.8,218.2 223.9,218 223.4,217.2 
		223,218 222,218.2 222.7,218.9 	"/>
	<polygon id="XMLID_67_" class="st2" points="266,203.6 268.6,204.8 268.3,201.9 270.2,199.8 267.4,199.2 266,196.8 264.6,199.2 
		261.8,199.8 263.7,201.9 263.4,204.8 	"/>
	<circle id="XMLID_66_" class="st3" cx="181.9" cy="202.9" r="12.2"/>
	<circle id="XMLID_65_" class="st4" cx="182.3" cy="202.9" r="24.3"/>
	<circle id="XMLID_64_" class="st5" cx="182.3" cy="202.9" r="40.2"/>
	<circle id="XMLID_63_" class="st6" cx="181.9" cy="202.9" r="60.7"/>
	<circle id="XMLID_62_" class="st7" cx="182.3" cy="202.9" r="92.6"/>
	<path id="XMLID_61_" class="st8" d="M213,228.2c0,0,4.7,0.2,4.6-2.9c0,0,1-4.3-4.6-4.2"/>
	<path id="XMLID_60_" class="st8" d="M222,228.5c0,0,4.7,0.2,4.6-2.9c0,0,1-4.3-4.6-4.2"/>
	<path id="XMLID_59_" class="st8" d="M230.3,228.2c0,0,4.7,0.2,4.6-2.9c0,0,1-4.3-4.6-4.2"/>
	<path id="XMLID_58_" class="st9" d="M237.7,228.5h5.8c1.8,0,3.4-0.9,4.1-2.3c0.2-0.4,0.3-0.9,0.3-1.5c0,0,0,0,0-0.1
		c0-4.2-4.8-3.2-4.8-3.2"/>
	<line id="XMLID_57_" class="st8" x1="190.6" y1="240" x2="230.3" y2="240"/>
	<line id="XMLID_56_" class="st8" x1="242.8" y1="239.3" x2="252.5" y2="239.3"/>
	<line id="XMLID_55_" class="st8" x1="201.5" y1="250.4" x2="221" y2="250.4"/>
	<line id="XMLID_54_" class="st8" x1="228.6" y1="250.4" x2="233.7" y2="250.4"/>
	<path id="XMLID_53_" class="st9" d="M185.8,228.2h19.5c1.8,0,3.4-0.9,4.1-2.3c0.2-0.4,0.3-0.9,0.3-1.5c0,0,0,0,0-0.1
		c0-4.2-4.8-3.2-4.8-3.2"/>
	<polygon id="XMLID_52_" class="st1" points="173.4,197 170.7,255.3 193.8,255.3 189.7,197 	"/>
	<polygon id="XMLID_51_" class="st10" points="181.7,186.1 170.1,197 192.8,197 	"/>
	<circle id="XMLID_50_" class="st3" cx="182" cy="202.9" r="3.9"/>
	<polygon id="XMLID_49_" class="st11" points="171.7,232.5 190.4,214.3 191.5,230.6 171,246.6 	"/>
	<polygon id="XMLID_48_" class="st11" points="192.5,242.6 179.2,255.3 192.5,255.3 	"/>
	<polyline id="XMLID_47_" class="st12" points="170.8,243.1 170.1,255.3 193.2,255.3 189.6,211.4 172.5,211.4 171.8,227.6 	"/>
	<line id="XMLID_46_" class="st12" x1="169.6" y1="210.5" x2="193.7" y2="210.5"/>
</g>
<linearGradient id="XMLID_3_" gradientUnits="userSpaceOnUse" x1="125.2524" y1="147.9712" x2="196.1604" y2="282.2146">
	<stop  offset="0" style="stop-color:#1A85B8"/>
	<stop  offset="0.5192" style="stop-color:#5C4590"/>
	<stop  offset="0.9889" style="stop-color:#C93983"/>
</linearGradient>
<polygon id="XMLID_44_" class="st13" points="179.6,120 217.2,185.2 254.9,250.5 179.6,250.5 104.3,250.5 141.9,185.2 "/>
<text id="XMLID_43_" transform="matrix(1 0 0 1 150.6696 105.074)" class="st14 st15 st16">Whispering</text>
<circle id="XMLID_42_" class="st17" cx="182.3" cy="202.9" r="70.9"/>
<circle id="XMLID_41_" class="st14" cx="179.6" cy="120" r="4.9"/>
<text id="XMLID_40_" transform="matrix(1 0 0 1 161.5592 314.0505)" class="st18 st15 st19">00:40</text>
<g id="XMLID_37_">
	<rect id="XMLID_39_" x="194.1" y="347.8" class="st14" width="6" height="20.4"/>
	<rect id="XMLID_38_" x="205.8" y="347.9" class="st14" width="6" height="20.4"/>
</g>
<g id="XMLID_26_">
	<rect id="XMLID_36_" x="245.7" y="347.2" class="st14" width="21.7" height="21.7"/>
	<polygon id="XMLID_35_" class="st20" points="245.7,347.3 267.5,347.3 256.2,358.6 	"/>
</g>
<g id="XMLID_31_">
	<text id="XMLID_15_" transform="matrix(1 0 0 1 149.4567 334.5564)" class="st21 st15 st19">Meditation</text>
</g>
<ellipse id="XMLID_30_" class="st22" cx="195.1" cy="297.3" rx="7.5" ry="7.2"/>
</svg>
