<?xml version="1.0" encoding="utf-8"?>
<!-- Generator: Adobe Illustrator 19.0.0, SVG Export Plug-In . SVG Version: 6.00 Build 0)  -->
<svg version="1.1" id="图层_1" xmlns="http://www.w3.org/2000/svg" xmlns:xlink="http://www.w3.org/1999/xlink" x="0px" y="0px"
	 viewBox="0 0 45 34" style="enable-background:new 0 0 45 34;" xml:space="preserve">
<style type="text/css">
	.st0{fill:none;stroke:#4C82C3;stroke-width:2.38;stroke-miterlimit:10;}
</style>
<g id="XMLID_21_">
	<path id="XMLID_26_" class="st0" d="M2.1,6.1c0,0,3.8-8.2,7.6-0.3C9.8,6,9.9,6.1,9.9,6.3c0.5,1.2,3.8,8.1,7.8-0.2c4.4-9,8,0,8,0
		s3.9,9.3,7.9,0s7.9,0.1,7.9,0.1"/>
	<g id="XMLID_24_">
		<path id="XMLID_25_" class="st0" d="M3.8,28.6c0,0,3.8-8.2,7.6-0.3c0.1,0.1,0.1,0.3,0.2,0.4c0.5,1.2,3.8,8.1,7.8-0.2
			c4.4-9,8,0,8,0s3.9,9.3,7.9,0s7.9,0.1,7.9,0.1"/>
	</g>
	<g id="XMLID_22_">
		<path id="XMLID_23_" class="st0" d="M18.7,16.9c0,0,3.8-8.2,7.6-0.3c0.1,0.1,0.1,0.3,0.2,0.4c0.5,1.2,3.8,8.1,7.8-0.2
			c4.4-9,8,0,8,0"/>
	</g>
</g>
</svg>
