<svg xmlns="http://www.w3.org/2000/svg" viewBox="0 0 305.69 244"><defs><style>.cls-1{fill:#ff9ffe;}.cls-2{fill:none;stroke:#418fff;stroke-miterlimit:10;stroke-width:10px;}</style></defs><title>s2_2</title><g id="图层_31" data-name="图层 31"><circle id="element_circle" class="cls-1" cx="131.72" cy="90.13" r="47.44" transform="translate(-20.78 137.21) rotate(-51.54)"/><path class="cls-2" d="M74,114.19s33.76-17.12,25.82,19.14c-.14.64-.31,1.27-.48,1.91-1.45,5.29-8.73,36.44,26.07,19.79,38-18.15,26.46,21,26.46,21s-11.31,40.79,25.86,20.54,25.7,20.74,25.7,20.74"/><path class="cls-2" d="M155.41,70.71s33.76-17.12,25.82,19.14c-.14.64-.31,1.27-.48,1.91C179.3,97,172,128.19,206.82,111.54c38-18.15,26.46,21,26.46,21"/></g></svg>