<svg xmlns="http://www.w3.org/2000/svg" xmlns:xlink="http://www.w3.org/1999/xlink" viewBox="0 0 437.01 552.94"><defs><style>.cls-1,.cls-4{fill:none;}.cls-2{fill:#fc6;}.cls-3{clip-path:url(#clip-path);}.cls-4{stroke:#4b81c2;stroke-miterlimit:10;stroke-width:8px;}</style><clipPath id="clip-path"><circle class="cls-1" cx="209.95" cy="241.58" r="161.16" transform="translate(-63.13 408.51) rotate(-80.44)"/></clipPath></defs><title>s1_y</title><g id="图层_20" data-name="图层 20"><ellipse id="_椭圆_bg" data-name="&lt;椭圆&gt;bg" class="cls-2" cx="210.38" cy="422.84" rx="90.6" ry="90.64"/><g class="cls-3"><path class="cls-4" d="M92.48,365.83s-9-41.13,27.8-22.48c.65.33,1.29.68,1.92,1,5.29,3,36.81,19.55,28.58-22.57-9-45.93,30-22.64,30-22.64s40.78,23.54,29.32-22.13,29.49-21.9,29.49-21.9,42.66,27.66,30.34-22.9,29.87-20.38,29.87-20.38,39.25,26,30-22.64,30.5-21.52,30.5-21.52,35.94,26.69,28.93-21,30.35-25.31,30.35-25.31"/><path class="cls-4" d="M123.58,407s-9-41.13,27.8-22.48c.65.33,1.29.68,1.92,1,5.29,3,36.81,19.55,28.58-22.57-9-45.93,30-22.64,30-22.64s40.78,23.54,29.32-22.13,29.49-21.9,29.49-21.9S313.34,324,301,273.46s29.87-20.38,29.87-20.38,39.25,26,30-22.64,30.5-21.52,30.5-21.52,35.94,26.69,28.93-21,30.35-25.31,30.35-25.31"/><path class="cls-4" d="M154.67,448.23s-9-41.13,27.8-22.48c.65.33,1.29.68,1.92,1,5.29,3,36.81,19.55,28.58-22.57-9-45.93,30-22.64,30-22.64s40.78,23.54,29.32-22.13,29.49-21.9,29.49-21.9,42.66,27.66,30.34-22.9S362,294.27,362,294.27s39.25,26,30-22.64,30.5-21.52,30.5-21.52,35.94,26.69,28.93-21,30.35-25.31,30.35-25.31"/><path class="cls-4" d="M185.76,489.42s-9-41.13,27.8-22.48c.65.33,1.29.68,1.92,1,5.29,3,36.81,19.55,28.58-22.57-9-45.93,30-22.64,30-22.64s40.78,23.54,29.32-22.13,29.49-21.9,29.49-21.9,42.66,27.66,30.34-22.9,29.87-20.38,29.87-20.38,39.25,26,30-22.64,30.5-21.52,30.5-21.52,35.94,26.69,28.93-21S512.86,245,512.86,245"/><path class="cls-4" d="M-32.41,202.17s-9-41.13,27.8-22.48c.65.33,1.29.68,1.92,1,5.29,3,36.81,19.55,28.58-22.57-9-45.93,30-22.64,30-22.64s40.78,23.54,29.32-22.13S114.7,91.5,114.7,91.5,157.36,119.16,145,68.6s29.87-20.38,29.87-20.38,39.25,26,30-22.64,30.5-21.52,30.5-21.52,35.94,26.69,28.93-21,30.35-25.31,30.35-25.31"/><path class="cls-4" d="M-1.31,243.37s-9-41.13,27.8-22.48c.65.33,1.29.68,1.92,1,5.29,3,36.81,19.55,28.58-22.57-9-45.93,30-22.64,30-22.64s40.78,23.54,29.32-22.13,29.49-21.9,29.49-21.9,42.66,27.66,30.34-22.9S206,89.42,206,89.42s39.25,26,30-22.64,30.5-21.52,30.5-21.52,35.94,26.69,28.93-21S325.79-1,325.79-1"/><path class="cls-4" d="M29.78,284.57s-9-41.13,27.8-22.48c.65.33,1.29.68,1.92,1,5.29,3,36.81,19.55,28.58-22.57-9-45.93,30-22.64,30-22.64s40.78,23.54,29.32-22.13,29.49-21.9,29.49-21.9,42.66,27.66,30.34-22.9,29.87-20.38,29.87-20.38,39.25,26,30-22.64,30.5-21.52,30.5-21.52,35.94,26.69,28.93-21,30.35-25.31,30.35-25.31"/><path class="cls-4" d="M60.87,325.76s-9-41.13,27.8-22.48c.65.33,1.29.68,1.92,1,5.29,3,36.81,19.55,28.58-22.57-9-45.93,30-22.64,30-22.64s40.78,23.54,29.32-22.13S208,215.09,208,215.09s42.66,27.66,30.34-22.9,29.87-20.38,29.87-20.38,39.25,26,30-22.64,30.5-21.52,30.5-21.52,35.94,26.69,28.93-21S388,81.36,388,81.36"/></g></g></svg>